<svg id="about_background" xmlns="http://www.w3.org/2000/svg" xmlns:xlink="http://www.w3.org/1999/xlink" width="914.713" height="601.8" viewBox="0 0 914.713 601.8">
  <defs>
    <style>
      .cls-1, .cls-6, .cls-7 {
        fill: none;
      }

      .cls-1 {
        stroke: #fff;
      }

      .cls-1, .cls-6, .cls-7, .cls-9 {
        stroke-miterlimit: 10;
        stroke-width: 2px;
      }

      .cls-2 {
        fill: #2f2e41;
      }

      .cls-3 {
        fill: #fff;
      }

      .cls-4, .cls-9 {
        fill: #3f3d56;
      }

      .cls-5 {
        fill: #9ebb93;
      }

      .cls-6 {
        stroke: #f6f6f6;
      }

      .cls-7, .cls-9 {
        stroke: #3f3d56;
      }

      .cls-8 {
        fill: #ff6584;
      }

      .cls-10 {
        filter: url(#Path_204);
      }
    </style>
    <filter id="Path_204" x="565.19" y="169.989" width="349.523" height="430.629" filterUnits="userSpaceOnUse">
      <feOffset dy="10" input="SourceAlpha"/>
      <feGaussianBlur stdDeviation="3" result="blur"/>
      <feFlood flood-opacity="0.161"/>
      <feComposite operator="in" in2="blur"/>
      <feComposite in="SourceGraphic"/>
    </filter>
  </defs>
  <line id="Line_21" data-name="Line 21" class="cls-1" x2="116.875" transform="translate(316.501 184.525)"/>
  <path id="Path_226" data-name="Path 226" class="cls-2" d="M28.973,1.089C44.988,1.735,58.136,6.7,58.339,12.183s-12.616,9.4-28.632,8.754S.544,15.324.341,9.843,12.957.443,28.973,1.089Z" transform="matrix(0.357, -0.934, 0.934, 0.357, 147.101, 319.676)"/>
  <g class="cls-10" transform="matrix(1, 0, 0, 1, 0, 0)">
    <path id="Path_204-2" data-name="Path 204" class="cls-3" d="M1077.3,467.034c12.715,84.274-4.6,168.639-92.663,201.49S795.278,664.429,758.391,586s50.146-125.356,92.663-201.49C937.393,229.9,1037.815,205.325,1077.3,467.034Z" transform="translate(-175.3 -98.9)"/>
  </g>
  <ellipse id="Ellipse_19" data-name="Ellipse 19" class="cls-4" cx="137.977" cy="16.717" rx="137.977" ry="16.717" transform="translate(605.477 557.523)"/>
  <path id="Path_227" data-name="Path 227" class="cls-2" d="M.061.036l17.5-.547-.981,34.629-17.5.547Z" transform="translate(658.358 548.483) rotate(-105.453)"/>
  <path id="Path_228" data-name="Path 228" class="cls-2" d="M6.008.159c3.336.094,6.244,6.7,6.5,14.754S10.256,29.419,6.921,29.325s-6.244-6.7-6.5-14.754S2.673.065,6.008.159Z" transform="translate(641.027 524.947) rotate(-15.453)"/>
  <path id="Path_842" data-name="Path 842" class="cls-2" d="M28.624.435c15.808.24,28.685,4.946,28.762,10.511S44.708,20.828,28.9,20.588.214,15.642.138,10.077,12.815.195,28.624.435Z" transform="translate(735.114 500.07) rotate(-82.281)"/>
  <ellipse id="Ellipse_22" data-name="Ellipse 22" class="cls-2" cx="64.119" cy="57.103" rx="64.119" ry="57.103" transform="translate(678.999 469.331)"/>
  <path id="Path_229" data-name="Path 229" class="cls-2" d="M.061.036l17.5-.547-.981,34.629-17.5.547Z" transform="translate(658.358 538.363) rotate(-105.453)"/>
  <path id="Path_230" data-name="Path 230" class="cls-2" d="M6.008.159c3.336.094,6.244,6.7,6.5,14.754S10.256,29.419,6.921,29.325s-6.244-6.7-6.5-14.754S2.673.065,6.008.159Z" transform="translate(641.027 514.828) rotate(-15.453)"/>
  <ellipse id="Ellipse_24" data-name="Ellipse 24" class="cls-3" cx="21.914" cy="19.516" rx="21.914" ry="19.516" transform="translate(738.04 474.206)"/>
  <ellipse id="Ellipse_25" data-name="Ellipse 25" class="cls-4" cx="7.305" cy="6.505" rx="7.305" ry="6.505" transform="translate(759.657 478.596)"/>
  <path id="Path_205" data-name="Path 205" class="cls-5" d="M1041.638,783.9c23.728-1.058,41.9-20.823,40.589-44.148s-21.608-41.375-45.336-40.318-27.451,17.646-26.14,40.97S1017.906,784.958,1041.638,783.9Z" transform="translate(-224.474 -218.224)"/>
  <path id="Path_206" data-name="Path 206" class="cls-3" d="M921.677,718.631c-8.042.58-15.089-4.757-15.74-11.919s5.341-13.438,13.383-14.018,10.236,5.106,10.886,12.269S929.719,718.051,921.677,718.631Z" transform="translate(-204.764 -216.357)"/>
  <path id="Path_207" data-name="Path 207" class="cls-6" d="M49.464,347.96H408.605l55.68,24.158L553,410.61l58.006-96.723H775.152" transform="translate(-9.317 -87.001)"/>
  <ellipse id="Ellipse_26" data-name="Ellipse 26" class="cls-5" cx="11.108" cy="9.892" rx="11.108" ry="9.892" transform="translate(169.733 261.186)"/>
  <ellipse id="Ellipse_27" data-name="Ellipse 27" class="cls-5" cx="11.108" cy="9.892" rx="11.108" ry="9.892" transform="translate(273.403 251.067)"/>
  <ellipse id="Ellipse_28" data-name="Ellipse 28" class="cls-5" cx="11.108" cy="9.892" rx="11.108" ry="9.892" transform="translate(443.718 275.247)"/>
  <ellipse id="Ellipse_29" data-name="Ellipse 29" class="cls-5" cx="11.108" cy="9.892" rx="11.108" ry="9.892" transform="translate(683.145 216.994)"/>
  <ellipse id="Ellipse_30" data-name="Ellipse 30" class="cls-5" cx="11.108" cy="9.892" rx="11.108" ry="9.892" transform="translate(567.134 255.464)"/>
  <ellipse id="Ellipse_31" data-name="Ellipse 31" class="cls-1" cx="11.976" cy="10.666" rx="11.976" ry="10.666" transform="translate(335.058 409.616)"/>
  <ellipse id="Ellipse_32" data-name="Ellipse 32" class="cls-4" cx="137.977" cy="16.717" rx="137.977" ry="16.717" transform="translate(0 568.366)"/>
  <ellipse id="Ellipse_33" data-name="Ellipse 33" class="cls-2" cx="64.119" cy="57.103" rx="64.119" ry="57.103" transform="translate(66.396 446.3)"/>
  <rect id="Rectangle_73" data-name="Rectangle 73" class="cls-2" width="19.479" height="31.082" transform="translate(101.296 548.219)"/>
  <rect id="Rectangle_74" data-name="Rectangle 74" class="cls-2" width="19.479" height="31.082" transform="translate(140.254 548.219)"/>
  <ellipse id="Ellipse_34" data-name="Ellipse 34" class="cls-2" cx="16.233" cy="5.421" rx="16.233" ry="5.421" transform="translate(101.296 574.24)"/>
  <ellipse id="Ellipse_35" data-name="Ellipse 35" class="cls-2" cx="16.233" cy="5.421" rx="16.233" ry="5.421" transform="translate(140.254 573.518)"/>
  <ellipse id="Ellipse_36" data-name="Ellipse 36" class="cls-3" cx="21.914" cy="19.516" rx="21.914" ry="19.516" transform="translate(110.224 469.43)"/>
  <ellipse id="Ellipse_37" data-name="Ellipse 37" class="cls-4" cx="7.305" cy="6.505" rx="7.305" ry="6.505" transform="translate(124.833 482.441)"/>
  <path id="Path_208" data-name="Path 208" class="cls-5" d="M126,638.384c-5.177-20.65,11.372-41.515,36.965-46.6s50.536,7.525,55.714,28.174S206.89,648.219,181.3,653.308,131.172,659.033,126,638.384Z" transform="translate(-57.678 -188.085)"/>
  <ellipse id="Ellipse_38" data-name="Ellipse 38" class="cls-2" cx="64.119" cy="57.103" rx="64.119" ry="57.103" transform="translate(44.481 282.218)"/>
  <rect id="Rectangle_75" data-name="Rectangle 75" class="cls-2" width="19.479" height="31.082" transform="translate(79.381 384.137)"/>
  <rect id="Rectangle_76" data-name="Rectangle 76" class="cls-2" width="19.479" height="31.082" transform="translate(118.34 384.137)"/>
  <ellipse id="Ellipse_39" data-name="Ellipse 39" class="cls-2" cx="16.233" cy="5.421" rx="16.233" ry="5.421" transform="translate(79.382 410.158)"/>
  <ellipse id="Ellipse_40" data-name="Ellipse 40" class="cls-2" cx="16.233" cy="5.421" rx="16.233" ry="5.421" transform="translate(118.34 409.436)"/>
  <ellipse id="Ellipse_41" data-name="Ellipse 41" class="cls-3" cx="21.914" cy="19.516" rx="21.914" ry="19.516" transform="translate(88.31 305.348)"/>
  <ellipse id="Ellipse_42" data-name="Ellipse 42" class="cls-4" cx="7.305" cy="6.505" rx="7.305" ry="6.505" transform="translate(102.919 318.359)"/>
  <path id="Path_209" data-name="Path 209" class="cls-5" d="M98.995,411.384c-5.177-20.649,11.372-41.515,36.965-46.6s50.536,7.525,55.714,28.174S179.89,421.219,154.3,426.308,104.172,432.033,98.995,411.384Z" transform="translate(-52.592 -125.167)"/>
  <path id="Path_225" data-name="Path 225" class="cls-2" d="M9.078.394C14.14.629,18.852,14.885,19.6,32.235S16.857,63.46,11.795,63.224,2.021,48.733,1.271,31.383,4.016.158,9.078.394Z" transform="translate(3.169 308.624) rotate(-64.626)"/>
  <path id="Path_210" data-name="Path 210" class="cls-3" d="M137.043,529c0,5.589,16.158,16.625,34.089,16.625s34.742-15.734,34.742-21.323-16.811,1.084-34.742,1.084S137.043,523.409,137.043,529Z" transform="translate(-59.938 -169.075)"/>
  <rect id="Rectangle_77" data-name="Rectangle 77" class="cls-5" width="102.37" height="46.378" transform="translate(678.097 408.188)"/>
  <rect id="Rectangle_78" data-name="Rectangle 78" class="cls-7" width="102.37" height="46.378" transform="translate(670.086 415.719)"/>
  <rect id="Rectangle_79" data-name="Rectangle 79" class="cls-8" width="29.219" height="26.022" transform="translate(183.918 143.843)"/>
  <rect id="Rectangle_80" data-name="Rectangle 80" class="cls-1" width="29.219" height="26.022" transform="translate(176.614 135.169)"/>
  <ellipse id="Ellipse_44" data-name="Ellipse 44" class="cls-2" cx="64.119" cy="57.103" rx="64.119" ry="57.103" transform="translate(671.262 79.851)"/>
  <path id="Path_840" data-name="Path 840" class="cls-2" d="M0,0,19.457.351l.623,31.225L.623,31.225Z" transform="translate(779.311 206.998) rotate(169.739)"/>
  <path id="Path_841" data-name="Path 841" class="cls-2" d="M0,0,19.457.351l.623,31.225L.623,31.225Z" transform="translate(740.976 213.179) rotate(169.739)"/>
  <path id="Path_223" data-name="Path 223" class="cls-2" d="M15.466.818C24.021,1.3,31.1,4.246,31.285,7.393S24.678,12.7,16.123,12.217.485,8.789.3,5.641,6.911.334,15.466.818Z" transform="matrix(0.763, -0.646, 0.646, 0.763, 711.788, 223.807)"/>
  <path id="Path_224" data-name="Path 224" class="cls-2" d="M15.466.818C24.021,1.3,31.1,4.246,31.285,7.393S24.678,12.7,16.123,12.217.485,8.789.3,5.641,6.911.334,15.466.818Z" transform="matrix(0.763, -0.646, 0.646, 0.763, 749.325, 217.756)"/>
  <ellipse id="Ellipse_47" data-name="Ellipse 47" class="cls-3" cx="21.914" cy="19.516" rx="21.914" ry="19.516" transform="translate(708.977 103.47)"/>
  <ellipse id="Ellipse_48" data-name="Ellipse 48" class="cls-4" cx="7.305" cy="6.505" rx="7.305" ry="6.505" transform="translate(714.58 109.485)"/>
  <path id="Path_211" data-name="Path 211" class="cls-5" d="M988.391,121.894c.964-21.141-19.494-39.047-45.7-39.995s-48.223,15.422-49.187,36.562,17.249,25.944,43.45,26.892S987.425,143.034,988.391,121.894Z" transform="translate(-202.425 -47.062)"/>
  <path id="Path_231" data-name="Path 231" class="cls-2" d="M8.97.222c4.981.132,9.36,14.515,9.782,32.124S15.479,64.123,10.5,63.991,1.138,49.476.716,31.867,3.99.09,8.97.222Z" transform="matrix(0.223, -0.975, 0.975, 0.223, 642.705, 128.866)"/>
  <path id="Path_232" data-name="Path 232" class="cls-2" d="M8.97.222c4.981.132,9.36,14.515,9.782,32.124S15.479,64.123,10.5,63.991,1.138,49.476.716,31.867,3.99.09,8.97.222Z" transform="matrix(0.223, -0.975, 0.975, 0.223, 768.566, 147.51)"/>
  <path id="Path_212" data-name="Path 212" class="cls-3" d="M963.072,251.72c1.437,7.071-3.834,13.84-11.773,15.12s-15.541-3.414-16.978-10.485,4.7-9.573,12.641-10.853S961.634,244.649,963.072,251.72Z" transform="translate(-210.08 -92.262)"/>
  <line id="Line_22" data-name="Line 22" class="cls-7" x2="73.858" y2="50.598" transform="translate(578.371 71.56)"/>
  <ellipse id="Ellipse_51" data-name="Ellipse 51" class="cls-8" cx="55.191" cy="49.152" rx="55.191" ry="49.152" transform="translate(488.28)"/>
  <path id="Path_843" data-name="Path 843" class="cls-2" d="M28.624.435c15.808.24,28.685,4.946,28.762,10.511S44.708,20.828,28.9,20.588.214,15.642.138,10.077,12.815.195,28.624.435Z" transform="translate(711.047 513.638) rotate(-82.281)"/>
  <ellipse id="Ellipse_53" data-name="Ellipse 53" class="cls-5" cx="11.108" cy="9.892" rx="11.108" ry="9.892" transform="translate(44.742 558.268)"/>
  <rect id="Rectangle_83" data-name="Rectangle 83" class="cls-8" width="29.219" height="26.022" transform="translate(208.267 556.577)"/>
  <ellipse id="Ellipse_54" data-name="Ellipse 54" class="cls-5" cx="11.108" cy="9.892" rx="11.108" ry="9.892" transform="translate(197.328 564.051)"/>
  <ellipse id="Ellipse_55" data-name="Ellipse 55" class="cls-5" cx="11.108" cy="9.892" rx="11.108" ry="9.892" transform="translate(363.831 174.447)"/>
  <ellipse id="Ellipse_56" data-name="Ellipse 56" class="cls-8" cx="5.304" cy="4.724" rx="5.304" ry="4.724" transform="translate(585.337 486.258)"/>
  <line id="Line_23" data-name="Line 23" class="cls-9" y1="53.787" transform="translate(616.628 515.602)"/>
  <ellipse id="Ellipse_57" data-name="Ellipse 57" class="cls-4" cx="8.541" cy="7.606" rx="8.541" ry="7.606" transform="translate(608.088 507.996)"/>
  <path id="Path_213" data-name="Path 213" class="cls-4" d="M795.694,784.889s-1.22-23.37-26.232-20.654" transform="translate(-179.066 -236.136)"/>
</svg>
