<svg xmlns="http://www.w3.org/2000/svg" width="261.007" height="121.422" viewBox="0 0 261.007 121.422">
  <defs>
    <style type="text/css">
            @import url(https://fonts.googleapis.com/css?family=Roboto:400,400i,500,700,700i);

      .cls-1, .cls-3 {
        fill: #31543e;
      }

      .cls-2 {
        fill: #9FBC95;
      }

      .cls-3 {
        font-size: 34px;
        font-family: Roboto, sans-serif;
        font-weight: 500;
      }
    </style>
  </defs>
  <g id="CCSLogo" transform="translate(-6709.993 -610.578)">
    <g id="g873" transform="translate(6213.314 -321.87)">
      <g id="g1508" transform="translate(496.678 932.448)">
        <path id="path1502" class="cls-1" d="M543.729,943.85c1.417.075,2.82.2,4.255.2.391,0,1.267-.189,1.566.159.355.413.106,1.669.151,2.217.192,2.347.071,4.765.071,7.125,0,5.612.062,11.228.085,16.824.014,3.465-.133,6.929,0,10.391.088,2.366,0,4.758,0,7.125,0,.6-.238,2.135.088,2.612.283.415,1.532.34,1.955.358,1.5.067,2.98.673,4.511.691.734.009,1.476.229,2.213.288,2.253.179,4.648.207,6.894.207,1.645,0,3.3.121,4.936.1a13.784,13.784,0,0,1,3.149,0,12.8,12.8,0,0,0,.085-2.969c0-2.138-.077-4.3,0-6.433.339-8.989-.175-18.029.164-27.017.108-2.858,0-5.749,0-8.61,0-.78-.289-2.579.087-3.234.236-.412,1.078-.229,1.445-.229h2.894a1.847,1.847,0,0,0,1.321-.27c.53-.5.424-1.6.345-2.3-.2-1.731-.15-3.5-.216-5.245a5.238,5.238,0,0,0-.314-2.365c-.478-.729-1.467-.505-2.157-.505h-5.7c-6.87,0-13.726-.1-20.6-.1h-5.192c-.537,0-1.555-.167-1.991.291-.382.4-.136,2.108-.136,2.678,0,2.673.085,5.351.085,8.016m41.023,15.933a32.522,32.522,0,0,0,1.005,4.453c1.089,3.979,2.578,8.379,5.208,11.349,1.161,1.311,2.571,2.5,4.255,2.506.634,0,1.443-.03,1.654-.891.238-.979-.723-2.454-1.127-3.266a54.644,54.644,0,0,1-3.42-7.521c1.259,1.5,2.295,3.242,3.66,4.623a11.794,11.794,0,0,0,4.511,2.742c1.1.389,3.673.885,3.722-1.229.026-1.14-1.44-2.234-2.09-2.923-2.112-2.239-4.205-4.523-6.227-6.874,4.06,2.233,7.252,7.152,12.086,7.125a6.727,6.727,0,0,0,4-1.452,1.733,1.733,0,0,0,.653-2.209,3.6,3.6,0,0,0-1.5-1.279c-1-.631-1.981-1.289-2.979-1.919-2.861-1.808-5.656-3.757-8.511-5.58-1.3-.832-3.246-1.629-4.255-2.9a25.055,25.055,0,0,1,5.447,2.678c1.722.96,3.521,1.773,5.192,2.851,2.289,1.477,4.906,3.37,7.66,3.065a11.391,11.391,0,0,0,5.617-1.735c.584-.438,1.558-1.352,1.1-2.3-.277-.575-1.2-.724-1.7-.9-1.588-.574-3.194-1.118-4.766-1.749-4.7-1.887-9.5-3.447-14.213-5.275-1.272-.493-2.558-.928-3.83-1.419a5.607,5.607,0,0,1-1.872-.858c2.958-.009,5.837,1.653,8.681,2.558a48.09,48.09,0,0,0,14.383,2.588c2.771,0,6.971-.16,8.673-3.167.38-.672,1.232-2.5.73-3.255-.514-.777-1.68-.618-2.424-.746-2.184-.376-4.367-.775-6.553-1.132q-9.626-1.573-19.235-3.306c-1.712-.307-3.4-.895-5.107-1.132a17.261,17.261,0,0,0-7.319.554,6.559,6.559,0,0,0-1.787.848,4.541,4.541,0,0,0-2.2,3.518,11.4,11.4,0,0,0,.521,2.672,6.733,6.733,0,0,1-.712,4.75,5.033,5.033,0,0,1-4.253,2.573c-.69,0-2.214-1.061-2.66-.373-.722,1.111.79,3.5,1.455,4.182,1.8,1.849,4.34,1.781,6.482.873.707-.3,1.329-.856,2.043-1.119m-55.236-10.292a46.882,46.882,0,0,1-6.553,2.477c-4.576,1.654-9.156,3.332-13.7,5.093-1.58.612-3.176,1.174-4.766,1.752-.577.21-1.454.373-1.435,1.268a2.571,2.571,0,0,0,1.265,1.834,10.285,10.285,0,0,0,5.277,1.638c2.947.251,5.426-1.377,7.915-2.991,1.75-1.135,3.647-1.965,5.447-2.986,1.652-.937,3.431-2.226,5.277-2.543a27.5,27.5,0,0,1-4.17,2.8c-2.839,1.853-5.686,3.691-8.511,5.571q-1.563,1.04-3.149,2.044a3.305,3.305,0,0,0-1.528,1.363,1.79,1.79,0,0,0,.762,2.141,6.844,6.844,0,0,0,3.915,1.421c4.7.065,8.211-4.717,12.086-7.125-1.873,2.385-4.033,4.537-6.071,6.728-.635.682-2.114,1.786-2.18,2.872-.138,2.293,2.587,1.824,3.74,1.385a12.363,12.363,0,0,0,3.66-1.971c1.731-1.462,2.991-3.54,4.426-5.352a32.365,32.365,0,0,1-2.518,5.641c-.513,1.082-1.005,2.178-1.508,3.266a2.981,2.981,0,0,0-.441,1.978c.221.832,1.221.844,1.829.776a6.619,6.619,0,0,0,4.241-2.754,29.941,29.941,0,0,0,4.666-9.9c.348-1.169.692-2.355.929-3.563a5.19,5.19,0,0,1,.449-1.838c.225-.277.568.051.778.2a7.923,7.923,0,0,0,2.128,1,5.287,5.287,0,0,0,6.655-2.822,4.644,4.644,0,0,0,.481-2.177.647.647,0,0,0-.838-.628,8.59,8.59,0,0,1-1.362.6,4.994,4.994,0,0,1-4.593-2.191,6.4,6.4,0,0,1-1.1-4.016c.209-2.549,1.517-4.815-.78-6.726-2.529-2.1-6.34-2.474-9.362-2.054-1,.14-1.9.561-2.894.749-6.82,1.3-13.674,2.359-20.511,3.535-2.326.4-4.649.836-6.979,1.2-.879.138-2.4.034-3.14.622-.623.5-.253,1.431-.066,2.078a5.218,5.218,0,0,0,3.206,3.692c2.624,1.09,5.529.988,8.256.771a57.559,57.559,0,0,0,12.171-2.431c2.064-.625,4.055-1.659,6.128-2.208.833-.221,1.631-.629,2.468-.219m21.788-5.443c5.192,0,10.384-.3,15.575-.3,1.3,0,2.611.018,3.915,0,.37-.005,1.079-.289,1.4,0,.337.31.136,1.712.136,2.174v6.532c0,8.91-.085,17.816-.085,26.721V986.5c0,.5.226,2.138-.136,2.471-.47.433-2.079.1-2.672.1-2.565,0-5.187.014-7.745-.189-2.5-.2-5.064-.108-7.575-.108-.529,0-2.285.233-2.636-.271s-.088-2.252-.088-2.9V977.4c0-7.644-.085-15.307-.085-22.96,0-2.309.01-4.619,0-6.928a21.077,21.077,0,0,1,0-3.464m13.447,9.2a5.461,5.461,0,0,1-1.872,1.469c-4.052,1.276-4.526-8.23-.426-8a2.4,2.4,0,0,1,1.825,1.382c.213.391.24.925.643,1.089v-3.167c-.29.12-.418.545-.733.59-.4.056-.924-.314-1.309-.428a3.734,3.734,0,0,0-2.3.028c-3.859,1.324-4.132,8.4.17,9.183a4.025,4.025,0,0,0,3.234-.573c.523-.389.954-.81.766-1.575m30.469,1.221c.066,0,.014.049-.028.033l.028-.033m-30.469,14.515c-.686.562-1.184,1.263-2.043,1.483-2.919.746-3.609-3.9-2.734-6.233a2.508,2.508,0,0,1,2.479-1.85,2.6,2.6,0,0,1,1.778,1.356c.234.409.313.935.69,1.188v-3.167c-.289.119-.45.5-.766.544-.393.058-.895-.3-1.276-.408a3.862,3.862,0,0,0-2.213.005c-4,1.311-4.2,8.4.17,9.2a4.068,4.068,0,0,0,3.149-.582,1.432,1.432,0,0,0,.766-1.537m31.15-6.334-.085.1.085-.1m-68.173.495-.085.1.085-.1m30.98,20.288V986.9c.3-.108.529-.433.851-.454.977-.064,1.746.677,2.809.325a2.884,2.884,0,0,0,1.183-4.422c-.769-.963-1.888-1.3-2.8-2.016a1.539,1.539,0,0,1-.742-1.251,1.266,1.266,0,0,1,1.764-.993,3.036,3.036,0,0,1,1.617,2.378h.255l-.085-3.068c-.736.861-1.215.209-2.128.044a2.351,2.351,0,0,0-2.517,1.441,2.877,2.877,0,0,0-.205,1.089c-.052,3.058,3.331,2.479,4.022,4.75a1.377,1.377,0,0,1-1.044,1.65,2,2,0,0,1-1.784-.768c-.513-.576-.636-1.772-1.195-2.168m14.894,23.851a29.887,29.887,0,0,0,.085-5.641c0-.419.174-1.592-.136-1.878s-1.089-.063-1.481-.115a32.147,32.147,0,0,0-4-.386,11.7,11.7,0,0,1-1.277-.284c-1.083-.117-2.238-.147-3.319-.2-2.5-.132-4.945.083-7.4-.528-1.5-.372-3-.807-4.511-1.167-.4-.1-1.092-.614-1.5-.421-.371.173-.2,1.438-.2,1.815v4.75c0,.415-.153,1.381.136,1.685a3.578,3.578,0,0,0,2.075.6c1.4.115,2.837.349,4.257.447,2.3.159,4.611.054,6.894.235,2.687.213,5.334.634,8,.982.791.1,1.589-.007,2.383.112m2.468,1.286.085.1-.085-.1m-26.129,9.6a54.594,54.594,0,0,0,12.681.684c2.331-.219,4.623-.387,6.979-.387a11.666,11.666,0,0,1,4,.4l.085-4.156-.088-1.412-1.1-.51-3.319-.655-12.086.007-5.277-.466-1.785-.145-.088,1.7v4.948m26.724-1.188.085.1-.085-.1m-11.915,6.178c-.847.13-1.708-.041-2.553.075a50.765,50.765,0,0,1-8.426.674c-.9-.025-1.828-.077-2.724-.192-.336-.043-.8-.164-1.019.232a2.638,2.638,0,0,0-.087,1.149c.011,2.625,2.565,2.619,4.255,2.881,4.625.714,9.4-.209,14.043-.209a22.9,22.9,0,0,1,3.745.282c.378.062,1.065.5,1.42.341.247-.11.243-.637.253-.892.024-.654.186-2.645-.316-2.982a8.152,8.152,0,0,0-2.463-.645,15.915,15.915,0,0,0-6.128-.714m-17.958,8.469.085.1-.085-.1m6.979,8.313-.085.2a9.219,9.219,0,0,1,1.787.689,9.827,9.827,0,0,0,2.468.391c3.267.248,6.525-.351,9.788-.185a21.315,21.315,0,0,1,3.4.409c.395.084,1.042.56,1.429.409.555-.217.537-1.943.654-2.5.2-.958.182-1.986.287-2.969.038-.353.22-.842.079-1.179-.346-.829-1.912-1.385-2.62-1.605-3.28-1.021-6.783-.845-10.128-.572a33.692,33.692,0,0,1-4.511.383,37.412,37.412,0,0,1-4.085-.224c-.47-.078-1.7-.578-2.1-.4-.471.21-.287,2.138-.233,2.6.246,2.1,1.934,4.272,3.866,4.552m-2.213,3.959c.825,2.88,2.632,6.14,5.107,7.818a11.259,11.259,0,0,0,3.319,1.385,8.275,8.275,0,0,0,5.7-.2,11.778,11.778,0,0,0,5.107-5.542c.285-.568.519-1.11.766-1.682.056-.132.28-.4.17-.594-.479-.836-1.961-.372-2.724-.594a6.494,6.494,0,0,0-3.83.495c-.306.119-.715-.119-1.021,0a10.345,10.345,0,0,1-3.49.2h-2.724c-.35,0-.92.123-.851-.2a10.188,10.188,0,0,1-3.66-.557c-.542-.171-1.334-.649-1.872-.531Z" transform="translate(-496.889 -932.696)"/>
        <path id="path879" class="cls-2" d="M562.3,1053.61a.286.286,0,0,1,.213,0c.059.027.011.05-.107.05S562.241,1053.637,562.3,1053.61Zm-1.109-.1a.285.285,0,0,1,.213,0c.059.027.011.05-.107.05S561.132,1053.538,561.191,1053.511Zm2-.007a1.633,1.633,0,0,1,.469,0c.129.023.023.041-.235.041S563.067,1053.526,563.2,1053.5Zm-2.517-.094a.286.286,0,0,1,.213,0c.059.027.011.05-.107.05S560.62,1053.438,560.679,1053.41Zm1.685-.038a8.572,8.572,0,0,1-2.474-.322,13.715,13.715,0,0,1-2.851-1.169,1.328,1.328,0,0,0-.5-.24,3.348,3.348,0,0,0,.761.5c.441.249.706.422.589.385a5.6,5.6,0,0,1-1.837-1.212c.058-.068-.124-.317-.232-.317-.047,0-.033.077.032.17.287.418-1.032-.889-1.559-1.546-.615-.765-1.039-1.395-.846-1.256.078.056.1.038.07-.056-.024-.076-.085-.127-.136-.114a4.707,4.707,0,0,1-.856-1.337c-.208-.457-.027-.2.368.526a2.811,2.811,0,0,0,.45.7c.023-.027-.053-.2-.169-.377s-.315-.541-.443-.8-.268-.446-.31-.416a12.656,12.656,0,0,1-1.07-2.4,1.731,1.731,0,0,0-.682-.761,13.031,13.031,0,0,1-2.262-2.466,13.726,13.726,0,0,1-1.459-3.247,27.06,27.06,0,0,1-.81-5.28c-.041-1.377-.012-1.4.93-.738a7.182,7.182,0,0,1,.682.575,7.932,7.932,0,0,0,1.768,1.18c.053,0,.1-.1.1-.233,0-.179-.084-.275-.363-.416a8.469,8.469,0,0,1-2.042-1.608,8.347,8.347,0,0,1-1.764-3.344,29.394,29.394,0,0,1-.377-4.089c.056-.62.139-.647.839-.275a4.466,4.466,0,0,0,.7.307,9.436,9.436,0,0,1,2.193,1,2.226,2.226,0,0,0,.789.383c.071-.031.112-.226.112-.533,0-.6-.172-.811-.654-.811a8.265,8.265,0,0,1-2.845-.944,8.506,8.506,0,0,1-2.546-3.19,8.711,8.711,0,0,1-.533-4.985,10.1,10.1,0,0,1,.975-2.627c.15-.274.314-.585.365-.691a1.483,1.483,0,0,1,.313-.384l.221-.192,1.351.6c.743.329,1.447.62,1.564.646a3.6,3.6,0,0,1,1.407.566c.245.268.283.253.323-.123.019-.177.034.235.034.917s-.016,1.072-.034.867-.067-.372-.108-.372a16.11,16.11,0,0,0-1.28,2.57c0,.554,1.345,1.7,1.371,1.172,0-.068.038-.034.078.074a24.769,24.769,0,0,0,.1-3c.016-1.758.018-3.2,0-3.2a.717.717,0,0,0-.1.223c-.057.165-.079.179-.083.054-.006-.172-.345-.323-1.072-.479a9.9,9.9,0,0,1-1.109-.376c-.422-.167-1.113-.426-1.536-.577a18.843,18.843,0,0,1-3.485-2.007,5.887,5.887,0,0,1-1.531-2.133,10.832,10.832,0,0,1-.323-5.923,10.649,10.649,0,0,1,.555-1.839,18.218,18.218,0,0,1,2.343-3.226c.432-.422.7-.368,2.037.41a12.025,12.025,0,0,0,2.931,1.407c.841.251.927.317.927.711,0,.247-.156.475-.922,1.351-.507.579-1.127,1.252-1.377,1.5-.676.657-.9,1.192-.719,1.732a11.094,11.094,0,0,0,3.15,2.2c.11-.049.124-.576.1-3.947l-.022-3.89-.213-.119a9.731,9.731,0,0,0-.981-.384,31.347,31.347,0,0,1-4.4-2.046,5.815,5.815,0,0,0-1.164-.581c-.376,0-2.322-1.935-3.435-3.415a21.068,21.068,0,0,1-4.235-10.312,12.788,12.788,0,0,1-.057-2.961,9.732,9.732,0,0,1,.326-2.594,16.306,16.306,0,0,1,1.212-2.938,17.45,17.45,0,0,1,2.992-3.25,3.754,3.754,0,0,1,2.611-.974,3.553,3.553,0,0,1,1.839.245c1.842.653,3.721,2.882,4.658,5.529a3.619,3.619,0,0,1,.246,1.469v.775l-.353.382c-.662.718-1.577.874-4.126.706a6.871,6.871,0,0,0-2.229.031,2.8,2.8,0,0,0-2.153,1.8,5.513,5.513,0,0,0,0,2.405c.619,2.52,3.231,5.864,6.188,7.921a21.614,21.614,0,0,0,3.174,1.909c.155,0,.232-9.107.2-24.189l-.021-11.549-.05,13.482c-.044,11.722-.047,11.033-.029-5.278.016-14.239,0-18.778-.078-18.834-.107-.078-4.532-.058-4.962.023-.215.04-.229.032-.085-.052s.094-.088-.171-.046-.31.028-.213-.053.049-.1-.213-.078l-.341.028.019-.743c.011-.429-.009-.665-.047-.559s-.065-1.973-.062-4.61.032-4.842.065-4.9.186-.089.341-.067c.221.032.254.017.153-.07s-.049-.1.213-.056.3.031.171-.042-.028-.075.3-.026c.258.039,8.031.07,17.274.07s15.634.021,14.2.05l-2.6.051,2.716.049,2.716.049.21.284a1.7,1.7,0,0,1,.265.595c.054.3.056.306.11.063.03-.136.047.176.037.694-.015.781-.007.849.046.4.047-.4.055-.3.029.406-.019.523.008,2.365.061,4.093.087,2.838.083,3.165-.041,3.384-.3.535-.328.54-3.1.551a19.328,19.328,0,0,0-2.533.091c.024.044-.034.057-.128.029s-.171,0-.171.065.029.1.064.071.045,2.749.022,6.165l-.042,6.211-.046-6.1c-.025-3.353-.042,2.58-.036,13.185.009,15.734,0,17.148-.04,7.683l-.051-11.6-.018,16.209c-.015,13.388,0,16.239.1,16.383a4.689,4.689,0,0,0,1.757.672,2.04,2.04,0,0,0-.738-.6c-.144,0-.4-.378-.348-.523a4.221,4.221,0,0,1,.927-.659c3.747-2.231,6.246-4.73,7.689-7.69a6.373,6.373,0,0,0,.74-2.86,2.585,2.585,0,0,0-1.3-2.535c-.826-.464-1.332-.524-3.46-.411a7.8,7.8,0,0,1-3.153-.186,1.824,1.824,0,0,1-1.123-2.141,12.747,12.747,0,0,1,1.107-2.858,10.587,10.587,0,0,1,2.266-2.741,3.628,3.628,0,0,1,1.561-.945,4,4,0,0,1,1.834-.225l1.06.033.97.563a9.506,9.506,0,0,1,2.932,2.763,6.53,6.53,0,0,1,1.186,1.931,10.2,10.2,0,0,1,1.009,4.26,18.809,18.809,0,0,1-1.434,8.454,21.116,21.116,0,0,1-4.169,6.565,14.291,14.291,0,0,1-2.435,2.578,6.33,6.33,0,0,1-.957-.655,11.155,11.155,0,0,0-2.689-1.587c-.854-.29-.762-.094.25.529a15.592,15.592,0,0,1,2.674,1.962,10.619,10.619,0,0,1,3.24,5.264,11.7,11.7,0,0,1,0,3.461,10.066,10.066,0,0,1-1.174,2.776,14.748,14.748,0,0,1-2.127,2.424.686.686,0,0,1-1.024-.089,21.806,21.806,0,0,0-2.014-1.389c-.953-.606-1.869-1.21-2.036-1.342-.616-.486-.8-1.208-.425-1.623a2.749,2.749,0,0,1,.789-.45,8.169,8.169,0,0,0,2.908-1.837,2.019,2.019,0,0,0,.119-1.14,11.794,11.794,0,0,0-3.973-1.529l-.424.031-.022,3.432a17.616,17.616,0,0,0,.085,3.527,1.987,1.987,0,0,0,.492.22,3.236,3.236,0,0,1,.682.328c.164.112.471.315.682.45a4.217,4.217,0,0,1,.554.418,11.3,11.3,0,0,0,1.749,1.095,6.953,6.953,0,0,1,2.131,1.855,3.832,3.832,0,0,1,1.1,2.108,6.891,6.891,0,0,1,.142,2.974c-.079.518-.175,1.214-.212,1.547a15.582,15.582,0,0,1-1.482,3.829c-.272.254-.524.215-1.109-.172a29.092,29.092,0,0,1-3.331-2.954c-.263-.41-.121-.707.629-1.31.624-.5.64-.525.633-.919-.009-.537-.281-.938-1.154-1.7s-1.512-1.156-1.573-.972c-.023.071-.032,1.2-.019,2.5l.023,2.371.435.254a4.644,4.644,0,0,1,.7.5,6.841,6.841,0,0,0,.768.578,7.152,7.152,0,0,1,3.044,4.328,7.062,7.062,0,0,1-.479,4.221,13.482,13.482,0,0,1-1.317,2.57,8.462,8.462,0,0,1-1.025-1.1c-.985-1.163-2.019-2.131-2.164-2.026s-.1.345.11.576c.109.12.69.754,1.292,1.408a8.925,8.925,0,0,1,1.859,2.627c.083.191.236.5.34.692a5.573,5.573,0,0,1,.112,2.828,15.584,15.584,0,0,1-1.438,3.3,9.6,9.6,0,0,1-.939.892l-.927.784a1.594,1.594,0,0,1-.672.285.991.991,0,0,0-.555.247c-.136.175-.112.217.487.867.346.376.879.92,1.184,1.21s.727.715.938.945a7.076,7.076,0,0,0,.855.764c.521.382,1.022.892,1.022,1.039,0,.2-.362.618-.539.618a5.207,5.207,0,0,1-.954-.29c-.422-.159-1.491-.547-2.374-.862-1.372-.489-1.631-.554-1.778-.448s-.167.105-.113-.1c.032-.126-.16.262-.428.861s-.527,1.147-.575,1.217-.067.152-.04.183.129-.126.227-.349a1.484,1.484,0,0,1,.221-.406,4.183,4.183,0,0,1-.586,1.239,14.369,14.369,0,0,1-2.924,3.633,9.885,9.885,0,0,1-2.081,1.316c-.117.036.059-.087.391-.272a5.822,5.822,0,0,0,1.376-.922,3.306,3.306,0,0,0-.687.4,9.331,9.331,0,0,1-2.417,1.063c-.112.007-.1.032.058.089s.171.077.043.071c-.094-.007-.9-.038-1.791-.075Zm2.346-.537a9.2,9.2,0,0,0,2.415-1.36,15.27,15.27,0,0,0,2.892-3.5,11.265,11.265,0,0,0,1.2-2.654c-.2-.373-2.823-.769-3.695-.557-.259.063-.682.149-.94.192s-.949.171-1.536.286a40.748,40.748,0,0,1-7.123.319c-.375-.058-.97-.13-1.322-.161a19.347,19.347,0,0,1-3.54-.7c-.328-.092-.726-.19-.883-.218-.268-.047-.283-.036-.226.185a20.566,20.566,0,0,0,1.435,3,10.467,10.467,0,0,0,7,5.278,6.654,6.654,0,0,0,2.272.2,4.926,4.926,0,0,0,2.047-.307Zm3.1-1.533a14.851,14.851,0,0,0,1.857-2.189,7.071,7.071,0,0,0,.824-1.442,2.211,2.211,0,0,0-.381.561,15.784,15.784,0,0,1-2.757,3.355c-.117.108-.18.2-.14.2A3.332,3.332,0,0,0,567.811,1051.3Zm-11.414.138a.582.582,0,0,0-.251-.146c-.047,0-.011.066.08.146a.58.58,0,0,0,.251.146C556.525,1051.586,556.489,1051.521,556.4,1051.44Zm-1.139-.993c-.288-.3-.8-.894-1.136-1.314-.725-.9-.7-.759.045.22a9.129,9.129,0,0,0,1.561,1.644A3.164,3.164,0,0,0,555.259,1050.447Zm-3.267-5.14a4.459,4.459,0,0,1-.393-1.254c.024-.106.009-.193-.034-.193-.171,0-.056.478.363,1.5a7.758,7.758,0,0,0,.47,1.042A8.669,8.669,0,0,0,551.992,1045.307Zm20.7-3.737a.71.71,0,0,0,.1-.354c-.023-.026-.066.045-.1.157a1.083,1.083,0,0,1-.185.354c-.071.082-.088.149-.039.149s.151-.138.226-.307Zm-.221-.313a32.517,32.517,0,0,0,.639-4.337c.184-1.716.2-1.634-.262-1.945-2.564-1.746-7.043-2.241-13.17-1.457a51.046,51.046,0,0,1-8.189-.117l-1.237-.176c-.163-.022-.172.043-.194,1.445-.023,1.442-.019,1.478.213,1.973a7.937,7.937,0,0,0,2.072,2.178,19.9,19.9,0,0,0,2.815,1.5,10.383,10.383,0,0,0,1.322.32,34.358,34.358,0,0,0,6.7.05c2.344-.334,7.172-.03,8.531.537.7.293.672.292.764.028Zm.5-.917c0-.157-.014-.147-.068.049a2.054,2.054,0,0,0-.068.446c0,.157.014.147.068-.049a2.058,2.058,0,0,0,.068-.446Zm.244-1.932c.04-.639.07-.786.127-.608.1.305.235.178.591-.545.3-.615.288-.958-.058-1.336-.18-.2-.226-.21-.293-.087a1.271,1.271,0,0,0-.091.443l-.011.3-.056-.3c-.039-.207-.089.078-.164.942-.059.682-.128,1.418-.151,1.636s-.059.6-.078.842l-.035.446.083-.446c.046-.245.107-.825.136-1.288Zm.134-1.19c0-.191.018-.269.039-.173a.944.944,0,0,1,0,.347C573.363,1037.486,573.345,1037.408,573.345,1037.217Zm-23.506-1.208c-.027-.079-.047-.056-.052.06s.016.163.045.13a.228.228,0,0,0,.007-.19Zm23.63-.3c-.027-.079-.047-.056-.052.06s.016.163.045.13a.228.228,0,0,0,.007-.19Zm-23.714-2.138c-.021-.1-.039-.017-.039.174s.018.269.039.173A.945.945,0,0,0,549.755,1033.574Zm.137-.62c.025-.109.01-.173-.033-.143a.272.272,0,0,0-.077.2c0,.205.058.176.11-.056Zm23.644-5.457.04-.64-.081.595a7.356,7.356,0,0,1-.13.743c-.034.1-.021.117.041.045a2.262,2.262,0,0,0,.13-.743Zm-.314-1.161-.024-1.561-.938-.218c-.516-.12-1.341-.33-1.834-.468-3.036-.847-5.242-.915-10.066-.312a43.865,43.865,0,0,1-7.344.383c-.582-.056-1.481-.1-2-.091l-.938.011-.021.743a2.075,2.075,0,0,0,.213,1.239c.291.616.684.855,1.764,1.074a33.8,33.8,0,0,0,6.873.612c.446-.036,1.828-.106,3.071-.155s2.779-.138,3.412-.2a22.875,22.875,0,0,1,7.085.343,2.683,2.683,0,0,0,.573.148l.194.01-.023-1.561Zm.252-.595c-.018-.2-.033-.037-.033.372s.015.576.033.372a5.021,5.021,0,0,0,0-.743Zm.552.6a.6.6,0,0,0,.054-.892q-.5-.616-.5.464c0,.394.067.694.154.694A1.238,1.238,0,0,0,574.025,1026.344Zm-24.181-1.989c-.018-.259-.032-.047-.032.471s.014.73.032.471A8.387,8.387,0,0,0,549.844,1024.355Zm23.711.6c-.022-.1-.041-.042-.043.122s.016.243.039.176a.654.654,0,0,0,0-.3Zm-.015-6.5c.026-.123.036-1.338.021-2.7l-.026-2.478-.02,2.6c-.018,2.355-.034,2.607-.169,2.7s-.141.1,0,.1c.084,0,.168-.094.195-.22Zm-10.28-.18a47,47,0,0,1,5.758-.154c1.877.026,3.6.061,3.839.079l.427.032.024-2.181c.013-1.2,0-2.276-.02-2.391-.048-.23-.212-.322-1.117-.625a15.832,15.832,0,0,0-3.237-.654,99.9,99.9,0,0,0-10.205-.051,23.524,23.524,0,0,1-3.4-.043,13.937,13.937,0,0,0-1.765-.079,3.632,3.632,0,0,1-.9-.066l-1.423-.217a4.645,4.645,0,0,1-.877-.2c-.13-.059-.257-.084-.282-.056-.045.052-.052,6.036-.007,6.088a36.921,36.921,0,0,0,5.6.631c.915.06,1.759.126,1.877.145a55.693,55.693,0,0,0,5.716-.254Zm-2.367-6.4a.286.286,0,0,0-.213,0c-.059.027-.011.05.107.05S560.951,1011.9,560.892,1011.872Zm12.669-8.169-.023-3.216-.043,3.291c-.023,1.81-.013,3.257.023,3.216s.055-1.523.043-3.291Zm-.278-.39v-3.42l-.981-.07a24.409,24.409,0,0,1-3.156-.363,7.505,7.505,0,0,0-1.348-.107,6.906,6.906,0,0,1-1.322-.105c-.2-.056-2.028-.144-4.068-.2s-3.96-.139-4.265-.194l-1.109-.2-1.079-.188a2.527,2.527,0,0,1-.64-.175,1.918,1.918,0,0,0-.542-.157,14.607,14.607,0,0,1-2.309-.586,1.678,1.678,0,0,0-.415-.091,2.412,2.412,0,0,1-.548-.144,13.12,13.12,0,0,0-1.312-.4l-.235-.056v7.634l.32.162a9.5,9.5,0,0,0,3.561.582c.516.027,1.3.1,1.749.157s2.25.128,4.009.152,3.31.088,3.446.141a5.108,5.108,0,0,0,1.152.1,5.631,5.631,0,0,1,1.2.1,11.958,11.958,0,0,0,1.62.2c.727.056,1.9.193,2.6.3a25.188,25.188,0,0,0,3.37.346l.3-.012Zm-23.481-4.13c.012-1.481-.007-2.671-.042-2.646s-.055,1.906-.045,4.179.029,3.464.042,2.646S549.79,1000.664,549.8,999.184Zm18.471-.1a1.9,1.9,0,0,0-.512,0c-.153.022-.048.04.233.041s.407-.018.279-.04Zm.553.007a.286.286,0,0,0-.213,0c-.059.027-.011.05.107.05s.165-.023.107-.05Zm-15.741-1.68a.151.151,0,0,0-.164-.008c-.068.032-.048.055.052.06S553.113,997.439,553.085,997.406Zm20.224-5.809c.079-.091.1-3.726.114-15.688.007-8.563.035-19.376.064-24.028.051-8.223.057-8.463.218-8.6.134-.114.648-.141,2.713-.141,2.772,0,2.969-.035,3.139-.556.082-.251-.015-4.548-.169-7.452-.079-1.5-.17-1.834-.543-2-.255-.11-10.842-.206-23.732-.215-5.865,0-10.8,0-10.962,0-.574.017-.541-.289-.523,4.879.017,4.692.048,5.589.2,5.7.044.032,1.337.052,2.873.044,2.675-.013,2.8-.006,2.944.181s.154,1.09.188,17.476c.02,9.5.06,19.924.088,23.155l.051,5.874h.379a1.319,1.319,0,0,1,.555.11,2.87,2.87,0,0,0,.884.142,2.906,2.906,0,0,1,.879.138,1.629,1.629,0,0,0,.641.106.91.91,0,0,1,.523.1,1.007,1.007,0,0,0,.554.1,2.081,2.081,0,0,1,.741.122c.266.135,1.708.219,6.425.374,1.713.056,3.824.137,4.692.179a57.222,57.222,0,0,0,7.063,0Zm-9.622-2.471c-13.495-.266-12.378-.226-12.538-.455-.133-.191-.149-1.115-.2-11.89-.031-6.425-.057-16.464-.057-22.308,0-9.871.01-10.637.145-10.794s.312-.162,1.9-.1a7.188,7.188,0,0,0,2.009-.046c.181-.082,2.228-.141,7-.2,3.707-.048,7.513-.108,8.458-.133,1.343-.036,1.753-.018,1.873.085.148.126.154.76.136,15.434-.023,19.48-.1,30.233-.209,30.4-.1.14-1.913.142-8.509.012Zm8.351-.177c.1-.074.112-1,.072-6.012-.028-3.526-.017-5.868.029-5.785s.055-6.734.022-16.762l-.055-16.9-1.075-.03c-1.4-.039-15.277.18-15.833.251-.325.041-.386.073-.256.133a3.541,3.541,0,0,1-1.194.07c-.881-.006-1.214-.033-.938-.077.338-.054.235-.071-.5-.084a3.748,3.748,0,0,0-1.088.087c-.162.1-.165.355-.144,14.6l.021,14.5.051-13.036c.034-8.829.041-6.35.021,7.683-.016,11.4,0,20.767.035,20.826a.608.608,0,0,0,.235.182c.579.259,20.386.38,20.542.126.05-.081.061-.072.037.031-.029.124-.336.157-1.862.2l-1.827.053,1.791.021a11.629,11.629,0,0,0,1.911-.067Zm-8.5-.182c.742-.016,1.932-.016,2.644,0s.106.03-1.349.03-2.038-.014-1.3-.03Zm-3.073-.1a10.562,10.562,0,0,1,1.109,0c.291.019.031.035-.579.035s-.848-.016-.53-.035Zm-3.288-.1a2.334,2.334,0,0,1,.555,0c.152.022.028.04-.277.04S557.029,988.593,557.182,988.571Zm-5.2-.1a3.716,3.716,0,0,1,.682,0c.175.021.01.039-.365.039s-.518-.018-.318-.039Zm-.709-.15c-.022-.068-.031-3.492-.018-7.609l.023-7.485.021,7.551c.016,5.93.044,7.561.127,7.6s.083.052,0,.058a.161.161,0,0,1-.15-.116Zm9.651-1.577c.044-.082-.017-.1-.212-.051s-.256.031-.213-.049,0-.1-.124-.058c-.1.031-.184.011-.184-.045s-.06-.074-.132-.041-.111.019-.075-.049,0-.086-.134-.038c-.106.039-.171.032-.146-.016s-.1-.087-.281-.087-.308.036-.285.079-.007.067-.067.052-.111.036-.113.113-.1.145-.217.151l-.213.011v-1.647c0-1.571.007-1.645.163-1.6.118.036.144.014.094-.081s-.036-.106.033-.057a.266.266,0,0,1,.05.263c-.029.1-.012.19.036.19s.066.067.039.149-.008.149.043.149.067.074.037.165q-.055.165.044.094c.067-.048.08-.016.043.1s-.024.147.043.1.081-.016.043.1-.024.147.043.1.081-.017.047.087-.011.148.061.129a.1.1,0,0,1,.128.1c.008.068.019.168.025.223a.091.091,0,0,0,.117.074c.059-.014.1.031.085.1s.017.129.064.136l.177.025a.42.42,0,0,1,.2.184c.06.095.139.139.177.1s.038-.01,0,.068c-.052.1-.034.125.072.078.078-.035.142-.017.142.039s.082.076.192.04.153-.031.085.024.1.087.443.087c.313,0,.529-.039.5-.091s.033-.061.144-.021c.143.053.175.039.125-.054-.037-.069-.032-.1.011-.08.1.058.544-.478.472-.57-.03-.039-.013-.043.037-.01s.089-.105.085-.421c0-.265-.04-.457-.081-.427s-.058-.007-.037-.08-.07-.24-.2-.37-.219-.276-.193-.326c.044-.083-.079-.133-.246-.1-.039.007-.042-.039-.007-.1.043-.081.018-.1-.082-.053a.13.13,0,0,1-.194-.082c-.027-.081-.083-.122-.125-.092s-.076.007-.076-.056-.044-.079-.1-.04-.075.027-.029-.06.031-.114-.077-.066-.126.028-.085-.05.013-.093-.085-.049-.126.028-.085-.049.013-.094-.085-.049-.126.028-.085-.049.013-.094-.085-.049-.126.028-.085-.049.013-.094-.085-.049-.126.028-.085-.049.014-.094-.084-.05a.129.129,0,0,1-.194-.082c-.027-.081-.089-.118-.138-.082s-.064.016-.025-.057.013-.111-.093-.09-.148-.02-.133-.1-.023-.115-.1-.082-.258-.109-.447-.335-.29-.39-.245-.392.016-.047-.064-.1a.224.224,0,0,1-.092-.261c.034-.1.02-.138-.038-.1s-.075-.01-.044-.148.016-.191-.043-.149-.073-.012-.043-.149c.027-.122.014-.189-.032-.156s-.081-.166-.081-.473.034-.506.081-.473.06-.034.032-.156c-.031-.137-.016-.19.043-.149s.073-.012.043-.149-.014-.189.035-.154.071-.023.056-.124.017-.172.09-.155.1-.027.07-.113.063-.263.2-.419.251-.236.252-.185.041.017.088-.077a.171.171,0,0,1,.225-.107q.139.062.079-.053c-.041-.077-.013-.094.085-.05s.127.029.083-.055,0-.1.169-.052c.131.038.213.029.186-.021s.266-.089.662-.089.688.038.663.085.041.053.147.014c.139-.051.174-.038.128.05s-.011.1.128.05.175-.039.125.056-.026.108.079.061.126-.028.085.05-.013.094.085.049c.081-.036.127-.028.1.017s.1.071.273.057c.214-.017.307-.068.288-.158-.016-.073,0-.1.035-.059s.115.024.178-.037c.091-.088.117-.052.125.174l.01.285.069-.3c.04-.171.054.333.034,1.189-.026,1.09-.064,1.5-.143,1.519-.063.019-.054-.011.02-.072.114-.093.114-.107,0-.118a1.235,1.235,0,0,0-.183-.007c-.03.007-.034-.086-.008-.2.034-.153.018-.189-.061-.133s-.092.021-.047-.146c.041-.151.031-.2-.033-.156s-.074.007-.037-.1.024-.147-.043-.1-.081.016-.043-.1.024-.147-.046-.1-.1.036-.09-.008c.029-.193-.014-.337-.084-.287-.042.03-.211-.12-.377-.333s-.329-.358-.364-.321-.031,0,.007-.075c.053-.106.034-.125-.076-.076s-.126.028-.085-.05.014-.094-.081-.052c-.078.035-.142.031-.142-.008s-.246-.071-.546-.071-.525.039-.5.087-.007.067-.071.042-.188.059-.275.186-.2.2-.25.165-.073-.006-.037.1c.031.094.028.15-.007.125s-.063.147-.063.382.029.406.064.381.069,0,.075.059.015.147.021.2c.014.123.224.367.224.261,0-.045.057-.026.127.041a.218.218,0,0,1,.071.227c-.035.066,0,.081.089.04a.129.129,0,0,1,.194.082c.026.081.089.118.138.082s.064-.016.02.067-.031.114.077.066.126-.028.085.049-.013.094.085.049.126-.027.085.049-.013.094.085.049.126-.027.085.049-.013.094.085.049.126-.027.085.049-.013.094.085.049.126-.028.085.049-.013.094.085.049.126-.028.085.049-.014.094.083.051.208.01.305.124.19.158.225.122.034-.008,0,.064c-.045.091-.017.121.093.1s.148.02.133.1.023.115.1.078.182.031.261.161.179.219.237.219a.129.129,0,0,1,.116.124c.006.068.016.169.021.223a.091.091,0,0,0,.117.074c.062-.014.1.053.08.159-.018.124.007.159.077.109s.082-.034.043.04-.021.115.027.115.063.074.033.165q-.054.165.044.094c.07-.05.085.023.05.256-.037.248-.027.291.043.178s.091-.017.091.4-.022.509-.091.4-.08-.07-.043.178c.035.233.02.307-.05.256s-.079-.013-.037.115,0,.241-.135.372c-.108.1-.139.157-.068.121s.053.007-.038.091-.132.156-.092.156-.016.111-.126.247-.218.226-.241.2-.1.03-.162.125q-.121.172-.066.023t-.066.023c-.067.095-.146.143-.177.107s-.056-.014-.056.048-.061.085-.142.049-.121-.024-.085.043-.008.087-.127.051-.165-.02-.124.058-.019.095-.213.049-.256-.031-.212.051-.077.115-.418.115-.462-.033-.418-.115Zm1.627-.463a2.646,2.646,0,0,0,1.085-3.374c-.279-.651-.743-1.066-2.177-1.947-1.283-.788-1.7-1.223-1.754-1.85a1.086,1.086,0,0,1,.161-.777c.726-1.252,2.556-.729,3.3.942l.176.4,0-.908,0-.908-.256.112c-.208.091-.33.078-.661-.071a2.617,2.617,0,0,0-1.879-.38,2.158,2.158,0,0,0-1.507,1.1,1.908,1.908,0,0,0-.289,1.108c-.063,1.291.446,2,2.21,3.073a10.273,10.273,0,0,1,1.349.94,1.565,1.565,0,0,1-.247,2.512c-1.015.61-2.474-.179-3.1-1.673-.124-.3-.227-.5-.23-.441-.008.137-.013,2.052-.006,2.213,0,.092.074.069.231-.074.279-.255.506-.258,1.034-.016a2.454,2.454,0,0,0,1.518.262,2.128,2.128,0,0,0,1.034-.236Zm.839-.414c.085-.109.135-.2.112-.2a.709.709,0,0,0-.2.2c-.085.109-.135.2-.112.2A.709.709,0,0,0,563.387,985.867Zm-.97-.074c.106-.157.1-.161-.032-.037a.593.593,0,0,0-.149.174c0,.082.07.029.181-.136Zm.074-1.645a1.05,1.05,0,0,0-.192-.223l-.192-.189.162.223C562.423,984.169,562.492,984.227,562.492,984.148Zm-2.9-2.078a3.212,3.212,0,0,0-.32-.372l-.32-.342.294.372C559.519,982.074,559.591,982.146,559.591,982.07Zm.229-3.161c-.027-.079-.047-.056-.052.06s.016.163.045.13a.228.228,0,0,0,.007-.19Zm2.927-.112a2.33,2.33,0,0,0-.277-.322l-.277-.291.251.322C562.677,978.807,562.748,978.874,562.748,978.8Zm-3.5-.713c.11-.136.181-.248.158-.248a1.067,1.067,0,0,0-.243.248c-.11.136-.181.248-.158.248A1.066,1.066,0,0,0,559.25,978.085Zm.949.074c.106-.157.1-.161-.032-.037a.594.594,0,0,0-.149.173C560.018,978.377,560.088,978.325,560.2,978.16Zm2.781-.283a.151.151,0,0,0-.164-.008c-.068.032-.048.055.052.06s.14-.019.112-.052Zm-1.7-.107a.8.8,0,0,0-.341,0c-.106.024-.039.044.148.045s.274-.018.193-.043Zm1.963-.444a.2.2,0,0,1,.2-.062c.064.025.025.07-.09.1C563.21,977.411,563.176,977.4,563.24,977.325Zm-2.433-.151a.6.6,0,0,1,.3,0c.082.025.015.045-.149.045S560.725,977.2,560.807,977.174Zm11.276-2.708c0-1.281.012-1.806.027-1.165s.015,1.689,0,2.33-.027.116-.027-1.165Zm-11.184-3.5c.058-.048-.037-.062-.222-.032-.219.035-.3.018-.265-.056s-.018-.086-.176-.04-.216.035-.173-.046,0-.092-.131-.043-.175.039-.125-.056.026-.108-.079-.061-.126.028-.085-.05.013-.094-.085-.05-.126.028-.085-.049.013-.094-.085-.05-.126.026-.091-.039-.008-.092-.1-.073-.148-.02-.133-.1-.023-.115-.1-.082c-.111.05-.855-.719-.834-.862.029-.191,0-.262-.089-.2-.057.041-.075.027-.043-.033a.119.119,0,0,0-.071-.16.168.168,0,0,1-.07-.225c.037-.113.023-.145-.043-.1s-.08.015-.043-.1.025-.148-.053-.092-.094.022-.048-.145c.039-.142.029-.2-.026-.161s-.068-.021-.038-.152c.034-.15.018-.192-.054-.14s-.086,0-.044-.2c.033-.153.025-.247-.018-.216a5.546,5.546,0,0,1,0-1.835c.043.031.051-.063.018-.216-.042-.192-.03-.25.039-.2s.08,0,.037-.153-.034-.2.048-.145.093.031.054-.087c-.03-.091-.019-.165.026-.165s.058-.067.031-.148a.168.168,0,0,1,.087-.209.126.126,0,0,0,.081-.165c-.035-.066-.014-.074.058-.023s.1.036.059-.081a.213.213,0,0,1,.078-.248.281.281,0,0,0,.133-.176c0-.05.035-.079.078-.065s.082-.02.087-.075a.782.782,0,0,1,.1-.373c.038-.069.1-.1.141-.073s.154-.08.253-.242c.113-.185.228-.273.308-.237s.119.007.1-.079.035-.124.133-.1.135-.011.1-.073,0-.08.091-.039.126.028.085-.049-.013-.094.085-.05.126.028.085-.049-.013-.094.085-.05.127.029.079-.061-.019-.109.125-.056.174.038.128-.05-.011-.1.128-.049.173.036.134-.038.028-.088.216-.045c.156.036.253.025.226-.026s.26-.09.663-.091.668.034.61.083.017.06.181.028c.2-.04.264-.023.222.056s.01.092.174.044.216-.035.173.046,0,.092.132.043.175-.039.125.056-.026.108.075.063c.078-.035.142-.015.142.043s.06.08.132.048.111-.019.086.029.087.084.251.078.3-.048.3-.1.045-.053.1-.014.082.017.044-.1-.023-.146.034-.105.079-.01.063-.119.024-.183.131-.183c.147,0,.157.107.153,1.586,0,1.456-.018,1.586-.158,1.584-.1,0-.143-.064-.126-.183s-.008-.156-.073-.109-.083.007-.039-.151.031-.2-.033-.156-.074.007-.037-.1.024-.147-.043-.1-.081.016-.043-.1.024-.147-.043-.1-.081.017-.047-.087c.029-.087.013-.145-.035-.129s-.093,0-.1-.042a2.1,2.1,0,0,0-.63-.693c-.039.013-.046-.021-.016-.077.053-.1-.06-.143-.285-.107-.071.011-.09-.028-.05-.1s.022-.1-.081-.057-.125.026-.092-.037-.032-.08-.187-.04c-.173.044-.208.034-.121-.037s-.062-.1-.491-.1c-.394,0-.593.036-.558.1s-.016.075-.138.03-.173-.036-.134.038.006.086-.089.043-.126-.028-.085.05.013.094-.085.049-.129-.03-.076.076c.039.077.039.108,0,.067s-.124.016-.19.126-.152.177-.19.149-.117.016-.175.1-.072.149-.031.151-.01.086-.114.186-.161.218-.128.26.006.041-.061,0c-.091-.061-.107-.039-.065.088s.024.147-.043.1-.081-.016-.043.1.023.146-.037.1-.074.005-.033.156.033.2-.043.149-.087-.013-.043.149.032.2-.039.151-.085.031-.045.31c.03.21.023.33-.016.267a3.318,3.318,0,0,0-.072,1.057,4.142,4.142,0,0,0,.069,1.121c.039-.028.044.116.011.32-.046.284-.035.353.046.295s.09-.018.045.147-.033.2.043.149.087-.013.043.149-.033.2.043.149.087-.013.043.149-.031.2.033.156.074-.007.037.1-.024.147.046.1.1-.036.09.009c-.03.2.016.328.111.3a.087.087,0,0,1,.107.091c0,.125.111.277.2.288.182.023.512.286.467.371-.033.062,0,.076.092.036s.126-.027.089.043.031.088.23.043.254-.039.16.037.029.1.469.1.563-.027.469-.1-.053-.086.16-.037.272.035.224-.054-.012-.1.128-.05.173.036.134-.038-.006-.086.089-.043.126.028.085-.05-.013-.094.085-.049.129.03.076-.076c-.039-.077-.039-.108,0-.068s.118,0,.177-.1.14-.172.18-.172a1.693,1.693,0,0,0,.4-.4c.18-.218.3-.341.272-.273s-.019.124.025.124.1.133.118.3.02.276,0,.251-.149.13-.283.345c-.164.263-.287.371-.376.331s-.124-.01-.108.077-.035.124-.133.1-.135.011-.1.073,0,.08-.091.039-.126-.028-.085.05.013.094-.085.049-.126-.028-.085.05.015.094-.071.056-.132-.011-.132.048-.064.078-.142.043-.121-.025-.083.047-.04.094-.263.058c-.185-.03-.279-.016-.222.032s-.262.084-.74.084-.8-.036-.74-.084Zm2.479-.553c.527-.3,1.222-.963,1.13-1.07-.028-.032-.223.106-.434.307a2.716,2.716,0,0,1-2.045.879,2,2,0,0,1-1.808-.838,5.861,5.861,0,0,1-.884-3.5c0-2.532,1.1-4.169,2.77-4.154a2.487,2.487,0,0,1,2.259,1.626l.254.545,0-1.061,0-1.061-.245.164c-.235.157-.282.15-1.133-.153a3.789,3.789,0,0,0-3.907.489,5.1,5.1,0,0,0-1.719,4.559,3.888,3.888,0,0,0,3.38,3.64,3.93,3.93,0,0,0,2.379-.371Zm.83-.381c.106-.157.1-.161-.032-.037a.593.593,0,0,0-.149.174C564.027,970.248,564.1,970.2,564.209,970.03Zm-5.3.045a4.186,4.186,0,0,0-.363-.421l-.363-.392.337.421C558.835,970.075,558.909,970.15,558.909,970.075Zm5.417-.863c.085-.109.135-.2.112-.2a.708.708,0,0,0-.2.2c-.085.109-.135.2-.112.2a.706.706,0,0,0,.2-.2Zm-4.846-3.146c-.022-.1-.041-.042-.043.122s.016.243.039.175a.652.652,0,0,0,0-.3Zm4.462-2.939a.6.6,0,0,0-.149-.174c-.135-.123-.138-.12-.032.037s.181.218.181.136Zm.83-1.51a.151.151,0,0,0-.164-.008c-.068.032-.048.055.052.06S564.8,961.651,564.772,961.618Zm-7.464,4.818c0-.191.017-.269.039-.174a.945.945,0,0,1,0,.347C557.325,966.706,557.308,966.628,557.308,966.437Zm4.1-11.075a1.624,1.624,0,0,1,.469,0c.129.023.023.041-.235.041S561.275,955.384,561.4,955.362Zm-.726-.166c.026-.049-.055-.066-.179-.038s-.226.009-.226-.042-.082-.062-.181-.025c-.134.05-.164.034-.114-.06s.026-.108-.075-.063c-.186.083-.412-.021-.341-.156.036-.067,0-.082-.09-.04s-.125.025-.094-.033c.048-.09-.069-.142-.242-.107-.039.008-.042-.039-.007-.1.043-.08.018-.1-.077-.056s-.187-.016-.272-.157c-.073-.12-.179-.219-.237-.219a.105.105,0,0,1-.107-.1c0-.144-.19-.5-.248-.471-.027.014-.045,0-.041-.041s-.052-.1-.124-.151a.213.213,0,0,1-.078-.248q.053-.162-.045-.091c-.067.048-.081.016-.043-.1s.024-.147-.043-.1-.081.016-.043-.1.024-.147-.043-.1-.081.015-.043-.1.025-.148-.053-.092-.094.022-.048-.145.031-.2-.037-.153-.081-.009-.039-.2c.033-.153.025-.247-.018-.216a2.456,2.456,0,0,1-.076-.917,2.371,2.371,0,0,1,.077-.917c.044.032.054-.081.023-.262-.039-.227-.027-.3.044-.247s.08.016.044-.094c-.03-.091-.018-.165.025-.165s.055-.074.026-.165c-.04-.121-.024-.143.06-.083s.1.037.058-.088-.024-.147.043-.1.081.016.043-.1-.024-.147.043-.1.08.016.043-.1-.023-.146.034-.105.079-.01.063-.119.018-.173.08-.159a.08.08,0,0,0,.107-.074c0-.055,0-.133,0-.174.007-.174.8-1,.908-.946.072.032.11,0,.1-.082s.035-.124.133-.1.137-.008.093-.09-.029-.1.034-.05.1.021.1-.04.038-.083.085-.049.085.011.085-.05.038-.083.085-.049.085.015.085-.041.064-.073.142-.039c.1.045.122.027.075-.063s-.019-.109.125-.056.174.036.131-.043.008-.094.173-.046c.147.043.214.031.181-.031s.112-.087.393-.066c.336.024.393.011.232-.055s-.1-.087.3-.087.466.019.3.088-.092.076.237.044c.287-.028.432-.008.4.055s.034.074.181.031c.175-.051.217-.037.167.056s-.016.106.126.053.174-.038.128.049-.011.1.128.05.175-.039.125.056-.026.108.079.061c.086-.038.125-.025.1.031s.058.075.23.04c.341-.068.672-.244.625-.333-.019-.035.05-.064.152-.064.183,0,.186.025.186,1.455,0,1.213-.021,1.451-.123,1.434a.214.214,0,0,1-.157-.137c-.018-.064-.068-.091-.11-.061s-.054-.014-.026-.1.01-.154-.041-.154-.067-.074-.037-.165q.055-.165-.044-.094c-.065.047-.081.017-.047-.087s.011-.148-.065-.129-.107-.04-.092-.146-.011-.163-.055-.149a.077.077,0,0,1-.1-.073c-.024-.164-.272-.44-.375-.417-.053.011-.085-.041-.072-.115s-.023-.115-.11-.076a.13.13,0,0,1-.183-.086c-.026-.081-.083-.122-.125-.092s-.076.009-.076-.047-.064-.073-.142-.039c-.1.043-.122.026-.079-.055s-.034-.105-.306-.068-.318.029-.156-.037.12-.088-.256-.088-.427.017-.256.088.124.076-.156.037c-.237-.032-.35-.015-.315.05s0,.075-.093.035-.126-.028-.085.05.013.094-.085.05-.126-.028-.085.049.013.094-.085.05-.129-.03-.076.076c.039.077.041.111.006.074s-.18.086-.321.272-.3.31-.348.274-.071,0-.036.1a.167.167,0,0,1-.07.225.119.119,0,0,0-.071.16c.035.065.014.074-.058.023s-.1-.036-.058.084c.03.091.013.165-.037.165s-.069.069-.041.154c.033.1.016.129-.047.084s-.082,0-.05.144.015.19-.041.15-.07.064-.031.322c.032.212.027.335-.01.272a3.835,3.835,0,0,0-.068,1.107,3.541,3.541,0,0,0,.07,1.106c.04-.064.047.053.017.266-.04.279-.028.362.045.31s.083-.009.042.139c-.032.116-.02.211.026.211s.061.1.035.214c-.033.145-.017.191.05.144s.079-.014.042.1-.024.147.043.1.081-.016.043.1-.024.147.043.1.081-.017.047.087c-.029.087-.013.145.035.129a.084.084,0,0,1,.107.07.566.566,0,0,0,.181.23c.088.072.138.172.112.223s-.009.1.041.1c.333.046.606.2.548.307-.038.072.02.084.177.039.128-.037.214-.033.192.01s.259.08.626.081.646-.037.621-.085.039-.056.145-.017c.139.051.174.038.128-.05s-.011-.1.128-.049.173.036.134-.038-.006-.086.089-.043.128.03.077-.066-.037-.107.02-.067.112,0,.139-.085.079-.143.116-.136c.16.031.286-.018.245-.094-.068-.127.6-.839.73-.779.082.038.075.055-.024.061a.4.4,0,0,0-.252.181c-.1.148-.1.155.007.05.185-.192.235-.152.272.224a.6.6,0,0,1-.14.539c-.169.185-.2.2-.388.2-.047,0-.076.034-.064.074a.072.072,0,0,1-.056.09c-.043.009-.111.085-.151.169a.16.16,0,0,1-.214.091q-.139-.062-.079.053c.041.077.013.094-.085.05s-.126-.028-.085.049.013.094-.085.05-.127-.029-.079.061.019.109-.125.056-.174-.037-.131.043-.008.094-.173.046c-.131-.038-.213-.029-.186.021a5.239,5.239,0,0,1-1.92,0Zm1.823-.161a3.852,3.852,0,0,0,.892-.345c.462-.262,1.21-1,1.12-1.1-.03-.035-.214.1-.409.309a4.073,4.073,0,0,1-.834.633,2.052,2.052,0,0,1-1.247.261,1.655,1.655,0,0,1-1.237-.306c-.863-.563-1.335-1.743-1.423-3.56-.106-2.2.509-3.772,1.728-4.408a2.437,2.437,0,0,1,2.176.118A3.476,3.476,0,0,1,564.4,948l.218.446v-1.081c0-1.041,0-1.075-.155-.917-.218.229-.536.205-1.241-.093a3.89,3.89,0,0,0-5.12,2.078,5.006,5.006,0,0,0,.837,5.714,4.1,4.1,0,0,0,3.557.89Zm-.328-.361a.421.421,0,0,0-.256,0c-.083.025-.036.047.1.049s.209-.019.151-.046Zm2.323-.629c.085-.109.135-.2.112-.2a.708.708,0,0,0-.2.2c-.085.109-.135.2-.112.2A.709.709,0,0,0,564.5,954.045Zm-.341-.4c.085-.109.135-.2.112-.2a.708.708,0,0,0-.2.2c-.085.109-.135.2-.112.2a.708.708,0,0,0,.2-.2Zm-4.678-3.3c-.024-.068-.043-.012-.043.124s.019.192.043.124A.443.443,0,0,0,559.477,950.352Zm-.4-3.515c0-.074-.077,0-.43.442l-.38.471.405-.442a5.276,5.276,0,0,0,.405-.471Zm1.365.417c.11-.136.181-.248.158-.248a1.068,1.068,0,0,0-.243.248c-.11.136-.181.248-.158.248A1.066,1.066,0,0,0,560.444,947.254Zm3.689-.809a.286.286,0,0,0-.213,0c-.059.028-.011.05.107.05s.165-.022.107-.05Zm-6.826,4.328c0-.191.018-.269.039-.174a.944.944,0,0,1,0,.347C557.325,951.042,557.308,950.964,557.308,950.773Zm-6.162-6.741a.1.1,0,0,1,.09-.1c.05,0,.067.045.038.1s-.07.1-.09.1S551.146,944.087,551.146,944.032Zm.449-.17a1.313,1.313,0,0,1,.427,0c.1.024,0,.042-.236.042s-.32-.02-.191-.043Zm4.609-.1c.366-.019.942-.019,1.28,0s.039.034-.665.034-.98-.016-.615-.034Zm3.835-.1c1.021-.016,2.69-.016,3.711,0s.185.029-1.855.029S559.019,943.676,560.039,943.661Zm7.16-.1c.783-.016,2.088-.016,2.9,0s.172.03-1.423.03S566.416,943.578,567.2,943.561Zm4.745.006a.151.151,0,0,1,.164.008c.028.033-.022.056-.112.052s-.12-.028-.052-.06Zm.336,1.039c-.015-.507-.028-.119-.028.862s.013,1.4.028.922S572.3,945.114,572.28,944.607Zm-15.7,46.84a1.625,1.625,0,0,0-.469,0c-.129.023-.023.041.235.041s.364-.019.235-.041Zm-6.8-5.258-.043-4.337-.022,4.213c-.02,3.747-.006,4.461.084,4.461C549.813,990.526,549.8,988.575,549.781,986.189Zm28.987-13.428a.731.731,0,0,0-.039-.79c-.271-.347-.627-.162-.627.327C578.1,972.765,578.517,973.053,578.768,972.761ZM545.513,971.7c.251-.544-.064-1.065-.461-.763a.553.553,0,0,0-.162.75.348.348,0,0,0,.623.013Zm14.83,81.613a.151.151,0,0,1,.164.008c.028.033-.022.056-.112.052S560.275,1053.342,560.343,1053.31Zm4.153-.032a.84.84,0,0,1,.3-.085c.081,0,.065.032-.043.085a.836.836,0,0,1-.3.085C564.373,1053.364,564.389,1053.332,564.5,1053.278Zm-4.777-.1c-.217-.109.007-.109.3,0,.171.064.18.08.043.082A.914.914,0,0,1,559.719,1053.179Zm-.4-.167a.151.151,0,0,1,.164.007c.028.033-.022.057-.112.052S559.251,1053.044,559.319,1053.013Zm-.538-.131c-.107-.053-.123-.085-.043-.085a.836.836,0,0,1,.3.085c.107.053.123.085.043.085A.839.839,0,0,1,558.781,1052.882Zm-.555-.2c-.156-.117-.021-.117.213,0,.112.056.127.087.043.091A.5.5,0,0,1,558.226,1052.684Zm13.027-6.49a1.766,1.766,0,0,1,.261-.505,4.125,4.125,0,0,1-.449,1.048,2.154,2.154,0,0,1,.189-.542Zm-23.924.279c-.2-.092-.109-.385.171-.574a9.432,9.432,0,0,0,1.729-1.706,2.721,2.721,0,0,1,.76-.727c.089,0,.337.215.553.479a4.659,4.659,0,0,0,.626.646c.44.315.175.758-.453.758a.933.933,0,0,0-.4.089c-.081.049-.474.21-.873.359a9.037,9.037,0,0,0-1.128.506,1.117,1.117,0,0,1-.984.17Zm-19.94-67.991a8.783,8.783,0,0,1,.938-.075c.469-.023.757-.008.64.032a6.253,6.253,0,0,1-1.578.043Zm-.691-.387a1.149,1.149,0,0,1-.287-.52c0-.114.051-.055.129.154.069.186.15.309.18.275s.012-.121-.04-.193a2.243,2.243,0,0,1-.183-.6c-.086-.445-.074-.506.253-1.26a5.178,5.178,0,0,1,.385-.792,4.453,4.453,0,0,1-.3.791,5.741,5.741,0,0,0-.34.917c0,.069.072-.052.158-.27s.983-2.181,1.993-4.362c2.167-4.678,2.511-5.469,2.421-5.573-.037-.043-.227.145-.422.418s-.562.753-.816,1.066a2.274,2.274,0,0,0-.419.621,3.926,3.926,0,0,0,.671-.758c.345-.444.641-.761.658-.7a5.045,5.045,0,0,1-.531,1.31.943.943,0,0,1,.091-.358.991.991,0,0,0,.091-.4,7.288,7.288,0,0,0-.837.975,26.191,26.191,0,0,1-2.531,2.979,9.178,9.178,0,0,1-1.934,1.363c-.048,0-.03-.039.041-.083.927-.583,1.286-.831,1.254-.869a1.694,1.694,0,0,0-.54.3,20.685,20.685,0,0,1-3.188,1.566,4.177,4.177,0,0,1-2.637.059c-.16-.1-.31-.152-.333-.126s.127.137.334.246.316.2.243.2c-.389.006-1.19-.871-1.19-1.3,0-.069.086.072.192.312a1.2,1.2,0,0,0,.317.483c.072.026.028-.089-.1-.271a1.33,1.33,0,0,1-.2-1.312.754.754,0,0,0,.1-.367c-.023-.027-.1.1-.168.289-.121.323-.189.276-.08-.055.029-.088,1.632-1.891,3.562-4.007,3.614-3.962,3.8-4.176,3.658-4.176a27.348,27.348,0,0,0-2.709,2.012c-.53.452-1.583,1.282-1.911,1.506-.085.058-.1.045-.052-.045s.029-.111-.051-.077a.156.156,0,0,0-.1.156c.011.058-.2.259-.469.447a24.752,24.752,0,0,1-2.373,1.454,10.975,10.975,0,0,1,1.18-.787c.692-.433,1.343-.856,1.448-.941.4-.326.034-.129-.932.5-2.114,1.378-3.257,1.818-4.73,1.821a7.414,7.414,0,0,1-3.718-1.085,1.554,1.554,0,0,0-.514-.257,7.506,7.506,0,0,0,2.048,1.091c.388.133.642.245.565.248a7.818,7.818,0,0,1-2.854-1.39c-.311-.248-.812-.927-.54-.732.082.059.09.031.034-.112a2.33,2.33,0,0,1,0-1.172c.056-.143.048-.17-.033-.112-.168.121.023-.249.263-.509a25.667,25.667,0,0,1,3.143-2.078c0,.022-.635.452-1.412.956a12.641,12.641,0,0,0-1.375.958c.02.023,1.567-.956,3.438-2.176s5.513-3.593,8.093-5.273,4.874-3.193,5.1-3.361c.654-.493.512-.548-.49-.187a31.861,31.861,0,0,0-4.308,2.156c-1.2.673-2.866,1.589-3.711,2.036s-2.216,1.258-3.049,1.8a13.858,13.858,0,0,1-3.576,1.879,7.325,7.325,0,0,1-4.5.383,11.2,11.2,0,0,1-2.431-.7,14.129,14.129,0,0,1-1.491-.655c-.11-.079-.221-.119-.248-.088s.159.169.413.307.365.223.248.189a4.489,4.489,0,0,1-1.927-1.743,1.287,1.287,0,0,1,.094-1.256c.171-.236.419-.37,1.216-.658,1.28-.462,1.352-.485,1.3-.415a10.744,10.744,0,0,1-1.146.457,6.539,6.539,0,0,0-1.19.513c-.067.085-.047.095.08.037.211-.1,7.238-2.715,10.535-3.927,1.337-.491,3.007-1.11,3.711-1.375s1.913-.713,2.687-1,1.58-.58,1.791-.661,1.823-.679,3.583-1.329c3.772-1.393,3.942-1.464,3.9-1.612-.055-.191-1.31-.195-1.981,0-.328.093-1.6.544-2.815,1a61.7,61.7,0,0,1-14.2,3.69,28.12,28.12,0,0,1-6.142.2,12.316,12.316,0,0,1-5.026-1.387,1.47,1.47,0,0,0-.5-.248,2.664,2.664,0,0,0,.633.441,2.743,2.743,0,0,1,.6.4A6.254,6.254,0,0,1,498.047,952c-.437-.5-.786-1.047-.567-.89.137.1.117,0-.107-.518a5.077,5.077,0,0,1-.258-.744c-.034-.162-.1-.249-.149-.211s-.072-.008-.031-.157.033-.2-.043-.149-.087.013-.043-.149.031-.2-.033-.156-.074.007-.037-.1c.031-.094.021-.145-.022-.114s-.078-.161-.078-.435a.979.979,0,0,1,.2-.734c.11-.133.238-.243.284-.243s-.035.115-.18.257a.824.824,0,0,0-.259.421c0,.114.04.086.122-.089.171-.365.479-.494,1.538-.645.516-.074,1.841-.288,2.943-.477,5.339-.914,7.336-1.259,7.805-1.349.282-.054,1.184-.211,2-.35s1.858-.316,2.3-.4,1.214-.214,1.706-.3c2.7-.46,5-.857,5.758-.991.469-.084,1.159-.2,1.533-.255.878-.133.953-.222.13-.154-.6.05-.611.048-.171-.039a2.639,2.639,0,0,1,.776-.039,16.564,16.564,0,0,0,2.346-.3,18.065,18.065,0,0,0,3.624-.784c.594-.29,1.721-.382,4.033-.33a22.937,22.937,0,0,1,2.658.163,11.379,11.379,0,0,1,3,1.048,3.846,3.846,0,0,0,.786.388,4.049,4.049,0,0,0-.779-.488,10.924,10.924,0,0,0-2.668-.972c-.144-.039-.147-.048-.017-.058a9.237,9.237,0,0,1,2.574.868,6.019,6.019,0,0,1,1.813,1.385,4.15,4.15,0,0,1,.79,1.277c0,.042-.118-.14-.261-.4s-.28-.457-.306-.428.049.2.165.382a4.009,4.009,0,0,1,.51,2.113c.017.491.015.807,0,.7s-.137.178-.281.694a3.836,3.836,0,0,0-.207,1.38c.027.354.02.411-.027.2-.06-.27-.072-.245-.131.273a6.049,6.049,0,0,0,0,1.14c.059.517.071.542.13.273.047-.213.053-.167.023.16a2.565,2.565,0,0,0,.167,1.1c.216.667.642,1.5.719,1.414.024-.028-.015-.129-.087-.225-.141-.188-.349-.62-.3-.62a3.248,3.248,0,0,1,.305.491,5.911,5.911,0,0,0,1.826,1.881c.292.174.435.286.318.25a2.265,2.265,0,0,1-.495-.265c-.155-.109-.3-.172-.333-.139a4.412,4.412,0,0,0,1.6.826,4.794,4.794,0,0,0,2.594,0c.183-.094.307-.2.276-.237s-.1-.014-.158.051a.357.357,0,0,1-.233.117c-.073,0-.027-.064.1-.142a4.528,4.528,0,0,0,.424-.3.741.741,0,0,1,.925.028c.148.139.2.305.221.69a2.53,2.53,0,0,1-.054.734c-.061.173-.071.121-.038-.22.034-.365.008-.311-.143.3a7.774,7.774,0,0,0-.195.991,5.274,5.274,0,0,1-2.069,2.751c-.712.438-.806.408-.118-.037a4.748,4.748,0,0,0,1.383-1.282c.107-.161-.064-.019-.379.314-1.9,2-4.747,2.122-7.649.316-.721-.449-.814-.483-.906-.338a13.618,13.618,0,0,0-.42,1.673,44.353,44.353,0,0,1-3.348,10.018,2.237,2.237,0,0,0-.26.621,3.736,3.736,0,0,0,.446-.8c.4-.826.614-1.16.336-.521a4.772,4.772,0,0,1-.818,1.435c-.05-.013-.11.039-.134.115-.029.092-.007.112.067.059.14-.1.1-.025-.526,1.042a16.094,16.094,0,0,1-2.2,2.9c-.558.581-1.383,1.226-1.253.98.081-.153.053-.144-.559.176a3.706,3.706,0,0,1-2.864.358c-.17-.082-.328-.128-.351-.1s.088.115.248.2c.18.091.23.148.132.15a.942.942,0,0,1-.448-.333Zm2.825-.3a6.5,6.5,0,0,0,2.6-2.141,13.957,13.957,0,0,0,1.807-2.528A39.379,39.379,0,0,0,538,961.888a14.261,14.261,0,0,1,.549-2.07c.115-.133.253-.077,1.266.512,2.4,1.4,4.529,1.537,6.34.423a5.613,5.613,0,0,0,2.262-3.494c.185-1.035-.066-1.34-.732-.887a3.479,3.479,0,0,1-1.99.492,5.509,5.509,0,0,1-3.6-1.926,5.639,5.639,0,0,1-1.357-2.827,8.528,8.528,0,0,1,.337-4.362,3.7,3.7,0,0,0-.524-3.241,6.579,6.579,0,0,0-3.49-2.185l-1.443-.381a19.084,19.084,0,0,0-2.585-.167c-2.207-.046-3.491.09-4.048.428a.987.987,0,0,1-.395.143,2.219,2.219,0,0,0-.469.093,23.777,23.777,0,0,1-2.441.456c-.516.087-1.13.2-1.365.244s-.753.137-1.152.2-1.09.176-1.536.256c-.836.15-1.252.222-2.858.491-.516.087-1.13.2-1.365.244s-.753.138-1.152.2-1.051.173-1.45.246-1.051.185-1.45.249-1.071.178-1.493.254c-1.207.217-1.824.325-2.559.445-.375.061-1.009.172-1.408.245s-1.032.183-1.408.244-.894.153-1.152.2-.757.137-1.109.191-1.024.167-1.493.252c-.805.146-1.224.217-2.644.452-.328.054-1.023.158-1.543.231-1.064.148-1.378.284-1.568.679-.122.255-.115.327.113,1.091a4.989,4.989,0,0,0,1.759,2.89,8.173,8.173,0,0,0,3.627,1.47,15.391,15.391,0,0,0,3.967.214,28.5,28.5,0,0,0,3.967-.167c.563-.087,1.177-.181,1.365-.208a65.893,65.893,0,0,0,13.308-3.727,11.239,11.239,0,0,1,3.679-.993c.8,0,1.141.112,1.141.373s-.342.459-1.324.8c-.468.163-1.465.527-2.216.81s-1.768.663-2.261.844c-1.571.578-7.842,2.9-9.384,3.468l-2.218.827c-.727.272-2.071.769-2.986,1.1s-2.239.827-2.943,1.092-1.721.645-2.261.845c-1.1.406-1.28.544-1.28.961a3.051,3.051,0,0,0,1.257,1.59,15.845,15.845,0,0,0,3.909,1.421,8.8,8.8,0,0,0,3.065.05,13.462,13.462,0,0,0,4.686-2.114,47.647,47.647,0,0,1,4.229-2.463c.258-.13,1.308-.719,2.334-1.308,2.78-1.6,5.74-2.948,6.462-2.948.739,0,.34.335-2.953,2.476l-5.715,3.72c-1.689,1.1-4.4,2.86-6.014,3.911a34.661,34.661,0,0,0-3.218,2.241,1.009,1.009,0,0,0-.231,1.209c.2.434.5.7,1.371,1.208a6.651,6.651,0,0,0,5.148.7,23.2,23.2,0,0,0,5.843-3.716c.469-.394,1.41-1.134,2.09-1.645s1.678-1.316,2.218-1.789a6.323,6.323,0,0,1,1.574-1.182c.026,0,.047.083.047.184,0,.234-.622.967-3.415,4.021-5.812,6.357-6.292,6.9-6.347,7.152-.156.724.706,1.53,1.636,1.53a11.218,11.218,0,0,0,4.329-1.609,9.994,9.994,0,0,0,2.08-1.707c.5-.541,2.211-2.74,2.824-3.623a11.545,11.545,0,0,1,1.477-1.785c.186,0-.122.826-1.13,3.024-.6,1.309-1.717,3.739-2.484,5.4a19.816,19.816,0,0,0-1.394,3.348.84.84,0,0,0,.642.823A4.293,4.293,0,0,0,529.522,977.8Zm1.561-.573a14.413,14.413,0,0,0,2.271-2.609,7.97,7.97,0,0,0,1.048-1.8c-.022-.026-.169.189-.328.478a14.825,14.825,0,0,1-3.207,3.97q-.4.272-.231.272A2.845,2.845,0,0,0,531.084,977.224Zm-4.006-5.579a24.124,24.124,0,0,0,2.272-2.725,17.336,17.336,0,0,0-1.157,1.3c-.677.793-1.365,1.558-1.53,1.7s-.268.261-.23.264A3.9,3.9,0,0,0,527.078,971.645Zm-4.5-3.033c2.965-3.227,5.391-5.994,5.187-5.916-.287.11-6.069,4.645-6.01,4.714a6.622,6.622,0,0,0,.912-.674c1.19-.961,3.427-2.675,3.946-3.023l.422-.283-.33.468a4.42,4.42,0,0,1-.472.586c-.152.126-5.5,5.969-6.354,6.945C518.734,972.74,520.066,971.348,522.58,968.612Zm-11.234.029c-.045-.041-.214-.209-.376-.372s-.239-.208-.171-.1c.165.26.446.539.547.543C511.4,968.715,511.4,968.689,511.347,968.641Zm-.176-2.693c-.046-.058-.459.4-.459.511,0,.048.111-.037.246-.191S511.188,965.971,511.17,965.948Zm-7.113-4.307a2.26,2.26,0,0,0-.356-.322,1.757,1.757,0,0,1-.748-1.953c.087-.209.086-.21-.043-.024a1.362,1.362,0,0,0-.008,1.138c.188.423,1.155,1.4,1.155,1.161Zm44.015-2.552a1.952,1.952,0,0,0,.234-.546,4.854,4.854,0,0,0-.573,1.01c0,.126.1-.008.339-.463Zm.685-2.715a.665.665,0,0,0-1.071-.388c-.163.155-.163.156.005.085.4-.167.649-.164.814.009a.593.593,0,0,1,.167.309c0,.073.019.133.043.133s.043-.067.043-.149Zm-6.291-1.478a2.752,2.752,0,0,0-.619-.584,5.826,5.826,0,0,0,1.121,1.22A2.7,2.7,0,0,0,542.467,954.9Zm-44.316-3.059a3.644,3.644,0,0,0-.572-.592,6.572,6.572,0,0,0,1.039,1.213A2.674,2.674,0,0,0,498.151,951.837Zm42.135-8.057a2.408,2.408,0,0,0-.6-.536c-.056,0-.007.081.111.173a6.429,6.429,0,0,1,.555.538,2.451,2.451,0,0,0,.384.368A3.637,3.637,0,0,0,540.287,943.78Zm-10.6,34.307a2.07,2.07,0,0,1,.536-.209,2.937,2.937,0,0,1-.931.454C529.23,978.331,529.408,978.221,529.687,978.088Zm64.944-.12a.8.8,0,0,1,.341,0c.082.025-.005.044-.193.043s-.254-.021-.148-.045Zm.98,0a.606.606,0,0,1,.3,0c.082.025.015.045-.149.045S595.53,977.994,595.612,977.969Zm-1.882-.2c-.547-.225-.387-.251.2-.032.28.1.432.188.338.186A2.089,2.089,0,0,1,593.73,977.771Zm2.6.022c.323-.163.47-.444.546-1.045l.057-.446.011.377c.018.607-.378,1.266-.754,1.255-.072,0-.009-.065.14-.141Zm-2.275-.114a5.205,5.205,0,0,1-1.013-.494,1.842,1.842,0,0,0-.585-.3c-.022.026.117.141.309.254a1.255,1.255,0,0,1,.349.257c0,.027-.145-.036-.322-.141a13,13,0,0,1-3.492-4.008c-.74-1.264-1.024-1.809-.894-1.715.165.118.122,0-.277-.811a44.818,44.818,0,0,1-3.04-9.379,14.347,14.347,0,0,0-.428-1.705c-.073-.1-.278-.019-1,.409a7.251,7.251,0,0,1-4.234,1.206,5.239,5.239,0,0,1-2.44-.818c-.192-.141-.367-.234-.39-.208-.078.09.748.585,1.362.817.338.127.549.233.469.236a5,5,0,0,1-1.678-.78,6.465,6.465,0,0,1-2.008-2.883c-.03-.136.062.038.2.387s.281.61.308.579-.016-.171-.095-.311a7.952,7.952,0,0,1-.552-2.117c0-.609.376-.83.981-.576.168.071.168.069.005-.085-.416-.394-.977-.058-1.074.645l-.061.437-.011-.379a.823.823,0,0,1,.239-.669c.319-.37.572-.368,1.148.01a3.168,3.168,0,0,0,2.435.257c.737-.182.908-.146.245.052a4.718,4.718,0,0,1-2.444-.051c-.157-.1-.307-.15-.333-.12s.1.132.285.226a5.085,5.085,0,0,0,2.642.011,4.133,4.133,0,0,0,1.466-.733c-.026-.03-.2.037-.394.15-.563.334-.527.229.044-.128a4.719,4.719,0,0,0,1.631-1.6,1.925,1.925,0,0,1,.455-.575c.08.026.272-.45.471-1.164a7.747,7.747,0,0,0,.152-1.388c.025-.827.02-.863-.036-.3-.055.549-.06.5-.035-.332a4.819,4.819,0,0,0-.224-1.894,9.292,9.292,0,0,1-.263-1.155c-.009-.2-.018-.2-.067.06-.031.164-.051-.183-.045-.77a6.509,6.509,0,0,1,.068-1.133c.031-.036.035.088.009.275-.042.3-.032.292.093-.1a3.781,3.781,0,0,1,.884-1.529c.262-.32.395-.533.3-.475a4.337,4.337,0,0,0-.985,1.3c-.133.244-.242.4-.242.336a5.87,5.87,0,0,1,1.119-1.638,6.743,6.743,0,0,1,1.483-1.064c.047,0-.062.095-.243.205-.56.343-.287.305.38-.053a11.957,11.957,0,0,1,3.269-1,14.491,14.491,0,0,1,3.156-.119,8.207,8.207,0,0,1,2.863.274,4.546,4.546,0,0,0,1.165.236c.289.005.485.039.437.074-.16.115.276.2.728.147.273-.034.361-.024.23.024-.287.105-.135.137,4.649.963,1.126.194,2.3.393,2.6.441s.938.157,1.408.241,1.371.242,2,.349,1.536.264,2,.348,1.237.217,1.706.3,1.755.3,2.858.491l8.1,1.4c1.1.191,2.448.406,2.989.478,1.026.137,1.43.3,1.655.675.073.122.132.178.131.125a1.253,1.253,0,0,0-.467-.626c-.1-.063-.122-.11-.054-.112.238-.006.557.538.566.964.005.234-.026.383-.072.35s-.058.057-.023.229c.045.224.037.255-.037.139s-.083-.088-.042.132c.037.2.024.26-.045.211s-.079,0-.037.153.033.2-.043.149-.087-.013-.043.149.034.2-.048.145-.093-.03-.052.093c.052.156-.143.753-.246.753-.024,0,0-.1.055-.223.079-.178.077-.2-.008-.106a.757.757,0,0,0-.13.368c-.058.616-.962,1.589-2.038,2.192a6.525,6.525,0,0,1-1.029.493c-.141.032-.024-.049.258-.18a6.174,6.174,0,0,0,1.392-.809,2.766,2.766,0,0,0-.627.3c-1.914,1.07-5.325,1.54-8.954,1.236a57.266,57.266,0,0,1-16.124-3.864c-2.733-1.039-3.333-1.208-4.175-1.171-.783.034-.915.182-.374.416.319.138,3.633,1.379,6.381,2.389.887.326,5.107,1.885,12.113,4.476,6.648,2.458,7.325,2.719,7.516,2.9a1.167,1.167,0,0,1,.129,1.089c-.053.174-.045.216.031.162s.081-.027.016.111a4.3,4.3,0,0,1-1.055,1.113c-.418.326-.648.424-.364.155.163-.155.163-.156-.005-.085l-1.28.542a9.873,9.873,0,0,1-5.757.84,13.61,13.61,0,0,1-4.956-2.285c-.8-.531-2.194-1.354-3.093-1.828s-2.633-1.423-3.853-2.107c-2.629-1.474-5.076-2.572-5.076-2.277a13.628,13.628,0,0,0,2.687,1.9c1.032.67,2.856,1.857,4.052,2.636l6.355,4.139c4.577,2.979,4.649,3.04,4.649,3.877a1.5,1.5,0,0,1-.137.636c-.075.125-.116.25-.092.279.09.1.314-.56.313-.928,0-.619-.217-.934-1.163-1.694-.087-.07.05,0,.3.149a1.8,1.8,0,0,1,.822,2.2,4.557,4.557,0,0,1-2.181,1.738c-.117.037.063-.087.4-.275.678-.378,1.429-.945,1.359-1.026-.025-.029-.161.061-.3.2a7.615,7.615,0,0,1-1.882,1.079,6.407,6.407,0,0,1-2.5.476,7.318,7.318,0,0,1-4.281-1.517c-.61-.385-1.372-.894-1.694-1.133a2.46,2.46,0,0,0-.622-.391,24.917,24.917,0,0,0,3.493,2.36c.291.161.433.264.316.231a25.911,25.911,0,0,1-4.66-3.187c.065-.075-.107-.327-.223-.327-.05,0-.043.059.015.141a11.936,11.936,0,0,1-1.366-.991c-1.418-1.094-1.614-1.223-1.614-1.053,0,.044.854,1.014,1.9,2.156,3.657,4,5.268,5.814,5.268,5.922,0,.06-.061.022-.135-.084-.133-.19-.134-.19-.066.006a2.228,2.228,0,0,1-.084,1.377,1.836,1.836,0,0,1-.637.533c-.945.5-2.166.273-4.394-.829-.6-.3-1.191-.614-1.306-.7s-.231-.133-.257-.1.214.213.536.405.546.35.5.352a9.1,9.1,0,0,1-2.079-1.461,32.26,32.26,0,0,1-3.144-3.847c.022-.026.2.18.4.457s.381.482.4.455a14.593,14.593,0,0,0-1.414-1.933l-.284-.356.047.319c.045.3.462,1.236,3.211,7.166,1.3,2.805,1.432,3.231,1.154,3.724a1.165,1.165,0,0,1-.435.4,4.268,4.268,0,0,1-2.171-.019Zm1.919-.136a1,1,0,0,0,.49-.306c.317-.455.321-.445-1.726-4.852s-2.914-6.33-3.074-6.82c-.3-.906,0-.764.821.4a37.78,37.78,0,0,0,4.168,5.159c1.6,1.385,4.454,2.633,5.77,2.526,1.119-.091,1.8-.924,1.417-1.728a9.306,9.306,0,0,0-.914-1.084c-.446-.477-1.4-1.517-2.128-2.311s-1.608-1.759-1.962-2.144c-1.543-1.675-4.191-4.636-4.432-4.956-.267-.353-.316-.493-.2-.573s.431.125,1.475,1.031c.584.507,1.715,1.417,2.513,2.024s1.763,1.373,2.144,1.7a31.622,31.622,0,0,0,4.055,2.808,10.826,10.826,0,0,0,1.749.757,6.242,6.242,0,0,0,4.94-.75c1.367-.775,1.762-1.459,1.3-2.245a1.727,1.727,0,0,0-.405-.467c-.218-.148-7.5-4.9-11.264-7.35-6.616-4.306-6.654-4.332-6.654-4.611,0-.5,3.426.943,6.559,2.766.829.482,2.072,1.171,2.762,1.53a37.314,37.314,0,0,1,4.007,2.356,12.72,12.72,0,0,0,3.535,1.755,5.97,5.97,0,0,0,3.212.42,11.076,11.076,0,0,0,3.495-.91,4.948,4.948,0,0,0,2.368-1.567.932.932,0,0,0,.1-1.126c-.082-.085-1.953-.825-4.159-1.643s-5.046-1.875-6.313-2.348-2.591-.964-2.943-1.09c-.713-.256-.84-.3-6.654-2.459-2.276-.844-4.641-1.72-5.258-1.946a4.711,4.711,0,0,1-1.274-.608c-.145-.186-.145-.206-.007-.367.12-.14.309-.17,1.061-.169,1.074,0,1.3.064,4.156,1.149a67.63,67.63,0,0,0,11.2,3.251l1.152.214a29.117,29.117,0,0,0,3.6.39c.844.051,1.766.114,2.047.139a28.458,28.458,0,0,0,4.51-.384,6.742,6.742,0,0,0,3.971-2.091,5.107,5.107,0,0,0,1.143-2.295c.211-.807.211-.818.05-1.056a1.853,1.853,0,0,0-1.309-.557,5.567,5.567,0,0,1-.859-.1c-.281-.056-.781-.143-1.109-.193s-1.25-.206-2.047-.345-1.719-.3-2.047-.351-.962-.164-1.408-.247-1.079-.194-1.408-.248-.962-.165-1.408-.248c-.875-.163-1.765-.313-2.644-.446-.3-.046-.938-.155-1.408-.243s-1.122-.2-1.45-.255-.962-.164-1.407-.248-1.079-.194-1.408-.245c-1.6-.25-1.891-.3-2.074-.35s-.685-.138-1.978-.342c-.3-.048-.938-.159-1.408-.247s-1.122-.2-1.45-.249c-.637-.1-1.942-.343-2.645-.5-1.086-.245-1.4-.309-1.879-.383a2.713,2.713,0,0,1-.682-.179c-.407-.242-1.577-.356-3.731-.364a11.939,11.939,0,0,0-4.48.534,6.866,6.866,0,0,0-3.294,2.083c-.821,1.056-.96,2.139-.5,3.864a16.394,16.394,0,0,1,.356,1.735,4.294,4.294,0,0,1-.064,1.735,6.531,6.531,0,0,1-.986,2.652,5.359,5.359,0,0,1-3.385,2.32,2.734,2.734,0,0,1-1.531.091,3.292,3.292,0,0,1-1-.362c-.817-.549-1.086-.21-.8,1.007a5.3,5.3,0,0,0,1.3,2.483,4.487,4.487,0,0,0,3.579,1.523,6.747,6.747,0,0,0,3.649-1.112c.583-.342,1.087-.634,1.12-.651.162-.078.341.371.548,1.375,1.366,6.638,3.6,11.954,6.259,14.884,1.56,1.72,3.165,2.444,4.577,2.063Zm-3.751-.922a14.667,14.667,0,0,1-3-3.858,8.491,8.491,0,0,0-.7-1.119,20.245,20.245,0,0,0,1.929,3.179,9.539,9.539,0,0,0,1.932,2.02C592.435,976.843,592.363,976.743,592.223,976.622Zm4.954-4.762a15.91,15.91,0,0,1-2.3-2.355c-.51-.623-.868-1.028-.8-.9a16.073,16.073,0,0,0,3.164,3.379C597.3,971.981,597.266,971.925,597.177,971.86Zm6.773-.308c0-.022-1.526-1.713-3.391-3.757-3.684-4.038-4.454-4.922-4.116-4.727s2.74,1.985,3.1,2.307c.178.161.346.268.372.237a26.206,26.206,0,0,0-2.152-1.746,27.421,27.421,0,0,0-2.246-1.636,8.835,8.835,0,0,0,.975,1.219c.99,1.129,7.4,8.14,7.441,8.142C603.941,971.593,603.95,971.575,603.95,971.553Zm-2.9-5.051a2.477,2.477,0,0,0-.734-.531c-.02.023.108.158.285.3C600.9,966.51,601.05,966.586,601.05,966.5Zm18.455-5.432a3.148,3.148,0,0,0,.824-.909c0-.051-.182.1-.405.342a7.7,7.7,0,0,1-.618.6c-.117.092-.181.17-.141.173a1.065,1.065,0,0,0,.341-.209Zm-43.385-1.4a7.9,7.9,0,0,1-.645-.818c-.1-.164-.184-.242-.185-.175a6.739,6.739,0,0,0,1.21,1.514c.045,0-.125-.234-.38-.521Zm4.549-4.909a4.911,4.911,0,0,0,1.186-1.642c0-.048-.168.177-.373.5a5.847,5.847,0,0,1-.789.972c-.593.547-.589.543-.5.543A1.923,1.923,0,0,0,580.67,954.764Zm44.451-3.185a4.278,4.278,0,0,0,.612-.818l.158-.333-.242.347a5.179,5.179,0,0,1-.884,1.016c-.164.149-.254.271-.2.272A2.219,2.219,0,0,0,625.121,951.579Zm-41.432-8.747c.169-.116.288-.232.265-.259a1.589,1.589,0,0,0-.648.428c0,.076.073.044.383-.169Zm12.9,32.873a2.152,2.152,0,0,1-.189-.542,4.125,4.125,0,0,1,.449,1.048A1.768,1.768,0,0,1,596.589,975.7Zm-68.9-1.782c.294-.654.574-1.234.622-1.289a7.478,7.478,0,0,1-.449,1.09c-.295.654-.575,1.234-.622,1.289A7.579,7.579,0,0,1,527.685,973.923Zm68.332.545a2.468,2.468,0,0,1-.216-.595,3.017,3.017,0,0,1,.3.595,2.476,2.476,0,0,1,.216.595A3.005,3.005,0,0,1,596.017,974.468Zm-75.473.03a.425.425,0,0,1,.256,0c.058.027-.01.048-.151.046s-.188-.024-.1-.049Zm.766,0a.6.6,0,0,1,.3,0c.082.025.015.045-.149.045s-.231-.02-.149-.045Zm.6-.1a.424.424,0,0,1,.256,0c.058.027-.01.048-.151.046s-.188-.024-.1-.049Zm.531-.13a.833.833,0,0,1,.3-.085c.081,0,.065.031-.043.085a.833.833,0,0,1-.3.085C522.318,974.355,522.333,974.324,522.441,974.27Zm79.654-.167a.607.607,0,0,1,.3,0c.082.025.015.045-.149.045S602.013,974.128,602.095,974.1Zm-.832-.1a4.354,4.354,0,0,1-1.046-.384.674.674,0,0,1,.326.064c.161.057.542.163.847.237s.439.133.3.132A2.089,2.089,0,0,1,601.263,974Zm1.386,0a.285.285,0,0,1,.213,0c.059.027.011.05-.107.05S602.591,974.033,602.649,974.006Zm-79.22-.072a8.253,8.253,0,0,1,1.329-.622,2.574,2.574,0,0,1-.608.349C523.563,973.947,523.338,974.032,523.429,973.934Zm79.885-.148c.339-.179.807-.717.807-.928,0-.059.024-.081.052-.047.177.206-.724,1.166-1.088,1.16C603.021,973.969,603.124,973.886,603.314,973.786Zm-7.894-.607a2.473,2.473,0,0,1-.216-.595,3.011,3.011,0,0,1,.3.595,2.474,2.474,0,0,1,.216.595,3.018,3.018,0,0,1-.3-.595Zm4.18.2c-.07-.053-.09-.1-.043-.1a.472.472,0,0,1,.213.1c.07.053.09.1.043.1A.471.471,0,0,1,599.6,973.378Zm-.725-.345c-.235-.128-.388-.234-.341-.236a2.348,2.348,0,0,1,.512.231c.234.128.388.234.341.236A2.343,2.343,0,0,1,598.874,973.033Zm-79.882-.209c0-.115.024-.139.052-.06a.227.227,0,0,1-.007.19C519.009,972.987,518.989,972.929,518.992,972.824Zm85.235-.487c0-.218.018-.3.039-.172a1.26,1.26,0,0,1,0,.4C604.243,972.656,604.227,972.555,604.228,972.337Zm-9.448-.545a3.4,3.4,0,0,1-.258-.694,4.028,4.028,0,0,1,.343.694,3.4,3.4,0,0,1,.258.694A4.033,4.033,0,0,1,594.78,971.791Zm-66.231.273c.553-1.233,1.551-3.346,1.58-3.346s.051-.015-.883,2.008c-.4.859-.738,1.561-.759,1.561s.007-.1.062-.223Zm59.424-1.289a8.488,8.488,0,0,1-.642-1.512,9.021,9.021,0,0,1,.518,1.051C588.374,971.472,588.463,971.8,587.973,970.775Zm6.21-.273a1.694,1.694,0,0,1-.174-.5,2.147,2.147,0,0,1,.259.5,1.7,1.7,0,0,1,.174.5A2.149,2.149,0,0,1,594.182,970.5Zm-79.011-.272a7.411,7.411,0,0,1,.938,0c.245.02.023.036-.494.036S514.9,970.251,515.171,970.231Zm-.855-.094a.425.425,0,0,1,.256,0c.058.027-.01.048-.151.046s-.188-.024-.1-.049Zm2.389,0a.425.425,0,0,1,.256,0c.058.027-.01.048-.151.046s-.188-.024-.1-.049Zm.869-.234a1.782,1.782,0,0,1,.542-.146,3.038,3.038,0,0,1-.959.341C517.107,970.092,517.295,970,517.575,969.9Zm18.309-.045a2.716,2.716,0,0,1,.206-.545c.113-.245.206-.4.206-.347a2.72,2.72,0,0,1-.206.545C535.976,969.757,535.884,969.913,535.884,969.858Zm57.7-.644a3.4,3.4,0,0,1-.258-.694,4.033,4.033,0,0,1,.343.694,3.4,3.4,0,0,1,.258.694A4.035,4.035,0,0,1,593.585,969.214Zm13.18.54c.07-.018.646-.048,1.28-.068s1.036-.005.9.032a8.636,8.636,0,0,1-1.28.068A4.8,4.8,0,0,1,606.765,969.754ZM518.3,969.61a.472.472,0,0,1,.213-.1c.047,0,.028.043-.043.1a.472.472,0,0,1-.213.1C518.214,969.707,518.233,969.663,518.3,969.61Zm88.014.034a.285.285,0,0,1,.213,0c.059.027.011.05-.107.05S606.259,969.672,606.317,969.644Zm-.649-.147c-.158-.053-.27-.115-.25-.139a.967.967,0,0,1,.415.095c.424.155.281.193-.165.044Zm3.635.048a.286.286,0,0,1,.213,0c.059.028.011.05-.107.05s-.165-.022-.107-.05Zm-22.271-.98c-.2-.488-.172-.571.037-.11a1.181,1.181,0,0,1,.139.42C587.19,968.9,587.111,968.757,587.032,968.565Zm-50.723.2a1.2,1.2,0,0,1,.122-.347c.067-.136.122-.2.122-.149a1.207,1.207,0,0,1-.122.347C536.364,968.755,536.309,968.822,536.309,968.768Zm56.553-1.138c-.188-.435-.342-.814-.342-.843,0-.142.153-.015.378.313.167.244.2.343.107.3-.187-.083-.183-.055.071.528a1.655,1.655,0,0,1,.172.492,5.112,5.112,0,0,1-.385-.791Zm-56.3.444a.656.656,0,0,1,.083-.248c.045-.082.083-.1.083-.05a.658.658,0,0,1-.083.248C536.6,968.106,536.561,968.128,536.561,968.074Zm50.21-.2c-.082-.249-.058-.314.042-.113.05.1.073.2.051.227s-.064-.026-.093-.115Zm-50.04-.294a.658.658,0,0,1,.083-.248c.046-.082.083-.1.083-.05a.656.656,0,0,1-.083.248C536.769,967.61,536.732,967.633,536.732,967.578Zm-26.361-.306a1.14,1.14,0,0,1,.083-.438c.056-.1.065-.022.029.248C510.419,967.573,510.369,967.656,510.371,967.273Zm76.23.1c-.082-.249-.058-.314.042-.113.05.1.073.2.051.227S586.63,967.465,586.6,967.376Zm-49.7-.294a.656.656,0,0,1,.083-.248c.045-.082.083-.1.083-.05a.658.658,0,0,1-.083.248C536.939,967.115,536.9,967.137,536.9,967.083Zm49.488-.3c-.143-.365-.116-.442.039-.111a.676.676,0,0,1,.1.323C586.506,967.015,586.445,966.92,586.391,966.781Zm-49.181-.64a4.223,4.223,0,0,1,.169-.545c.094-.239.106-.249.064-.05a4.217,4.217,0,0,1-.169.545C537.18,966.33,537.167,966.34,537.21,966.141Zm48.75-.7a.908.908,0,0,1-.062-.357c.018-.021.076.1.129.28a.907.907,0,0,1,.062.357c-.018.021-.076-.1-.129-.28Zm-48.45-.286a2.27,2.27,0,0,1,.115-.5c.063-.191.115-.28.115-.2a2.269,2.269,0,0,1-.115.5C537.561,965.142,537.51,965.231,537.51,965.149Zm73.585-.4a1.117,1.117,0,0,1-.32-.245c0-.027.154.042.341.153a1.246,1.246,0,0,1,.341.25c0,.065,0,.065-.363-.157Zm-25.436-.347a.67.67,0,0,1-.02-.307c.02-.023.062.076.094.222a.67.67,0,0,1,.021.307C585.732,964.644,585.69,964.544,585.659,964.4Zm24.178-.473c-3.98-2.574-9.614-6.263-9.682-6.338-.153-.169.452.217,4.692,2.985,2.3,1.5,4.554,2.97,5.012,3.263a7.4,7.4,0,0,1,.832.577C610.69,964.479,610.7,964.484,609.837,963.926Zm-95.713,0c0-.026.739-.528,1.642-1.115s2.026-1.321,2.5-1.632a6.806,6.806,0,0,1,1.408-.855c0,.021-.6.432-1.344.913s-1.689,1.1-2.111,1.383A18.541,18.541,0,0,1,514.124,963.927Zm23.727-.066a1.237,1.237,0,0,1,.073-.347c.046-.125.073-.143.073-.049a1.239,1.239,0,0,1-.073.347C537.878,963.936,537.851,963.955,537.851,963.861Zm-28.184-.37a4.193,4.193,0,0,1,.725,0c.2.021.036.038-.363.038S509.467,963.512,509.667,963.491Zm-.979-.1a.425.425,0,0,1,.256,0c.058.027-.01.048-.151.046s-.188-.024-.105-.049Zm2.216,0a.607.607,0,0,1,.3,0c.082.025.015.045-.149.045S510.821,963.421,510.9,963.4Zm-2.857-.1a.805.805,0,0,1,.341,0c.082.025-.005.044-.193.043s-.254-.021-.148-.045Zm3.9-.125a5.64,5.64,0,0,1,.682-.189c.189,0-.546.265-.9.32C511.449,963.345,511.505,963.311,511.948,963.17Zm73.369-.06a.67.67,0,0,1-.021-.307c.02-.023.062.076.094.222a.671.671,0,0,1,.02.307C585.391,963.355,585.349,963.256,585.318,963.11ZM507,963.12c-.445-.171-.3-.172.341,0,.32.084.416.134.256.135a2.052,2.052,0,0,1-.6-.13Zm31.021.047a1.241,1.241,0,0,1,.073-.347c.046-.125.073-.143.073-.05a1.236,1.236,0,0,1-.073.347C538.049,963.242,538.022,963.261,538.022,963.167Zm74.865-.172a6.728,6.728,0,0,1,.9,0c.246.02.045.036-.448.036s-.694-.016-.448-.036Zm-99.385-.367a17.539,17.539,0,0,0,1.791-.938c.553-.334.929-.537.836-.453a13.768,13.768,0,0,1-3.311,1.727A2.66,2.66,0,0,1,513.5,962.628Zm98.212.237c-.144-.057-.074-.066.213-.027a2.063,2.063,0,0,1,.462.094C612.456,963,611.927,962.949,611.713,962.865Zm2.751.036a.606.606,0,0,1,.3,0c.082.025.015.045-.149.045S614.382,962.926,614.465,962.9Zm.6-.1a.606.606,0,0,1,.3,0c.082.025.015.045-.149.045S614.98,962.827,615.062,962.8Zm-109.6-.277c-.282-.13-.473-.239-.427-.243a5.343,5.343,0,0,1,1.059.448c.08.092-.149.017-.633-.205Zm105.395.1c-.4-.178-.226-.182.256,0,.211.077.307.14.213.14a1.55,1.55,0,0,1-.469-.135Zm5.161,0c.641-.168.787-.166.341,0a2.053,2.053,0,0,1-.6.13C615.606,962.755,615.7,962.7,616.021,962.62Zm-30.831-.106c0-.115.024-.139.052-.06a.227.227,0,0,1-.007.19C585.206,962.678,585.186,962.619,585.19,962.515Zm-47-.1c0-.116.024-.139.052-.06a.227.227,0,0,1-.007.19C538.2,962.579,538.183,962.52,538.187,962.416Zm71.479-.229a15.912,15.912,0,0,1-2.645-1.528c-.493-.33-1.548-.97-2.346-1.422a13.564,13.564,0,0,1-1.365-.823,39.366,39.366,0,0,1,3.753,2.177A17.5,17.5,0,0,0,610,962.229c.31.126.507.231.436.232a4.068,4.068,0,0,1-.768-.275Zm7.08.257a3.65,3.65,0,0,1,1.087-.426c.018.021-.171.117-.42.212s-.5.194-.56.219-.107.023-.107-.005Zm-31.691-.466a.848.848,0,0,1-.019-.357c.022-.025.064.1.094.271C585.2,962.3,585.132,962.384,585.055,961.978Zm-46.783.041c0-.116.024-.139.052-.06a.228.228,0,0,1-.007.19C538.288,962.182,538.268,962.124,538.272,962.019Zm4.962-.114a3.2,3.2,0,0,1,.64,0c.176.021.032.039-.32.039S543.058,961.927,543.234,961.905Zm74.792-.027a.475.475,0,0,1,.256-.091c.084,0,.07.034-.043.091C618,962,617.87,962,618.026,961.879Zm-75.56-.068a.6.6,0,0,1,.3,0c.082.025.015.045-.149.045S542.384,961.835,542.466,961.81Zm1.878,0a.425.425,0,0,1,.256,0c.058.027-.01.048-.151.046s-.188-.024-.105-.049Zm-5.988-.187c0-.115.024-.139.052-.06a.228.228,0,0,1-.007.19C538.374,961.785,538.353,961.727,538.357,961.622Zm3.64.091a.285.285,0,0,1,.213,0c.059.028.011.05-.107.05s-.165-.022-.107-.05Zm3.092-.088a2.28,2.28,0,0,1,.469-.134c.149.01-.5.273-.682.274C544.782,961.766,544.879,961.7,545.09,961.626Zm73.448.055a.471.471,0,0,1,.213-.1c.047,0,.028.043-.043.1a.47.47,0,0,1-.213.1C618.448,961.776,618.467,961.733,618.538,961.68Zm-77.556-.245a12.048,12.048,0,0,1-1.327-.687c-.79-.474-.964-.535-.964-.341,0,.064-.025.087-.055.052s-.009-.127.046-.205c.085-.12.228-.064.92.359a11.384,11.384,0,0,0,1.553.78c.4.153.658.277.564.275A3.568,3.568,0,0,1,540.982,961.435Zm38.336-.026a5.377,5.377,0,0,1,.81,0c.223.02.041.037-.405.037S579.1,961.43,579.318,961.409Zm5.566-.225a.846.846,0,0,1-.019-.358c.022-.025.064.1.094.271C585.03,961.511,584.961,961.591,584.884,961.185Zm-46.435,0c0-.136.019-.192.043-.124a.441.441,0,0,1,0,.248C538.468,961.377,538.449,961.321,538.449,961.185Zm40.235.13a.151.151,0,0,1,.164.008c.028.033-.022.056-.112.052s-.12-.028-.052-.06Zm1.9.031a2.059,2.059,0,0,1,.462-.094c.288-.039.357-.03.213.027-.213.084-.742.137-.675.067Zm1.269-.312a1.179,1.179,0,0,1,.41-.1c.044.051-.5.256-.653.248C581.534,961.175,581.643,961.109,581.853,961.034Zm-65.383-.105c.218-.193,2.864-1.753,2.9-1.709.015.018-.67.444-1.522.947a10.892,10.892,0,0,1-1.379.763Zm22.058-.2c0-.115.024-.139.052-.06a.228.228,0,0,1-.007.19C538.544,960.893,538.524,960.835,538.528,960.73Zm44.276-.077c.263-.126.735-.392,1.048-.592.58-.371.819-.446.819-.259,0,.058-.04.076-.089.041a3.52,3.52,0,0,0-1.027.49,5.881,5.881,0,0,1-1.084.552C582.391,960.884,582.541,960.78,582.8,960.654Zm1.959-.122c0-.115.024-.139.052-.06a.228.228,0,0,1-.007.19C584.78,960.7,584.76,960.637,584.763,960.532Zm-65.009-.274c0-.026.873-.614,1.941-1.308,2.271-1.477,2.136-1.393,2.026-1.26-.047.057-.93.649-1.962,1.317l-1.941,1.256c-.035.023-.064.021-.064,0Zm64.924-.122c0-.115.024-.139.052-.06a.227.227,0,0,1-.007.19C584.695,960.3,584.674,960.24,584.678,960.135Zm35.836-.339a2.043,2.043,0,0,1,.071-.4c.055-.2.069-.209.071-.049a1.334,1.334,0,0,1-.071.4C620.54,959.868,620.513,959.888,620.514,959.8Zm-100.846-.743a.869.869,0,0,1,.3-.142c.047,0-.011.064-.128.142a.869.869,0,0,1-.3.142c-.047,0,.011-.064.128-.142Zm100.831-.029c0-.213-.383-.524-.83-.676-.467-.158-.625-.288-.215-.177a1.9,1.9,0,0,1,1.045.633c.055.119.077.242.05.274S620.5,959.085,620.5,959.024Zm-100.4-.138c.088-.1,5.04-2.882,5.068-2.846.016.021-1.05.65-2.37,1.4a15.056,15.056,0,0,1-2.7,1.449Zm28.335-.527a2.429,2.429,0,0,1,.115-.446c.063-.191.116-.28.118-.2a1.584,1.584,0,0,1-.115.446C548.483,958.324,548.43,958.414,548.43,958.359Zm54.241-.2c-.211-.131-.345-.239-.3-.239a1.993,1.993,0,0,1,.469.239c.211.131.346.239.3.239A1.991,1.991,0,0,1,602.671,958.161Zm-96.907-.2c.389-.174.543-.172.213,0a1.094,1.094,0,0,1-.384.133c-.07,0,.006-.063.171-.137Zm112.619-.07a1.463,1.463,0,0,1-.5-.24,2.519,2.519,0,0,1,.666.2c.347.132.573.24.5.24A3.8,3.8,0,0,1,618.383,957.892Zm-111.852-.227a1.534,1.534,0,0,1,.427-.134c.07,0-.006.06-.171.134a1.535,1.535,0,0,1-.427.134C506.29,957.8,506.367,957.739,506.531,957.665Zm93.751-.843c-.915-.539-1.625-.981-1.578-.981s.834.441,1.749.981,1.625.981,1.578.981S601.2,957.362,600.282,956.823Zm-76.434.758a9.08,9.08,0,0,1,.96-.664l1.024-.659c.035-.023.064-.021.064.005a9.088,9.088,0,0,1-.96.664l-1.024.659C523.878,957.609,523.849,957.607,523.849,957.581Zm92.786-.333a4.679,4.679,0,0,1-.888-.387,6.45,6.45,0,0,1,1.05.347,4.142,4.142,0,0,1,.888.387,8.35,8.35,0,0,1-1.05-.347Zm-18.477-.934c-1-.657-2-1.328-2.218-1.491l-.392-.3.3.047a8.862,8.862,0,0,1,1.931.83,1.905,1.905,0,0,1-.571-.212c-.533-.252-.96-.339-.8-.164.044.049.849.59,1.787,1.2,1.521.991,1.955,1.3,1.83,1.284C600,957.511,599.163,956.971,598.158,956.314Zm-90.39.906c.234-.117.369-.117.213,0a.475.475,0,0,1-.256.091C507.641,957.307,507.656,957.276,507.768,957.219Zm66.8-.211c-.071-.413,0-.493.075-.087a.849.849,0,0,1,.019.358C574.645,957.3,574.6,957.183,574.573,957.009Zm-65.833-.148a2.564,2.564,0,0,1,.666-.2,5.159,5.159,0,0,1-1.224.45,2.238,2.238,0,0,1,.559-.25Zm106.556-.137c-.156-.117-.021-.117.213,0,.113.056.127.087.043.091A.477.477,0,0,1,615.3,956.724Zm-.682-.248c-.164-.073-.241-.134-.171-.134a1.539,1.539,0,0,1,.427.134c.164.073.241.134.171.134A1.537,1.537,0,0,1,614.614,956.476Zm-104.03-.3a5.143,5.143,0,0,1,.929-.309,9.542,9.542,0,0,1-1.7.653A4.194,4.194,0,0,1,510.583,956.173Zm34.38.188a3.241,3.241,0,0,1-.725-.247c-.109-.083-.106-.09.02-.045a6.284,6.284,0,0,0,2.148.331c.362-.031.5-.021.347.025a3.9,3.9,0,0,1-1.789-.064Zm68.967-.133c-.156-.117-.021-.117.213,0,.112.056.127.087.043.091A.478.478,0,0,1,613.931,956.228Zm-87.835-.119c.087-.071.336-.258.555-.417.571-.415.319-.422-.548-.015a3.76,3.76,0,0,1-.782.312,10.641,10.641,0,0,1,2.1-.921l.307-.052-.3.242c-.164.133-.567.408-.9.61s-.526.31-.439.239Zm86.9-.228c-.3-.128-.514-.236-.464-.24a3.915,3.915,0,0,1,.682.233c.326.132.535.24.464.24A3.573,3.573,0,0,1,612.993,955.881Zm-14.758-.2c-.117-.078-.175-.142-.128-.142a.871.871,0,0,1,.3.142c.117.078.175.142.128.142A.869.869,0,0,1,598.235,955.682Zm-85.818-.2a1.534,1.534,0,0,1,.427-.134c.07,0-.006.06-.171.134a1.535,1.535,0,0,1-.426.134C512.176,955.618,512.253,955.558,512.417,955.484Zm98.885-.216c-.2-.083-.353-.169-.334-.19a1.5,1.5,0,0,1,.5.152c.254.1.4.19.334.19A2.111,2.111,0,0,1,611.3,955.268Zm-97.947-.131a.475.475,0,0,1,.256-.091c.084,0,.07.034-.043.091C513.334,955.254,513.2,955.254,513.356,955.137Zm1.4-.51a6.461,6.461,0,0,1,1.046-.353,13.659,13.659,0,0,1-1.984.754A6.568,6.568,0,0,1,514.752,954.627Zm95.488.241c-.224-.087-.391-.175-.372-.2a1.692,1.692,0,0,1,.535.157c.275.108.443.2.372.2A2.426,2.426,0,0,1,610.24,954.868Zm-1-.375c-.164-.073-.241-.134-.171-.134a1.536,1.536,0,0,1,.426.134c.164.073.241.134.171.134A1.535,1.535,0,0,1,609.239,954.493Zm-103.8-.123c.364-.019.959-.019,1.322,0s.066.034-.661.034-1.025-.015-.661-.034Zm-1.237-.1a1.049,1.049,0,0,1,.384,0c.106.024.019.043-.192.043S504.1,954.3,504.206,954.274Zm3.712,0a1.312,1.312,0,0,1,.427,0c.1.023,0,.042-.236.041s-.32-.02-.191-.043Zm100.681-.028c-.113-.056-.127-.087-.043-.091a.478.478,0,0,1,.256.091C608.969,954.362,608.834,954.362,608.6,954.245Zm-105.5-.072a2.328,2.328,0,0,1,.555,0c.152.022.028.04-.277.04S502.945,954.2,503.1,954.173Zm5.888,0a3.678,3.678,0,0,1,.682,0c.175.021.011.038-.365.038S508.785,954.193,508.986,954.172Zm7,0a.151.151,0,0,1,.164.008c.028.033-.022.056-.112.052s-.12-.028-.052-.06Zm-13.846-.131c-.228-.068-.233-.076-.043-.076a2.021,2.021,0,0,1,.469.076c.228.068.233.076.043.076A2.014,2.014,0,0,1,502.138,954.047Zm8.317,0c.394-.087,1.08-.129,1.017-.062a4.22,4.22,0,0,1-.718.092c-.513.041-.587.034-.3-.03Zm5.886,0a.475.475,0,0,1,.256-.091c.084,0,.07.034-.043.091C516.32,954.164,516.185,954.164,516.341,954.047Zm91.149-.2c-.235-.1-.369-.183-.3-.183a2.435,2.435,0,0,1,.555.183c.235.1.369.183.3.183A2.435,2.435,0,0,1,607.49,953.848Zm-105.928.034a.286.286,0,0,1,.213,0c.059.028.011.05-.107.05S501.5,953.909,501.562,953.882Zm10.152,0a.806.806,0,0,1,.341,0c.082.025-.005.044-.193.043s-.254-.021-.148-.045Zm5.267-.082a1.1,1.1,0,0,1,.384-.133c.07,0-.006.063-.171.137-.389.174-.543.172-.213,0Zm99.36.078c.411-.018,1.082-.018,1.493,0s.075.033-.746.033S615.93,953.892,616.341,953.873Zm-115.115-.093a.151.151,0,0,1,.163.008c.028.033-.022.056-.112.052s-.12-.028-.052-.06Zm11.127,0a.606.606,0,0,1,.3,0c.082.025.015.045-.149.045S512.271,953.8,512.353,953.78Zm102.411,0a1.967,1.967,0,0,1,.512,0c.128.023,0,.041-.279.04s-.386-.019-.233-.041Zm4.093,0a1.048,1.048,0,0,1,.384,0c.106.024.019.043-.192.043S618.752,953.8,618.857,953.778Zm-117.973-.1a.151.151,0,0,1,.164.008c.028.033-.022.056-.112.052s-.12-.028-.052-.06Zm12.067,0a.425.425,0,0,1,.256,0c.058.027-.01.048-.151.046s-.188-.024-.1-.049Zm100.447,0a.8.8,0,0,1,.341,0c.082.025-.005.044-.193.043s-.254-.021-.148-.045Zm6.44,0a1.624,1.624,0,0,1,.469,0c.129.023.023.041-.235.041S619.709,953.7,619.838,953.679Zm-119.577-.173c-.329-.175-.176-.178.213,0,.164.073.241.135.171.137a1.1,1.1,0,0,1-.384-.133Zm13.244.079a.286.286,0,0,1,.213,0c.059.028.011.05-.107.05s-.165-.022-.107-.05Zm4.838-.289a7.245,7.245,0,0,1,.938-.332,3.719,3.719,0,0,1-.761.347,7.235,7.235,0,0,1-.938.332,3.717,3.717,0,0,1,.761-.347Zm87.7.006a3.676,3.676,0,0,1-.764-.337,10.727,10.727,0,0,1,1.745.639C607.021,953.675,606.958,953.655,606.04,953.3Zm6.057.249c-.412-.066-.415-.068-.085-.078a3.129,3.129,0,0,1,.682.072c.279.067.295.081.085.078A6.149,6.149,0,0,1,612.1,953.551Zm8.7,0a2.017,2.017,0,0,1,.469-.076c.19,0,.186.008-.043.076a2.015,2.015,0,0,1-.469.076C620.565,953.627,620.57,953.619,620.8,953.551Zm-106.822-.069a.424.424,0,0,1,.256,0c.058.027-.01.048-.151.046s-.188-.024-.1-.049Zm.512-.1a.426.426,0,0,1,.256,0c.058.027-.01.048-.151.046s-.188-.024-.105-.049Zm96.244-.03c-.287-.06-.3-.072-.085-.078a3.535,3.535,0,0,1,.64.073c.344.071.353.079.085.078A3.9,3.9,0,0,1,610.732,953.353Zm11.218-.054a3.518,3.518,0,0,1,.554-.13c.171.012-.6.268-.81.267C621.576,953.436,621.691,953.374,621.95,953.3Zm-106.995-.012a.286.286,0,0,1,.213,0c.059.027.011.05-.107.05S514.9,953.315,514.955,953.287Zm.427-.1a.286.286,0,0,1,.213,0c.059.028.011.05-.107.05S515.323,953.216,515.381,953.188Zm94.648,0a.425.425,0,0,1,.256,0c.058.027-.01.048-.151.046s-.188-.024-.105-.049Zm-94.115-.13a1.35,1.35,0,0,1,.384-.079c.135,0,.126.017-.043.079a1.351,1.351,0,0,1-.384.079C515.737,953.135,515.746,953.119,515.915,953.056Zm93.282,0c-.228-.068-.233-.076-.043-.076a2.015,2.015,0,0,1,.469.076c.228.068.233.076.043.076a2.018,2.018,0,0,1-.469-.076Zm-67.978-.153c-.082-.249-.058-.314.042-.113.05.1.073.2.051.227S541.248,952.992,541.219,952.9Zm-24.493-.046a1.972,1.972,0,0,1,.427-.078c.134,0,.124.015-.043.078a1.439,1.439,0,0,1-.427.078C516.491,952.934,516.5,952.926,516.725,952.858Zm87.993-.05c-.164-.074-.241-.135-.171-.137a1.1,1.1,0,0,1,.384.133c.329.175.176.178-.213,0Zm3.817.083a.285.285,0,0,1,.213,0c.059.027.011.05-.107.05S608.477,952.919,608.536,952.891Zm-88.483-.232a2.437,2.437,0,0,1,.555-.183c.07,0-.064.082-.3.183a2.436,2.436,0,0,1-.555.183C519.684,952.842,519.818,952.76,520.053,952.659Zm61.807.184a3.175,3.175,0,0,1,.165-.5c.093-.238.168-.365.167-.284C582.19,952.21,581.867,952.969,581.86,952.844Zm26.208-.055a.425.425,0,0,1,.256,0c.058.027-.01.048-.151.046s-.188-.024-.105-.049Zm-90.634-.1a.151.151,0,0,1,.164.008c.028.033-.022.056-.112.052s-.12-.028-.052-.06Zm89.715-.083c-.235-.07-.35-.131-.256-.135a2.5,2.5,0,0,1,.6.13c.535.173.236.177-.341,0Zm-89.374-.016a.151.151,0,0,1,.164.008c.028.033-.022.056-.112.052S517.707,952.623,517.775,952.591Zm.341-.1a.151.151,0,0,1,.163.008c.028.033-.022.056-.112.052S518.048,952.524,518.116,952.492Zm22.927-.187a.671.671,0,0,1-.021-.307c.02-.023.062.076.094.222a.671.671,0,0,1,.02.307C541.117,952.55,541.074,952.45,541.043,952.305Zm62.182-.042a2.145,2.145,0,0,1-.593-.29,5.424,5.424,0,0,1,.81.282c.4.159.664.29.593.29A4.89,4.89,0,0,1,603.225,952.263Zm-84.773.133a.285.285,0,0,1,.213,0c.059.027.011.05-.107.05S518.394,952.423,518.453,952.4Zm2.325.032a4.927,4.927,0,0,1,1.245-.437,1.311,1.311,0,0,1-.457.211c-.736.261-.788.276-.788.225Zm85.391-.066c-.169-.063-.178-.079-.043-.079a1.353,1.353,0,0,1,.384.079c.169.063.178.079.043.079A1.351,1.351,0,0,1,606.168,952.362Zm-87.225-.1a.878.878,0,0,1,.341-.082c.137,0,.129.018-.043.082C518.95,952.371,518.726,952.371,518.943,952.263Zm86.5-.1c-.217-.109.007-.109.3,0,.171.064.18.08.043.082A.884.884,0,0,1,605.444,952.163Zm-85.818-.1a.833.833,0,0,1,.3-.085c.081,0,.065.031-.043.085a.833.833,0,0,1-.3.085C519.5,952.149,519.518,952.118,519.626,952.064ZM605.044,952a.151.151,0,0,1,.164.008c.028.033-.022.056-.112.052s-.12-.028-.052-.06Zm-84.778-.13c.292-.109.516-.109.3,0a.879.879,0,0,1-.341.082C520.086,951.946,520.094,951.93,520.266,951.866Zm2.1-.045a2.492,2.492,0,0,1,.512-.2c.211-.048.2-.037-.052.08a4.875,4.875,0,0,1-.512.2C522.153,951.948,522.166,951.928,522.365,951.821Zm82.252.077a.151.151,0,0,1,.164.008c.028.033-.022.056-.112.052s-.12-.028-.052-.06Zm-22.413-.188c0-.115.024-.139.052-.06a.227.227,0,0,1-.007.19C582.221,951.872,582.2,951.814,582.2,951.709Zm18.078-.537c-.962-.371-1.71-.678-1.663-.683s.891.3,1.877.674a15.7,15.7,0,0,1,1.663.683C602.089,951.846,601.245,951.543,600.283,951.172Zm3.993.626a.151.151,0,0,1,.164.008c.028.033-.022.056-.112.052s-.12-.028-.052-.06Zm-83.243-.18a1.546,1.546,0,0,1,.469-.135c.094,0,0,.062-.213.14-.482.176-.654.173-.256,0Zm82.9.081a.151.151,0,0,1,.164.008c.028.033-.022.056-.112.052s-.12-.028-.052-.06Zm-.862-.2c-.272-.083-.478-.17-.457-.194a4.551,4.551,0,0,1,1.158.324C603.836,951.7,603.579,951.652,603.073,951.5Zm-79.1-.283a7.241,7.241,0,0,1,.938-.332,3.721,3.721,0,0,1-.761.347,7.206,7.206,0,0,1-.938.332,3.732,3.732,0,0,1,.761-.347Zm-2.129.156a.832.832,0,0,1,.3-.085c.081,0,.065.031-.043.085a.834.834,0,0,1-.3.085C521.721,951.456,521.737,951.424,521.844,951.37Zm60.446-.058c0-.115.024-.139.052-.06a.228.228,0,0,1-.007.19C582.306,951.476,582.286,951.417,582.29,951.313Zm19.656-.193c-.188-.072-.265-.131-.171-.131a1.528,1.528,0,0,1,.469.133C602.628,951.294,602.4,951.292,601.946,951.12Zm-61.1-.443c0-.3.016-.423.036-.273a2.545,2.545,0,0,1,0,.545C540.866,951.1,540.85,950.976,540.85,950.676Zm-17.475.141a3.934,3.934,0,0,1,.682-.233c.05,0-.177.116-.5.248a3.927,3.927,0,0,1-.682.233C522.823,951.061,523.049,950.95,523.375,950.818Zm-26.1.05a.163.163,0,0,1-.016-.153c.022-.026.063.022.091.106C497.406,951,497.357,951.026,497.273,950.868Zm103.906.007c-.108-.054-.123-.085-.043-.085a.836.836,0,0,1,.3.085c.107.054.123.085.043.085A.831.831,0,0,1,601.178,950.875Zm-75.328-.354a7.234,7.234,0,0,1,.938-.332,3.719,3.719,0,0,1-.761.347,7.235,7.235,0,0,1-.938.332A3.721,3.721,0,0,1,525.85,950.521Zm-28.734-.1c-.082-.249-.058-.314.043-.113.05.1.073.2.051.227s-.064-.026-.093-.115Zm102.7-.046c-.235-.1-.369-.183-.3-.183a2.437,2.437,0,0,1,.555.183c.235.1.369.183.3.183A2.435,2.435,0,0,1,599.814,950.379Zm-2.6-.347a3.284,3.284,0,0,1-.722-.339,7.2,7.2,0,0,1,.938.332,2.57,2.57,0,0,1,.722.339A6.4,6.4,0,0,1,597.212,950.032Zm-72.04.1a1.1,1.1,0,0,1,.384-.133c.07,0-.006.063-.171.137-.389.174-.543.172-.213,0Zm2.543-.289c1.126-.435,1.242-.588.4-.525-.359.027-.565.013-.469-.031a3.143,3.143,0,0,1,1.408-.01c0,.046-.1.138-.229.2a14.562,14.562,0,0,1-1.87.694,4.084,4.084,0,0,1,.76-.333Zm-30.73.087c0-.115.024-.139.052-.06a.228.228,0,0,1-.007.19C497,950.088,496.981,950.029,496.985,949.925Zm101.379-.089c-.674-.311-.5-.315.213-.005.3.133.5.241.427.241a2.956,2.956,0,0,1-.64-.236Zm-72.552.048a.475.475,0,0,1,.256-.091c.084,0,.07.034-.043.091C525.79,950,525.656,950,525.812,949.884Zm.512-.2a.475.475,0,0,1,.256-.091c.084,0,.07.034-.043.091C526.3,949.8,526.168,949.8,526.323,949.685Zm69.268-.248c-.3-.128-.514-.236-.464-.24a3.922,3.922,0,0,1,.682.233c.326.132.535.24.464.24A3.566,3.566,0,0,1,595.591,949.438Zm-68.835.112a1.567,1.567,0,0,1,.377-.1c.238-.042.289-.033.171.029C527.141,949.569,526.684,949.625,526.757,949.55ZM541,949.231c0-.115.024-.139.052-.06a.227.227,0,0,1-.007.19C541.019,949.394,541,949.336,541,949.231Zm41.3-.19c0-.164.021-.219.043-.122a.66.66,0,0,1,0,.3c-.023.067-.041-.012-.039-.175Zm14.4.149c-.176-.065-.183-.081-.043-.088a.533.533,0,0,1,.3.088c.149.112.046.112-.256,0Zm-2.239-.172c-.176-.084-.32-.191-.32-.238a3.474,3.474,0,0,1,1.493.007c.095.044-.109.057-.461.028-.482-.039-.616-.022-.567.07a.618.618,0,0,0,.247.206c.1.047.126.084.055.083A1.7,1.7,0,0,1,594.461,949.018Zm1.514-.026c-.217-.109.007-.109.3,0,.171.064.18.08.043.082A.884.884,0,0,1,595.975,948.991Zm-54.887-.157c0-.115.024-.139.052-.06a.228.228,0,0,1-.007.19C541.1,949,541.084,948.939,541.088,948.834Zm41.074-.4a.671.671,0,0,1-.021-.307c.02-.023.062.076.094.222a.671.671,0,0,1,.02.307C582.235,948.684,582.193,948.584,582.162,948.439Zm-40.988.106c.009-.188.151-.5.156-.347a.688.688,0,0,1-.078.3c-.045.082-.081.1-.078.05Zm40.822-.7a.958.958,0,0,1-.048-.277c0-.064.042-.009.087.122a.548.548,0,0,1,.048.277C582.064,947.991,582.025,947.936,582,947.848Zm-84.578-.554a1.3,1.3,0,0,1,.54-.078c.511.008.426.058-.2.118C497.493,947.36,497.351,947.343,497.418,947.294Zm1.18-.145a15.366,15.366,0,0,1,1.956-.326,5.844,5.844,0,0,1-1.657.324c-.281.027-.416.028-.3,0Zm42.937-.586c0-.382.016-.526.034-.32a4.311,4.311,0,0,1,0,.694c-.019.176-.034.008-.034-.374Zm-40.612.179a.606.606,0,0,1,.3,0c.082.025.015.045-.149.045S500.84,946.767,500.922,946.742Zm123.2-.088c-1.523-.273-1.129-.268.768.01.584.086.719.125.427.126A8.689,8.689,0,0,1,624.125,946.654Zm-122.414-.047a2.835,2.835,0,0,1,.6-.075c.192,0,.16.026-.128.086C501.666,946.724,501.263,946.714,501.712,946.607Zm1-.162a.425.425,0,0,1,.256,0c.058.027-.01.048-.151.046s-.188-.024-.105-.049Zm.512-.1a.425.425,0,0,1,.256,0c.058.027-.01.048-.151.046s-.188-.024-.105-.049Zm119.426,0a.606.606,0,0,1,.3,0c.082.025.015.045-.149.045S622.572,946.371,622.654,946.346Zm-118.916-.1a.6.6,0,0,1,.3,0c.082.025.015.045-.149.045S503.655,946.271,503.738,946.247Zm77.961-.13c0-.136.019-.192.043-.124a.442.442,0,0,1,0,.248c-.024.068-.043.013-.043-.124Zm39.91.1c-.227-.055-.247-.075-.085-.08a2.619,2.619,0,0,1,.555.075c.284.068.3.082.085.08A2.9,2.9,0,0,1,621.609,946.216Zm-117.274-.068a.606.606,0,0,1,.3,0c.082.025.015.045-.149.045S504.253,946.172,504.335,946.147Zm.6-.1a.6.6,0,0,1,.3,0c.082.025.015.045-.149.045S504.85,946.073,504.932,946.048Zm115.931,0a.6.6,0,0,1,.3,0c.082.025.015.045-.149.045S620.78,946.073,620.862,946.048Zm-115.333-.1a.606.606,0,0,1,.3,0c.082.025.015.045-.149.045S505.447,945.973,505.529,945.948Zm114.374-.031c-.226-.055-.247-.075-.085-.08a2.631,2.631,0,0,1,.554.075c.284.068.3.082.085.08A2.9,2.9,0,0,1,619.9,945.917Zm-113.775-.069a.425.425,0,0,1,.256,0c.058.027-.01.048-.151.046s-.188-.024-.105-.049Zm.7-.135a2.832,2.832,0,0,1,.6-.075c.192,0,.16.027-.128.086C506.785,945.831,506.381,945.821,506.831,945.713Zm34.6.039a1.835,1.835,0,0,0-.056-.3c-.047-.173-.044-.173.049,0a.446.446,0,0,1,.056.3c-.03.087-.044.088-.049,0Zm77.323-.033c-.29-.06-.3-.072-.085-.079a2.751,2.751,0,0,1,.6.074c.282.068.3.082.085.079a3.8,3.8,0,0,1-.6-.074Zm-110.917-.168a.425.425,0,0,1,.256,0c.058.027-.01.048-.151.046s-.188-.024-.105-.049Zm109.467-.078c-.328-.068-.5-.127-.384-.131a5.736,5.736,0,0,1,.853.123c.352.072.525.13.384.131A5.878,5.878,0,0,1,617.3,945.473Zm-108.722-.056c.515-.106.918-.1.469.011a2.84,2.84,0,0,1-.6.075C508.259,945.5,508.291,945.476,508.579,945.417Zm1.45-.249a5.851,5.851,0,0,1,.853-.124c.117,0-.075.065-.427.136a5.844,5.844,0,0,1-.853.124C509.485,945.3,509.677,945.239,510.029,945.168Zm105.864.056c-.227-.055-.247-.075-.085-.08a2.635,2.635,0,0,1,.555.075c.284.068.3.082.085.08A2.9,2.9,0,0,1,615.893,945.223Zm-.746-.167a.6.6,0,0,1,.3,0c.082.025.015.045-.149.045S615.065,945.081,615.147,945.056Zm-103.9-.1a.606.606,0,0,1,.3,0c.082.025.015.045-.149.045S511.162,944.982,511.245,944.957Zm103.305,0a.606.606,0,0,1,.3,0c.082.025.015.045-.149.045S614.468,944.982,614.55,944.957Zm-102.516-.136a2.84,2.84,0,0,1,.6-.075c.192,0,.16.027-.128.086C511.988,944.939,511.585,944.93,512.034,944.822Zm101.919.036a.606.606,0,0,1,.3,0c.082.025.015.045-.149.045S613.87,944.883,613.952,944.858Zm-.96-.13c-.227-.055-.247-.075-.085-.08a2.624,2.624,0,0,1,.555.075c.284.068.3.082.085.08A2.9,2.9,0,0,1,612.993,944.728Zm-99.955-.069a.425.425,0,0,1,.256,0c.058.027-.01.048-.151.046s-.188-.024-.105-.049Zm.7-.135a2.836,2.836,0,0,1,.6-.075c.192,0,.16.027-.128.086C513.694,944.641,513.291,944.632,513.74,944.524Zm97.845-.042c-.328-.068-.5-.127-.384-.131a5.73,5.73,0,0,1,.853.123c.352.071.525.13.384.131A5.893,5.893,0,0,1,611.585,944.482Zm-96.841-.12a.425.425,0,0,1,.256,0c.058.027-.01.048-.151.046s-.188-.024-.1-.049Zm.745-.135c.515-.107.918-.1.469.011a2.836,2.836,0,0,1-.6.075c-.192,0-.16-.027.128-.086Zm33.952-.02a.242.242,0,0,0-.107-.207c-.083-.039-.083-.052,0-.058.122-.009.24.263.157.36-.029.034-.053-.009-.053-.1Zm60.653.025c-.426-.1.011-.109.512,0,.346.072.355.079.085.079a3.068,3.068,0,0,1-.6-.074Zm-93.453-.2a2.844,2.844,0,0,1,.6-.075c.192,0,.16.027-.128.086C516.595,944.146,516.191,944.137,516.64,944.029Zm92.343.006c-.227-.055-.247-.075-.085-.08a2.635,2.635,0,0,1,.555.075c.284.068.3.082.085.08A2.9,2.9,0,0,1,608.984,944.034Zm-64.166-.068a.151.151,0,0,1,.163.008c.028.033-.022.056-.112.052s-.12-.028-.052-.06Zm-27.218-.1a.285.285,0,0,1,.213,0c.059.027.011.05-.107.05S517.541,943.9,517.6,943.869Zm90.724,0a.424.424,0,0,1,.256,0c.058.027-.01.048-.151.046s-.188-.024-.105-.049Zm-90.212-.1a.806.806,0,0,1,.341,0c.082.025-.005.044-.193.043s-.254-.021-.148-.045Zm88.525-.128c-1.151-.234-.767-.238.512-.006.563.1.87.184.682.182a9.233,9.233,0,0,1-1.194-.176Zm-87.884.03a.424.424,0,0,1,.256,0c.058.027-.01.048-.151.046s-.188-.024-.105-.049Zm.745-.135c.515-.106.918-.1.469.011a2.829,2.829,0,0,1-.6.075C519.178,943.615,519.21,943.593,519.5,943.534Zm56.364-.067a2.742,2.742,0,0,1,.6,0c.177.022.053.039-.275.04s-.473-.017-.322-.039Zm1.543,0a.151.151,0,0,1,.164.008c.028.033-.022.056-.112.052s-.12-.028-.052-.06Zm1.4,0a.425.425,0,0,1,.256,0c.058.027-.01.048-.151.046s-.188-.024-.1-.049Zm-58.349-.1a.425.425,0,0,1,.256,0c.058.027-.01.048-.151.046s-.188-.024-.1-.049Zm58.943-.086a1.157,1.157,0,0,0,.359-.417c.069-.149.128-.211.13-.139,0,.171-.462.712-.609.707-.062,0-.008-.07.12-.151Zm26.022.086a.425.425,0,0,1,.256,0c.058.027-.01.048-.151.046s-.188-.024-.105-.049ZM520.87,943.3a2.682,2.682,0,0,1,.547-.092c.337-.036.424-.028.256.025-.263.083-.867.133-.8.067Zm83.08-.121c-1-.181-1.161-.233-.524-.171.717.07,1.929.309,1.548.305A8.846,8.846,0,0,1,603.95,943.183Zm-80.505-.307a.424.424,0,0,1,.256,0c.058.027-.01.048-.151.046s-.188-.024-.105-.049Zm78.672-.03-.341-.071.3,0a2.284,2.284,0,0,1,.555.073c.226.067.231.075.043.073a3.678,3.678,0,0,1-.555-.073Zm-78.16-.069a.425.425,0,0,1,.256,0c.058.027-.01.048-.151.046s-.188-.024-.1-.049Zm.51-.1a.606.606,0,0,1,.3,0c.082.025.015.045-.149.045S524.385,942.7,524.467,942.678Zm76.947,0a.424.424,0,0,1,.256,0c.058.027-.01.048-.151.046s-.188-.024-.1-.049Zm-76.35-.1a.606.606,0,0,1,.3,0c.082.025.015.045-.149.045S524.982,942.6,525.064,942.578Zm75.71,0a.8.8,0,0,1,.341,0c.082.025-.005.044-.193.043s-.254-.021-.148-.045Zm-75.112-.1a.6.6,0,0,1,.3,0c.082.025.015.045-.149.045S525.58,942.5,525.662,942.479Zm54.262-.675c0-.436.015-.6.033-.369a5.781,5.781,0,0,1,0,.793C579.938,942.43,579.924,942.24,579.924,941.8Zm20.21.675a.6.6,0,0,1,.3,0c.082.025.015.045-.149.045S600.052,942.5,600.134,942.479Zm-73.683-.136a2.71,2.71,0,0,1,.555-.076c.137,0,.091.035-.128.088a2.713,2.713,0,0,1-.554.076C526.186,942.427,526.232,942.4,526.451,942.343Zm73.086.037a.606.606,0,0,1,.3,0c.082.025.015.045-.149.045S599.454,942.4,599.536,942.38Zm-.51-.1a.425.425,0,0,1,.256,0c.058.027-.01.048-.151.046s-.188-.024-.105-.049Zm-71.466-.13a2.014,2.014,0,0,1,.469-.076c.19,0,.186.008-.043.076a2.015,2.015,0,0,1-.469.076C527.327,942.226,527.332,942.218,527.56,942.15Zm70.207-.048c-.328-.068-.5-.127-.384-.131a5.737,5.737,0,0,1,.853.123c.352.072.525.13.384.131A5.878,5.878,0,0,1,597.766,942.1Zm-69.373-.12a.424.424,0,0,1,.256,0c.058.027-.01.048-.151.046s-.188-.024-.105-.049Zm56.6-.131a6.279,6.279,0,0,1,1.841-.566c.052.02-.153.1-.456.17a8.66,8.66,0,0,0-.977.305c-.711.286-.784.3-.407.091Zm-56.193.062c0-.021.06-.066.132-.1s.11-.017.08.039C528.96,941.948,528.8,941.994,528.8,941.913Zm68.053-.027a.284.284,0,0,1,.213,0c.059.027.011.05-.107.05s-.165-.022-.107-.05Zm-1.018-.2a.151.151,0,0,1,.163.008c.028.033-.022.056-.112.052s-.12-.028-.051-.06Zm-66.373-.1a.286.286,0,0,1,.213,0c.059.028.011.05-.107.05S529.4,941.617,529.459,941.589Zm6.186,0a.424.424,0,0,1,.256,0c.058.027-.01.048-.151.046s-.188-.024-.105-.049Zm-5.673-.1a.805.805,0,0,1,.341,0c.082.025-.005.044-.193.043s-.254-.021-.148-.045Zm5.075,0a.606.606,0,0,1,.3,0c.082.025.015.045-.149.045S534.964,941.513,535.046,941.488Zm59.522-.032c-.09-.069-.039-.079.171-.034.368.078.437.135.164.133A.652.652,0,0,1,594.568,941.456Zm-63.025-.073c.6-.017,1.594-.017,2.218,0s.137.031-1.083.031-1.731-.014-1.135-.031Zm62.555-.124c-.112-.056-.127-.087-.043-.091a.478.478,0,0,1,.256.091c.156.117.021.117-.213,0Zm-6.91-.1a2.011,2.011,0,0,1,.469-.076c.19,0,.186.008-.043.076a2.021,2.021,0,0,1-.469.076C586.956,941.235,586.961,941.227,587.189,941.16Zm6.378-.069a.425.425,0,0,1,.256,0c.058.027-.01.048-.151.046s-.188-.024-.1-.049Zm-5.312-.147c.211-.037,1.305-.064,2.431-.06s1.951.021,1.834.039C592.078,940.988,587.889,941.009,588.256,940.944Zm4.671.046a.8.8,0,0,1,.341,0c.082.025-.005.044-.193.043s-.254-.021-.148-.045Zm-13.083-1.714c0-.791.013-1.114.029-.719s.016,1.042,0,1.437S579.844,940.067,579.844,939.276Zm-.09-2.33c0-.436.015-.6.033-.369a5.754,5.754,0,0,1,0,.793C579.769,937.573,579.754,937.383,579.754,936.946Zm-.606-3.919c-.153-.162-.258-.294-.232-.294a1.112,1.112,0,0,1,.5.452C579.479,933.374,579.471,933.37,579.148,933.028Zm-29.3-.468c2.123-.015,5.6-.015,7.72,0s.386.027-3.86.027S547.724,932.575,549.847,932.56Zm-4.308-.093a.6.6,0,0,1,.3,0c.082.025.015.045-.149.045S545.457,932.492,545.539,932.467Z" transform="translate(-496.678 -932.448)"/>
      </g>
    </g>
    <text id="Carolina_Clinical_Services" data-name="Carolina
Clinical
Services"  class="cls-3" transform="translate(6840 647)"><tspan  x="0" y="0">Carolina</tspan><tspan  x="0" y="38">Clinical</tspan><tspan  x="0" y="76">Services</tspan></text>
  </g>
</svg>
