<svg xmlns="http://www.w3.org/2000/svg" width="1640.571" height="397.239" viewBox="0 0 1640.571 397.239">
  <defs>
    <style>
      .cls-1, .cls-4, .cls-5 {
        opacity: 0.1;
      }

      .cls-2 {
        fill: #3f3d56;
      }

      .cls-3, .cls-5 {
        fill: #9ebb93;
      }

      .cls-6 {
        fill: #58784c;
      }
    </style>
  </defs>
  <g id="contact_background" transform="translate(-207.83 -599.762)">
    <g id="Group_197" data-name="Group 197" transform="translate(207.83 599.762)">
      <g id="Group_196" data-name="Group 196" transform="translate(0 0)">
        <g id="Group_99" data-name="Group 99" class="cls-1" transform="translate(70.935)">
          <ellipse id="Ellipse_66" data-name="Ellipse 66" class="cls-2" cx="14.158" cy="16.793" rx="14.158" ry="16.793" transform="translate(54.317 346.665)"/>
          <path id="Path_261" data-name="Path 261" class="cls-2" d="M1082.151,424.051a18.825,18.825,0,0,1-2.961-10.268c0-9.276,6.345-16.793,14.171-16.793s14.158,7.518,14.158,16.793a18.821,18.821,0,0,1-2.961,10.268,19.267,19.267,0,0,1,0,20.524,19.267,19.267,0,0,1,0,20.524,18.759,18.759,0,0,1,2.961,10.268c0,9.265-6.345,16.793-14.158,16.793s-14.171-7.529-14.171-16.793a18.761,18.761,0,0,1,2.961-10.268,19.267,19.267,0,0,1,0-20.524A19.267,19.267,0,0,1,1082.151,424.051Z" transform="translate(-1024.885 -132.444)"/>
          <ellipse id="Ellipse_67" data-name="Ellipse 67" class="cls-2" cx="14.158" cy="16.793" rx="14.158" ry="16.793" transform="translate(54.317 244.045)"/>
          <ellipse id="Ellipse_68" data-name="Ellipse 68" class="cls-2" cx="14.158" cy="16.793" rx="14.158" ry="16.793" transform="translate(54.317 223.521)"/>
          <path id="Path_262" data-name="Path 262" class="cls-3" d="M1157.017,262.118a59.921,59.921,0,0,0,5.275-7.033l-37.2-5.534,40.235.271a56.275,56.275,0,0,0,1.244-48.69L1112.589,226.5l49.765-33.159c-12.613-20.088-36.6-32.067-62.083-31.007s-48.156,14.982-58.684,36.032-7.13,45.672,8.794,63.727a60.911,60.911,0,0,0-7.738,11.2l48.309,22.789-51.495-15.655c-7.353,19.674-3.239,41.381,10.936,57.706-21.875,25.191-18.7,61.382,7.285,83.13s66.064,21.748,92.052,0,29.16-57.939,7.285-83.13c19.36-22.293,19.36-53.694,0-75.988Z" transform="translate(-1035.541 -162.271)"/>
          <path id="Path_263" data-name="Path 263" class="cls-4" d="M1035.81,284.672a57.623,57.623,0,0,0,14.519,37.994c-21.875,25.191-18.7,61.382,7.285,83.13s66.064,21.748,92.052,0,29.16-57.939,7.285-83.13C1166.046,312.207,1035.81,277.774,1035.81,284.672Z" transform="translate(-1035.476 -146.832)"/>
        </g>
        <ellipse id="Ellipse_81" data-name="Ellipse 81" class="cls-5" cx="820.286" cy="16.986" rx="820.286" ry="16.986" transform="translate(0 363.266)"/>
      </g>
      <g id="Group_97" data-name="Group 97" class="cls-1" transform="translate(898.968 126.958)">
        <ellipse id="Ellipse_60" data-name="Ellipse 60" class="cls-2" cx="12.359" cy="11.334" rx="12.359" ry="11.334" transform="translate(46.579 233.963)"/>
        <path id="Path_255" data-name="Path 255" class="cls-2" d="M542.187,455.254a10.7,10.7,0,0,0,2.585-6.93c0-6.26-5.539-11.334-12.369-11.334S520,442.079,520,448.339a10.7,10.7,0,0,0,2.585,6.93,10.573,10.573,0,0,0,0,13.852,10.573,10.573,0,0,0,0,13.852A10.66,10.66,0,0,0,520,489.9c0,6.253,5.539,11.334,12.359,11.334s12.369-5.081,12.369-11.334a10.661,10.661,0,0,0-2.585-6.93,10.574,10.574,0,0,0,0-13.852,10.573,10.573,0,0,0,0-13.852Z" transform="translate(-473.465 -258.448)"/>
        <ellipse id="Ellipse_61" data-name="Ellipse 61" class="cls-2" cx="12.359" cy="11.334" rx="12.359" ry="11.334" transform="translate(46.579 164.705)"/>
        <ellipse id="Ellipse_62" data-name="Ellipse 62" class="cls-2" cx="12.359" cy="11.334" rx="12.359" ry="11.334" transform="translate(46.579 150.854)"/>
        <path id="Path_256" data-name="Path 256" class="cls-3" d="M489.824,269.657a43.271,43.271,0,0,1-4.6-4.747l32.471-3.735-35.121.183c-6.8-10.383-7.188-22.268-1.086-32.861L528.6,245.62l-43.439-22.379c11.01-13.557,31.947-21.642,54.191-20.927s42.035,10.111,51.224,24.318,6.223,30.824-7.677,43.009a42.69,42.69,0,0,1,6.755,7.561L547.49,292.584l44.949-10.566c6.418,13.278,2.827,27.928-9.546,38.946,19.094,17,16.326,41.426-6.359,56.1s-57.666,14.678-80.351,0-25.453-39.1-6.359-56.1c-16.9-15.046-16.9-36.238,0-51.284Z" transform="translate(-477.149 -202.271)"/>
        <path id="Path_257" data-name="Path 257" class="cls-4" d="M595.566,324.378c.021,9.3-4.444,18.339-12.674,25.642,19.094,17,16.326,41.426-6.359,56.1s-57.666,14.678-80.351,0-25.453-39.1-6.359-56.1C481.885,342.961,595.566,319.722,595.566,324.378Z" transform="translate(-477.149 -231.35)"/>
      </g>
      <g id="Group_100" data-name="Group 100" class="cls-1" transform="translate(584.725 113.309)">
        <ellipse id="Ellipse_69" data-name="Ellipse 69" class="cls-2" cx="10.588" cy="12.544" rx="10.588" ry="12.544" transform="translate(40.377 258.841)"/>
        <path id="Path_264" data-name="Path 264" class="cls-2" d="M974.432,441.54a14.044,14.044,0,0,1-2.2-7.664c0-6.932,4.74-12.556,10.575-12.556s10.588,5.635,10.588,12.556a13.942,13.942,0,0,1-2.214,7.664,14.391,14.391,0,0,1,0,15.34,14.391,14.391,0,0,1,0,15.339,13.942,13.942,0,0,1,2.214,7.664c0,6.932-4.74,12.556-10.588,12.556S972.23,486.8,972.23,479.883a14.043,14.043,0,0,1,2.2-7.664,14.491,14.491,0,0,1,0-15.339,14.491,14.491,0,0,1,0-15.34Z" transform="translate(-931.829 -223.837)"/>
        <ellipse id="Ellipse_70" data-name="Ellipse 70" class="cls-2" cx="10.588" cy="12.544" rx="10.588" ry="12.544" transform="translate(40.377 182.155)"/>
        <ellipse id="Ellipse_71" data-name="Ellipse 71" class="cls-2" cx="10.588" cy="12.544" rx="10.588" ry="12.544" transform="translate(40.377 166.815)"/>
        <path id="Path_265" data-name="Path 265" class="cls-6" d="M1030.334,320.5a44.032,44.032,0,0,0,3.944-5.252l-27.806-4.136,30.071.2a42.077,42.077,0,0,0,.97-36.393l-40.347,18.969,37.212-24.8c-9.486-14.906-27.373-23.758-46.343-22.936s-35.843,11.18-43.716,26.837-5.425,33.988,6.341,47.494a46.016,46.016,0,0,0-5.785,8.374l36.08,16.985-38.406-11.688c-5.491,14.7-2.417,30.922,8.174,43.122-16.369,18.819-14.013,45.877,5.41,62.139s49.382,16.262,68.805,0,21.778-43.319,5.41-62.139c14.467-16.659,14.467-40.124,0-56.782Z" transform="translate(-939.757 -246.103)"/>
        <path id="Path_266" data-name="Path 266" class="cls-4" d="M939.8,337.376a43.075,43.075,0,0,0,10.849,28.391c-16.368,18.819-14.013,45.877,5.41,62.139s49.383,16.262,68.805,0,21.778-43.319,5.409-62.139C1037.1,357.957,939.8,332.225,939.8,337.376Z" transform="translate(-939.751 -234.59)"/>
      </g>
      <g id="Group_97-2" data-name="Group 97" class="cls-1" transform="translate(1260.488)">
        <ellipse id="Ellipse_60-2" data-name="Ellipse 60" class="cls-2" cx="14.158" cy="16.793" rx="14.158" ry="16.793" transform="translate(53.362 346.665)"/>
        <path id="Path_255-2" data-name="Path 255" class="cls-2" d="M545.418,464.051a18.825,18.825,0,0,0,2.961-10.268c0-9.276-6.345-16.793-14.171-16.793S520,444.53,520,453.806a18.825,18.825,0,0,0,2.961,10.268,19.267,19.267,0,0,0,0,20.524,19.267,19.267,0,0,0,0,20.524A18.761,18.761,0,0,0,520,515.39c0,9.265,6.345,16.793,14.158,16.793s14.171-7.529,14.171-16.793a18.763,18.763,0,0,0-2.961-10.268,19.267,19.267,0,0,0,0-20.524,19.267,19.267,0,0,0,0-20.524Z" transform="translate(-466.688 -172.444)"/>
        <ellipse id="Ellipse_61-2" data-name="Ellipse 61" class="cls-2" cx="14.158" cy="16.793" rx="14.158" ry="16.793" transform="translate(53.362 244.045)"/>
        <ellipse id="Ellipse_62-2" data-name="Ellipse 62" class="cls-2" cx="14.158" cy="16.793" rx="14.158" ry="16.793" transform="translate(53.362 223.521)"/>
        <path id="Path_256-2" data-name="Path 256" class="cls-3" d="M491.669,302.118a59.9,59.9,0,0,1-5.275-7.033l37.2-5.534-40.235.27a56.275,56.275,0,0,1-1.244-48.69L536.1,266.5l-49.765-33.159c12.613-20.088,36.6-32.068,62.083-31.007s48.156,14.982,58.684,36.032,7.13,45.672-8.794,63.727a60.916,60.916,0,0,1,7.739,11.2l-48.31,22.79,51.495-15.655c7.353,19.674,3.239,41.381-10.936,57.706,21.875,25.191,18.7,61.382-7.285,83.13s-66.064,21.748-92.052,0-29.16-57.939-7.285-83.13c-19.36-22.293-19.36-53.694,0-75.988Z" transform="translate(-477.149 -202.271)"/>
        <path id="Path_257-2" data-name="Path 257" class="cls-4" d="M612.81,324.672a57.62,57.62,0,0,1-14.519,37.994c21.875,25.191,18.7,61.382-7.285,83.13s-66.064,21.748-92.052,0-29.16-57.939-7.285-83.13C482.575,352.207,612.81,317.774,612.81,324.672Z" transform="translate(-477.149 -186.832)"/>
      </g>
    </g>
    <path id="Path_274" data-name="Path 274" class="cls-5" d="M897.21,250.394l-12.217,7.01,7.465-12.217a12.87,12.87,0,0,0-7.39-2.378h-.2a15.563,15.563,0,0,1-2.488-.169l-4.205,2.378,1.779-2.93a14.6,14.6,0,0,1-7.253-4.982l-7.465,4.26,4.678-7.709a22.515,22.515,0,0,0-16.6-7.6c-7.714,0-14.569,4.148-19.01,10.617a14.617,14.617,0,0,1-12.553,6.131h-.411c-8.51,0-15.4,8.735-15.4,19.51s6.892,19.521,15.4,19.521a12.663,12.663,0,0,0,5.362-1.217,24.322,24.322,0,0,1,18.662-.338,21.187,21.187,0,0,0,15.85,0,24.409,24.409,0,0,1,18.488.327,12.544,12.544,0,0,0,5.3,1.195c8.51,0,15.4-8.746,15.4-19.521a22.87,22.87,0,0,0-3.2-11.891Z" transform="translate(-229.997 496.483)"/>
    <g id="Group_99-2" data-name="Group 99" class="cls-1" transform="translate(971.871 657.455)">
      <ellipse id="Ellipse_66-2" data-name="Ellipse 66" class="cls-2" cx="11.711" cy="14.168" rx="11.711" ry="14.168" transform="translate(44.929 292.462)"/>
      <path id="Path_261-2" data-name="Path 261" class="cls-2" d="M1081.639,419.82a16.115,16.115,0,0,1-2.449-8.662c0-7.825,5.248-14.168,11.721-14.168s11.711,6.342,11.711,14.168a16.111,16.111,0,0,1-2.449,8.662,16.529,16.529,0,0,1,0,17.315,16.529,16.529,0,0,1,0,17.315,16.058,16.058,0,0,1,2.449,8.662c0,7.816-5.248,14.168-11.711,14.168s-11.722-6.352-11.722-14.168a16.061,16.061,0,0,1,2.449-8.662,16.53,16.53,0,0,1,0-17.315A16.53,16.53,0,0,1,1081.639,419.82Z" transform="translate(-1034.271 -173.807)"/>
      <ellipse id="Ellipse_67-2" data-name="Ellipse 67" class="cls-2" cx="11.711" cy="14.168" rx="11.711" ry="14.168" transform="translate(44.929 205.887)"/>
      <ellipse id="Ellipse_68-2" data-name="Ellipse 68" class="cls-2" cx="11.711" cy="14.168" rx="11.711" ry="14.168" transform="translate(44.929 188.572)"/>
      <path id="Path_262-2" data-name="Path 262" class="cls-3" d="M1136.021,246.506a50.479,50.479,0,0,0,4.363-5.933l-30.77-4.669,33.281.228a48.328,48.328,0,0,0,1.029-41.077l-44.653,21.4,41.164-27.974c-10.433-16.947-30.273-27.054-51.352-26.159s-39.833,12.639-48.541,30.4-5.9,38.531,7.274,53.763a51.434,51.434,0,0,0-6.4,9.451l39.96,19.226-42.594-13.207a48.724,48.724,0,0,0,9.046,48.684c-18.094,21.252-15.471,51.784,6.026,70.132s54.646,18.348,76.142,0,24.12-48.88,6.026-70.132a48.777,48.777,0,0,0,0-64.106Z" transform="translate(-1035.541 -162.271)"/>
      <path id="Path_263-2" data-name="Path 263" class="cls-4" d="M1035.81,284.531a49.172,49.172,0,0,0,12.01,32.053c-18.094,21.252-15.471,51.784,6.026,70.132s54.646,18.348,76.142,0,24.12-48.88,6.026-70.132C1143.536,307.76,1035.81,278.711,1035.81,284.531Z" transform="translate(-1035.533 -168.243)"/>
    </g>
    <g id="Group_98" data-name="Group 98" class="cls-1" transform="translate(1610.355 694.322)">
      <ellipse id="Ellipse_63" data-name="Ellipse 63" class="cls-2" cx="10.588" cy="12.544" rx="10.588" ry="12.544" transform="translate(40.376 258.841)"/>
      <path id="Path_258" data-name="Path 258" class="cls-2" d="M657.962,447.54a14.043,14.043,0,0,1-2.2-7.664c0-6.931,4.74-12.556,10.575-12.556s10.587,5.635,10.587,12.556a13.942,13.942,0,0,1-2.215,7.664,14.391,14.391,0,0,1,0,15.34,14.39,14.39,0,0,1,0,15.34,13.941,13.941,0,0,1,2.214,7.664c0,6.932-4.74,12.556-10.587,12.556S655.76,492.8,655.76,485.883a14.043,14.043,0,0,1,2.2-7.664,14.491,14.491,0,0,1,0-15.339,14.492,14.492,0,0,1,0-15.34Z" transform="translate(-615.359 -229.837)"/>
      <ellipse id="Ellipse_64" data-name="Ellipse 64" class="cls-2" cx="10.588" cy="12.544" rx="10.588" ry="12.544" transform="translate(40.376 182.155)"/>
      <ellipse id="Ellipse_65" data-name="Ellipse 65" class="cls-2" cx="10.588" cy="12.544" rx="10.588" ry="12.544" transform="translate(40.376 166.815)"/>
      <path id="Path_259" data-name="Path 259" class="cls-3" d="M714.3,326.5a44.013,44.013,0,0,0,3.944-5.252l-27.806-4.136,30.071.2a42.078,42.078,0,0,0,.97-36.393l-40.347,18.969,37.212-24.8c-9.486-14.906-27.372-23.758-46.343-22.936s-35.843,11.18-43.716,26.837-5.425,33.988,6.341,47.494a46.02,46.02,0,0,0-5.785,8.374l36.08,16.985-38.481-11.7c-5.491,14.7-2.417,30.922,8.174,43.122-16.368,18.819-14.013,45.877,5.41,62.139s49.382,16.262,68.8,0,21.778-43.319,5.41-62.139c14.467-16.659,14.467-40.123,0-56.782Z" transform="translate(-623.72 -252.103)"/>
      <path id="Path_260" data-name="Path 260" class="cls-4" d="M623.765,343.376a43.074,43.074,0,0,0,10.849,28.391c-16.368,18.819-14.013,45.877,5.41,62.139s49.382,16.262,68.8,0,21.778-43.319,5.41-62.139C721.056,363.957,623.765,338.225,623.765,343.376Z" transform="translate(-623.711 -240.59)"/>
    </g>
    <g id="Group_97-3" data-name="Group 97" class="cls-1" transform="translate(448.859 657.455)">
      <ellipse id="Ellipse_60-3" data-name="Ellipse 60" class="cls-2" cx="11.843" cy="14.245" rx="11.843" ry="14.245" transform="translate(44.637 294.068)"/>
      <path id="Path_255-3" data-name="Path 255" class="cls-2" d="M541.262,459.945a16.135,16.135,0,0,0,2.477-8.71c0-7.868-5.308-14.245-11.854-14.245S520,443.386,520,451.255a16.135,16.135,0,0,0,2.477,8.71,16.539,16.539,0,0,0,0,17.41,16.539,16.539,0,0,0,0,17.41,16.08,16.08,0,0,0-2.477,8.71c0,7.859,5.308,14.245,11.843,14.245s11.854-6.387,11.854-14.245a16.082,16.082,0,0,0-2.477-8.71,16.539,16.539,0,0,0,0-17.41,16.539,16.539,0,0,0,0-17.41Z" transform="translate(-475.405 -212.582)"/>
      <ellipse id="Ellipse_61-3" data-name="Ellipse 61" class="cls-2" cx="11.843" cy="14.245" rx="11.843" ry="14.245" transform="translate(44.637 207.017)"/>
      <ellipse id="Ellipse_62-3" data-name="Ellipse 62" class="cls-2" cx="11.843" cy="14.245" rx="11.843" ry="14.245" transform="translate(44.637 189.607)"/>
      <path id="Path_256-3" data-name="Path 256" class="cls-3" d="M489.3,286.969A50.755,50.755,0,0,1,484.882,281L516,276.308l-33.656.229a48.343,48.343,0,0,1-1.041-41.3l45.156,21.521L484.83,228.629c10.551-17.04,30.615-27.2,51.931-26.3s40.282,12.709,49.088,30.565,5.964,38.742-7.356,54.058a51.7,51.7,0,0,1,6.473,9.5l-40.411,19.332,43.075-13.28c6.151,16.689,2.709,35.1-9.148,48.951,18.3,21.369,15.645,52.069-6.094,70.517s-55.262,18.449-77,0S471,372.824,489.3,351.456C473.1,332.545,473.1,305.908,489.3,287Z" transform="translate(-477.149 -202.271)"/>
      <path id="Path_257-3" data-name="Path 257" class="cls-4" d="M590.628,324.535a49.274,49.274,0,0,1-12.145,32.229c18.3,21.369,15.645,52.069-6.094,70.517s-55.262,18.449-77,0S471,378.132,489.3,356.764C481.688,347.892,590.628,318.684,590.628,324.535Z" transform="translate(-477.149 -207.608)"/>
    </g>
    <path id="Path_844" data-name="Path 844" class="cls-5" d="M897.21,250.394l-12.217,7.01,7.465-12.217a12.87,12.87,0,0,0-7.39-2.378h-.2a15.563,15.563,0,0,1-2.488-.169l-4.205,2.378,1.779-2.93a14.6,14.6,0,0,1-7.253-4.982l-7.465,4.26,4.678-7.709a22.515,22.515,0,0,0-16.6-7.6c-7.714,0-14.569,4.148-19.01,10.617a14.617,14.617,0,0,1-12.553,6.131h-.411c-8.51,0-15.4,8.735-15.4,19.51s6.892,19.521,15.4,19.521a12.663,12.663,0,0,0,5.362-1.217,24.322,24.322,0,0,1,18.662-.338,21.187,21.187,0,0,0,15.85,0,24.409,24.409,0,0,1,18.488.327,12.544,12.544,0,0,0,5.3,1.195c8.51,0,15.4-8.746,15.4-19.521a22.87,22.87,0,0,0-3.2-11.891Z" transform="translate(847.475 375.616)"/>
    <path id="Path_845" data-name="Path 845" class="cls-5" d="M809.139,250.394l12.218,7.01-7.465-12.218a12.871,12.871,0,0,1,7.39-2.378h.2a15.563,15.563,0,0,0,2.488-.169l4.205,2.378-1.779-2.93a14.6,14.6,0,0,0,7.253-4.982l7.465,4.26-4.678-7.709a22.515,22.515,0,0,1,16.6-7.6c7.714,0,14.569,4.148,19.011,10.617a14.617,14.617,0,0,0,12.553,6.131h.411c8.51,0,15.4,8.735,15.4,19.51s-6.893,19.521-15.4,19.521a12.663,12.663,0,0,1-5.362-1.217,24.322,24.322,0,0,0-18.662-.338,21.188,21.188,0,0,1-15.85,0,24.41,24.41,0,0,0-18.488.327,12.544,12.544,0,0,1-5.3,1.195c-8.51,0-15.4-8.746-15.4-19.521a22.869,22.869,0,0,1,3.2-11.891Z" transform="translate(446.15 431.396)"/>
  </g>
</svg>
