<svg xmlns="http://www.w3.org/2000/svg" xmlns:xlink="http://www.w3.org/1999/xlink" width="1033.284" height="656.369" viewBox="0 0 1033.284 656.369">
  <defs>
    <filter id="Path_26" x="51.272" y="255.565" width="109.285" height="211.181" filterUnits="userSpaceOnUse">
      <feOffset dy="7" input="SourceAlpha"/>
      <feGaussianBlur stdDeviation="3" result="blur"/>
      <feFlood flood-opacity="0.161"/>
      <feComposite operator="in" in2="blur"/>
      <feComposite in="SourceGraphic"/>
    </filter>
    <filter id="Path_27" x="92.501" y="83.899" width="68.555" height="73.095" filterUnits="userSpaceOnUse">
      <feOffset dy="7" input="SourceAlpha"/>
      <feGaussianBlur stdDeviation="3" result="blur-2"/>
      <feFlood flood-opacity="0.161"/>
      <feComposite operator="in" in2="blur-2"/>
      <feComposite in="SourceGraphic"/>
    </filter>
    <filter id="Path_28" x="52.905" y="141.232" width="108.152" height="129.58" filterUnits="userSpaceOnUse">
      <feOffset dy="7" input="SourceAlpha"/>
      <feGaussianBlur stdDeviation="3" result="blur-3"/>
      <feFlood flood-opacity="0.161"/>
      <feComposite operator="in" in2="blur-3"/>
      <feComposite in="SourceGraphic"/>
    </filter>
    <filter id="Path_29" x="163.419" y="0" width="869.865" height="568.682" filterUnits="userSpaceOnUse">
      <feOffset dy="10" input="SourceAlpha"/>
      <feGaussianBlur stdDeviation="3" result="blur-4"/>
      <feFlood flood-opacity="0.161"/>
      <feComposite operator="in" in2="blur-4"/>
      <feComposite in="SourceGraphic"/>
    </filter>
    <filter id="Path_31" x="50.772" y="257.065" width="110.285" height="213.181" filterUnits="userSpaceOnUse">
      <feOffset dy="10" input="SourceAlpha"/>
      <feGaussianBlur stdDeviation="3" result="blur-5"/>
      <feFlood flood-opacity="0.161"/>
      <feComposite operator="in" in2="blur-5"/>
      <feComposite in="SourceGraphic"/>
    </filter>
    <linearGradient id="linear-gradient" x1="0.5" y1="1" x2="0.5" gradientUnits="objectBoundingBox">
      <stop offset="0" stop-color="gray" stop-opacity="0.251"/>
      <stop offset="0.54" stop-color="gray" stop-opacity="0.122"/>
      <stop offset="1" stop-color="gray" stop-opacity="0.102"/>
    </linearGradient>
    <filter id="Path_61" x="336.338" y="411.228" width="128.05" height="232.336" filterUnits="userSpaceOnUse">
      <feOffset dy="10" input="SourceAlpha"/>
      <feGaussianBlur stdDeviation="3" result="blur-6"/>
      <feFlood flood-opacity="0.161"/>
      <feComposite operator="in" in2="blur-6"/>
      <feComposite in="SourceGraphic"/>
    </filter>
    <linearGradient id="linear-gradient-2" x1="0.5" y1="1" x2="0.5" y2="0" xlink:href="#linear-gradient"/>
  </defs>
  <g id="home_background" transform="translate(-3.708 0.497)">
    <g transform="matrix(1, 0, 0, 1, 3.71, -0.5)" filter="url(#Path_26)">
      <path id="Path_26-2" data-name="Path 26" d="M92.121,356.76h89.434V461.905H98.66c-.212,1.087-.423,2.166-.661,3.253h83.556v84.782a1.384,1.384,0,0,1-.414-.137q-3.525-1.208-7.05-2.562c-.5-.2-1-.4-1.507-.593q-3.525-1.437-7.05-3.04c-.82-.372-1.639-.76-2.441-1.155a145.925,145.925,0,0,1-35.164-23.609c-.308-.251-.59-.524-.881-.76-1.428-1.338-2.829-2.691-4.186-4.074-.511-.509-1-1.026-1.507-1.52-1.6-1.687-3.155-3.436-4.653-5.192-.229-.266-.441-.524-.661-.76A108.844,108.844,0,0,1,100.881,482.9c-.123-.251-.238-.525-.352-.76-1.216-2.66-2.318-5.359-3.27-8.11-.405-1.148-.8-2.28-1.137-3.474-.123-.342-.22-.692-.326-1.034-4.953-16.836-5.526-34.334-5.526-51.748v-6.081q.106-10.664.291-21.306.071-2.736.132-5.5.185-6.985.529-14c.053-1.292.123-2.592.2-3.877q.053-1.117.132-2.235Q91.795,360.743,92.121,356.76Z" transform="translate(-30 -99.19)" fill="#506150" opacity="0.1"/>
    </g>
    <g transform="matrix(1, 0, 0, 1, 3.71, -0.5)" filter="url(#Path_27)">
      <path id="Path_27-2" data-name="Path 27" d="M187.242,185.866H138.18a328.85,328.85,0,0,1,26.1-30.967c7.3-7.723,14.982-15.248,22.966-22.5Z" transform="translate(-35.69 -45.37)" fill="#fff" stroke="#707070" stroke-width="1"/>
    </g>
    <g transform="matrix(1, 0, 0, 1, 3.71, -0.5)" filter="url(#Path_28)">
      <path id="Path_28-2" data-name="Path 28" d="M181.842,207V317.58H92.69a8.929,8.929,0,0,1,.088-.965c.079-.874.159-1.741.247-2.615.088-1.019.2-2.037.317-3.04s.229-2.22.37-3.322.256-2.219.4-3.322.282-2.2.441-3.3.3-2.2.476-3.3c.132-.9.264-1.817.414-2.729.2-1.285.414-2.569.635-3.846a3.2,3.2,0,0,1,.106-.578,233.525,233.525,0,0,1,6.557-27.759,186.857,186.857,0,0,1,11.06-28.124A202.5,202.5,0,0,1,130.436,207Z" transform="translate(-30.29 -63.27)" fill="#fff" stroke="#000" stroke-width="1"/>
    </g>
    <g transform="matrix(1, 0, 0, 1, 3.71, -0.5)" filter="url(#Path_29)">
      <path id="Path_29-2" data-name="Path 29" d="M218.09,275.628V380.773H409.12V275.628Zm0,108.4v90.3c1.093.19,2.168.38,3.252.54,1.454.243,2.917.464,4.406.654l.881.106c.582.084,1.172.152,1.763.213,1.472.182,2.943.319,4.406.441.687.061,1.4.106,2.1.16l1.7.106h0c.925.061,1.842.106,2.758.137.564,0,1.128.038,1.7.053s.881,0,1.34,0h4.9c.758,0,1.516,0,2.265-.061h.044a15.632,15.632,0,0,0,1.578-.053,4.488,4.488,0,0,0,.449,0,12.285,12.285,0,0,0,1.3-.046,2.153,2.153,0,0,1,.3,0c.978-.053,1.965-.122,2.961-.2s1.939-.167,2.935-.258l2-.213a200.049,200.049,0,0,0,24.192-4.439c17.829-4.287,35.252-10.284,53.072-14.67,23.019-5.663,48.471-8.452,70.715-1.558V384.027Zm191.03-225.47V18.576a282.835,282.835,0,0,0-62.061,6.271C298.684,35.329,255.245,58.063,218.09,87.1v71.45H227.7v3.246H218.09v110.58H409.12V161.795H267.037v-3.253Zm245.423-47.286a88.7,88.7,0,0,1-34.635-8.68c-20.569-9.646-37.014-24.559-55.381-37.131-38.16-26.2-85.486-42.019-134.036-45.941V158.557H703.172l.679-.616Zm24.844-3.8,26.342,24.939v-31.5c-8.866.965-16.586,3.208-26.342,6.529Zm26.342,389.28V384.027H649.554c-.141-.479-.3-.965-.476-1.452.167.486.317.973.467,1.452H430.491V465.54c2.08,1.33,4.133,2.736,6.169,4.15h0q3.3,2.326,6.548,4.705l2.186,1.558c1.049.76,2.115,1.52,3.173,2.242q3.181,2.212,6.407,4.378,1.613,1.095,3.243,2.151a455.058,455.058,0,0,0,54.323,30.64q6.372,3.067,12.858,5.936,4.31,1.915,8.681,3.755,6.557,2.759,13.219,5.321h0A545.19,545.19,0,0,0,675.967,562.7q14.788,1.877,29.708,2.964V496.735h.881ZM430.491,161.795v110.58H705.728V161.795Zm0,113.818v105.16H705.728V275.628Zm296.6-174.854v35.193L760.7,104.126Q743.994,101.747,727.091,100.758Zm0,174.87V380.773H994.784V275.628Zm266.75,229.46.943-121.062H727.091V566.885q25.864.928,51.732-.54h.3q12.338-.684,24.562-1.946h.185A509.7,509.7,0,0,0,930.1,535.318M1046.428,292.9q-1.525-3.04-3.129-6.081c-1.992-3.8-4.089-7.495-6.257-11.181h-20.887V380.773h52.8C1068.91,350.993,1060.167,320.588,1046.428,292.9Zm-30.273,91.129V488.161c14.867-12.291,27.444-26.36,36.486-42.444,10.884-19.375,15.863-40.339,16.277-61.7Zm0-139.038v27.364h18.93a292.017,292.017,0,0,0-18.93-27.364ZM834.609,121.4c-1.392-.464-2.794-.927-4.195-1.368a427.5,427.5,0,0,0-45.21-11.721L733.753,157h0l-1,.935.661.616H916.525A416.1,416.1,0,0,0,834.609,121.4Zm87.292,40.4H730.845l-3.754,2.957V272.375H994.784V220.232A365.507,365.507,0,0,0,921.9,161.795Z" transform="translate(-45.17 -18.06)" fill="#fff" stroke="#030303" stroke-width="1"/>
    </g>
    <path id="Path_30" data-name="Path 30" d="M181.842,280.39v54.8H92.69a8.931,8.931,0,0,1,.088-.965c.079-.874.159-1.741.247-2.615.088-1.018.2-2.037.317-3.04s.229-2.22.37-3.322.256-2.219.4-3.322.282-2.2.441-3.3.3-2.2.476-3.3c.132-.9.264-1.817.414-2.729q.3-1.927.635-3.846a3.2,3.2,0,0,1,.106-.578,233.523,233.523,0,0,1,6.557-27.759Z" transform="translate(-26.578 -81.371)" fill="#506150" opacity="0.1"/>
    <g transform="matrix(1, 0, 0, 1, 3.71, -0.5)" filter="url(#Path_31)">
      <path id="Path_31-2" data-name="Path 31" d="M92.121,356.76h89.434V461.905H98.66c-.212,1.087-.423,2.166-.661,3.253h83.556v84.782a1.384,1.384,0,0,1-.414-.137q-3.525-1.208-7.05-2.562c-.5-.2-1-.4-1.507-.593q-3.525-1.437-7.05-3.04c-.82-.372-1.639-.76-2.441-1.155a145.925,145.925,0,0,1-35.164-23.609c-.308-.251-.59-.524-.881-.76-1.428-1.338-2.829-2.691-4.186-4.074-.511-.509-1-1.026-1.507-1.52-1.6-1.687-3.155-3.436-4.653-5.192-.229-.266-.441-.524-.661-.76A108.844,108.844,0,0,1,100.881,482.9c-.123-.251-.238-.525-.352-.76-1.216-2.66-2.318-5.359-3.27-8.11-.405-1.148-.8-2.28-1.137-3.474-.123-.342-.22-.692-.326-1.034-4.953-16.836-5.526-34.334-5.526-51.748v-6.081q.106-10.664.291-21.306.071-2.736.132-5.5.185-6.985.529-14c.053-1.292.123-2.592.2-3.877q.053-1.117.132-2.235Q91.795,360.743,92.121,356.76Z" transform="translate(-30 -99.19)" fill="#edefed" stroke="#707070" stroke-width="1"/>
    </g>
    <path id="Path_32" data-name="Path 32" d="M269.382,199.156V293.9H202.13V199.156h9.588V167.08h39.359v32.076Z" transform="translate(-25.512 -40.081)" fill="#506150" opacity="0.1"/>
    <rect id="Rectangle_9" data-name="Rectangle 9" width="67.243" height="105.145" transform="translate(176.618 257.061)" fill="#506150" opacity="0.1"/>
    <path id="Path_33" data-name="Path 33" d="M218.09,499.37h67.243v87.412a198.571,198.571,0,0,1-24.191,4.431c-.67.083-1.331.152-2,.213-.987.1-1.965.19-2.944.266l-2.952.205h-.3l-1.3.061h-.449c-.529,0-1.049.053-1.578.061h-.044c-.758,0-1.507.046-2.265.061h-6.24a16.1,16.1,0,0,1-1.71-.061q-1.357-.046-2.75-.137h0l-1.7-.106c-.705-.046-1.41-.106-2.106-.167q-2.221-.167-4.406-.433l-1.763-.213-.881-.106c-1.472-.19-2.935-.4-4.406-.646-1.093-.167-2.168-.357-3.252-.555Z" transform="translate(-41.463 -133.903)" fill="#506150" opacity="0.1"/>
    <rect id="Rectangle_10" data-name="Rectangle 10" width="55.451" height="105.921" transform="translate(608.805 147.887)" fill="#506150" opacity="0.1"/>
    <path id="Path_34" data-name="Path 34" d="M718.387,338.19V443.343H443.15V397.987h146.6v26.756h73.174V338.19Z" transform="translate(-54.122 -81.129)" fill="#506150" opacity="0.1"/>
    <path id="Path_35" data-name="Path 35" d="M735.21,611.658a5.775,5.775,0,0,1-.881-.046v68.98q-14.9-1.057-29.7-2.957a545.94,545.94,0,0,1-128.722-32.3q-17.74-6.9-34.758-15.042a456.7,456.7,0,0,1-54.314-30.64q-6.5-4.287-12.814-8.764c-2.917-2.083-5.808-4.211-8.751-6.271-2.027-1.421-4.08-2.827-6.169-4.165V498.912H678.155c-.159-.487-.3-.965-.458-1.452.167.486.326.965.467,1.452h56.174V611.6C734.628,611.613,734.919,611.635,735.21,611.658Z" transform="translate(-70.072 -133.445)" fill="#506150" opacity="0.1"/>
    <path id="Path_36" data-name="Path 36" d="M930.643,190.58H894.51V180.9H910.7V152.05q2.106.669,4.2,1.368V180.9h15.74Z" transform="translate(-121.758 -50.583)" fill="#506150" opacity="0.1"/>
    <path id="Path_37" data-name="Path 37" d="M1005.971,317.58h-177.4a.133.133,0,0,0,.053,0H795.65V211.659h9.324V289.95h42.6V243.584h35.208V207h36.133v36.607h35.19v46.366h51.873Z" transform="translate(-110.022 -63.765)" fill="#506150" opacity="0.1"/>
    <path id="Path_38" data-name="Path 38" d="M795.65,356.76V461.905h210.33V356.76Zm267.394,228.906.3-83.231H1005.98V465.189H795.65V648.017q25.864.928,51.732-.54h.3q12.338-.684,24.562-1.946h.185A509.7,509.7,0,0,0,998.656,616.45" transform="translate(-110.022 -99.692)" fill="#506150" opacity="0.1"/>
    <path id="Path_39" data-name="Path 39" d="M1127.351,499.37h49.062c-.423,21.351-5.393,42.323-16.277,61.69-9.042,16.091-21.618,30.161-36.486,42.452V536.623h3.7Z" transform="translate(-148.958 -133.903)" fill="#506150" opacity="0.1"/>
    <path id="Path_40" data-name="Path 40" d="M1176.947,467.356h-49.1V379.48h26.571C1168.16,407.171,1176.9,437.575,1176.947,467.356Z" transform="translate(-149.456 -105.142)" fill="#506150" opacity="0.1"/>
    <rect id="Rectangle_11" data-name="Rectangle 11" width="29.708" height="33.209" transform="translate(634.556 177.333)" fill="#506150" opacity="0.1"/>
    <rect id="Rectangle_12" data-name="Rectangle 12" width="29.708" height="7.647" transform="translate(634.556 246.168)" fill="#506150" opacity="0.1"/>
    <rect id="Rectangle_13" data-name="Rectangle 13" width="29.708" height="22.309" transform="translate(634.556 257.061)" fill="#506150" opacity="0.1"/>
    <rect id="Rectangle_14" data-name="Rectangle 14" width="29.708" height="33.209" transform="translate(634.556 315.003)" fill="#506150" opacity="0.1"/>
    <rect id="Rectangle_15" data-name="Rectangle 15" width="29.708" height="33.209" transform="translate(634.556 383.839)" fill="#506150" opacity="0.1"/>
    <path id="Path_41" data-name="Path 41" d="M767.408,639.586a4.944,4.944,0,0,1,.881.053,5.768,5.768,0,0,1-.881-.046v7.715H737.7V614.1h29.708Z" transform="translate(-103.143 -161.426)" fill="#506150" opacity="0.1"/>
    <path id="Path_42" data-name="Path 42" d="M767.408,704.65V730.3q-14.911-1.057-29.708-2.957V704.65Z" transform="translate(-103.143 -183.149)" fill="#506150" opacity="0.1"/>
    <rect id="Rectangle_16" data-name="Rectangle 16" width="127.321" height="2.44" transform="translate(389.028 359.774)" fill="#506150" opacity="0.1"/>
    <rect id="Rectangle_17" data-name="Rectangle 17" width="127.321" height="9.349" transform="translate(389.028 365.459)" fill="#506150" opacity="0.1"/>
    <rect id="Rectangle_18" data-name="Rectangle 18" width="127.321" height="15.035" transform="translate(389.028 405.456)" fill="#506150" opacity="0.1"/>
    <path id="Path_43" data-name="Path 43" d="M587.252,612.08v15.035H487.665q-6.5-4.272-12.814-8.772c-2.926-2.075-5.817-4.2-8.751-6.263Z" transform="translate(-70.903 -160.942)" fill="#506150" opacity="0.1"/>
    <path id="Path_44" data-name="Path 44" d="M597.472,672.17v15.073H586.958q-17.741-6.9-34.758-15.042Z" transform="translate(-81.124 -175.357)" fill="#506150" opacity="0.1"/>
    <rect id="Rectangle_19" data-name="Rectangle 19" width="25.064" height="21.617" transform="translate(737.359 267.254)" fill="#506150" opacity="0.1"/>
    <rect id="Rectangle_20" data-name="Rectangle 20" width="25.064" height="21.617" transform="translate(194.676 166.532)" fill="#506150" opacity="0.1"/>
    <rect id="Rectangle_21" data-name="Rectangle 21" width="25.064" height="21.617" transform="translate(194.676 216.745)" fill="#506150" opacity="0.1"/>
    <rect id="Rectangle_22" data-name="Rectangle 22" width="25.064" height="21.617" transform="translate(194.676 266.957)" fill="#506150" opacity="0.1"/>
    <rect id="Rectangle_23" data-name="Rectangle 23" width="25.064" height="21.617" transform="translate(194.676 317.162)" fill="#506150" opacity="0.1"/>
    <rect id="Rectangle_24" data-name="Rectangle 24" width="25.064" height="21.617" transform="translate(194.676 367.375)" fill="#506150" opacity="0.1"/>
    <rect id="Rectangle_25" data-name="Rectangle 25" width="25.064" height="21.617" transform="translate(194.676 417.587)" fill="#506150" opacity="0.1"/>
    <rect id="Rectangle_26" data-name="Rectangle 26" width="25.064" height="21.617" transform="translate(833.042 267.254)" fill="#506150" opacity="0.1"/>
    <rect id="Rectangle_27" data-name="Rectangle 27" width="25.064" height="21.617" transform="translate(737.359 320.575)" fill="#506150" opacity="0.1"/>
    <rect id="Rectangle_28" data-name="Rectangle 28" width="25.064" height="21.617" transform="translate(833.042 320.575)" fill="#506150" opacity="0.1"/>
    <rect id="Rectangle_29" data-name="Rectangle 29" width="25.064" height="21.617" transform="translate(737.359 373.889)" fill="#506150" opacity="0.1"/>
    <rect id="Rectangle_30" data-name="Rectangle 30" width="25.064" height="21.617" transform="translate(833.042 373.889)" fill="#506150" opacity="0.1"/>
    <rect id="Rectangle_31" data-name="Rectangle 31" width="25.064" height="21.617" transform="translate(737.359 427.21)" fill="#506150" opacity="0.1"/>
    <rect id="Rectangle_32" data-name="Rectangle 32" width="25.064" height="21.617" transform="translate(833.042 427.21)" fill="#506150" opacity="0.1"/>
    <rect id="Rectangle_33" data-name="Rectangle 33" width="25.064" height="21.617" transform="translate(737.359 480.531)" fill="#506150" opacity="0.1"/>
    <rect id="Rectangle_34" data-name="Rectangle 34" width="25.064" height="21.617" transform="translate(833.042 480.531)" fill="#506150" opacity="0.1"/>
    <path id="Path_45" data-name="Path 45" d="M838.4,716.27V702.33h25.055v11.956Z" transform="translate(-101.04 -168.485)" fill="#506150" opacity="0.1"/>
    <path id="Path_46" data-name="Path 46" d="M96.53,316.91v12.367H182.3V316.91Zm8.54,11.592h-7.05V317.693h7.05Zm8.54,0h-7.05V317.693h7.05Zm8.522,0h-7.05V317.693h7.05Zm8.54,0h-7.05V317.693h7.05Zm8.531,0h-7.05V317.693h7.05Zm8.54,0h-7.05V317.693h7.05Zm8.54,0h-7.05V317.693h7.05Zm8.531,0h-7.05V317.693h7.05Zm8.531,0h-7.05V317.693h7.05Zm8.54,0h-7.05V317.693h7.05Z" transform="translate(-27.034 -90.132)" fill="#506150" opacity="0.1"/>
    <path id="Path_47" data-name="Path 47" d="M96.53,364.27v12.367H182.3V364.27Zm8.54,11.592h-7.05V365.053h7.05Zm8.54,0h-7.05V365.053h7.05Zm8.522,0h-7.05V365.053h7.05Zm8.54,0h-7.05V365.053h7.05Zm8.531,0h-7.05V365.053h7.05Zm8.54,0h-7.05V365.053h7.05Zm8.54,0h-7.05V365.053h7.05Zm8.531,0h-7.05V365.053h7.05Zm8.531,0h-7.05V365.053h7.05Zm8.54,0h-7.05V365.053h7.05Z" transform="translate(-27.034 -101.493)" fill="#506150" opacity="0.1"/>
    <path id="Path_48" data-name="Path 48" d="M96.53,411.64V424H182.3V411.64Zm8.54,11.576h-7.05V412.408h7.05Zm8.54,0h-7.05V412.408h7.05Zm8.522,0h-7.05V412.408h7.05Zm8.54,0h-7.05V412.408h7.05Zm8.531,0h-7.05V412.408h7.05Zm8.54,0h-7.05V412.408h7.05Zm8.54,0h-7.05V412.408h7.05Zm8.531,0h-7.05V412.408h7.05Zm8.531,0h-7.05V412.408h7.05Zm8.54,0h-7.05V412.408h7.05Z" transform="translate(-27.034 -112.857)" fill="#506150" opacity="0.1"/>
    <path id="Path_49" data-name="Path 49" d="M96.53,459v12.359H182.3V459Zm8.54,11.584h-7.05V459.76h7.05Zm8.54,0h-7.05V459.76h7.05Zm8.522,0h-7.05V459.76h7.05Zm8.54,0h-7.05V459.76h7.05Zm8.531,0h-7.05V459.76h7.05Zm8.54,0h-7.05V459.76h7.05Zm8.54,0h-7.05V459.76h7.05Zm8.531,0h-7.05V459.76h7.05Zm8.531,0h-7.05V459.76h7.05Zm8.54,0h-7.05V459.76h7.05Z" transform="translate(-27.034 -124.219)" fill="#506150" opacity="0.1"/>
    <path id="Path_50" data-name="Path 50" d="M97,506.34c.335,1.171.731,2.326,1.137,3.474v-2.691h7.05v10.8h-3.781c.106.258.22.524.344.76h80.638V506.34Zm16.745,11.584h-7.05v-10.8h7.05Zm8.522,0h-7.05v-10.8h7.05Zm8.54,0h-7.05v-10.8h7.05Zm8.531,0h-7.05v-10.8h7.05Zm8.54,0h-7.05v-10.8h7.05Zm8.54,0h-7.05v-10.8h7.05Zm8.531,0H157.9v-10.8h7.05Zm8.531,0h-7.05v-10.8h7.05Zm8.54,0h-7.05v-10.8h7.05Z" transform="translate(-27.089 -135.575)" fill="#506150" opacity="0.1"/>
    <path id="Path_51" data-name="Path 51" d="M119.54,553.7c.229.243.441.517.661.76h4.662v5.192l1.507,1.52V554.43h7.05v10.9h-2.9c.282.251.555.517.881.76h53.609V553.7Zm22.438,11.63h-7.05V554.475h7.05Zm8.54,0h-7.05V554.475h7.05Zm8.54,0h-7.05V554.475h7.05Zm8.531,0h-7.05V554.475h7.05Zm8.531,0h-7.05V554.475h7.05Zm8.54,0h-7.05V554.475h7.05Z" transform="translate(-29.765 -146.937)" fill="#506150" opacity="0.1"/>
    <path id="Path_52" data-name="Path 52" d="M172.93,601.06c.811.4,1.63.76,2.45,1.148v-.38h7.05v3.428c.511.19,1,.4,1.5.593v-4.021h7.05v6.583a3.2,3.2,0,0,0,.414.129V601.06Z" transform="translate(-36.103 -158.298)" fill="#506150" opacity="0.1"/>
    <path id="Path_53" data-name="Path 53" d="M761.3,316.553ZM707.014,540.9ZM650.374,426.753c.167.487.317.973.467,1.452h0C650.708,427.726,650.55,427.24,650.374,426.753ZM761.3,316.553ZM229,202.735v3.238h39.367V202.72ZM707.023,540.9Zm-56.65-114.145c.167.487.317.973.467,1.452h0C650.708,427.726,650.55,427.24,650.374,426.753ZM761.3,316.553ZM707.014,540.9ZM650.374,426.753c.167.487.317.973.467,1.452h0C650.708,427.726,650.55,427.24,650.374,426.753Z" transform="translate(-42.758 -62.738)" fill="#506150" opacity="0.1"/>
    <ellipse id="Ellipse_3" data-name="Ellipse 3" cx="85.873" cy="11.896" rx="85.873" ry="11.896" transform="translate(687.646 632.081)" fill="#506150" opacity="0.1"/>
    <ellipse id="Ellipse_4" data-name="Ellipse 4" cx="85.873" cy="11.896" rx="85.873" ry="11.896" transform="translate(300.352 620.185)" fill="#506150" opacity="0.1"/>
    <path id="Path_54" data-name="Path 54" d="M547.475,397.954a.394.394,0,0,0-.132-.2c-1.313-1.117-18.058-21.541-18.058-21.541s-.881-2.28-2.309-5.245a4.991,4.991,0,0,0,1.014-1.71,5.15,5.15,0,0,0,.167-.8c0-.084.07-.152.1-.236a5.009,5.009,0,0,0-.088-3.132,5.034,5.034,0,0,1-.361.76,11.935,11.935,0,0,0-1.322-2.539c-2.221-3.3-5.393-6.081-7.729-9.3a22.347,22.347,0,0,1-3.975-16.692v.9a22.665,22.665,0,0,1,.529-3.42,21.573,21.573,0,0,1,1.472-3.755c2.1-4.143,5.49-7.753,7.553-11.911a20.37,20.37,0,0,0,1.569-4.355,21.171,21.171,0,0,0,.784-7.639,10.553,10.553,0,0,1-.22,1.817,23.2,23.2,0,0,0-8.1-16.471c-7.2-6.24-17.538-8.665-27.426-9.942a27.63,27.63,0,0,1-11.545-3.8c-3.8-2.121-8.707-2.63-13.149-2.166a23.141,23.141,0,0,0-13.387,5.708c-4.7,4.454-6.733,10.763-12.215,14.518-3.322,2.28-7.535,3.344-11.4,4.9s-7.526,3.8-8.769,7.13v.122l-.053.122c-1.287,3.937,1.2,7.943,2.494,11.873,1.348,4.067,1.437,8.361,1.507,12.565.1,5.138.185,10.284.088,15.43-.044,2.022-.123,4.067-.3,6.081a40.545,40.545,0,0,0-6.054,2.1c-1.974,1.11-9.359,7.989-9.359,7.989l-14.444,47.6.194.19-.194.646.731-.144a72.608,72.608,0,0,0,14.744,10.687l.617,9.334a16.5,16.5,0,0,0,10.725,13.233c.229,3.246.943,16.426-2.362,21.648a21.58,21.58,0,0,0-3.12,12.375s1.154,7.92-.159,12.086a17.117,17.117,0,0,0-.167,8.483h0v2.5c0,8.43.115,35.444,0,38.5-.167,3.61,0,57.008,0,57.008s-.82,26.687-3.446,33.916-1.965,31.164-1.965,31.164-1.648,28.512,4.177,34.136c0,.251-.053.509-.062.76v.357c-.071,2.166.414,4.469,2.573,5.176a37.038,37.038,0,0,1,11.333,7.092c1.1,1.254,7.509,4.378,15.863,3.542a138.322,138.322,0,0,1,15.766-.623h0s3.3-.517,2.23-4.051h0c-.687-2.2-3.261-5.594-5.094-7.821.335.076.661.137.969.19l.317.053h.247a3.9,3.9,0,0,0,.405,0h.176a3.468,3.468,0,0,0,.493,0h0c2.212-.182,10.461,3.132,11.933,5.321s6.663,3.854,10.576,4.272c2.327.243,8.2-.167,13.122-.715a55.3,55.3,0,0,0,7.35-1.155c1.163-.38,1.41-1.6,1.075-2.964h0a7.591,7.591,0,0,0-3.049-4.439c-1.428-.874-3.314-3.177-4.706-5.062l-.37-.509c2.459-2.022,6.9-8.635,8.249-10,1.639-1.665-2.644-62.541-2.644-62.541V594.828l6.566-28.884,4.592-15.286,3.939-23.077s6.892-26.953,4.768-29.6h0c0-.053-1.763-27.8-3.613-34.471-.8-2.972-.6-9.661-.123-16.167a2.889,2.889,0,0,0,.881-3.329,6.378,6.378,0,0,0-.511-1.133v-.35a67.543,67.543,0,0,1,11.871-3.481c6.565-1.11,4.926-4.029,4.926-4.029s1.481-2.5,2.459-4.029.167-15.012,0-16.122c-.062-.449-.467-2.927-.934-5.739,2.106-1.292,4.847-2.9,7.835-4.416C549.22,401.815,547.942,398.752,547.475,397.954ZM461.813,590.663s-4.926,10.839-2.952,13.613-.326,13.074-.326,13.074l-1.648,15.286s-4.592,28.352-2.952,35.018c1.287,5.229,1.763,20.85,1.912,27.364h0a2.41,2.41,0,0,0-.326.137l-.22.1c.758-2.561.441-7.745-3.323-18.174L451.661,634s-.582-49.757,3.975-55.32,6.169-15.012,6.169-15.012-.987,13.629-1.63,17.239S461.813,590.663,461.813,590.663Zm-9.174,107.068c-.044.091-.1.183-.132.266l-.247-.274a3.019,3.019,0,0,0,.379.008Z" transform="translate(-62.386 -80.419)" fill="url(#linear-gradient)"/>
    <path id="Path_55" data-name="Path 55" d="M510.817,847.87c-2.547.844-16.357,2.28-20.217,1.878s-8.972-2.09-10.426-4.295-9.606-5.533-11.792-5.321a9.107,9.107,0,0,1-2.644-.319,35.883,35.883,0,0,1-4.406-1.459,6.11,6.11,0,0,1,.1-2.889,4.144,4.144,0,0,1,.194-.562,5.368,5.368,0,0,1,2.961-2.843l.317-.129a10.035,10.035,0,0,1,1.9-.5c6.927-1.148,35.507,1.155,35.507,1.155s.8,1.239,1.9,2.774c1.375,1.9,3.243,4.219,4.653,5.093a7.638,7.638,0,0,1,3.005,4.469C512.21,846.266,511.963,847.5,510.817,847.87Z" transform="translate(-70.322 -213.486)" fill="#fff"/>
    <path id="Path_56" data-name="Path 56" d="M510.819,848.542c-2.547.844-16.348,2.28-20.208,1.877s-8.972-2.1-10.435-4.295-9.6-5.534-11.783-5.321-7.05-1.779-7.05-1.779a5.618,5.618,0,0,1,1.445-5.116l4.406,2.7s11.792,3.155,13.977,6.081,6.169,4.561,11.924,4.857c4.3.243,14.18-1.2,18.807-1.923C512.211,846.938,511.973,848.169,510.819,848.542Z" transform="translate(-70.324 -214.158)" opacity="0.1"/>
    <path id="Path_57" data-name="Path 57" d="M463.569,851.833a135.827,135.827,0,0,0-15.564.631c-8.275.836-14.594-2.28-15.7-3.565a36.788,36.788,0,0,0-11.184-7.145c-2.142-.714-2.644-3.041-2.547-5.214v-.357a18.576,18.576,0,0,1,.705-4.082l34.291-.631,2.97,3.474.458.532,1.807,2.121s.82.927,1.895,2.28c1.815,2.28,4.354,5.648,5.032,7.875h0C466.821,851.316,463.569,851.833,463.569,851.833Z" transform="translate(-65.261 -213.572)" fill="#fff"/>
    <path id="Path_58" data-name="Path 58" d="M463.569,853.438a135.883,135.883,0,0,0-15.564.631c-8.267.836-14.594-2.28-15.687-3.565a35.768,35.768,0,0,0-11.192-7.13c-2.142-.715-2.644-3.041-2.547-5.214,2.45.494,7.6,1.756,9.615,3.953,2.644,2.934,7.376,7.867,14.1,8.179,5.429.251,18.648-.585,23.5-.92C466.829,852.921,463.569,853.438,463.569,853.438Z" transform="translate(-65.261 -215.177)" opacity="0.1"/>
    <path id="Path_59" data-name="Path 59" d="M459.484,832.111c-.4,2.539-1.622,3.223-2.5,3.375a1.969,1.969,0,0,1-.652,0,2.51,2.51,0,0,1-.344-.046s-30.792,5.868-37.014,1.117a4.024,4.024,0,0,1-.441-.4,18.576,18.576,0,0,1,.705-4.081l34.291-.631,2.97,3.474a5.368,5.368,0,0,1,2.961-2.843Z" transform="translate(-65.256 -213.568)" opacity="0.1"/>
    <path id="Path_60" data-name="Path 60" d="M504.7,835.307c-.687.654-1.26,1.026-1.622.9-1.622-.562-14.912-2.516-19.133-.836s-18.507.274-18.507.274,0-1.459-.079-3.8a10.044,10.044,0,0,1,1.9-.5c6.927-1.148,35.507,1.155,35.507,1.155S503.608,833.771,504.7,835.307Z" transform="translate(-70.815 -213.464)" opacity="0.1"/>
    <g transform="matrix(1, 0, 0, 1, 3.71, -0.5)" filter="url(#Path_61)">
      <path id="Path_61-2" data-name="Path 61" d="M518.684,598.1l-3.9,23.214-4.53,15.385-6.486,29.082V696.56s4.213,61.249,2.591,62.921-7.782,11.2-9.4,10.641-14.912-2.516-19.133-.844-18.507.281-18.507.281-.326-23.768-1.948-30.48,2.917-35.238,2.917-35.238l1.622-15.377s2.274-10.353.326-13.15,2.917-13.682,2.917-13.682-2.265-6.164-1.613-9.8,1.613-17.338,1.613-17.338-1.613,9.517-6.116,15.1-3.931,55.655-3.931,55.655l.317,43.326c8.117,22.94,0,20.7,0,20.7s-30.792,5.876-37.014,1.117-4.442-34.706-4.442-34.706-.643-24.05,1.948-31.316,3.411-34.121,3.411-34.121-.167-53.7,0-57.327c.123-3.04,0-30.26,0-38.765v-2.516l3.719-7.966,44.065-4.758h21.081s31.727,6.431,35.005,9.2a.679.679,0,0,1,.176.167C525.5,570.975,518.684,598.1,518.684,598.1Z" transform="translate(-68.39 -147.69)" fill="#506150"/>
    </g>
    <path id="Path_62" data-name="Path 62" d="M472.11,770.88s9.694,20.135,14.268,21.534S472.11,770.88,472.11,770.88Z" transform="translate(-71.617 -199.037)" opacity="0.1"/>
    <path id="Path_63" data-name="Path 63" d="M476.18,809.88s32.731,1.4,32.405,4.477S476.18,809.88,476.18,809.88Z" transform="translate(-72.1 -208.393)" opacity="0.1"/>
    <path id="Path_64" data-name="Path 64" d="M426.49,799.29c1.3,1.057,24.967,3.041,23.019,4.971s-21.072,5.686-21.072,5.686Z" transform="translate(-66.201 -205.853)" opacity="0.1"/>
    <path id="Path_65" data-name="Path 65" d="M422.08,753.59c0,.836,4.865,26.847,6.169,27.964s11.994,2.235,11.994,2.235Z" transform="translate(-65.678 -194.889)" opacity="0.1"/>
    <path id="Path_66" data-name="Path 66" d="M457.557,283.981c-4.644,4.477-6.654,10.824-12.065,14.609-3.287,2.28-7.447,3.367-11.272,4.918s-7.614,3.914-8.751,7.426c-1.269,3.953,1.181,7.989,2.468,11.941,1.331,4.089,1.41,8.361,1.489,12.641.088,5.176.185,10.353.079,15.529-.159,8.065-.934,16.5-5.9,23.335,17.917,4.918,36.97,5.587,55.76,6.218a65.182,65.182,0,0,0,10.831-.236q4.67-.8,9.227-2.014a81.435,81.435,0,0,1,18.384-2.029,35.687,35.687,0,0,0,8.073-.464c2.609-.608,5.12-2.166,5.825-4.416.626-2.022-.291-4.173-1.489-5.99-2.186-3.314-5.288-6.081-7.632-9.349a22.621,22.621,0,0,1-1.912-23.1c2.08-4.173,5.429-7.806,7.473-11.987,4.277-9.166,1.97-19.641-5.9-26.817-7.112-6.279-17.317-8.711-27.082-10a27.019,27.019,0,0,1-11.4-3.8c-3.746-2.128-8.6-2.645-12.99-2.174a22.556,22.556,0,0,0-13.211,5.762Z" transform="translate(-65.859 -80.812)" fill="#3f3d56"/>
    <g id="Group_17" data-name="Group 17" transform="translate(358.103 228.146)" opacity="0.1">
      <path id="Path_67" data-name="Path 67" d="M533.748,338.366a22.213,22.213,0,0,0-2.247,11.607,22.062,22.062,0,0,1,2.247-8.24c2.071-4.173,5.42-7.806,7.465-11.987a21.282,21.282,0,0,0,2.053-11.037,20.962,20.962,0,0,1-2.053,7.677C539.168,330.568,535.819,334.193,533.748,338.366Z" transform="translate(-436.761 -318.71)"/>
      <path id="Path_68" data-name="Path 68" d="M429.931,344.76c.053,2.98.106,5.967.115,8.946q0-6.157-.115-12.3c-.07-4.249-.159-8.551-1.489-12.648-.881-2.6-2.186-5.237-2.644-7.859-.784,3.725,1.445,7.5,2.644,11.219C429.773,336.178,429.861,340.511,429.931,344.76Z" transform="translate(-424.203 -319.235)"/>
      <path id="Path_69" data-name="Path 69" d="M526.231,399.661a34.451,34.451,0,0,1-8.064.464,81.4,81.4,0,0,0-18.375,1.991q-4.552,1.205-9.227,2.007a64.5,64.5,0,0,1-10.84.243c-18.155-.616-36.565-1.277-53.953-5.754a24.8,24.8,0,0,1-1.763,2.888c17.917,4.91,36.97,5.587,55.751,6.218a64.488,64.488,0,0,0,10.84-.243q4.653-.793,9.192-2a81.386,81.386,0,0,1,18.34-2.014,35.178,35.178,0,0,0,8.064-.471c2.609-.616,5.12-2.159,5.825-4.409a5.238,5.238,0,0,0-.088-3.162C531.149,397.548,528.725,399.031,526.231,399.661Z" transform="translate(-424.01 -337.112)"/>
    </g>
    <path id="Path_70" data-name="Path 70" d="M502.255,375.035c-.652,1.262-3.4,12.162-4.054,13.279s-4.213,19-4.539,20.006-23.469-4.2-23.469-4.2l-13.933-10.071L441.94,381.761s-.423-11.09,10.126-14.647a18.019,18.019,0,0,1,2.2-.593c12.8-2.653,11.51-36.211,11.51-36.211l26.263,9.783s-4.865,19.58-4.7,23.358c.044,1.269,1.2,2.06,2.706,2.539a24.646,24.646,0,0,0,7.174.669S502.908,373.78,502.255,375.035Z" transform="translate(-68.035 -93.347)" fill="#fbbebe"/>
    <path id="Path_71" data-name="Path 71" d="M559.056,437l3.728.844s2.758,3.618-3.728,6.985a114.2,114.2,0,0,0-11.836,7.137L528.053,457l-3.693-10L542.2,435.33Z" transform="translate(-77.819 -118.54)" fill="#506150"/>
    <path id="Path_72" data-name="Path 72" d="M559.056,437l3.728.844s2.758,3.618-3.728,6.985a114.2,114.2,0,0,0-11.836,7.137L528.053,457l-3.693-10L542.2,435.33Z" transform="translate(-77.819 -118.54)" opacity="0.1"/>
    <path id="Path_73" data-name="Path 73" d="M404,449.657l-7.456,6.294s13.449,13.423,23.795,14.26S437.353,460,437.353,460L428.4,447.84Z" transform="translate(-62.646 -121.541)" fill="#506150"/>
    <path id="Path_74" data-name="Path 74" d="M404,449.657l-7.456,6.294s13.449,13.423,23.795,14.26S437.353,460,437.353,460L428.4,447.84Z" transform="translate(-62.646 -121.541)" opacity="0.1"/>
    <ellipse id="Ellipse_5" data-name="Ellipse 5" cx="25.937" cy="22.37" rx="25.937" ry="22.37" transform="translate(386.234 214.153)" opacity="0.1"/>
    <ellipse id="Ellipse_6" data-name="Ellipse 6" cx="25.937" cy="22.37" rx="25.937" ry="22.37" transform="translate(386.234 212.473)" fill="#fbbebe"/>
    <path id="Path_75" data-name="Path 75" d="M524.142,570.838a95.22,95.22,0,0,0-17.353,3.352c-9.694,2.782-85.662.046-86.719,0v-2.516l3.719-7.966,44.065-4.758h21.081s31.727,6.431,35.005,9.2C524.072,569.827,524.142,570.838,524.142,570.838Z" transform="translate(-65.439 -148.196)" opacity="0.1"/>
    <path id="Path_76" data-name="Path 76" d="M502.255,386.3c-.652,1.262-3.4,12.162-4.054,13.279s-4.213,19-4.539,20.006-23.469-4.2-23.469-4.2l-13.933-10.071L441.94,393.022s-.423-11.09,10.126-14.647l26.192,25.973,11.792-27.1a24.645,24.645,0,0,0,7.174.669S502.908,385.041,502.255,386.3Z" transform="translate(-68.035 -104.607)" opacity="0.1"/>
    <path id="Path_77" data-name="Path 77" d="M474.786,404.817l-26.809-26.6a12.8,12.8,0,0,0-10.637-.676c-6,2.242-13.457,4.059-15.4,5.176s-9.245,8.034-9.245,8.034l21.733,49.034-9.571,32.3s1.463,16.5-2.265,22.514a21.906,21.906,0,0,0-3.085,12.443s1.137,7.974-.159,12.162a17.542,17.542,0,0,0-.167,8.528s77.016,2.8,86.737,0a94.4,94.4,0,0,1,17.353-3.352S521.5,496.4,519.741,489.69s1.463-32.3,1.463-32.3L519.1,429.984l12.638-28.124s-6.848-18.03-13.986-19.846c0,0-12.964-2.66-15.722-3.915s-10.866-2.379-10.866-2.379l-4.257,1.231Z" transform="translate(-64.563 -104.24)" fill="#506150"/>
    <path id="Path_146" data-name="Path 146" d="M5.624.082,56.69-.448c2.966-.031,5.345,1.983,5.314,4.5l-.887,72.487c-.031,2.515-2.46,4.579-5.426,4.61l-51.067.53c-2.966.031-5.345-1.983-5.314-4.5L.2,4.692C.229,2.177,2.658.113,5.624.082Z" transform="translate(388.386 321.204) rotate(3.89)" opacity="0.1"/>
    <path id="Path_147" data-name="Path 147" d="M5.624.082,56.69-.448c2.966-.031,5.345,1.983,5.314,4.5l-.887,72.487c-.031,2.515-2.46,4.579-5.426,4.61l-51.067.53c-2.966.031-5.345-1.983-5.314-4.5L.2,4.692C.229,2.177,2.658.113,5.624.082Z" transform="translate(390.329 319.535) rotate(3.89)" fill="#3f3d56"/>
    <path id="Path_148" data-name="Path 148" d="M.231.132,54.077-.427,53.217,69.78l-53.845.559Z" transform="translate(393.835 325.879) rotate(3.89)" fill="#fff"/>
    <path id="Path_149" data-name="Path 149" d="M.035.112,43.956-.357,43.822,10.26-.1,10.729Z" transform="translate(399.043 344.262) rotate(4.004)" opacity="0.1"/>
    <path id="Path_150" data-name="Path 150" d="M.018.017,6.993-.055,6.925,5.459l-6.975.072Z" transform="translate(434.342 388.463) rotate(3.89)" opacity="0.1"/>
    <path id="Path_151" data-name="Path 151" d="M.018.088l35.67-.37-.068,5.545-35.67.37Z" transform="translate(398.84 373.461) rotate(3.89)" opacity="0.1"/>
    <path id="Path_152" data-name="Path 152" d="M.027.092,37.172-.294l-.1,8.506L-.077,8.6Z" transform="translate(403.978 324.29) rotate(3.89)" fill="#3f3d56"/>
    <path id="Path_153" data-name="Path 153" d="M.027.092,37.172-.294l-.1,8.506L-.077,8.6Z" transform="translate(403.978 324.29) rotate(3.89)" opacity="0.1"/>
    <path id="Path_78" data-name="Path 78" d="M485.083,572.56s-.326,41.4-12.973,65.164c0,0,15.246-31.324,15.246-32.578s8.425-14.4,6.169-18.318S485.083,572.56,485.083,572.56Z" transform="translate(-71.617 -151.461)" opacity="0.1"/>
    <path id="Path_79" data-name="Path 79" d="M483.409,312.735a13.93,13.93,0,0,1,2.935-10.421c-.585,6.348,4.314,12.106,11.51,13.53A1.534,1.534,0,0,1,497.3,314c1.807,1.763,3.19,3.854,5.235,5.4s5.112,2.478,7.517,1.376c3.27-1.52,3.3-5.526,2.459-8.642a39.061,39.061,0,0,0-10.831-17.84,15.175,15.175,0,0,0-11.369-4.986c-5.006-.334-10.205.046-14.691,1.984a39.663,39.663,0,0,0-7.05,4.249l-12.338,8.68a10.931,10.931,0,0,0-3,2.721,6.69,6.69,0,0,0-.934,2.85c-.643,5.8,2.572,11.412,8.3,14.5-.122-4.6,2.987-8.8,7.87-10.642a2.816,2.816,0,0,1,1.225,2.2l2.6-4a4.641,4.641,0,0,1,1.763-1.8c1.6-.76,3.6.137,4.971,1.209s2.7,2.41,4.53,2.577l.07-5.952" transform="translate(-69.255 -83.486)" opacity="0.1"/>
    <path id="Path_80" data-name="Path 80" d="M483.414,311.634a13.936,13.936,0,0,1,2.935-10.429c-.793,6.081,4.521,12.359,11.519,13.53a1.52,1.52,0,0,1-.555-1.832c1.807,1.763,3.19,3.846,5.235,5.4s5.112,2.478,7.518,1.368c3.27-1.52,3.3-5.526,2.459-8.635a39.06,39.06,0,0,0-10.831-17.84,17.238,17.238,0,0,0-6.054-4.059,20.1,20.1,0,0,0-5.288-.927c-5.006-.334-10.206.038-14.691,1.976a40.157,40.157,0,0,0-7.05,4.257l-12.338,8.68a10.814,10.814,0,0,0-3,2.721,6.655,6.655,0,0,0-.934,2.85c-.642,5.8,2.573,11.407,8.3,14.488-.117-4.594,2.991-8.8,7.87-10.642a2.837,2.837,0,0,1,1.225,2.2l2.591-3.983a4.593,4.593,0,0,1,1.763-1.8c1.6-.76,3.6.137,4.971,1.209s2.7,2.4,4.53,2.577l.071-5.959" transform="translate(-69.26 -83.222)" fill="#3f3d56"/>
    <path id="Path_81" data-name="Path 81" d="M491,491.045c-2.265-.988-39.72,4.051-39.72,4.051s-6.169-1.52-21.081-3.633-15.863-14.685-15.863-14.685l-1.63-25.167,5.032-3.8L439.3,459.972s.335,6.149,0,7.259a9.154,9.154,0,0,0-.723,2.28.814.814,0,0,0,.723.684c1.463.319,21.4,3.1,21.4,3.1s46.206-2.729,57.725,10.695a9.721,9.721,0,0,1,2.036,3.314C523.313,496.479,493.058,491.919,491,491.045Z" transform="translate(-64.566 -121.534)" fill="#fbbebe"/>
    <path id="Path_82" data-name="Path 82" d="M523.875,494.224c-1.763.676-2.855,1.163-2.855,1.163s-16.533-.418-25.822-3.322-20.578-2.387-20.578-2.387-38.706-5.746-32.7-13.249a.814.814,0,0,0,.723.684c1.463.319,21.4,3.1,21.4,3.1s46.206-2.729,57.725,10.695a9.782,9.782,0,0,1,2.115,3.314Z" transform="translate(-67.957 -128.4)" opacity="0.1"/>
    <path id="Path_83" data-name="Path 83" d="M539.954,441.58s2.274,13.842,2.432,14.966.978,14.678,0,16.221-2.432,4.051-2.432,4.051,1.622,2.934-4.865,4.059a73.407,73.407,0,0,0-14.1,4.469s-16.542-.418-25.778-3.352-20.587-2.379-20.587-2.379-49.132-7.274-28.052-16.152,35.992,3.147,35.992,3.147l23.5-1.254s8.76-4.621,11.192-4.2a10.28,10.28,0,0,0,5.023-.7l.167-14.685Z" transform="translate(-67.961 -120.04)" fill="#fbbebe"/>
    <path id="Path_84" data-name="Path 84" d="M415.445,396.813l-4.706-.213L396.48,444.487s15.4-3.36,22.032,0,18.807,4.051,18.807,4.051l-4.539-38.172Z" transform="translate(-62.639 -109.249)" opacity="0.1"/>
    <path id="Path_85" data-name="Path 85" d="M415.445,395.7l-4.706-.213L396.48,443.377s15.4-3.36,22.032,0,18.807,4.051,18.807,4.051l-4.539-38.172Z" transform="translate(-62.639 -108.983)" fill="#506150"/>
    <path id="Path_86" data-name="Path 86" d="M538.969,409.57l6.478,1.262s16.542,20.523,17.837,21.671-6.169,5.321-9.245,5.321-18.155,1.52-22.535,5.032-2.556-14.161-2.556-14.564,5.438-11.554,5.438-11.554Z" transform="translate(-78.319 -112.361)" opacity="0.1"/>
    <path id="Path_87" data-name="Path 87" d="M538.969,408.47l6.478,1.254s16.542,20.561,17.837,21.678-6.169,5.321-9.245,5.321-18.155,1.52-22.535,5.032-2.556-14.161-2.556-14.564,5.473-11.592,5.473-11.592Z" transform="translate(-78.319 -112.097)" fill="#506150"/>
    <g id="Group_18" data-name="Group 18" transform="translate(382.996 216.304)" opacity="0.1">
      <path id="Path_88" data-name="Path 88" d="M486.3,304.878a9.667,9.667,0,0,1,.044-1.748,14.45,14.45,0,0,0-2.714,5.739v2.121c0,1.231,0,2.47-.044,3.7h-.123v.57a2.621,2.621,0,0,0-.044-.585c-1.763-.243-3.023-1.52-4.336-2.539s-3.367-1.991-4.971-1.209a4.592,4.592,0,0,0-1.763,1.8l-2.617,3.983a2.81,2.81,0,0,0-1.225-2.189c-4.883,1.842-7.992,6.046-7.87,10.641a15.258,15.258,0,0,1-8.363-12.108c-.312,5.561,2.887,10.833,8.363,13.781-.117-4.594,2.991-8.8,7.87-10.641a2.838,2.838,0,0,1,1.225,2.2l2.591-3.983a4.592,4.592,0,0,1,1.763-1.8c1.6-.76,3.6.137,4.971,1.208s2.7,2.4,4.53,2.577q0-2.919.07-5.822A14.347,14.347,0,0,1,486.3,304.878Z" transform="translate(-452.256 -303.13)"/>
      <path id="Path_89" data-name="Path 89" d="M487.507,314.358c.044-.517.115-1.034.2-1.52l.1-2.1A13.323,13.323,0,0,0,487.507,314.358Z" transform="translate(-456.438 -304.956)"/>
      <path id="Path_90" data-name="Path 90" d="M516.117,325.293c-2.406,1.11-5.473.182-7.517-1.368s-3.428-3.641-5.235-5.4a1.534,1.534,0,0,0,.555,1.839,2.351,2.351,0,0,1-.511-.114c1.763,1.748,3.164,3.8,5.191,5.321s5.112,2.478,7.518,1.368,3.093-3.709,2.882-6.241A5.151,5.151,0,0,1,516.117,325.293Z" transform="translate(-458.309 -306.822)"/>
      <path id="Path_91" data-name="Path 91" d="M501.886,317.205c-6.035-1.419-10.414-5.922-10.981-11.3-.5,5.967,4.715,11.949,11.545,13.1A1.529,1.529,0,0,1,501.886,317.205Z" transform="translate(-456.84 -303.797)"/>
    </g>
    <path id="Path_92" data-name="Path 92" d="M958.313,431.42s-3.472-.418-3.472-4.773-2.485-12.511-2.485-12.511h0s-2.15-14.191-5.12-16.441-6.786-15.46-6.786-15.46-.652-7.168-1.983-8.711-3.129-5.321-5.781-10.71S919,353.729,919,353.729s-20-10-25.663-13.264h0a8.758,8.758,0,0,1-1.445-.942c-.987-1.11-5.288-1.133-5.288-1.133a65.218,65.218,0,0,1-1.022-7.814v-.821a27.484,27.484,0,0,0,13.4-14.305c.106-.289.194-.585.291-.882a2.771,2.771,0,0,0,1.763-1.338c.5-.981.52-2.121,1.154-3.04.741-1.079,2.15-1.657,3.261-2.463,2.8-2.06,3.525-5.518,3.393-8.658-.088-2.554-.564-5.123-.379-7.654a2.608,2.608,0,0,1,.053-.639c.053-.372.115-.76.194-1.125.432-1.885,1.375-3.664,1.9-5.534a6.257,6.257,0,0,0-.652-5.587c-1.807-2.364-5.57-2.835-8.875-3.04-3.745-.274-7.05.076-9.492-2.607a30.1,30.1,0,0,0-3.772-3.922c-.494-.4-5.288-2.926-5.288-3.086a24.584,24.584,0,0,0-14.982-1c-2.494.623-4.829,1.642-7.359,2.151-5.429,1.11-11.686-.091-16.3,2.592-2.573,1.52-4.116,3.945-5.561,6.294q-1.763,2.9-3.578,5.815c-1.956,3.185-3.931,6.423-4.75,9.95a14.671,14.671,0,0,0-.326,2.333h0v1.209a3.616,3.616,0,0,0,.053.76c.053.243,0,.312.062.471s.079.517.132.76.159.676.264,1a1.393,1.393,0,0,0,.159.426c.053.144.194.509.308.76a4.321,4.321,0,0,0,.194.4,6.75,6.75,0,0,0,.449.76c.07.1.123.2.194.3a8.724,8.724,0,0,0,.811,1.019c1.877,2.029,4.662,3.322,6.715,5.222v.851c.255,8.605,5.429,16.545,13.819,21.207,0,.289.044.585.062.882a37.453,37.453,0,0,1-.1,6.765,4,4,0,0,0-2.926-1.125,4.845,4.845,0,0,0-1.128.084l-.079-.053h0v.068c-1.939.41-4.327,2.151-6.61,7.1,0,0-6.945,6.75-12.233,6.469s-18.675,7.031-18.675,7.031-13.061,7.3-15.863,14.754a95.2,95.2,0,0,1-5.632,12.375L773.47,412.174h0l-2.97,22.8s1.648,10.117,1.322,11.668S778.6,462.1,778.6,462.1s23.469,35.558,33.057,37.382l.687-.41a6.636,6.636,0,0,0,1.3.41l1.974-1.193a15.372,15.372,0,0,1-.159,4.006c-1.313,3.519.5,26.429,2.811,30.921s1.489,63.4,1.489,63.4l-.326,5.191a1.92,1.92,0,0,0,.079.456l-.079,1.231.238.107a12.713,12.713,0,0,1-.238,4.956c-.829,2.28-1.163,8.718-1.163,8.718s-6.61,36.394-3.472,43.706,5.79,15.324,5.79,15.324,3.3,9.121.159,10.641-12.056,4.219-10.241,8.011c1.674,3.512,8.029,12.922,8.972,14.3l-.079.76-1.3,12.108a13.62,13.62,0,0,0,1.489,4.621c1.419,2.645,4.169,5.374,9.421,5.078.881-.053,1.895-.137,2.891-.251,9.6-1.117,21.406-4.811,21.406-4.811a8.29,8.29,0,0,1-1.666-1.193h0a3.909,3.909,0,0,1-1.472-3.04c.141-2.212-4.645-12.709-5.843-15.3l-.273-.578s10.91-9.843,9.1-18.554c0,0-12.074-6.081-8.1-9.425s11.078-12.922,11.078-12.922.326-35.839,0-41.182a38.385,38.385,0,0,1,.608-11.128c.132-.547.291-1.087.458-1.627a130.221,130.221,0,0,0,16.621,1.087q3.05,0,6.169-.106,0,.76.079,1.642c.458,8.878,1.313,24.453,2.01,30.237.987,8.285,6.442,30.64,6.442,30.64s-10.408,5.754,1.816,19.96c0,0,0,5.138-.811,5.891h0a57.127,57.127,0,0,0-2.089,7.426c-.511,2.668-.723,5.382.106,6.78,1.983,3.36,13.88,3.086,13.88,3.086h0a2.167,2.167,0,0,1,.291-.038,18.9,18.9,0,0,1,12.594,3.268c4.521,3.132,21.671,1.763,30.969.76,3.64-.4,6.072-.76,6.072-.76a2.673,2.673,0,0,0,.123-1.095h0c-.1-1.969-1.886-6.286-14.012-10.14,0,0-11.4-6.613-11.245-12.375h-1.569c.828-.023,1.41-.023,1.41-.023S921.58,684,923.4,682.855s-3.64-16.722-3.64-16.722-3.129-26.148-3.3-27.972a14.046,14.046,0,0,1,.828-4.637l-.828-14.343s-.159-4.766,0-6.316a25.722,25.722,0,0,0-.37-4.021c-.079-.532-.159-1.087-.247-1.634,4.274-.935,7.05-1.794,7.05-1.794l-.494-49.9c3.631-6.081,4.3-19.428,4.283-28.884,0-6.081-.317-10.581-.317-10.581l4.962-6.985s1.146-8.361-.67-10.193c-.8-.828-.441-1.687.22-2.394a9.389,9.389,0,0,1,1.1-.669,1.187,1.187,0,0,1-.115-.167,8.858,8.858,0,0,1,1.1-.676s-1.763-2.356-.185-3.352c1.481.867,2.8,1.558,3.807,2.052-.07.555-.141.874-.141.874l.423-.76c.969.471,1.56.76,1.56.76s7.773-13.355,7.606-15.316,5.288-10.261,5.288-10.261.661-4.363,3.64-6.187,2.309-15.042,2.309-15.042.828-6.887,2.811-9.691S958.313,431.42,958.313,431.42Zm-148.727-5.86.15,3.185c-.881-1.224-1.516-2.1-1.516-2.1Z" transform="translate(-107.037 -77.476)" fill="url(#linear-gradient-2)"/>
    <path id="Path_93" data-name="Path 93" d="M958.808,553.336l-1.9,6.993s-15.246-6.727-17.987-15.24,4.592-11.759,4.592-11.759l14.215,5.184Z" transform="translate(-126.956 -142.05)" fill="#fff"/>
    <path id="Path_94" data-name="Path 94" d="M958.808,553.336l-1.9,6.993s-15.246-6.727-17.987-15.24,4.592-11.759,4.592-11.759l14.215,5.184Z" transform="translate(-126.956 -142.05)" opacity="0.1"/>
    <path id="Path_95" data-name="Path 95" d="M859.833,864.033s-14.1,4.469-23.8,5.032a9.17,9.17,0,0,1-9.245-5.047,13.823,13.823,0,0,1-1.463-4.561l1.278-12.048.67-6.408,20.6-4.621,2.917,7.7.273.578c1.163,2.577,5.869,13.021,5.729,15.2a3.9,3.9,0,0,0,1.437,3.04A8.055,8.055,0,0,0,859.833,864.033Z" transform="translate(-113.546 -214.75)" fill="#fff"/>
    <path id="Path_96" data-name="Path 96" d="M965.2,857.642a2.642,2.642,0,0,1-.123,1.095s-30.158,4.333-36.327,0a18.178,18.178,0,0,0-12.655-3.215s-11.668.274-13.616-3.041c-.811-1.391-.6-4.089-.1-6.742a57.338,57.338,0,0,1,2.045-7.388l.467-.319,2.776-1.923,32.5-.829h.247c-.159,5.731,11.025,12.306,11.025,12.306C963.348,851.386,965.1,855.681,965.2,857.642Z" transform="translate(-122.639 -214.486)" fill="#fff"/>
    <path id="Path_97" data-name="Path 97" d="M965.207,860.941a2.725,2.725,0,0,1-.132,1.094s-30.158,4.333-36.318,0a18.178,18.178,0,0,0-12.664-3.215s-11.677.274-13.625-3.041c-.8-1.391-.6-4.089-.1-6.75,4.495.387,11.589,1.353,14.374,3.664,4.213,3.5,11.351,6.993,15.722,7.274C935.921,860.15,956.464,860.713,965.207,860.941Z" transform="translate(-122.638 -217.785)" opacity="0.1"/>
    <path id="Path_98" data-name="Path 98" d="M860.03,872.393s-14.1,4.469-23.8,5.032a9.17,9.17,0,0,1-9.245-5.047c3.6,1.041,8.575,2.128,11.192,1.132,3.1-1.193,14.1-1.953,20.27-2.28a7.823,7.823,0,0,0,1.577,1.163Z" transform="translate(-113.743 -223.111)" opacity="0.1"/>
    <path id="Path_99" data-name="Path 99" d="M885.062,384.474c-11.633-3.9-26.6-16.783-22.861-22.8a12.17,12.17,0,0,0,1.454-4.834,38.083,38.083,0,0,0,.106-6.841,81.652,81.652,0,0,0-1.56-11.135s36.318.707,34.2,5.321c-.617,1.361-.723,3.709-.546,6.332a76.347,76.347,0,0,0,1.066,8.126c.626,3.443,1.269,6.081,1.269,6.081s-2.23,2.683-3.525,2.828S901.754,390.061,885.062,384.474Z" transform="translate(-117.853 -95.398)" fill="#cf6f80"/>
    <path id="Path_100" data-name="Path 100" d="M851.2,844.608l-.273.258c-10.857-11.326-23.989,2.8-23.989,2.8l-.194-.3.67-6.408,20.6-4.622,2.917,7.7Z" transform="translate(-113.713 -214.738)" opacity="0.1"/>
    <path id="Path_101" data-name="Path 101" d="M940.773,836.068s-7.932-.137-12.162,3.086-24.676.692-23.795,0a2.4,2.4,0,0,0,.458-1.163l2.776-1.923,32.5-.828C940.676,835.772,940.773,836.068,940.773,836.068Z" transform="translate(-122.978 -214.477)" opacity="0.1"/>
    <path id="Path_102" data-name="Path 102" d="M863.5,714.582a19.175,19.175,0,0,0-1.34,3.9,38.585,38.585,0,0,0-.608,11.067c.326,5.321,0,40.977,0,40.977s-6.971,9.509-10.866,12.861,7.932,9.372,7.932,9.372c1.763,8.673-8.919,18.463-8.919,18.463-10.857-11.326-23.989,2.79-23.989,2.79s-7.138-10.642-8.919-14.442,6.971-6.423,10.047-7.973-.159-10.641-.159-10.641-2.591-7.974-5.676-15.248,3.4-43.478,3.4-43.478.335-6.438,1.137-8.68a12.722,12.722,0,0,0,.238-4.925c-.053-.555-.115-1.011-.159-1.33a4.551,4.551,0,0,0-.079-.456l.123-.182,4.406-7.084S865.612,710.12,863.5,714.582Z" transform="translate(-112.504 -181.93)" fill="#506150"/>
    <path id="Path_103" data-name="Path 103" d="M939.49,805.044s-7.932-.145-12.162,3.04-24.676.7-23.795,0,.8-5.868.8-5.868c-11.994-14.13-1.762-19.862-1.762-19.862s-5.349-22.233-6.319-30.48c-.678-5.754-1.516-21.283-1.965-30.077-.194-3.8-.308-6.423-.308-6.423l9.712-1.665,1.26-.213,23.636-4.1s.652,3.8,1.093,6.909a26.253,26.253,0,0,1,.361,4.006c-.15,1.52,0,6.286,0,6.286l.811,14.26a14.375,14.375,0,0,0-.811,4.614c.167,1.824,3.243,27.827,3.243,27.827s5.349,15.521,3.525,16.639S939.49,805.044,939.49,805.044Z" transform="translate(-121.695 -184.288)" fill="#506150"/>
    <path id="Path_104" data-name="Path 104" d="M896.483,344.211c-.617,1.361-.723,3.709-.546,6.332a34.306,34.306,0,0,1-32.1-.517,81.636,81.636,0,0,0-1.56-11.135S898.6,339.6,896.483,344.211Z" transform="translate(-117.932 -95.405)" opacity="0.1"/>
    <path id="Path_105" data-name="Path 105" d="M908.878,315.6c.2,14.361-13.137,26.143-29.788,26.315s-30.311-11.33-30.51-25.692c0-.213,0-.41,0-.623,0-14.365,13.5-26.011,30.158-26.011S908.9,301.235,908.9,315.6Z" transform="translate(-116.305 -83.578)" fill="#cf6f80"/>
    <path id="Path_106" data-name="Path 106" d="M885.062,390.147c-11.633-3.9-26.6-16.783-22.861-22.8a12.17,12.17,0,0,0,1.454-4.834l15.925,11.3,9.853,6.97,7.491-16.441c.626,3.443,1.269,6.081,1.269,6.081s-2.23,2.683-3.525,2.828S901.754,395.734,885.062,390.147Z" transform="translate(-117.853 -101.071)" opacity="0.1"/>
    <path id="Path_107" data-name="Path 107" d="M908.822,421.132l-13.3,192.687-17.344.981L833.26,503.071l7.367-132.646,1.56-28.025,19.97,14.146,9.853,6.97,7.711-16.928,14.339,10.778Z" transform="translate(-100.43 -82.139)" fill="#506150"/>
    <path id="Path_108" data-name="Path 108" d="M864.7,714.6a19.176,19.176,0,0,0-1.339,3.9,142.958,142.958,0,0,1-36.4-9.8l-.238-.107.079-1.224v-.638l4.406-7.084S866.82,710.139,864.7,714.6Z" transform="translate(-113.712 -181.949)" opacity="0.1"/>
    <path id="Path_109" data-name="Path 109" d="M903.975,722.23q-4.839.713-9.747.965c-.194-3.8-.309-6.423-.309-6.423l9.765-1.7Z" transform="translate(-121.688 -185.649)" opacity="0.1"/>
    <path id="Path_110" data-name="Path 110" d="M931.2,716.309c-6.266,1.406-15.951,2.987-24.606,2l-.123-4.811,23.636-4.1S930.732,713.17,931.2,716.309Z" transform="translate(-123.177 -184.288)" opacity="0.1"/>
    <path id="Path_111" data-name="Path 111" d="M891.035,635.583c-36.133,5.321-69.226-9.935-69.226-9.935l.317-5.169s.82-58.6-1.454-63.089-4.045-27.242-2.758-30.716-4.7-55.921-4.7-55.921l-.969-21.283L776.74,437.029,792.6,408.5a94.922,94.922,0,0,0,5.517-12.314c2.759-7.411,15.564-14.685,15.564-14.685s13.131-7.267,18.322-6.993S844,368.08,844,368.08c5.023-11.044,9.571-6.081,9.571-6.081a8.493,8.493,0,0,1-.247,1.634c-1.763,12.124,28.5,50.433,28.933,51.117h0l2.917,60.55,2.917,76.626Z" transform="translate(-107.778 -100.682)" opacity="0.1"/>
    <path id="Path_112" data-name="Path 112" d="M889.931,635.584C853.8,640.9,820.7,625.649,820.7,625.649l.326-5.169s.811-58.6-1.463-63.089-4.045-27.265-2.75-30.769-4.724-55.9-4.724-55.9l-.978-21.283L775.61,437l15.863-28.527a96.451,96.451,0,0,0,5.517-12.306c2.759-7.388,15.608-14.67,15.608-14.67s13.131-7.267,18.313-6.993,12.021-6.423,12.021-6.423c5.032-11.044,10.576-6.081,10.576-6.081,0,.532-.529.76-.247,1.634,3.878,11.759,27.532,50.433,27.964,51.117h0l2.917,60.55L887,551.964Z" transform="translate(-107.644 -100.682)" fill="#fff"/>
    <path id="Path_113" data-name="Path 113" d="M889.8,417.008c-3.886-1.4-24.474-21.671-24.474-21.671v-4.614c-.749-1.52-5.208-.593-8.813.471l1.551-28.025,1.763,1.262C863.675,376.183,889.373,416.332,889.8,417.008Z" transform="translate(-117.247 -101.23)" opacity="0.1"/>
    <path id="Path_114" data-name="Path 114" d="M890.905,414.815c-3.9-1.406-24.482-21.671-24.482-21.671v-4.621c-.749-1.52-5.2-.593-8.813.471L859.134,361l1.763,1.254C864.784,373.99,890.473,414.131,890.905,414.815Z" transform="translate(-117.377 -100.709)" fill="#fff"/>
    <path id="Path_115" data-name="Path 115" d="M827.613,564.095c.485,0,25.126-2.235,25.126-2.235s14.921,25.311,13.942,31.461-2.75,11.607-8.751,10.641-32.3.76-32.3.76Z" transform="translate(-113.581 -148.894)" opacity="0.1"/>
    <path id="Path_116" data-name="Path 116" d="M826.5,561.885c.494,0,25.135-2.235,25.135-2.235s14.912,25.35,13.942,31.43-2.758,11.607-8.751,10.641-32.308.76-32.308.76Z" transform="translate(-113.45 -148.364)" fill="#fff"/>
    <path id="Path_117" data-name="Path 117" d="M846.025,547s22.614,10.489,23.1,13.682-11.51-1.4-14.1-1.961a38.613,38.613,0,0,0-5.191-.7l-17.282.4Z" transform="translate(-114.403 -145.329)" fill="#cf6f80"/>
    <ellipse id="Ellipse_7" data-name="Ellipse 7" cx="2.379" cy="2.052" rx="2.379" ry="2.052" transform="translate(763.851 312.982)" opacity="0.1"/>
    <ellipse id="Ellipse_8" data-name="Ellipse 8" cx="2.379" cy="2.052" rx="2.379" ry="2.052" transform="translate(763.851 312.145)" fill="#3f3d56"/>
    <ellipse id="Ellipse_9" data-name="Ellipse 9" cx="2.379" cy="2.052" rx="2.379" ry="2.052" transform="translate(768.231 401.823)" opacity="0.1"/>
    <ellipse id="Ellipse_10" data-name="Ellipse 10" cx="2.379" cy="2.052" rx="2.379" ry="2.052" transform="translate(768.231 400.979)" fill="#3f3d56"/>
    <ellipse id="Ellipse_11" data-name="Ellipse 11" cx="2.379" cy="2.052" rx="2.379" ry="2.052" transform="translate(766.231 357.402)" opacity="0.1"/>
    <ellipse id="Ellipse_12" data-name="Ellipse 12" cx="2.379" cy="2.052" rx="2.379" ry="2.052" transform="translate(766.231 356.566)" fill="#3f3d56"/>
    <path id="Path_118" data-name="Path 118" d="M946.067,513.885s1.621,2.1,0,3.04.158,3.36.158,3.36-4.045,2.037-2.265,3.884.652,10.14.652,10.14l-4.865,6.985s.291,4.477.309,10.527c0,9.44-.644,22.712-4.2,28.762l.476,49.643s-17.035,5.374-31.295,3.732L902.919,554.3s3.084-45.173,4.221-53.838a77.931,77.931,0,0,0,.811-13.568s-.485-13.56-2.115-19.846c0,0-1.763-27.273-1.939-34.82-.079-3.61.141-14.146.388-24.164.273-10.953.582-21.283.582-21.283l-3.217-21.959s3.217-.274,4.186.836a9.258,9.258,0,0,0,1.41.935h0c5.561,3.238,25.179,13.2,25.179,13.2s10.858,3.724,13.457,9.06,4.407,9.121,5.667,10.641,1.948,8.665,1.948,8.665,3.737,13.15,6.654,15.377,5.014,16.365,5.014,16.365l-25.778,17.482s-2.265,29.082-2.75,30.207S946.067,513.885,946.067,513.885Z" transform="translate(-122.605 -101.618)" fill="#fff"/>
    <path id="Path_119" data-name="Path 119" d="M947.042,513.8s1.613,2.1,0,3.04.15,3.36.15,3.36-4.045,2.037-2.265,3.884.652,10.14.652,10.14l-4.847,6.985s.291,4.477.317,10.527c0,9.44-.643,22.712-4.2,28.762l.485,49.643s-17.035,5.374-31.295,3.732l-2.106-79.659s3.076-45.173,4.221-53.838a77.238,77.238,0,0,0,.8-13.568s-.485-13.56-2.107-19.846c0,0-1.762-27.273-1.948-34.82-.079-3.61.141-14.146.388-24.164.273-10.953.582-21.283.582-21.283L901.62,364.44s4.248,0,5.226,1.133a8.343,8.343,0,0,0,1.41.935h0c5.552,3.238,25.17,13.2,25.17,13.2s10.831,3.725,13.475,9.06,4.406,9.121,5.667,10.641,1.948,8.665,1.948,8.665,3.737,13.15,6.654,15.377,5.023,16.365,5.023,16.365l-25.778,17.482s-2.265,29.082-2.758,30.207S947.042,513.8,947.042,513.8Z" transform="translate(-122.602 -101.534)" fill="#fff"/>
    <path id="Path_120" data-name="Path 120" d="M916.3,393.677l2.336,5.853-12.259,10.641c.273-10.953.582-21.283.582-21.283L902.71,366.64s4.248,0,5.226,1.133a8.361,8.361,0,0,0,1.41.935h0l10.417,25.912Z" transform="translate(-122.731 -102.062)" opacity="0.1"/>
    <path id="Path_121" data-name="Path 121" d="M915.17,391.462l2.335,5.845-12.25,10.641c.265-10.953.582-21.283.582-21.283L901.58,364.41s4.256,0,5.226,1.133a8.791,8.791,0,0,0,1.41.935h0l10.479,25.935Z" transform="translate(-122.597 -101.527)" fill="#fff"/>
    <path id="Path_122" data-name="Path 122" d="M908.878,315.6a22.683,22.683,0,0,1-1.481,8.065,1.407,1.407,0,0,1-.952-.2c-.238-6.841-4.133-13.271-8.936-18.736a21.544,21.544,0,0,0-4.847-4.333,10.611,10.611,0,0,0-6.574-1.6c-2.644.312-4.979,1.862-7.65,2.06-3.525.251-6.68-1.855-10.179-1.953a10.7,10.7,0,0,0-7.482,2.995,17.013,17.013,0,0,0-4.01,6.408,32.926,32.926,0,0,0-2.238,11.067c-.044,2.128-.282,4.8-2.573,5.572a10.378,10.378,0,0,0-3.323-8.665l-.053-.053V315.6c0-14.365,13.5-26.011,30.158-26.011S908.9,301.235,908.9,315.6Z" transform="translate(-116.305 -83.578)" opacity="0.1"/>
    <path id="Path_123" data-name="Path 123" d="M890.016,268.942a23.82,23.82,0,0,0-14.647-.988c-2.441.623-4.742,1.634-7.218,2.143-5.288,1.1-11.457-.091-16,2.577-2.521,1.52-4.036,3.922-5.447,6.263l-3.525,5.784c-1.921,3.17-3.86,6.393-4.662,9.881a11.252,11.252,0,0,0,2.247,10.208c1.86,2.037,4.627,3.322,6.654,5.245a10.442,10.442,0,0,1,3.314,8.688c2.291-.76,2.52-3.443,2.573-5.572a32.965,32.965,0,0,1,2.239-11.067,17.01,17.01,0,0,1,4.01-6.408,10.7,10.7,0,0,1,7.482-3c3.525.106,6.689,2.212,10.179,1.953,2.644-.19,4.988-1.741,7.65-2.052a10.559,10.559,0,0,1,6.574,1.6,21.127,21.127,0,0,1,4.838,4.333c4.812,5.473,8.716,11.873,8.945,18.737,1,.623,2.432-.2,2.926-1.171s.511-2.113,1.137-3.04c.723-1.072,2.106-1.649,3.19-2.455,2.75-2.045,3.437-5.488,3.331-8.612s-.811-6.294-.123-9.364c.414-1.878,1.348-3.649,1.859-5.511a6.328,6.328,0,0,0-.634-5.556c-1.763-2.349-5.473-2.82-8.707-3.04-3.675-.274-6.962.076-9.307-2.592a31.1,31.1,0,0,0-3.7-3.907C894.714,271.618,890.016,269.11,890.016,268.942Z" transform="translate(-115.07 -78.216)" fill="#512e4e"/>
    <path id="Path_124" data-name="Path 124" d="M786.648,475.728l-9.2-14.678L774.53,483.7s1.622,10.064,1.3,11.607,6.645,15.377,6.645,15.377,23.028,35.383,32.432,37.2l31.727-19.58-8.425-9.228s-2.917-.981-3.649,0c0,0-15.652-23.214-17.265-24.886s-1.3-5.039-1.3-5.039-2.432-2.235-1.622-4.333-4.653-9.364-4.653-9.364l5.023-4.051Z" transform="translate(-107.515 -124.71)" opacity="0.1"/>
    <path id="Path_125" data-name="Path 125" d="M777.669,458.84l-2.432,1.68-2.917,22.651s1.621,10.064,1.3,11.607,6.654,15.377,6.654,15.377,23.02,35.383,32.423,37.2l31.78-19.58-8.434-9.228s-2.917-.981-3.648,0c0,0-15.643-23.214-17.265-24.886s-1.3-5.04-1.3-5.04-2.432-2.235-1.622-4.333-4.706-9.365-4.706-9.365l5.023-4.051Z" transform="translate(-107.253 -124.18)" fill="#fff"/>
    <path id="Path_126" data-name="Path 126" d="M947.182,571.35c1.763,1.847.652,10.147.652,10.147l-4.865,6.94s.291,4.484.309,10.535l-8.179,2.2a5.5,5.5,0,0,1-4.391-.665,4.01,4.01,0,0,1-1.919-3.47l1.419-39.221,19.08,6.286c-1.622.973.159,3.36.159,3.36S945.4,569.5,947.182,571.35Z" transform="translate(-125.827 -147.925)" opacity="0.1"/>
    <path id="Path_127" data-name="Path 127" d="M948.285,570.247c1.763,1.84.652,10.14.652,10.14l-4.847,6.947s.291,4.477.317,10.527l-8.328,2.242a5.37,5.37,0,0,1-4.292-.645,3.915,3.915,0,0,1-1.877-3.391l1.419-39.358,19.071,6.3c-1.63.973.15,3.36.15,3.36S946.5,568.4,948.285,570.247Z" transform="translate(-125.959 -147.659)" fill="#fff"/>
    <path id="Path_128" data-name="Path 128" d="M955.883,547.968s-1.3,7.137-4.539,7.555-4.7,11.546-7.932,11.158-1.093-10.353-.978-12.283-3.525-9.927-.811-11.744,11.351,0,11.351,0Z" transform="translate(-127.231 -144.093)" fill="#cf6f80"/>
    <path id="Path_129" data-name="Path 129" d="M962.283,474.241,968.39,463.6s2.441,8.11,2.441,12.443,3.4,4.758,3.4,4.758,3.728,3.8,1.763,6.575-2.75,9.646-2.75,9.646.643,13.142-2.274,14.959-3.569,6.157-3.569,6.157-5.349,8.247-5.182,10.208-7.456,15.24-7.456,15.24,3.728-16.5-18-23.632c0,0-.167-5.594,1.454-7.13s4.151-2.28,2.565-10-.458-17.034-.458-18.9,4.865-13.469,4.865-13.469Z" transform="translate(-126.773 -125.322)" opacity="0.1"/>
    <path id="Path_130" data-name="Path 130" d="M965.264,461.6l5.341,1.52s2.441,8.11,2.441,12.443,3.4,4.758,3.4,4.758,3.728,3.8,1.762,6.575-2.759,9.646-2.759,9.646.652,13.142-2.265,14.959-3.525,6.157-3.525,6.157-5.349,8.247-5.182,10.208-7.465,15.24-7.465,15.24,3.728-16.5-18-23.632c0,0-.159-5.594,1.463-7.13s4.151-2.28,2.565-10-.458-17.034-.458-18.9,4.865-13.469,4.865-13.469Z" transform="translate(-127.041 -124.842)" fill="#fff"/>
    <path id="Path_131" data-name="Path 131" d="M834.92,823.686s8.513-4.614,14.1-1.262S834.92,823.686,834.92,823.686Z" transform="translate(-114.684 -211.11)" opacity="0.1"/>
    <path id="Path_132" data-name="Path 132" d="M910,805.687a18.919,18.919,0,0,1,13.863,5.04C930.19,816.6,910,805.687,910,805.687Z" transform="translate(-123.596 -207.377)" opacity="0.1"/>
    <g id="Group_19" data-name="Group 19" transform="translate(723.087 205.761)" opacity="0.1">
      <path id="Path_133" data-name="Path 133" d="M914.176,316.4c-1.084.813-2.476,1.383-3.2,2.455-.617.92-.635,2.06-1.128,3.04s-1.93,1.794-2.935,1.171c-.229-6.841-4.133-13.264-8.936-18.737A21.107,21.107,0,0,0,893.139,300a10.588,10.588,0,0,0-6.583-1.611c-2.644.312-4.97,1.862-7.641,2.06-3.525.251-6.689-1.855-10.188-1.953a10.655,10.655,0,0,0-7.473,2.995,17.011,17.011,0,0,0-4.01,6.408,32.968,32.968,0,0,0-2.238,11.067c-.053,2.121-.282,4.766-2.556,5.556a9.1,9.1,0,0,1,0,1.7c2.3-.76,2.529-3.443,2.582-5.572a32.971,32.971,0,0,1,2.239-11.067,17.007,17.007,0,0,1,4.01-6.408,10.69,10.69,0,0,1,7.474-3c3.525.106,6.7,2.212,10.188,1.953,2.644-.19,4.988-1.741,7.641-2.052a10.592,10.592,0,0,1,6.583,1.6A21.142,21.142,0,0,1,898,306.005c4.8,5.473,8.707,11.873,8.936,18.737,1,.623,2.441-.2,2.935-1.171s.511-2.113,1.128-3.04c.723-1.072,2.115-1.649,3.2-2.455,2.75-2.045,3.437-5.488,3.331-8.612v-.289C917.357,311.9,916.52,314.655,914.176,316.4Z" transform="translate(-839.852 -291.441)"/>
      <path id="Path_134" data-name="Path 134" d="M847.413,317.77c-2.018-1.923-4.786-3.215-6.645-5.252A10.124,10.124,0,0,1,838.2,306.3a10.574,10.574,0,0,0,2.565,7.9c1.859,2.037,4.627,3.322,6.645,5.245a10.674,10.674,0,0,1,3.331,6.78A10.466,10.466,0,0,0,847.413,317.77Z" transform="translate(-838.155 -293.348)"/>
      <path id="Path_135" data-name="Path 135" d="M927.948,290.727c-.52,1.862-1.445,3.633-1.868,5.511a15.214,15.214,0,0,0-.273,3.846,12.8,12.8,0,0,1,.273-2.166c.423-1.877,1.348-3.649,1.868-5.511a8.278,8.278,0,0,0,.291-3.147,9.253,9.253,0,0,1-.291,1.467Z" transform="translate(-848.557 -289.26)"/>
    </g>
    <ellipse id="Ellipse_13" data-name="Ellipse 13" cx="85.873" cy="11.896" rx="85.873" ry="11.896" transform="translate(29.583 613.846)" fill="#506150" opacity="0.1"/>
    <g id="plant" transform="translate(4.184 448.084)">
      <rect id="Rectangle_43" data-name="Rectangle 43" width="3.873" height="85.136" transform="translate(79.751 9.348)" fill="#535461"/>
      <path id="Path_136" data-name="Path 136" d="M158.694,678.927l-.247,3.836-.34,5.428-.142,2.255-.346,5.428-.148,2.255-.34,5.428-3.91,61.556a10.569,10.569,0,0,1-10.655,9.782h-20.3a10.561,10.561,0,0,1-10.655-9.824l-3.91-61.556-.34-5.428-.142-2.255-.352-5.428-.142-2.256-.34-5.428-.247-3.836a5.353,5.353,0,0,1,1.5-4.025,5.623,5.623,0,0,1,4.022-1.71h41.522a5.622,5.622,0,0,1,4.035,1.727,5.351,5.351,0,0,1,1.481,4.051Z" transform="translate(-50.727 -584.697)" fill="#3f3d56"/>
      <path id="Path_137" data-name="Path 137" d="M142.652,670.52l-.346,5.416H90.926l-.346-5.416Z" transform="translate(-34.932 -572.46)" fill="#9d9cb5"/>
      <path id="Path_138" data-name="Path 138" d="M142.466,683.24l-.34,5.416H91.716l-.346-5.416Z" transform="translate(-35.234 -577.509)" fill="#9d9cb5"/>
      <path id="Path_139" data-name="Path 139" d="M142.28,695.97l-.34,5.41H92.506l-.346-5.41Z" transform="translate(-35.536 -582.562)" fill="#9d9cb5"/>
      <path id="Path_140" data-name="Path 140" d="M66.2,583.826c22.558,15.933,31.953,40.852,31.953,40.852s-27.179-.911-49.743-16.844S16.44,567,16.44,567,43.619,567.892,66.2,583.826Z" transform="translate(-16.44 -542.563)" fill="#506150"/>
      <path id="Path_141" data-name="Path 141" d="M16.44,567s28.21,15.288,37.26,27.946S98.13,624.69,98.13,624.69" transform="translate(-16.44 -542.563)" fill="none" stroke="#535461" stroke-miterlimit="10" stroke-width="2"/>
      <path id="Path_142" data-name="Path 142" d="M103.774,535.647c12.28,8.666,17.394,22.229,17.394,22.229s-14.825-.495-27.074-9.161S76.7,526.48,76.7,526.48,91.5,526.974,103.774,535.647Z" transform="translate(-39.478 -526.48)" fill="#506150"/>
      <path id="Path_143" data-name="Path 143" d="M76.7,526.48s15.356,8.322,20.285,15.209,24.183,16.187,24.183,16.187" transform="translate(-39.478 -526.48)" fill="none" stroke="#535461" stroke-miterlimit="10" stroke-width="2"/>
      <path id="Path_144" data-name="Path 144" d="M167,564.3c-14.1,15.131-17.086,34.906-17.086,34.906s19.884-4.764,33.973-19.9S200.969,544.4,200.969,544.4,181.1,549.17,167,564.3Z" transform="translate(-67.466 -533.593)" fill="#506150"/>
      <path id="Path_145" data-name="Path 145" d="M200.981,544.41s-18.37,15.511-23.04,26.2-28.031,28.6-28.031,28.6" transform="translate(-67.466 -533.597)" fill="none" stroke="#535461" stroke-miterlimit="10" stroke-width="2"/>
    </g>
  </g>
</svg>
