<svg xmlns="http://www.w3.org/2000/svg" xmlns:xlink="http://www.w3.org/1999/xlink" width="1045.353" height="651.924" viewBox="0 0 1045.353 651.924">
  <defs>
    <style>
      .cls-1 {
        fill: #ffdaaa;
      }

      .cls-2 {
        fill: #fb3732;
      }

      .cls-15, .cls-3 {
        fill: #ff423d;
      }

      .cls-4 {
        fill: #ff5e5b;
      }

      .cls-31, .cls-5 {
        fill: none;
        stroke-miterlimit: 10;
      }

      .cls-5 {
        stroke: #535461;
        stroke-width: 2px;
      }

      .cls-13, .cls-6 {
        fill: #6c63ff;
      }

      .cls-7 {
        fill: #9fbc95;
      }

      .cls-8 {
        fill: #58784c;
      }

      .cls-9 {
        fill: #9ebb93;
      }

      .cls-10 {
        opacity: 0.25;
      }

      .cls-11 {
        fill: #036307;
      }

      .cls-12 {
        fill: #435c40;
      }

      .cls-13, .cls-17, .cls-20, .cls-28 {
        opacity: 0.1;
      }

      .cls-14 {
        fill: #fff;
      }

      .cls-15 {
        opacity: 0.93;
      }

      .cls-16 {
        fill: #bae5a7;
      }

      .cls-18 {
        fill: #ffd037;
      }

      .cls-19 {
        fill: #769c67;
      }

      .cls-20 {
        fill: #154305;
      }

      .cls-21 {
        fill: #444053;
      }

      .cls-22 {
        fill: #9d9cb5;
      }

      .cls-23 {
        fill: url(#linear-gradient);
      }

      .cls-24 {
        opacity: 0.02;
      }

      .cls-25 {
        fill: #efb7b9;
      }

      .cls-26 {
        fill: #ff6484;
      }

      .cls-27 {
        fill: #925978;
      }

      .cls-29 {
        fill: url(#linear-gradient-2);
      }

      .cls-30 {
        fill: #fbbebe;
      }

      .cls-31 {
        stroke: #6c63ff;
      }

      .cls-32 {
        fill: #65617d;
      }

      .cls-33 {
        fill: #ffb655;
      }

      .cls-34 {
        fill: #ffc477;
      }

      .cls-35 {
        fill: #ffbcab;
      }
    </style>
    <linearGradient id="linear-gradient" x1="0.5" y1="1" x2="0.5" gradientUnits="objectBoundingBox">
      <stop offset="0" stop-color="gray" stop-opacity="0.251"/>
      <stop offset="0.54" stop-color="gray" stop-opacity="0.122"/>
      <stop offset="1" stop-color="gray" stop-opacity="0.102"/>
    </linearGradient>
    <linearGradient id="linear-gradient-2" x1="0.5" y1="1" x2="0.5" y2="0" xlink:href="#linear-gradient"/>
  </defs>
  <g id="Group_159" data-name="Group 159" transform="translate(-4476.599 -602.136)">
    <path id="Path_830" data-name="Path 830" class="cls-1" d="M8523.484,21952.828v469.311l383.736-6.758v-328.445Z" transform="translate(-3668 -21235.078)"/>
    <g id="services_background_img" transform="translate(3830.849 372.416)">
      <g id="virus-svgrepo-com" transform="translate(1158.562 483.984)">
        <g id="Group_66" data-name="Group 66" transform="translate(34.451 141.894)">
          <path id="Path_172" data-name="Path 172" class="cls-2" d="M20.491,24.468,9.2,3.106C8.177,1.166,6.97.373,5.8.4A4.247,4.247,0,0,0,2.6,2.63a11.082,11.082,0,0,0-1.649,5.2,11.2,11.2,0,0,0,1.258,6.1L13.766,35.357c1.009,1.871,2.186,2.582,3.319,2.481a4.389,4.389,0,0,0,3.047-2.369,11.476,11.476,0,0,0,1.542-5.122A11.024,11.024,0,0,0,20.491,24.468Z" transform="translate(60.207 5.006)"/>
          <path id="Path_173" data-name="Path 173" class="cls-2" d="M10.429,39.359,11.458,8.745a10.938,10.938,0,0,0-1.348-6.2A4.375,4.375,0,0,0,6.734.3,4.183,4.183,0,0,0,3.179,2.159,10.7,10.7,0,0,0,1.366,8.288L.286,39.408a10.59,10.59,0,0,0,1.391,6.241,4.071,4.071,0,0,0,3.439,2.023,4.538,4.538,0,0,0,3.541-2.123A11.28,11.28,0,0,0,10.429,39.359Z" transform="translate(37.584 18.575)"/>
          <path id="Path_174" data-name="Path 174" class="cls-2" d="M17.944,4.024l-15.585,22A11.236,11.236,0,0,0,.343,32.578,11.776,11.776,0,0,0,1.91,38.509,5.349,5.349,0,0,0,5.594,41.35c1.413.168,2.936-.565,4.331-2.588L25.16,16.686a10.885,10.885,0,0,0,1.858-6.254A12.027,12.027,0,0,0,25.563,4.68,5.465,5.465,0,0,0,22.1,1.736C20.759,1.488,19.3,2.115,17.944,4.024Z" transform="translate(0 0)"/>
        </g>
        <g id="Group_67" data-name="Group 67" transform="translate(17.915 100.903)">
          <path id="Path_175" data-name="Path 175" class="cls-3" d="M20.369,6.728h0a13.46,13.46,0,0,0-3.514-4.451A7.365,7.365,0,0,0,12.7.621,7.214,7.214,0,0,0,8.4,1.842,13.124,13.124,0,0,0,4.466,6.031a24.192,24.192,0,0,0-2.753,6.533,34.063,34.063,0,0,0-.472,15.167,23.789,23.789,0,0,0,2.35,6.664,12.783,12.783,0,0,0,3.681,4.368,7.1,7.1,0,0,0,4.243,1.4,7.518,7.518,0,0,0,4.267-1.5,13.929,13.929,0,0,0,3.784-4.339,24.907,24.907,0,0,0,2.585-6.449,33.592,33.592,0,0,0,1-7.3,33.314,33.314,0,0,0-.583-7.325A24.312,24.312,0,0,0,20.369,6.728Z" transform="translate(86.466 64.299)"/>
          <path id="Path_176" data-name="Path 176" class="cls-3" d="M26.539,20.966A32.677,32.677,0,0,0,25.83,12.9a23.866,23.866,0,0,0-2.448-6.6A14.008,14.008,0,0,0,19.54,1.806a8.381,8.381,0,0,0-4.9-1.692A8.973,8.973,0,0,0,9.552,1.749,15.866,15.866,0,0,0,5.213,6.33a26.4,26.4,0,0,0-3.1,6.868A34.023,34.023,0,0,0,.763,21.635a32.592,32.592,0,0,0,.757,8.4,23.314,23.314,0,0,0,2.622,6.755,13.338,13.338,0,0,0,4.041,4.4,8.163,8.163,0,0,0,5.01,1.386A9.393,9.393,0,0,0,18.236,40.6,16.777,16.777,0,0,0,22.4,35.869,27.124,27.124,0,0,0,25.3,29.1,34.167,34.167,0,0,0,26.539,20.966Z" transform="translate(45.153 90.705)"/>
          <path id="Path_177" data-name="Path 177" class="cls-3" d="M26.823,7.843a15.932,15.932,0,0,0-4.552-5.1A10.436,10.436,0,0,0,16.858.813a10.444,10.444,0,0,0-5.634,1.359A16.083,16.083,0,0,0,6.053,6.933,25.946,25.946,0,0,0,2.4,14.4,33.788,33.788,0,0,0,.929,23.056a33.344,33.344,0,0,0,.772,8.72A24.95,24.95,0,0,0,4.75,39.412a15.242,15.242,0,0,0,4.8,5A10.165,10.165,0,0,0,15.1,46a10.8,10.8,0,0,0,5.58-1.727,16.93,16.93,0,0,0,4.954-4.958h0a26.646,26.646,0,0,0,3.4-7.356,33.942,33.942,0,0,0,1.345-8.326,33.415,33.415,0,0,0-.719-8.351A25.473,25.473,0,0,0,26.823,7.843Z" transform="translate(0 59.677)"/>
          <path id="Path_178" data-name="Path 178" class="cls-3" d="M33.059,13.218a13.277,13.277,0,0,0-.305-3.39,10.927,10.927,0,0,0-1.071-2.883A7.168,7.168,0,0,0,30.006,4.86a4.31,4.31,0,0,0-2.125-.982L6.646.853a4.535,4.535,0,0,0-4.54,2.17A11.643,11.643,0,0,0,.363,9,13.138,13.138,0,0,0,1.6,15.364,5.618,5.618,0,0,0,5.93,18.688l21.3,2.464a3.692,3.692,0,0,0,2.182-.428,5.489,5.489,0,0,0,1.819-1.638A8.984,8.984,0,0,0,32.506,16.5,12.4,12.4,0,0,0,33.059,13.218Z" transform="translate(1.964 0)"/>
        </g>
        <path id="Path_179" data-name="Path 179" class="cls-2" d="M.363.011,33.111,4.238a12.394,12.394,0,0,1-.553,3.281,8.985,8.985,0,0,1-1.276,2.586,5.49,5.49,0,0,1-1.819,1.638,3.693,3.693,0,0,1-2.182.428L5.981,9.709a4.613,4.613,0,0,1-2.289-.973A7.367,7.367,0,0,1,1.867,6.588,11.021,11.021,0,0,1,.694,3.572,13.291,13.291,0,0,1,.363.011Z" transform="translate(19.828 109.882)"/>
        <path id="Path_180" data-name="Path 180" class="cls-3" d="M21.327,2.977,5.013.652A3.4,3.4,0,0,0,1.552,2.621,11.409,11.409,0,0,0,.244,7.87a12.851,12.851,0,0,0,.969,5.55A4.346,4.346,0,0,0,4.53,16.271l16.355,1.892a3.263,3.263,0,0,0,3.237-2,11.45,11.45,0,0,0,1.2-5.059,12.838,12.838,0,0,0-.9-5.323A4.208,4.208,0,0,0,21.327,2.977Z" transform="translate(105.107 113.016)"/>
        <path id="Path_181" data-name="Path 181" class="cls-2" d="M.244.009,25.4,3.256a12.354,12.354,0,0,1-.416,2.893A8.5,8.5,0,0,1,24,8.44a4.563,4.563,0,0,1-1.4,1.463,2.575,2.575,0,0,1-1.681.4L4.569,8.415a3.263,3.263,0,0,1-1.752-.821,6.179,6.179,0,0,1-1.4-1.855,10.382,10.382,0,0,1-.906-2.62A13.212,13.212,0,0,1,.244.009Z" transform="translate(105.069 120.872)"/>
        <g id="Group_68" data-name="Group 68" transform="translate(38.376 27.542)">
          <path id="Path_182" data-name="Path 182" class="cls-3" d="M24.366,30.07,11.056,4.884C9.845,2.592,8.415,1.506,7.024,1.313a4.242,4.242,0,0,0-3.808,1.8,9.7,9.7,0,0,0-1.979,5.31A12.3,12.3,0,0,0,2.712,15.26L16.364,40.576c1.19,2.207,2.583,3.191,3.926,3.292a4.281,4.281,0,0,0,3.616-1.995,10.11,10.11,0,0,0,1.841-5.241A12.062,12.062,0,0,0,24.366,30.07Z" transform="translate(0 14.586)"/>
          <path id="Path_183" data-name="Path 183" class="cls-3" d="M10.2,40.378l1-29.742A12.248,12.248,0,0,0,9.879,4.285a5.73,5.73,0,0,0-3.3-2.912A3.341,3.341,0,0,0,3.1,2.439C2.115,3.524,1.42,5.367,1.326,8.052L.278,38.271a11.9,11.9,0,0,0,1.362,6.4A5.271,5.271,0,0,0,5,47.382a3.525,3.525,0,0,0,3.464-1.325A9.23,9.23,0,0,0,10.2,40.378Z" transform="translate(38.319)"/>
          <path id="Path_184" data-name="Path 184" class="cls-3" d="M14.533,5.577,1.876,23.44A9.607,9.607,0,0,0,.254,29.069a12.61,12.61,0,0,0,1.292,5.505,5.5,5.5,0,0,0,3.009,3c1.152.326,2.391-.144,3.524-1.786l12.4-17.966a9.386,9.386,0,0,0,1.5-5.39,12.982,12.982,0,0,0-1.194-5.369A5.658,5.658,0,0,0,17.951,3.99C16.848,3.607,15.648,4,14.533,5.577Z" transform="translate(59.233 28.473)"/>
        </g>
        <g id="Group_69" data-name="Group 69" transform="translate(0 84.02)">
          <path id="Path_185" data-name="Path 185" class="cls-4" d="M31.89,27.382a33.664,33.664,0,0,0-.818-8.873,28.506,28.506,0,0,0-2.9-7.606,19.645,19.645,0,0,0-4.578-5.585,12.453,12.453,0,0,0-5.856-2.746,10.553,10.553,0,0,0-6.109.827A14.527,14.527,0,0,0,6.4,7.571a22.856,22.856,0,0,0-3.746,6.895A31.227,31.227,0,0,0,1,23.394a33.617,33.617,0,0,0,.88,9.275,28.034,28.034,0,0,0,3.129,7.824A18.855,18.855,0,0,0,9.845,46a11.972,11.972,0,0,0,6,2.407A10.7,10.7,0,0,0,21.9,47.181a15.224,15.224,0,0,0,5-4.389,23.572,23.572,0,0,0,3.485-6.821A31.464,31.464,0,0,0,31.89,27.382Z" transform="translate(0)"/>
          <path id="Path_186" data-name="Path 186" class="cls-4" d="M21.777,22.089a33.39,33.39,0,0,0-.607-7.37A26.287,26.287,0,0,0,19.131,8.45a15.49,15.49,0,0,0-3.182-4.542A7.744,7.744,0,0,0,11.91,1.762a6.2,6.2,0,0,0-4.184.827A10.95,10.95,0,0,0,4.174,6.16a20.992,20.992,0,0,0-2.521,5.781,31.065,31.065,0,0,0-1.087,7.41A33.336,33.336,0,0,0,1.209,27a25.792,25.792,0,0,0,2.17,6.415A14.739,14.739,0,0,0,6.709,37.9a7.352,7.352,0,0,0,4.123,1.91,6.369,6.369,0,0,0,4.147-1.1A11.636,11.636,0,0,0,18.4,34.99a21.713,21.713,0,0,0,2.373-5.726A31.3,31.3,0,0,0,21.777,22.089Z" transform="translate(121.445 19.666)"/>
        </g>
        <path id="Path_187" data-name="Path 187" class="cls-3" d="M.566.008,21.777,2.746a31.3,31.3,0,0,1-1,7.174A21.713,21.713,0,0,1,18.4,15.647a11.636,11.636,0,0,1-3.422,3.718,6.37,6.37,0,0,1-4.147,1.1,7.352,7.352,0,0,1-4.122-1.91,14.74,14.74,0,0,1-3.33-4.487A25.793,25.793,0,0,1,1.21,7.654,33.335,33.335,0,0,1,.566.008Z" transform="translate(121.445 123.029)"/>
        <g id="Group_70" data-name="Group 70" transform="translate(23.868)">
          <path id="Path_188" data-name="Path 188" class="cls-4" d="M26.168,12.986a21.451,21.451,0,0,0-4.449-5.97A12.93,12.93,0,0,0,16.438,3.98a9.358,9.358,0,0,0-5.495.136A11.542,11.542,0,0,0,5.894,7.681,19.477,19.477,0,0,0,2.337,14.2,29.624,29.624,0,0,0,.9,22.346a34.537,34.537,0,0,0,.755,8.684,30.327,30.327,0,0,0,2.977,8.111h0a20.5,20.5,0,0,0,4.687,5.907,12.307,12.307,0,0,0,5.412,2.739,9.335,9.335,0,0,0,5.447-.5A12.021,12.021,0,0,0,25.014,43.5a20.175,20.175,0,0,0,3.317-6.467,29.917,29.917,0,0,0,1.311-7.853,34.558,34.558,0,0,0-.7-8.318A30.735,30.735,0,0,0,26.168,12.986Z" transform="translate(0 15.398)"/>
          <path id="Path_189" data-name="Path 189" class="cls-4" d="M25.714,27.8a34.339,34.339,0,0,0-.69-8.036,30.9,30.9,0,0,0-2.377-7.133,21.09,21.09,0,0,0-3.728-5.506,11.572,11.572,0,0,0-4.748-3.1,7.539,7.539,0,0,0-4.934.066,9.815,9.815,0,0,0-4.2,3.146,17.834,17.834,0,0,0-3,5.733A28.438,28.438,0,0,0,.731,20.742a34.319,34.319,0,0,0,.736,8.365A30.477,30.477,0,0,0,4.01,36.437,20.216,20.216,0,0,0,7.926,41.91a10.908,10.908,0,0,0,4.855,2.845,7.483,7.483,0,0,0,4.887-.395,10.326,10.326,0,0,0,4.037-3.344,18.539,18.539,0,0,0,2.807-5.7A28.755,28.755,0,0,0,25.714,27.8Z" transform="translate(46.08 0)"/>
          <path id="Path_190" data-name="Path 190" class="cls-4" d="M19.952,10.684A18.025,18.025,0,0,0,16.5,5.563a9.283,9.283,0,0,0-4.071-2.511,6.351,6.351,0,0,0-4.215.282A9.384,9.384,0,0,0,4.367,6.606h0a18.614,18.614,0,0,0-2.7,5.808A29.774,29.774,0,0,0,.6,19.583a34.288,34.288,0,0,0,.609,7.58,28.412,28.412,0,0,0,2.3,7.027,17.129,17.129,0,0,0,3.607,5.065,8.768,8.768,0,0,0,4.158,2.28,6.393,6.393,0,0,0,4.182-.558,9.892,9.892,0,0,0,3.708-3.438A19.315,19.315,0,0,0,21.7,31.775a30.053,30.053,0,0,0,.984-6.94,34.321,34.321,0,0,0-.573-7.3A28.85,28.85,0,0,0,19.952,10.684Z" transform="translate(84.507 38.184)"/>
          <path id="Path_191" data-name="Path 191" class="cls-4" d="M74.944,71.881a95.645,95.645,0,0,0-1.88-22.144A78.946,78.946,0,0,0,66.593,30.6,51.327,51.327,0,0,0,56.281,16.179,29,29,0,0,0,42.819,8.6a22.535,22.535,0,0,0-14.411,1.5A33.761,33.761,0,0,0,15.766,20.559,60.119,60.119,0,0,0,6.522,38.641,88.045,88.045,0,0,0,2.4,62.517,95.224,95.224,0,0,0,4.67,87.348a74.949,74.949,0,0,0,7.855,20.58,45.007,45.007,0,0,0,11.89,13.9,25.45,25.45,0,0,0,14.357,5.3A23.9,23.9,0,0,0,52.8,122.945a39.459,39.459,0,0,0,11.266-11.9,66.037,66.037,0,0,0,7.659-17.569A89.975,89.975,0,0,0,74.944,71.881Z" transform="translate(15.563 50.17)"/>
        </g>
        <g id="Group_71" data-name="Group 71" transform="translate(0 88.372)">
          <path id="Path_192" data-name="Path 192" class="cls-3" d="M1,.009,31.89,4a31.464,31.464,0,0,1-1.51,8.589A23.572,23.572,0,0,1,26.9,19.407a15.224,15.224,0,0,1-5,4.389,10.7,10.7,0,0,1-6.047,1.229,11.971,11.971,0,0,1-6-2.407,18.856,18.856,0,0,1-4.839-5.511A28.035,28.035,0,0,1,1.877,9.284,33.616,33.616,0,0,1,1,.009Z" transform="translate(0 19.033)"/>
          <path id="Path_193" data-name="Path 193" class="cls-3" d="M2.4.026,74.944,9.391a89.975,89.975,0,0,1-3.22,21.591,66.039,66.039,0,0,1-7.659,17.569A39.459,39.459,0,0,1,52.8,60.454,23.9,23.9,0,0,1,38.773,64.63a25.451,25.451,0,0,1-14.357-5.3,45.007,45.007,0,0,1-11.89-13.9A74.949,74.949,0,0,1,4.67,24.857,95.222,95.222,0,0,1,2.4.026Z" transform="translate(39.431 24.289)"/>
          <path id="Path_194" data-name="Path 194" class="cls-3" d="M33.312,31.305A42.713,42.713,0,0,0,32.429,21.1a34.816,34.816,0,0,0-3.046-8.728,22.134,22.134,0,0,0-4.79-6.395,12.431,12.431,0,0,0-6.125-3.121,10.138,10.138,0,0,0-6.394,1.005A15.723,15.723,0,0,0,6.6,8.733a27.605,27.605,0,0,0-3.917,8.025A39.613,39.613,0,0,0,.969,27.13a42.63,42.63,0,0,0,.96,10.742,34.017,34.017,0,0,0,3.322,9.016,20.868,20.868,0,0,0,5.1,6.291,11.72,11.72,0,0,0,6.3,2.665A10.411,10.411,0,0,0,22.976,54.3a16.864,16.864,0,0,0,5.2-5.16,28.791,28.791,0,0,0,3.6-7.922A40,40,0,0,0,33.312,31.305Z" transform="translate(62.674)"/>
        </g>
        <path id="Path_195" data-name="Path 195" class="cls-2" d="M.969.011,33.312,4.186A40,40,0,0,1,31.774,14.1a28.79,28.79,0,0,1-3.6,7.922,16.864,16.864,0,0,1-5.2,5.16,10.411,10.411,0,0,1-6.317,1.541,11.721,11.721,0,0,1-6.3-2.665,20.868,20.868,0,0,1-5.1-6.291,34.017,34.017,0,0,1-3.322-9.016A42.63,42.63,0,0,1,.969.011Z" transform="translate(62.674 115.491)"/>
      </g>
      <g id="undraw_features_overview_jg7a" transform="translate(645.75 205.909)">
        <g id="flowers" transform="translate(163.592 23.812)">
          <path id="Path_392" data-name="Path 392" class="cls-5" d="M651.544,411.939s-33.12-58.565-83.018-75.44a102.128,102.128,0,0,1-51.717-38.61A171.031,171.031,0,0,1,501.55,270.5" transform="translate(-465.836 -178.553)"/>
          <path id="Path_393" data-name="Path 393" class="cls-6" d="M476.271,265.646c5.677,5.509,32.156,11.2,32.156,11.2s-6.5-26.233-12.173-31.742a14.33,14.33,0,1,0-19.983,20.544Z" transform="translate(-471.918 -184.524)"/>
          <path id="Path_394" data-name="Path 394" class="cls-6" d="M489.974,305.785c7.774,1.54,33.108-8.047,33.108-8.047s-19.85-18.523-27.576-20.063a14.324,14.324,0,1,0-5.532,28.11Z" transform="translate(-470.591 -177.153)"/>
          <path id="Path_395" data-name="Path 395" class="cls-6" d="M536.442,348.359c7.485-2.586,24.5-23.611,24.5-23.611s-26.4-6.014-33.88-3.44a14.316,14.316,0,1,0,9.377,27.053Z" transform="translate(-462.581 -168.379)"/>
          <path id="Path_396" data-name="Path 396" class="cls-6" d="M577.562,373.093c7.81-1.287,28.143-19.149,28.143-19.149s-25-10.392-32.819-9.105a14.319,14.319,0,1,0,4.676,28.254Z" transform="translate(-453.659 -163.499)"/>
          <path id="Path_397" data-name="Path 397" class="cls-6" d="M538.615,279.651c0,7.914-14.331,30.84-14.331,30.84s-14.355-22.914-14.355-30.828a14.343,14.343,0,0,1,28.685,0Z" transform="translate(-464.116 -179.598)"/>
          <path id="Path_398" data-name="Path 398" class="cls-6" d="M586.664,309.772c-2.41,7.554-22.9,25.151-22.9,25.151s-6.822-26.161-4.459-33.679a14.344,14.344,0,0,1,27.383,8.552Z" transform="translate(-454.084 -174.355)"/>
          <path id="Path_399" data-name="Path 399" class="cls-6" d="M629.684,344.375c-1.049,7.842-18.332,28.663-18.332,28.663s-11.149-24.634-10.1-32.476a14.343,14.343,0,0,1,28.432,3.813Z" transform="translate(-445.386 -166.861)"/>
          <path id="Path_400" data-name="Path 400" class="cls-7" d="M476.271,265.646c5.677,5.509,32.156,11.2,32.156,11.2s-6.5-26.233-12.173-31.742a14.33,14.33,0,1,0-19.983,20.544Z" transform="translate(-471.918 -184.524)"/>
          <path id="Path_401" data-name="Path 401" class="cls-8" d="M489.974,305.785c7.774,1.54,33.108-8.047,33.108-8.047s-19.85-18.523-27.576-20.063a14.324,14.324,0,1,0-5.532,28.11Z" transform="translate(-470.591 -177.153)"/>
          <path id="Path_402" data-name="Path 402" class="cls-9" d="M536.442,348.359c7.485-2.586,24.5-23.611,24.5-23.611s-26.4-6.014-33.88-3.44a14.316,14.316,0,1,0,9.377,27.053Z" transform="translate(-462.581 -168.379)"/>
          <path id="Path_403" data-name="Path 403" class="cls-10" d="M577.562,373.093c7.81-1.287,28.143-19.149,28.143-19.149s-25-10.392-32.819-9.105a14.319,14.319,0,1,0,4.676,28.254Z" transform="translate(-453.659 -163.499)"/>
          <path id="Path_404" data-name="Path 404" class="cls-7" d="M538.615,279.651c0,7.914-14.331,30.84-14.331,30.84s-14.355-22.914-14.355-30.828a14.343,14.343,0,0,1,28.685,0Z" transform="translate(-464.116 -179.598)"/>
          <path id="Path_405" data-name="Path 405" class="cls-11" d="M586.664,309.772c-2.41,7.554-22.9,25.151-22.9,25.151s-6.822-26.161-4.459-33.679a14.344,14.344,0,0,1,27.383,8.552Z" transform="translate(-454.084 -174.355)"/>
          <path id="Path_406" data-name="Path 406" class="cls-10" d="M629.684,344.375c-1.049,7.842-18.332,28.663-18.332,28.663s-11.149-24.634-10.1-32.476a14.343,14.343,0,0,1,28.432,3.813Z" transform="translate(-445.386 -166.861)"/>
          <path id="Path_407" data-name="Path 407" class="cls-5" d="M638,419.162s-6.508-66.949-45.257-102.552A101.85,101.85,0,0,1,561.13,260.4a170.76,170.76,0,0,1-2.82-31.213" transform="translate(-454.186 -186.931)"/>
          <path id="Path_408" data-name="Path 408" class="cls-7" d="M538.338,213.727c2.953,7.337,24.852,23.25,24.852,23.25s4.713-26.618,1.748-33.955a14.338,14.338,0,0,0-26.6,10.706Z" transform="translate(-458.5 -194.057)"/>
          <path id="Path_409" data-name="Path 409" class="cls-12" d="M534.557,255.931c6.484,4.547,33.518,6.014,33.518,6.014s-10.534-24.9-17.006-29.445a14.327,14.327,0,1,0-16.512,23.419Z" transform="translate(-460.312 -186.789)"/>
          <path id="Path_410" data-name="Path 410" class="cls-8" d="M559.82,313.749c7.894.662,31.987-11.691,31.987-11.691s-21.695-16.178-29.589-16.839a14.316,14.316,0,1,0-2.411,28.531Z" transform="translate(-456.575 -175.579)"/>
          <path id="Path_411" data-name="Path 411" class="cls-6" d="M587.512,353.045c7.665,1.985,33.506-6.122,33.506-6.122s-18.645-19.606-26.311-21.651a14.317,14.317,0,1,0-7.232,27.665Z" transform="translate(-450.545 -167.579)"/>
          <path id="Path_412" data-name="Path 412" class="cls-9" d="M589.687,251.781c-3.206,7.217-25.624,22.4-25.624,22.4s-3.821-26.75-.615-33.979a14.341,14.341,0,0,1,26.238,11.583Z" transform="translate(-453.394 -186.429)"/>
          <path id="Path_413" data-name="Path 413" class="cls-7" d="M622.438,298.807c-5.231,5.93-31.168,13.712-31.168,13.712s4.375-26.666,9.642-32.608a14.335,14.335,0,0,1,21.562,18.9Z" transform="translate(-447.421 -177.632)"/>
          <path id="Path_414" data-name="Path 414" class="cls-6" d="M647.016,347.8c-4.146,6.736-28.4,18.788-28.4,18.788s-.2-27.027,3.941-33.775A14.347,14.347,0,0,1,647.016,347.8Z" transform="translate(-441.807 -167.231)"/>
        </g>
        <path id="Path_415" data-name="Path 415" class="cls-13" d="M901.663,742.352c3.556,7.217-21.6,14.975-52.754,17.212-27.914,2.009-50.862-1.263-53.766-7.133s14.873-12.99,42.184-16.2C867.808,732.669,898.108,735.207,901.663,742.352Z" transform="translate(-169.158 -84.422)"/>
        <path id="Path_416" data-name="Path 416" class="cls-14" d="M218.75,302.433,602.72,166.72V635.564l-383.97-7.987Z" transform="translate(-218.75 -26.216)"/>
        <path id="Path_417" data-name="Path 417" class="cls-15" d="M218.75,302.433,602.72,166.72V635.564l-383.97-7.987Z" transform="translate(-218.75 -26.216)"/>
        <path id="Path_422" data-name="Path 422" class="cls-14" d="M1115.715,357.949,893.9,279.55V604.694h221.815Z" transform="translate(-80.172 -3.332)"/>
        <path id="Path_423" data-name="Path 423" class="cls-16" d="M1115.715,357.949,893.9,279.55V604.694h221.815Z" transform="translate(-80.172 -3.332)"/>
        <path id="Path_425" data-name="Path 425" class="cls-8" d="M613.921,643.92s7.147,9.334-3.3,23.419-19.079,25.993-15.584,34.749c0,0,15.765-26.161,28.589-26.462S628.022,659.653,613.921,643.92Z" transform="translate(-210.329 -102.819)"/>
        <path id="Path_426" data-name="Path 426" class="cls-17" d="M613.85,643.92a11.788,11.788,0,0,1,1.458,2.935c12.51,14.674,19.176,28.362,7.147,28.711-11.209.325-24.647,20.315-27.865,25.367a9.9,9.9,0,0,0,.374,1.2s15.765-26.161,28.589-26.462S627.951,659.653,613.85,643.92Z" transform="translate(-210.258 -102.819)"/>
        <path id="Path_427" data-name="Path 427" class="cls-18" d="M621.871,654.165c0,3.284-.374,5.942-.832,5.942s-.82-2.658-.82-5.942.458-1.744.916-1.744S621.871,650.881,621.871,654.165Z" transform="translate(-204.998 -101.168)"/>
        <path id="Path_428" data-name="Path 428" class="cls-18" d="M626.329,657.46c-2.881,1.564-5.4,2.514-5.616,2.117s1.94-2,4.821-3.609,1.748-.421,1.965,0S629.222,655.884,626.329,657.46Z" transform="translate(-204.9 -100.542)"/>
        <path id="Path_429" data-name="Path 429" class="cls-19" d="M581.972,643.92s-7.147,9.334,3.3,23.419,19.055,25.993,15.572,34.749c0,0-15.753-26.161-28.589-26.462S567.859,659.653,581.972,643.92Z" transform="translate(-216.141 -102.819)"/>
        <path id="Path_430" data-name="Path 430" class="cls-20" d="M581.972,643.92a11.786,11.786,0,0,0-1.458,2.935c-12.523,14.674-19.188,28.362-7.147,28.711,11.2.325,24.647,20.315,27.865,25.367a9.988,9.988,0,0,1-.386,1.2s-15.753-26.161-28.589-26.462S567.859,659.653,581.972,643.92Z" transform="translate(-216.141 -102.819)"/>
        <path id="Path_431" data-name="Path 431" class="cls-18" d="M568.22,654.165c0,3.284.362,5.942.82,5.942s.832-2.658.832-5.942-.47-1.744-.916-1.744S568.22,650.881,568.22,654.165Z" transform="translate(-215.671 -101.168)"/>
        <path id="Path_432" data-name="Path 432" class="cls-18" d="M564.73,657.46c2.893,1.564,5.412,2.514,5.629,2.117s-1.94-2-4.821-3.609-1.748-.421-1.965,0S561.8,655.884,564.73,657.46Z" transform="translate(-216.749 -100.542)"/>
        <ellipse id="Ellipse_90" data-name="Ellipse 90" class="cls-13" cx="74.726" cy="11.439" rx="74.726" ry="11.439" transform="translate(309.979 647.742)"/>
        <path id="Path_433" data-name="Path 433" class="cls-21" d="M639.924,682.566l-.362,2.911-.506,4.114-.2,1.708-.506,4.126-.217,1.708-.494,4.114-5.725,46.789c-.506,4.174-7.34,7.433-15.6,7.433H586.6c-8.256,0-15.078-3.26-15.6-7.433l-5.725-46.789-.506-4.114-.2-1.708-.506-4.126-.217-1.708-.494-4.114-.362-2.911c-.289-2.406,3.411-4.366,8.087-4.366h60.769C636.525,678.2,640.213,680.2,639.924,682.566Z" transform="translate(-216.747 -95.867)"/>
        <path id="Path_434" data-name="Path 434" class="cls-22" d="M582.538,540.1l-.506,4.114H506.824l-.494-4.114Z" transform="translate(-159.723 49.51)"/>
        <path id="Path_435" data-name="Path 435" class="cls-22" d="M581.706,544.95l-.506,4.114H507.426l-.506-4.114Z" transform="translate(-159.602 50.494)"/>
        <path id="Path_436" data-name="Path 436" class="cls-22" d="M580.862,549.8l-.494,4.114H508.016l-.506-4.114Z" transform="translate(-159.481 51.477)"/>
        <path id="Path_441" data-name="Path 441" class="cls-11" d="M1144.959,688.383s-14.089-.842-12.426,9a2.4,2.4,0,0,0,1.205,2.538s0-.734,1.446-.481a6.793,6.793,0,0,0,1.531.072,3.269,3.269,0,0,0,1.868-.77h0s3.953-1.636,5.5-8.095c0,0,1.145-1.407,1.1-1.768l-2.411,1.01a4.262,4.262,0,0,1,.169,3.139s-.073-3.079-.53-3.007c-.1,0-1.205.6-1.205.6s1.4,2.971.35,5.136c0,0,.4-3.608-.783-4.92l-1.675.974s1.639,3.067.53,5.581c0,0,.289-3.849-.88-5.353l-1.519,1.2s1.543,3.043.6,5.124c0,0-.12-4.486-.928-4.811a9.285,9.285,0,0,0-1.531,1.648s1.049,2.2.4,3.356c0,0-.4-2.983-.723-2.995a9.761,9.761,0,0,0-1.458,3.332,7.209,7.209,0,0,1,1.145-3.524,3.968,3.968,0,0,0-2.025,1.047s.2-1.4,2.41-1.528a9.38,9.38,0,0,1,1.374-1.588,8.623,8.623,0,0,0-3.423.4s1.205-1.323,3.821-.722l1.495-1.2a12.436,12.436,0,0,0-4,0s1.374-1.2,4.4-.313l1.639-.974a14.965,14.965,0,0,0-3.821-.337,5.87,5.87,0,0,1,4.291.072l1.205-.517s-1.76-.349-2.266-.4-.542-.2-.542-.2a6.11,6.11,0,0,1,3.29.373A15.064,15.064,0,0,0,1144.959,688.383Z" transform="translate(-99.871 -93.805)"/>
        <ellipse id="Ellipse_92" data-name="Ellipse 92" class="cls-13" cx="9.967" cy="1.684" rx="9.967" ry="1.684" transform="translate(1025.419 605.283)"/>
        <path id="Path_442" data-name="Path 442" class="cls-7" d="M965.361,688.724s-16.994-1.022-14.993,10.825a2.9,2.9,0,0,0,1.507,3.055s0-.878,1.748-.577a7.57,7.57,0,0,0,1.844.084,3.836,3.836,0,0,0,2.266-.926h0s4.821-1.973,6.629-9.767c0,0,1.386-1.7,1.326-2.141l-2.869,1.2a5.126,5.126,0,0,1,.2,3.777s-.084-3.7-.639-3.608c-.109,0-1.495.71-1.495.71s1.687,3.608.422,6.219c0,0,.482-4.438-.952-6.014l-2.013,1.2s1.964,3.717.639,6.76c0,0,.337-4.655-1.061-6.471l-1.832,1.431s1.856,3.608.723,6.17c0,0-.145-5.413-1.121-5.822a11.057,11.057,0,0,0-1.844,1.985s1.205,2.658.482,4.066c0,0-.482-3.609-.88-3.609a12.015,12.015,0,0,0-1.76,4.029,8.721,8.721,0,0,1,1.374-4.258,4.825,4.825,0,0,0-2.411,1.2s.253-1.7,2.844-1.84a11.086,11.086,0,0,1,1.663-1.924,10.407,10.407,0,0,0-4.134.481s1.374-1.6,4.6-.878l1.808-1.467a15.1,15.1,0,0,0-4.821,0s1.651-1.407,5.315-.385l1.965-1.2a17.709,17.709,0,0,0-4.616-.4s1.82-.986,5.195.072l1.4-.625s-2.109-.409-2.736-.481-.651-.241-.651-.241a7.39,7.39,0,0,1,3.977.445,17.124,17.124,0,0,0,2.893-1.083Z" transform="translate(-137.267 -93.737)"/>
        <ellipse id="Ellipse_93" data-name="Ellipse 93" class="cls-13" cx="12.028" cy="2.033" rx="12.028" ry="2.033" transform="translate(804.363 607.917)"/>
        <path id="Path_443" data-name="Path 443" class="cls-23" d="M889.864,603.039s1.386-1.335.928-2.237a2.077,2.077,0,0,1,0-1.792s-3.11-12.2-4.267-13.423a9.355,9.355,0,0,1-1.724-3.031,1.573,1.573,0,0,0,.169-.77,6.138,6.138,0,0,0-1.205-3.4,8.336,8.336,0,0,1-1.434-4.511,5.018,5.018,0,0,1,0-.6h0a6.022,6.022,0,0,0-4.17-3.693c.4-2.586.94-5.172,1.109-7.77.542-8.143-2.495-16.045-5.484-23.671a24.939,24.939,0,0,0-2.615-5.377,15.677,15.677,0,0,0-11.257-6.134,11.024,11.024,0,0,0-4.821.469,14.969,14.969,0,0,0-4.158,2.779c-1.29,1.083-2.579,2.189-3.773,3.368l-.145.144-.422.445-.169.168-.4.445-.145.156c-.169.2-.35.409-.518.625h0c-.157.2-.313.4-.458.6l-.145.2-.313.445-.145.229c-.109.156-.193.313-.289.469l-.133.216c-.12.229-.253.457-.374.7l-.434.962v.132l-.253.637c-.325.77-.639,1.54-1.036,2.273h0l-.072.12-.868,1.046a8.118,8.118,0,0,0-.988,1.684l-.084.192a.784.784,0,0,1-.1.265l-.084.216a2.417,2.417,0,0,1-.084.277c0,.072,0,.144,0,.229l-.072.265v.241a.428.428,0,0,1-.06.265v1.732a2.973,2.973,0,0,0,0,.325,1.322,1.322,0,0,0,0,.216,2.56,2.56,0,0,0,0,.3v.517a1.386,1.386,0,0,0,0,.216l.072.313v.192l.109.337a.228.228,0,0,0,.06.156,3.238,3.238,0,0,1,.193.493,12.934,12.934,0,0,0,1.35,2.285c.35.481.711.95,1.073,1.431l.518.722a13.138,13.138,0,0,1,.952,1.5A10.446,10.446,0,0,1,843.329,568l-.434.662a3.518,3.518,0,0,0-.494,1.2,2.571,2.571,0,0,0,.687,2.057l-1.073.277c-.88.241-1.482.433-1.482.433a12.519,12.519,0,0,0-2.193,0,6.028,6.028,0,0,0-2.639,1.684s-4.6.553-6.111-.782-6.786-1.792-6.786-1.792-1.495-2.911-3.11-3.813-5.52-2.574-5.641-3.464a8.164,8.164,0,0,0-1.495-2.574,13.3,13.3,0,0,0-2.41-.289l-.253-.433-3.218-5.545s-4.038-4.7-6.219-5.148,3.073,4.992,3.327,5.244a3.464,3.464,0,0,0-4.821.794c-1.711,1.9,2.832,6.363,5.653,8.829l.458.4a5.693,5.693,0,0,0,.109.734c1.266,6.6,8.28,12.317,8.28,12.317s.807,3.693,3.459,4.595c2.109.71,13.439,5.834,19.344,6.856-.494,1.275-1.073,4.234,1.374,8.588,0,0,.578,7.722-.687,8.732s-1.205,12.2-1.205,12.2-4.821,19.474,0,23.611a3.764,3.764,0,0,0,1.024.625,9.121,9.121,0,0,0,.12.938c.217,1.949.289,3.969-.229,4.811-1.205,1.9.4,7.048.4,7.048s-4.652,26.305-2.579,35.591a106.216,106.216,0,0,1,1.832,21.049s-.687,8.167,2.881,13.1a13.516,13.516,0,0,1,.687,3.608,21.479,21.479,0,0,0,1.844,6.82c.807,1.564,2.411,8.179,1.036,9.959s1.495,21.278,1.495,21.278-2.3,6.014,0,9.177l.072.084a15.693,15.693,0,0,1-4.038-.577c-2.579-.866-.651,2.406,2.41,4.643-1.338,3.031-3.17,7.1-3.785,8.42-2.664.457-7.943,1.2-11.04.469-4.255-1,1.844,5.822,7.593,7.06a55.177,55.177,0,0,0,12.318.89l3.712-4.089a47.245,47.245,0,0,0,9.051.337l-.325,3.8h2.181v-3.945c1.374-.132,2.8-.313,4.267-.577,0,0,.084-4.162-.181-8.095l1.338.12.2-2.177,4.737.854,4.255-34.882s.47-12.978,1.507-20.255-2.194-31.682-2.194-31.682-.229-1.2-.458-3.464,0-15.456,0-15.456,1.724-7.217,1.386-7.83.109-3.693.109-3.693c7.232-14.71-1.663-28-4.761-31.947a.949.949,0,0,0,.3-.638.6.6,0,0,0,0-.253,26.924,26.924,0,0,0-1.736-3.608l1.808-2.3c.627.9,1.073,1.576,1.073,1.576s1.953-4.366,3.917-6.014S889.37,606.8,889.37,606.8s2.194-1.467,1.037-2.694S889.864,603.039,889.864,603.039Zm-29,123.793a3.1,3.1,0,0,0-.82-1.335s-.338-2.406-.458-5.5c.687,2.406,1.386,4.15,1.386,4.15Zm5.424,57.218v-.638h.169Zm1.422-159.228v-.144a1.779,1.779,0,0,1,.747-1.6.841.841,0,0,0,.4-.782,2.837,2.837,0,0,0-.555-1.4c.229.169.94.553,1.422-.842a2.123,2.123,0,0,0,.109-.674,5.636,5.636,0,0,0-1.362-3.151l5.207-10.946a13.953,13.953,0,0,0,1.735.4h0c-1.362,4.21-2.483,9.226-2.483,9.226l-4.026,8.841a1.7,1.7,0,0,1,.7.505Z" transform="translate(-168.387 -126.625)"/>
        <path id="Path_444" data-name="Path 444" class="cls-21" d="M843.479,734.995s-6.761.83-10.052-.3,1.012,4.811,5.46,6.267a41.983,41.983,0,0,0,9.642,1.636l5.219-4.907,5.544.433-.964,5.425,1.724.156.663-7.1Z" transform="translate(-161.474 -84.438)"/>
        <path id="Path_445" data-name="Path 445" class="cls-17" d="M843.479,734.995s-6.761.83-10.052-.3,1.012,4.811,5.46,6.267a41.983,41.983,0,0,0,9.642,1.636l5.219-4.907,5.544.433-.964,5.425,1.724.156.663-7.1Z" transform="translate(-161.474 -84.438)"/>
        <path id="Path_446" data-name="Path 446" class="cls-21" d="M835.787,745.23s-8.123,1.768-12.233.77,1.784,5.773,7.34,6.988a51.48,51.48,0,0,0,11.9.89l5.785-6.543,6.774-.108-.554,6.7h2.121v-8.7Z" transform="translate(-163.545 -82.272)"/>
        <path id="Path_447" data-name="Path 447" class="cls-17" d="M835.787,745.23s-8.123,1.768-12.233.77,1.784,5.773,7.34,6.988a51.48,51.48,0,0,0,11.9.89l5.785-6.543,6.774-.108-.554,6.7h2.121v-8.7Z" transform="translate(-163.545 -82.272)"/>
        <path id="Path_448" data-name="Path 448" class="cls-21" d="M861.814,617.1s13.9,15.42,5.568,32.837c0,0-.446,3.115-.121,3.669s-1.326,7.77-1.326,7.77-.229,13.087,0,15.312.446,3.428.446,3.428,3.11,24.188,2.109,31.405-1.446,20.087-1.446,20.087l-4.11,34.617-21.345-3.993,9.642-47.5.338-8.42s-4-10.308-2.23-15.528-.446-71.676-.446-71.676Z" transform="translate(-159.561 -108.259)"/>
        <path id="Path_449" data-name="Path 449" class="cls-24" d="M861.814,617.1s13.9,15.42,5.568,32.837c0,0-.446,3.115-.121,3.669s-1.326,7.77-1.326,7.77-.229,13.087,0,15.312.446,3.428.446,3.428,3.11,24.188,2.109,31.405-1.446,20.087-1.446,20.087l-4.11,34.617-21.345-3.993,9.642-47.5.338-8.42s-4-10.308-2.23-15.528-.446-71.676-.446-71.676Z" transform="translate(-159.561 -108.259)"/>
        <path id="Path_450" data-name="Path 450" class="cls-21" d="M854.364,691.557c-2.411,4.655-.892,15.973-.892,15.973,3.218,2.779,1.446,26.967,1.446,26.967s2.218,23.852,3.616,26.63,1.205,14.193,1.205,14.193c-16.343,3-27.022-3.44-27.022-3.44s5.231-11.872,5.339-12.425c.06-.313.759.529.964.782l-.964-1.335c-2.23-3.1,0-9.093,0-9.093s-2.784-19.245-1.446-21.085-.217-8.323-1-9.875a21.709,21.709,0,0,1-1.784-6.772,13.775,13.775,0,0,0-.663-3.548c-3.447-4.884-2.784-12.978-2.784-12.978a107.052,107.052,0,0,0-1.772-20.857c-2-9.214,2.495-35.291,2.495-35.291s-1.495-5.1-.386-6.988c.506-.842.434-2.839.217-4.811-.265-2.406-.771-4.643-.771-4.643l30.36-5.34c.639,1.058,1.205,2.081,1.76,3.067,10.04,18.511,3.266,25.379,3.266,25.379l-6.448,19.75S856.81,686.89,854.364,691.557Z" transform="translate(-162.33 -108.153)"/>
        <path id="Path_451" data-name="Path 451" class="cls-25" d="M812.069,560.876l-4.339,3.608s-.856-.674-1.989-1.7c-2.724-2.406-7.111-6.868-5.46-8.744a3.283,3.283,0,0,1,4.652-.782c-.241-.265-5.279-5.641-3.206-5.208s6.026,5.1,6.026,5.1l3.11,5.5Z" transform="translate(-168.114 -122.267)"/>
        <path id="Path_452" data-name="Path 452" class="cls-25" d="M802.1,464.38l-5.11,1.552,3.881,6.76,4.447-5.761Z" transform="translate(-100.064 34.153)"/>
        <ellipse id="Ellipse_94" data-name="Ellipse 94" class="cls-25" cx="14.559" cy="14.53" rx="14.559" ry="14.53" transform="translate(675.473 405.893)"/>
        <path id="Path_453" data-name="Path 453" class="cls-25" d="M841.538,548.707s13.258,20.965.675,22.745,16.874,14.53,16.874,14.53l11-11.09s-11.45-19.75-9.642-27.292S841.538,548.707,841.538,548.707Z" transform="translate(-160.075 -122.98)"/>
        <path id="Path_454" data-name="Path 454" class="cls-17" d="M861.954,620.687A68.243,68.243,0,0,1,853,622.768s-16.391,7.217-22.357,4.811c-.265-2.406-.771-4.643-.771-4.643l30.288-5.316C860.833,618.678,861.424,619.7,861.954,620.687Z" transform="translate(-161.966 -108.153)"/>
        <path id="Path_455" data-name="Path 455" class="cls-26" d="M877.443,576.837l-2.965,6.122-3.339,6.88-.482.986-3.965,8.552L861.654,610.2s1.784,2.1,1.205,3.777-1.338.878-1.434.782c.084.132,1.205,1.576.2,2.213a2.1,2.1,0,0,0-.663,2.1s4.11,6.772,4.893,9.214-12.45,4.547-12.45,4.547-18.79,8.323-23.466,4.21,0-23.407,0-23.407,0-11.09,1.205-12.088.663-8.66.663-8.66c-3.218-5.882-1-9.214-1-9.214L829.92,568.6s1.446-1.552,2.555-1.66a10.556,10.556,0,0,1,2.121,0s.578-.2,1.434-.433c1.784-.505,4.737-1.2,5.785-.686,1.555.782,11.57-1.2,11.57-1.2a123.38,123.38,0,0,1,13-1.2,13.281,13.281,0,0,1,4.411.481,5.9,5.9,0,0,1,4.254,3.741,7.724,7.724,0,0,0,1.338,5.1C878.2,575.622,877.443,576.837,877.443,576.837Z" transform="translate(-162.378 -119.151)"/>
        <path id="Path_456" data-name="Path 456" class="cls-17" d="M811.082,559.087l-4.339,3.608s-.856-.674-1.989-1.7c-.35-3.741,2.844-4.234,5.1-4.138Z" transform="translate(-167.127 -120.478)"/>
        <path id="Path_457" data-name="Path 457" class="cls-26" d="M836.52,569.767l-1.892.108s-4.447.553-5.894-.782-6.557-1.768-6.557-1.768-1.446-2.887-3-3.777-5.339-2.55-5.448-3.44a8.009,8.009,0,0,0-1.446-2.55s-8.34-2-7.111,4.547,8,12.209,8,12.209.783,3.608,3.339,4.547,19.115,8.66,21.791,6.664S836.52,569.767,836.52,569.767Z" transform="translate(-167.061 -120.392)"/>
        <path id="Path_458" data-name="Path 458" class="cls-17" d="M875.874,572.692a7.722,7.722,0,0,1-1.338-5.1,5.9,5.9,0,0,0-4.255-3.741,11.422,11.422,0,0,0-2.157-.421,5.9,5.9,0,0,1,4.194,3.717,7.627,7.627,0,0,0,1.338,5.1c1.772,2.887,1,4.114,1,4.114l-2.965,6.11-3.351,6.9-.47.986-3.965,8.552-5.038,10.825s1.772,2.1,1.205,3.777-1.326.878-1.434.782c.1.132,1.205,1.576.217,2.213a2.126,2.126,0,0,0-.675,2.1s4.122,6.772,4.893,9.214-12.45,4.547-12.45,4.547-13.053,5.773-20.1,5.328c6.026,2.345,22.333-4.883,22.333-4.883s13.258-2.1,12.45-4.547-4.893-9.214-4.893-9.214a2.1,2.1,0,0,1,.663-2.1c.964-.638-.121-2.081-.205-2.213.1.1.916.77,1.434-.782s-1.205-3.777-1.205-3.777l5.038-10.825,3.965-8.552.482-.986,3.339-6.88,2.965-6.122S877.658,575.578,875.874,572.692Z" transform="translate(-161.833 -119.144)"/>
        <path id="Path_459" data-name="Path 459" class="cls-26" d="M869.592,573.19l2,1.66a9.147,9.147,0,0,0,1.675,3.007c1.109,1.2,4.11,13.3,4.11,13.3a2.15,2.15,0,0,0,0,1.78c.446.89-.892,2.225-.892,2.225s-.663-.229.446,1-1,2.658-1,2.658-9.112,15.528-11,17.2-3.784,6.014-3.784,6.014-3.953-6.206-4.893-6.327l3.893-8.768s2.664-12.2,4.664-14.434-1-9.875-1-9.875Z" transform="translate(-156.552 -117.164)"/>
        <path id="Path_460" data-name="Path 460" class="cls-17" d="M875.3,597.8c-1.663,2-4.6,2.406-7.232,2.129a6.268,6.268,0,0,1-1.145-.168c-.566-.108-1.133-.241-1.687-.4a17.6,17.6,0,0,1-5.52-2.706,3.472,3.472,0,0,0-1.205-.71,2.6,2.6,0,0,0-2.627,1.407c-.566.9-.832,1.961-1.41,2.863a6.622,6.622,0,0,1-5.46,2.67,19.321,19.321,0,0,1-6.195-1.2A18.37,18.37,0,0,0,846.8,595.1a15.887,15.887,0,0,0,.313-4.955c-.482-7.854-3.218-16.13-9.642-20.7-1.109-.794-2.41-1.732-2.82-2.923,1.784-.505,4.737-1.2,5.785-.686,1.555.782,11.57-1.2,11.57-1.2a123.414,123.414,0,0,1,13-1.2,13.29,13.29,0,0,1,4.411.481,27.611,27.611,0,0,0-.362,9.935,22.583,22.583,0,0,0,2.194,5.846c.578,1.095,1.205,2.189,1.8,3.284,1.7,3.031,3.314,6.074,3.616,9.49A7.314,7.314,0,0,1,875.3,597.8Z" transform="translate(-160.985 -119.147)"/>
        <path id="Path_461" data-name="Path 461" class="cls-17" d="M851.158,605.075a7.681,7.681,0,0,1,2.6-.228,4.822,4.822,0,0,1,1.953,1.131H850c-1.47,0-3.688.084-4.821-.95C846.168,604.029,849.712,605.244,851.158,605.075Z" transform="translate(-158.824 -110.788)"/>
        <path id="Path_462" data-name="Path 462" class="cls-27" d="M833.99,544.959a8.574,8.574,0,0,0-.988,8.348c.916,2.153,2.676,3.825,3.76,5.894a10.627,10.627,0,0,1-.362,10.284,4.927,4.927,0,0,0-.892,1.84c-.265,1.7,1.495,2.911,2.893,3.9,6.412,4.571,9.148,12.846,9.642,20.7a15.538,15.538,0,0,1-.3,4.955,18.263,18.263,0,0,1-3.977,6.58,19.609,19.609,0,0,0,6.195,1.2,6.67,6.67,0,0,0,5.46-2.682c.579-.89.844-1.949,1.41-2.863a2.592,2.592,0,0,1,2.627-1.407,3.614,3.614,0,0,1,1.205.71,17.474,17.474,0,0,0,8.352,3.272c2.591.3,5.532-.132,7.232-2.129a7.374,7.374,0,0,0,1.362-5.365c-.578-6.724-6.279-12.028-7.593-18.62-1.073-5.353.856-10.825,1.205-16.262.53-8.059-2.411-15.913-5.291-23.455a26.121,26.121,0,0,0-2.531-5.34,15,15,0,0,0-10.847-6.014,10.3,10.3,0,0,0-4.689.469,14.393,14.393,0,0,0-4.026,2.742c-2.748,2.406-5.58,4.811-7.231,8.155-.651,1.347-1.073,2.791-1.8,4.089" transform="translate(-161.458 -126.245)"/>
        <g id="Group_105" data-name="Group 105" class="cls-28" transform="translate(670.871 408.214)">
          <path id="Path_463" data-name="Path 463" d="M836.184,541.006c.711-1.311,1.205-2.755,1.784-4.09a16.837,16.837,0,0,1,2.314-3.476A19.573,19.573,0,0,0,836.2,538.8c-.627,1.311-1.049,2.706-1.736,3.981l.88-.746a9.239,9.239,0,0,0-.615.962,10.353,10.353,0,0,0,1.458-2Z" transform="translate(-831.895 -533.44)"/>
          <path id="Path_464" data-name="Path 464" d="M866.388,591.776a17.556,17.556,0,0,1-8.352-3.284,4.062,4.062,0,0,0-1.205-.71A2.641,2.641,0,0,0,854.2,589.2a5.5,5.5,0,0,0-.313.589,1.848,1.848,0,0,1,1.205-.108,3.618,3.618,0,0,1,1.205.71,17.47,17.47,0,0,0,8.352,3.272c2.591.3,5.532-.132,7.232-2.129a4.806,4.806,0,0,0,.554-.83,9.308,9.308,0,0,1-6.05,1.071Z" transform="translate(-827.907 -522.422)"/>
          <path id="Path_465" data-name="Path 465" d="M851.71,604.141a19.585,19.585,0,0,1-6.183-1.2,18.456,18.456,0,0,0,3.965-6.591,15.459,15.459,0,0,0,.313-4.943c-.482-7.855-3.206-16.142-9.642-20.7-1.4-1-3.146-2.213-2.893-3.909a5.349,5.349,0,0,1,.9-1.84,10.6,10.6,0,0,0,.362-10.272c-1.085-2.069-2.844-3.753-3.773-5.894a8.657,8.657,0,0,1,.386-7.4,11.7,11.7,0,0,1-.976.914,10.672,10.672,0,0,1-.807.986,8.583,8.583,0,0,0-.374,7.385c.916,2.153,2.676,3.825,3.76,5.894a10.626,10.626,0,0,1-.362,10.284,4.927,4.927,0,0,0-.892,1.84c-.265,1.7,1.495,2.911,2.893,3.9,6.412,4.571,9.148,12.846,9.642,20.7a15.538,15.538,0,0,1-.3,4.955,18.263,18.263,0,0,1-3.977,6.58,19.608,19.608,0,0,0,6.2,1.2,6.67,6.67,0,0,0,5.46-2.682c.072-.12.145-.241.2-.361a7.581,7.581,0,0,1-3.905,1.155Z" transform="translate(-832.332 -531.828)"/>
        </g>
        <g id="Group_107" data-name="Group 107" transform="translate(0 387.624)">
          <path id="Path_466" data-name="Path 466" class="cls-29" d="M176.2,824.479a26.671,26.671,0,0,1-10.915-3.945l-.338-.241a3.553,3.553,0,0,0,.563-1.278,6.2,6.2,0,0,1-.713-2.853,6.488,6.488,0,0,0-.563-2.741v-4.631a8.446,8.446,0,0,1-1.575-5.316c-.131-3.834-.281-22.654-.281-22.654a8.711,8.711,0,0,1-.131-3c.131-2.186.131-3,.131-3a8.165,8.165,0,0,1-.413-3.964,5.049,5.049,0,0,0-1.013-3.538l2.138-10.373s1.181-35.787-2.269-46.586h0v-.13c.281-6.946-3.995-18.523-1.575-26.6s2.719-9.817,2.719-9.817-10.69-26.47-13.39-32.749a80.818,80.818,0,0,0-5.626-11.781q-.263-.352-.506-.667l-.281-.333a7.107,7.107,0,0,0,1.031-3.149c.15-1.852-.131-4.186,1.313-5.557a11.6,11.6,0,0,1,1.763-1.167,6.9,6.9,0,0,0,3.113-6.668,11.2,11.2,0,0,0-2.832-5.427,16.472,16.472,0,0,0,.244-2.741,15.176,15.176,0,0,0-4.895-11.114h0v-.852a8.67,8.67,0,0,0-1.707-5.261l.394.278-.675-.574a5,5,0,0,0-1.106-.852,21.151,21.151,0,0,0-21.754-1.111,11.883,11.883,0,0,0-4.238,3.7c-2.232,3.408-1.669,7.8-2.832,11.67s-3.751,6.724-5.945,9.947-4.013,7.039-3.188,10.8c.6,2.741,2.551,5.187,2.513,7.965a6.314,6.314,0,0,1-5.626,5.853h-.844a20.81,20.81,0,0,0,9.189,2.89,3.815,3.815,0,0,1-.206.759c-2.551,9.78-4.895,22.228-4.895,22.228s1.575,12.559-1.707,22.376S96.42,712.3,96.42,712.3s9.114-4.649,9.7-1.649,0,3.816,0,3.816a43.255,43.255,0,0,0,4.051,1.852v1.2l-.413,5.372a5.881,5.881,0,0,0,.506,3.26c.788,1.5,0,5.557,0,5.557s-.675.407,0,2.334a7.82,7.82,0,0,1-.525,4.631s-.806,10.225-.956,12.411a42.76,42.76,0,0,1-2.851,8.317s2.438,3,0,3.427-2.7,4.075-2.7,4.075-2.851,2.334-2.851,3.149A64.251,64.251,0,0,0,84.3,803.881s-3,2.723-2.569,5.316c.244,1.463-.244,1.963-.713,2.13.525,0,1.106.407.844,1.686-.413,2.186-1.557,6.817-1.557,6.817h.206c-2.344,2.667-5.739,7.131-6.264,11.114v.482l-1.313,2.834,11.252,4.909.994-1.5s4.989,5.557,10.69,6.817a14.707,14.707,0,0,0,2.982.333,26.921,26.921,0,0,0,9.264-1.852s4.126-5.038-6.564-6c0,0-6.264-7.094-5.626-10.1a35.036,35.036,0,0,0,.394-3.816c0-.278,0-.556,0-.815l.731.111.131-2.3a1.837,1.837,0,0,0,.431-1.371c0-.945-.863-1.093,0-1.63s.844,0,.844-1.352-.563-.963.713-2.334-.131-3.816-.131-3.816a6.926,6.926,0,0,0,2.794-4.927c-.131-2.853,9.546-21.005,11.534-21.691s2.138-4.242,2.138-4.242,2.719.556,3.563,0a31.5,31.5,0,0,0,3.563-4.779s10.821-27.007,10.971-37.232l.713-2.315s4.126,5.316,3.544,9.132,3.169,6.557,3.169,6.557v11.6a33.646,33.646,0,0,1,.675,6.131c-.131,1.852,1.688,3.816.994,5.464a9.151,9.151,0,0,0,0,4.5s-.15,3.816,0,4.909-.563,13.633,3.151,19.1c0,0,1.557,3.945,0,6.539s1.407,5.187,1.407,5.187-1.875,3,0,5.186a6.554,6.554,0,0,1,1.332,4.835c-.75,2.778-1.294,6.409,0,8.947h0l.338,3.908,10.915-.834v-2.167a41.135,41.135,0,0,0,14.384.889,13.68,13.68,0,0,0,9.527-5.131S188.145,821.607,176.2,824.479Z" transform="translate(-45.114 -581.597)"/>
          <path id="Path_467" data-name="Path 467" class="cls-26" d="M147.152,721.527a13.169,13.169,0,0,1-9.264,5.075,38.193,38.193,0,0,1-13.9-.908v2.186l-10.54.815-.319-3.89h0c-1.219-2.556-.656-6.261.094-9.039a28.916,28.916,0,0,1,1.294-3.853s9.077-7.613,12.1-1.852a9.3,9.3,0,0,0,2.663,3,25.381,25.381,0,0,0,10.54,3.927C151.409,714.062,147.152,721.527,147.152,721.527Z" transform="translate(-10.553 -473.941)"/>
          <path id="Path_468" data-name="Path 468" class="cls-17" d="M116,712.108s0,7.057,5.214,6.928,5.926-2.816,4.276-4.631a21.8,21.8,0,0,1-2.888-4.2Z" transform="translate(-7.42 -471.986)"/>
          <path id="Path_469" data-name="Path 469" class="cls-26" d="M107.853,734.451a25.324,25.324,0,0,1-8.927,1.852,15,15,0,0,1-2.888-.315c-5.495-1.222-10.315-6.8-10.315-6.8l-.956,1.5L73.89,725.8l1.238-2.853v-.5c.506-3.89,3.751-8.354,6.039-11,1.294-1.482,2.307-2.445,2.307-2.445L96.6,710.852v3.7a30.965,30.965,0,0,1-.375,3.816c-.544,2.982,5.495,10.04,5.495,10.04C111.848,729.375,107.853,734.451,107.853,734.451Z" transform="translate(-44.283 -473.009)"/>
          <path id="Path_470" data-name="Path 470" class="cls-21" d="M78.385,705.714a1.311,1.311,0,0,1-.675,0,1.9,1.9,0,0,1,.675,0Z" transform="translate(-40.939 -475.836)"/>
          <path id="Path_471" data-name="Path 471" class="cls-17" d="M93.089,710.964v3.7L77.73,712.242a2.615,2.615,0,0,1,.169-.778A27.064,27.064,0,0,1,80.112,709Z" transform="translate(-40.921 -473.009)"/>
          <path id="Path_472" data-name="Path 472" class="cls-17" d="M128.967,713c-2.325,5.316-16.147,4.057-16.147,4.057a6.036,6.036,0,0,0,.094-1.3,28.908,28.908,0,0,1,1.294-3.853s9.077-7.613,12.1-1.852A9.3,9.3,0,0,0,128.967,713Z" transform="translate(-10.204 -473.949)"/>
          <path id="Path_473" data-name="Path 473" class="cls-21" d="M159.883,761.747c-1.369,6.094-16.372,4.742-16.372,4.742a6.863,6.863,0,0,0-1.238-5.15c-1.875-2.186,0-5.168,0-5.168S139.385,753.6,140.9,751s0-6.52,0-6.52c-3.563-5.427-2.888-17.93-3.038-19s0-4.89,0-4.89a9.334,9.334,0,0,1,0-4.483c.675-1.63-1.088-3.538-.938-5.427a35.2,35.2,0,0,0-.581-6.057v-11.54a7.723,7.723,0,0,1-3.038-6.52c.544-3.816-3.451-9.095-3.451-9.095l-.675,2.3c-.15,10.188-10.6,37.046-10.6,37.046a31.941,31.941,0,0,1-3.432,4.742c-.825.556-3.432,0-3.432,0s-.15,3.538-2.063,4.2-11.252,18.745-11.14,21.6a6.978,6.978,0,0,1-2.757,5.038s1.369,2.445.131,3.8-.675.945-.675,2.315,0,.815-.825,1.352,0,.685,0,1.63a1.946,1.946,0,0,1-.413,1.352l-.131,2.278L77.76,762.58s1.088-4.631,1.5-6.8c.244-1.278-.319-1.612-.825-1.686.45-.167.919-.667.694-2.112-.413-2.593,2.476-5.3,2.476-5.3A64.694,64.694,0,0,1,96.87,712.864c0-.815,2.738-3.131,2.738-3.131s.281-3.7,2.626-4.075,0-3.39,0-3.39a44.233,44.233,0,0,0,2.738-8.28c.15-2.167.919-12.355.919-12.355a8,8,0,0,0,.506-4.612c-.638-1.852,0-2.315,0-2.315s.788-4.075,0-5.557a6.063,6.063,0,0,1-.469-3.26l.375-5.335.581-7.965s42.759-7.206,47.429-1.371a7,7,0,0,1,1.106,2.39c3.338,10.743,2.194,46.308,2.194,46.308l-2.063,10.318a5.048,5.048,0,0,1,.975,3.519,8.367,8.367,0,0,0,.413,3.945s0,.815-.15,2.982a8.913,8.913,0,0,0,.15,3s.131,18.727.263,22.543a8.664,8.664,0,0,0,1.519,5.3v4.612a6.633,6.633,0,0,1,.544,2.723A6.324,6.324,0,0,0,159.883,761.747Z" transform="translate(-40.895 -524.2)"/>
          <path id="Path_474" data-name="Path 474" class="cls-17" d="M98.926,730.1a15,15,0,0,1-2.888-.315c-5.495-1.222-10.315-6.8-10.315-6.8l-.956,1.5-10.877-4.89,1.238-2.853v-.5L86.38,721.8S95.382,726.113,98.926,730.1Z" transform="translate(-44.283 -466.838)"/>
          <path id="Path_475" data-name="Path 475" class="cls-17" d="M137.555,718.827a38.193,38.193,0,0,1-13.9-.908V720.1l-10.54.815-.319-3.89c3.338,0,8.721.13,11.046,0a51.834,51.834,0,0,1,13.709,1.8Z" transform="translate(-10.221 -466.165)"/>
          <path id="Path_476" data-name="Path 476" class="cls-17" d="M81.745,703.816a4.306,4.306,0,0,1,1.613.2,12.769,12.769,0,0,1,1.538,1.093,7.511,7.511,0,0,1,1.031.667c.394.389.563.963.956,1.352.75.723,1.875.574,2.926.908.113,0,.225,0,.244.2a.278.278,0,0,1-.169.259,1.668,1.668,0,0,1-1.594,0,6.138,6.138,0,0,1-1.313-1,8.8,8.8,0,0,0-2.588-1.574c-1.294-.519-3.544-.648-4.37-1.852A3.794,3.794,0,0,1,81.745,703.816Z" transform="translate(-38.917 -477.439)"/>
          <path id="Path_477" data-name="Path 477" class="cls-17" d="M81.077,705.386a4.042,4.042,0,0,1,.825.333l1.407.7a5.248,5.248,0,0,1-2.869-.63,5.977,5.977,0,0,1-.919-.426A4.388,4.388,0,0,1,81.077,705.386Z" transform="translate(-39.354 -476.156)"/>
          <path id="Path_478" data-name="Path 478" class="cls-17" d="M82.541,706.691a3.63,3.63,0,0,1,.9,0,4.5,4.5,0,0,1,1.463.871,5.8,5.8,0,0,0,3.638,1.241,1.614,1.614,0,0,1-.788.13H84.791a3.457,3.457,0,0,1-.975,0,4.8,4.8,0,0,1-1.219-.444c-.506-.222-2.588-.815-2.607-1.5S82.034,706.691,82.541,706.691Z" transform="translate(-38.943 -475.071)"/>
          <path id="Path_479" data-name="Path 479" class="cls-17" d="M117.21,709.482a16.674,16.674,0,0,0,2.719,0,5.335,5.335,0,0,0,2.7-.852c.788-.593.619-1.222-.375-1.26a7.219,7.219,0,0,0-2.719.648,9.091,9.091,0,0,0-1.275.648C118.073,708.852,117.4,709.5,117.21,709.482Z" transform="translate(-6.361 -474.398)"/>
          <path id="Path_480" data-name="Path 480" class="cls-17" d="M120.815,709.31c0,.333-.431.519-.75.63a8.326,8.326,0,0,1-2.419.537c-.206,0-.788,0-.713-.315s.938-.222,1.144-.259a20.046,20.046,0,0,0,2.738-.593Z" transform="translate(-6.609 -472.745)"/>
          <path id="Path_481" data-name="Path 481" class="cls-17" d="M115.919,709.025a5.686,5.686,0,0,1,3.3.648h0a1.148,1.148,0,0,1-1.125.593,4.752,4.752,0,0,1-1.294-.333,7.685,7.685,0,0,0-2.157-.315,5.68,5.68,0,0,1-.975,0c-.975-.167-.656-.537,0-.63a19.719,19.719,0,0,1,2.25.037Z" transform="translate(-10.002 -473.034)"/>
          <path id="Path_482" data-name="Path 482" class="cls-17" d="M96.618,680.914A8.605,8.605,0,0,0,91.93,679.4a6.75,6.75,0,0,1,4.688,1.519Z" transform="translate(-28.491 -498.252)"/>
          <path id="Path_483" data-name="Path 483" class="cls-17" d="M95.133,677.256a6.928,6.928,0,0,1,3.507.982l-1.163-.333a11.632,11.632,0,0,0-2.363-.482H93.745c-.45,0-1.05-.13-1.575-.148C93.089,677.274,94.12,677.219,95.133,677.256Z" transform="translate(-28.281 -500.076)"/>
          <path id="Path_484" data-name="Path 484" class="cls-17" d="M98.285,679.163a.943.943,0,0,1,.938.63,17.561,17.561,0,0,0-3.057-1.111c-.581-.185-2.363-.963-2.776-.426C94.872,678.682,96.578,678.83,98.285,679.163Z" transform="translate(-27.213 -499.372)"/>
          <path id="Path_485" data-name="Path 485" class="cls-17" d="M101.246,673.531a11.57,11.57,0,0,0,4.726-3,3.7,3.7,0,0,1-1.744,3.038,9.449,9.449,0,0,1-3.451,1.278,15.627,15.627,0,0,0-3.544,1.056c-.544.259-2.232,1.852-2.776,1.852s.413-1.167.656-1.352a23.518,23.518,0,0,1,6.133-2.871Z" transform="translate(-26.423 -505.798)"/>
          <path id="Path_486" data-name="Path 486" class="cls-17" d="M119.4,682.018c-.581-.2-7.689,1.148-7.258-.2.281-.833,2.588-.519,3.151-.5a14.682,14.682,0,0,1,4.107.7Z" transform="translate(-10.817 -496.669)"/>
          <path id="Path_487" data-name="Path 487" class="cls-30" d="M126.542,601.134a15.519,15.519,0,0,1-.375,3.388,15.495,15.495,0,1,1,.375-3.388Z" transform="translate(-25.708 -578.16)"/>
          <path id="Path_488" data-name="Path 488" class="cls-31" d="M118.555,598.152s-5.082,14.67-2.194,17.653-20.761,4.76-20.761,4.76,9.883-17.523,8.927-21.876S118.555,598.152,118.555,598.152Z" transform="translate(-25.278 -568.805)"/>
          <path id="Path_489" data-name="Path 489" class="cls-17" d="M142.039,653.623a9.14,9.14,0,0,1,0,1.019c-.281,6.928-12.79,20.913-15.678,18.523s-22.5-6.928-22.5-6.928-2.888-4.483-5.907-4.483a15.661,15.661,0,0,1-4.989-1.26l.581-7.965s42.759-7.206,47.429-1.371a6.993,6.993,0,0,1,1.069,2.464Z" transform="translate(-27.589 -524.251)"/>
          <path id="Path_490" data-name="Path 490" class="cls-32" d="M148.227,690.22c-.131,3.464-3.338,8.706-6.883,12.781s-7.352,6.965-8.8,5.816a13.972,13.972,0,0,0-3.413-1.593c-6.508-2.353-19.129-5.335-19.129-5.335s-2.888-4.483-5.907-4.483-8.814-2.982-8.814-2.982.563-.815,0-3.8-9.377,1.63-9.377,1.63-.413-20.1,2.738-29.878,1.65-22.228,1.65-22.228,2.269-12.3,4.726-22.043c1.482-5.835,3.038-10.743,4.22-11.5,3.169-2.037,19.654,0,19.654,0a65.609,65.609,0,0,1,9.489.815,4.285,4.285,0,0,1,1.988,1.593l.488.685a76.5,76.5,0,0,1,5.495,11.725c2.626,6.242,12.94,32.582,12.94,32.582s-.281,1.852-2.626,9.78S148.509,683.293,148.227,690.22Z" transform="translate(-33.778 -561.053)"/>
          <path id="Path_491" data-name="Path 491" class="cls-30" d="M116.227,655.65l4.932,4.779s4.538,15.467-1.369,14.1-10.84-9.873-10.84-9.873Z" transform="translate(-13.592 -518.48)"/>
          <path id="Path_492" data-name="Path 492" class="cls-17" d="M128.105,652.8c-11.7-.13-14.722-16.3-14.722-16.3s-.825-16.023-2.344-19a30.508,30.508,0,0,1-1.369-9,76.5,76.5,0,0,1,5.495,11.725C117.79,626.458,128.105,652.8,128.105,652.8Z" transform="translate(-12.961 -558.676)"/>
          <path id="Path_493" data-name="Path 493" class="cls-32" d="M128.325,652.137c-11.7-.13-14.722-16.3-14.722-16.3s-.825-16.023-2.344-19a30.51,30.51,0,0,1-1.369-9,76.5,76.5,0,0,1,5.495,11.725C118.01,625.8,128.325,652.137,128.325,652.137Z" transform="translate(-12.769 -559.238)"/>
          <path id="Path_494" data-name="Path 494" class="cls-17" d="M115.93,612.124s-3.432-9.262-9.058,0a46.513,46.513,0,0,0-5.776,20.913l-.975,25.525a15,15,0,0,1,1.725,5.3c0,1.852,3.376,7.409,3.376,7.409s.825,10.725,3.976,12.5l3.038,8.817s.131,5.835,2.194,8.15a6.747,6.747,0,0,1,.975,5.872l12.228-4.223s-1.388.5,0-3.149-.825-8.41-.825-8.41-7.839-16.838-8.814-19.283-2.325-5.3-1.875-8.15.113-33.138.825-37.75S115.93,612.124,115.93,612.124Z" transform="translate(-21.321 -559.087)"/>
          <path id="Path_495" data-name="Path 495" class="cls-26" d="M116.61,611.434s-3.432-9.261-9.077,0a46.806,46.806,0,0,0-5.776,20.913l-.956,25.525a15.258,15.258,0,0,1,1.725,5.3c0,1.852,3.357,7.409,3.357,7.409s.825,10.725,3.995,12.485L112.9,691.9s.15,5.835,2.213,8.15a6.747,6.747,0,0,1,.975,5.872l12.209-4.223s-1.369.5,0-3.168-.863-8.446-.863-8.446-7.82-16.838-8.8-19.283-2.325-5.3-1.875-8.15.113-33.138.806-37.769S116.61,611.434,116.61,611.434Z" transform="translate(-20.726 -559.675)"/>
          <path id="Path_496" data-name="Path 496" class="cls-17" d="M110,652.752a4.827,4.827,0,0,1,1.5.444c.375.185.694.482,1.069.685a2.839,2.839,0,0,0,1.407.371,16.428,16.428,0,0,1-1.65,0,2.636,2.636,0,0,1-1.013-.13,4.172,4.172,0,0,1-.863-.537,5.245,5.245,0,0,0-1.088-.611c-.3-.111-.619-.148-.731-.444A8.593,8.593,0,0,1,110,652.752Z" transform="translate(-13.872 -521.139)"/>
          <path id="Path_497" data-name="Path 497" class="cls-17" d="M112.971,654.692c.525,0,1.031-.111,1.557-.148a13.293,13.293,0,0,1,2.269.111,6.3,6.3,0,0,1-3.582.63,2.088,2.088,0,0,0-1.069,0c-.375.148-1.5,1.408-1.594.3S112.333,654.711,112.971,654.692Z" transform="translate(-12.193 -519.43)"/>
          <path id="Path_498" data-name="Path 498" class="cls-17" d="M109.407,585.865,107.4,584.42a3.136,3.136,0,0,1,.619.278,4.25,4.25,0,0,1,1.125.87l.638.574Z" transform="translate(-14.948 -579.191)"/>
          <path id="Path_499" data-name="Path 499" class="cls-17" d="M126.122,609.019a4.867,4.867,0,0,1-1.688,2.019,3.421,3.421,0,0,1-1.482.556,5.691,5.691,0,0,1-2.213-.222,26.951,26.951,0,0,1-2.7-.871,49.493,49.493,0,0,0-5.307-1.852,8.558,8.558,0,0,0-7.914,1.593c-1.744,1.741-2.157,4.446-3.882,6.187-2.325,2.334-6.114,2.186-9.377,1.723l-.769-.111c1.482-5.835,3.038-10.743,4.22-11.5,3.169-2.037,19.654,0,19.654,0a65.609,65.609,0,0,1,9.489.815,4.28,4.28,0,0,1,1.969,1.667Z" transform="translate(-29.489 -561.112)"/>
          <path id="Path_500" data-name="Path 500" class="cls-17" d="M95.16,601.144a15.464,15.464,0,0,1,9.561-14.305,15.8,15.8,0,0,1,17.051,3.191h0c0,2.686-.544,5.557.225,8.057a19.828,19.828,0,0,0,4.126,6.372,15.7,15.7,0,0,1-30.963-3.316Z" transform="translate(-25.663 -578.17)"/>
          <path id="Path_501" data-name="Path 501" class="cls-21" d="M128.261,587.214a19.731,19.731,0,0,0-22.73-2.519,11.614,11.614,0,0,0-4.088,3.7c-2.157,3.39-1.613,7.78-2.738,11.614s-3.619,6.705-5.739,9.91-3.882,7-3.076,10.743c.581,2.723,2.476,5.168,2.438,7.946a6.19,6.19,0,0,1-6.039,5.853,20.486,20.486,0,0,0,9.189,2.927c3.282.463,7.07.611,9.377-1.723,1.725-1.741,2.138-4.446,3.882-6.187a8.558,8.558,0,0,1,7.914-1.593c2.738.63,5.27,1.852,8.008,2.649a5.691,5.691,0,0,0,2.213.222c2.344-.315,3.751-2.89,3.9-5.224.15-1.852-.131-4.168,1.257-5.557a11.027,11.027,0,0,1,1.707-1.167,6.968,6.968,0,0,0,3.019-6.65c-.656-4.594-5.626-7.409-7.014-11.929-.769-2.593-.188-5.372-.225-8.057s-1.088-5.779-3.657-6.687" transform="translate(-33.428 -581.078)"/>
          <path id="Path_502" data-name="Path 502" class="cls-17" d="M136.627,610.739c-.638-4.594-5.626-7.409-7.014-11.929-.769-2.593-.169-5.372-.225-8.057a8.651,8.651,0,0,0-1.65-5.242l.394.278c-.206-.2-.431-.389-.656-.574a5.241,5.241,0,0,0-1.069-.852l-.713-.482.375.352-.394-.278a8.614,8.614,0,0,1,1.65,5.242c0,2.686-.544,5.557.225,8.039,1.332,4.464,6.376,7.409,7.014,11.948a6.986,6.986,0,0,1-3.019,6.65A11.027,11.027,0,0,0,129.838,617c-1.388,1.371-1.106,3.7-1.257,5.557-.188,2.334-1.538,4.909-3.882,5.224a6.074,6.074,0,0,1-2.232-.222c-2.719-.7-5.27-2.019-8.008-2.649a8.521,8.521,0,0,0-7.914,1.593c-1.725,1.723-2.157,4.446-3.882,6.187-2.325,2.315-6.114,2.186-9.377,1.723a29.035,29.035,0,0,1-6.3-1.426,4.124,4.124,0,0,1-.825,0,20.618,20.618,0,0,0,9.189,2.927c3.282.463,7.07.611,9.377-1.723,1.725-1.741,2.157-4.446,3.882-6.187a8.558,8.558,0,0,1,7.914-1.593c2.738.63,5.289,1.852,8.008,2.649a5.691,5.691,0,0,0,2.232.222c2.344-.315,3.751-2.89,3.882-5.224.15-1.852-.131-4.168,1.257-5.557a11.027,11.027,0,0,1,1.707-1.167A6.968,6.968,0,0,0,136.627,610.739Z" transform="translate(-33.542 -579.651)"/>
          <path id="Path_503" data-name="Path 503" class="cls-13" d="M221.538,726.009c3,9.873-37.339,16.263-84.843,14.448-42.59-1.611-75.991-9.354-78.447-17.449s26.574-14.689,68.658-14.819C173.847,708.19,218.537,716.136,221.538,726.009Z" transform="translate(-58.103 -473.699)"/>
        </g>
      </g>
      <g id="Group_76" data-name="Group 76" transform="translate(1575.166 620.586)">
        <g id="blood-donation-svgrepo-com">
          <path id="Path_196" data-name="Path 196" class="cls-4" d="M16.97,81.564a9.877,9.877,0,0,1-6.372-2.02,18.54,18.54,0,0,1-5.185-6.227A35.021,35.021,0,0,1,2.03,63.765a49.74,49.74,0,0,1-.964-11.85A54.009,54.009,0,0,1,3.34,39.695C4.63,35.161,6.348,30.322,8.2,25.633c1.836-4.656,3.8-9.159,5.6-13.079,1.79-3.893,3.425-7.216,4.629-9.56a2.025,2.025,0,0,1,.616-.755,1.007,1.007,0,0,1,.7-.19,1.185,1.185,0,0,1,.683.358,2.556,2.556,0,0,1,.553.892C22,5.881,23.35,9.483,24.794,13.621c1.433,4.109,2.956,8.742,4.33,13.436,1.365,4.662,2.587,9.39,3.436,13.746a53.5,53.5,0,0,1,1.214,11.524A50.854,50.854,0,0,1,32.184,63.4a38.422,38.422,0,0,1-3.632,9.17,21.975,21.975,0,0,1-5.223,6.391A11.124,11.124,0,0,1,16.97,81.564Z"/>
          <g id="Group_72" data-name="Group 72" transform="translate(6.499 2.047)">
            <path id="Path_197" data-name="Path 197" class="cls-3" d="M.106,9.79c.009-.26.031-.6.078-1.046S.3,7.765.414,7.121s.256-1.394.453-2.26.441-1.848.747-2.955A2.613,2.613,0,0,1,2.668.222a1.085,1.085,0,0,1,1.248.16A2.756,2.756,0,0,1,4.78,1.912a4.98,4.98,0,0,1-.088,2.442c-.267.973-.471,1.8-.628,2.5s-.265,1.257-.341,1.7-.117.76-.14.97-.027.311-.027.315a4.333,4.333,0,0,1-.616,2.273,1.474,1.474,0,0,1-1.209.742,1.413,1.413,0,0,1-1.161-.776A4.166,4.166,0,0,1,.106,9.79Z" transform="translate(0 40.148)"/>
            <path id="Path_198" data-name="Path 198" class="cls-3" d="M4.014,1.251A3.106,3.106,0,0,0,3.77.756a2.147,2.147,0,0,0-.3-.382A1.428,1.428,0,0,0,3.14.118,1.02,1.02,0,0,0,2.777,0L0,79.517H0A11.125,11.125,0,0,0,6.36,76.911a21.975,21.975,0,0,0,5.223-6.391,38.422,38.422,0,0,0,3.632-9.17A50.854,50.854,0,0,0,16.8,50.279,53.458,53.458,0,0,0,15.59,38.764c-.85-4.355-2.071-9.084-3.436-13.748-1.375-4.7-2.9-9.331-4.33-13.441C6.38,7.435,5.028,3.832,4.014,1.251Z" transform="translate(10.47 0)"/>
          </g>
        </g>
      </g>
      <g id="dna-svgrepo-com" transform="translate(773.873 488.853)">
        <path id="Path_161" data-name="Path 161" class="cls-33" d="M35.272,17.1q.511-2.023.956-4.1t.82-4.209q.375-2.133.676-4.322T38.25.037L0,9.372.685,24.754Z" transform="translate(45.493 22.77)"/>
        <path id="Path_162" data-name="Path 162" class="cls-33" d="M0,1.5.713,17.507l39.462-.543Q39.7,14.7,39.161,12.519T38.01,8.245Q37.4,6.151,36.727,4.137T35.322.188Z" transform="translate(51.745 171.035)"/>
        <path id="Path_163" data-name="Path 163" class="cls-33" d="M.692,20.5,15.57,17.978q1.374-2.131,2.7-4.309t2.595-4.42q1.27-2.242,2.473-4.544T25.671.025L0,4.962Z" transform="translate(47.046 62.047)"/>
        <path id="Path_164" data-name="Path 164" class="cls-33" d="M.706,18.192l26.142-1.715q-1.359-2.11-2.788-4.127T21.153,8.408q-1.478-1.925-3.01-3.775t-3.1-3.628L0,2.342Z" transform="translate(50.172 134.862)"/>
        <path id="Path_165" data-name="Path 165" class="cls-34" d="M3.24,1.218q-.451,1.8-.845,3.648T1.667,8.627q-.334,1.91-.606,3.884T.582,16.527l35.284-.486L35.153.033Z" transform="translate(16.592 172.501)"/>
        <path id="Path_166" data-name="Path 166" class="cls-34" d="M24.079.016l-14.3,1.27Q8.5,3.237,7.285,5.217T4.917,9.21q-1.149,2.013-2.229,4.072T.609,17.452l24.176-1.586L24.079.016Z" transform="translate(26.092 137.188)"/>
        <path id="Path_167" data-name="Path 167" class="cls-34" d="M23.761.028,0,4.6q1.149,1.79,2.37,3.508t2.515,3.384q1.294,1.666,2.65,3.278t2.776,3.192l14.143-2.395L23.761.028Z" transform="translate(23.284 66.981)"/>
        <path id="Path_168" data-name="Path 168" class="cls-34" d="M34.959,15.421,34.273.04,0,8.405q.347,1.888.751,3.7t.864,3.55q.46,1.741.975,3.411t1.082,3.279Z" transform="translate(11.219 32.102)"/>
        <path id="Path_169" data-name="Path 169" class="cls-1" d="M8.943,5.7Q8.27,6.588,7.6,7.467T6.257,9.217L4.922,10.954,3.593,12.678l-.8,1.033L2,14.74l-.79,1.026L.429,16.79q2.006,1.929,4,3.881t3.979,3.966q1.984,2.014,3.931,4.086t3.856,4.24q1.569,1.783,3.1,3.628t3.01,3.775q1.483,1.93,2.907,3.941T28,48.435q1.438,2.232,2.793,4.576t2.62,4.825q1.265,2.482,2.425,5.1t2.21,5.388q.733,1.937,1.405,3.949t1.282,4.108q.609,2.1,1.152,4.274T42.9,85.1q.5,2.4.915,4.894t.745,5.1q.329,2.6.567,5.311t.38,5.528l12.636.188A164.118,164.118,0,0,0,56.084,87.2a140.039,140.039,0,0,0-4.115-17.515,126.342,126.342,0,0,0-6.135-16.114,121.733,121.733,0,0,0-8.083-14.734c-2.159-3.362-4.428-6.54-6.774-9.564-2.33-3-4.737-5.853-7.189-8.58-2.434-2.708-4.912-5.294-7.405-7.791C13.907,10.422,11.419,8.033,8.943,5.7Z" transform="translate(49.023 102.903)"/>
        <path id="Path_170" data-name="Path 170" class="cls-1" d="M48.569,85.954q-1.99-1.855-3.937-3.7t-3.821-3.7q-1.874-1.85-3.685-3.727t-3.531-3.792q-1.416-1.575-2.776-3.192t-2.65-3.278q-1.29-1.662-2.515-3.384t-2.37-3.508q-1.243-1.937-2.4-3.968t-2.206-4.162q-1.052-2.131-2-4.38t-1.788-4.625q-.567-1.607-1.082-3.279t-.975-3.411q-.46-1.739-.864-3.55t-.751-3.7q-.356-1.939-.65-3.964T10.047,18.5q-.228-2.114-.39-4.323T9.4,9.657L0,12.206A146.291,146.291,0,0,0,1.373,27.636,117.39,117.39,0,0,0,4.306,41.83,101.557,101.557,0,0,0,8.873,54.965a96.554,96.554,0,0,0,6.3,12.245c1.736,2.853,3.586,5.569,5.525,8.176,1.952,2.623,4,5.138,6.11,7.573,2.128,2.451,4.326,4.822,6.571,7.142,2.261,2.336,4.568,4.621,6.9,6.883q.641-.862,1.284-1.722t1.289-1.72l1.293-1.719,1.3-1.719.781-1.036.781-1.037.781-1.038Z" transform="translate(0 13.906)"/>
        <path id="Path_171" data-name="Path 171" class="cls-35" d="M26.478,154.639q1-2.114,2.079-4.169t2.229-4.072q1.151-2.017,2.368-3.993t2.5-3.931q1.556-2.377,3.19-4.719t3.341-4.683q1.707-2.341,3.47-4.677t3.577-4.7l.786-1.024.789-1.026.793-1.03.8-1.033,1.328-1.724,1.335-1.736q.67-.872,1.341-1.75t1.345-1.765c2.232-2.936,4.469-5.929,6.68-9,2.224-3.091,4.422-6.261,6.561-9.533,2.151-3.291,4.242-6.684,6.24-10.2,2.008-3.535,3.922-7.192,5.706-10.992a141.469,141.469,0,0,0,6.438-16.219,137.933,137.933,0,0,0,4.359-16.9A142.44,142.44,0,0,0,95.959,18.2a155.369,155.369,0,0,0,.1-18.186L83.965,3.289q.129,2.572.162,5.076T84.1,13.309q-.058,2.439-.205,4.813t-.378,4.685q-.224,2.248-.526,4.438t-.676,4.322q-.374,2.132-.82,4.209t-.956,4.1q-.755,2.989-1.649,5.866t-1.907,5.646q-1.013,2.768-2.141,5.439t-2.351,5.248q-1.128,2.375-2.333,4.681T67.686,71.3q-1.267,2.237-2.595,4.42t-2.7,4.309q-1.666,2.584-3.4,5.109T55.5,90.127q-1.763,2.467-3.56,4.9t-3.6,4.834l-.781,1.04-.781,1.038L46,102.975l-.781,1.036-1.3,1.719-1.293,1.719q-.645.859-1.289,1.72t-1.284,1.722c-2.11,2.838-4.2,5.7-6.242,8.6-2.03,2.885-4.014,5.814-5.923,8.809-1.9,2.979-3.727,6.025-5.456,9.162s-3.346,6.334-4.849,9.661a121.124,121.124,0,0,0-5.331,14.045,122.525,122.525,0,0,0-3.553,14.6,135.3,135.3,0,0,0-1.845,15.379,161.26,161.26,0,0,0-.18,16.38l9.759.145q-.1-2.517-.113-4.936t.052-4.745q.066-2.327.211-4.566t.364-4.4q.207-2.042.479-4.016t.606-3.884q.334-1.911.728-3.762t.845-3.648q.646-2.573,1.4-5.038t1.621-4.844q.864-2.379,1.826-4.673T26.478,154.639Z" transform="translate(0.223)"/>
      </g>
    </g>
  </g>
</svg>
