<svg xmlns="http://www.w3.org/2000/svg" width="24.725" height="24.255" viewBox="0 0 24.725 24.255">
  <defs>
    <style>
      .cls-1 {
        fill: #414141;
      }
    </style>
  </defs>
  <path id="facebookIcon" class="cls-1" d="M12.363,0A12.247,12.247,0,0,0,0,12.127,12.247,12.247,0,0,0,12.363,24.255,12.247,12.247,0,0,0,24.725,12.127,12.247,12.247,0,0,0,12.363,0Zm3.091,8.085H14.063c-.554,0-.67.223-.67.786v1.235h2.06l-.215,2.021H13.393V19.2H10.3V12.127H8.242V10.106H10.3V7.774c0-1.788.959-2.721,3.121-2.721h2.031Z"/>
</svg>
