<svg xmlns="http://www.w3.org/2000/svg" width="23.556" height="23.556" viewBox="0 0 23.556 23.556">
  <defs>
    <style>
      .cls-1 {
        fill: #414141;
      }
    </style>
  </defs>
  <path id="linkdinIcon" class="cls-1" d="M11.778,0A11.778,11.778,0,1,0,23.556,11.778,11.778,11.778,0,0,0,11.778,0ZM9.815,15.7H7.852V9.815H9.815ZM8.833,8.94a1.089,1.089,0,1,1,1.08-1.088A1.084,1.084,0,0,1,8.833,8.94ZM16.685,15.7H14.724V12.9c0-1.846-1.965-1.69-1.965,0V15.7H10.8V9.815h1.963v1.073c.856-1.586,3.926-1.7,3.926,1.519Z"/>
</svg>
