<svg xmlns="http://www.w3.org/2000/svg" width="23.8" height="23.8" viewBox="0 0 23.8 23.8">
  <defs>
    <style>
      .cls-1 {
        fill: #414141;
      }
    </style>
  </defs>
  <path id="twitterIcon" class="cls-1" d="M11.9,0A11.9,11.9,0,1,0,23.8,11.9,11.9,11.9,0,0,0,11.9,0Zm6.015,9.565A8.1,8.1,0,0,1,5.454,16.757a5.73,5.73,0,0,0,4.217-1.179A2.855,2.855,0,0,1,7.009,13.6,2.857,2.857,0,0,0,8.3,13.551a2.852,2.852,0,0,1-2.285-2.829,2.841,2.841,0,0,0,1.29.356,2.853,2.853,0,0,1-.882-3.8,8.085,8.085,0,0,0,5.871,2.976,2.85,2.85,0,0,1,4.854-2.6,5.681,5.681,0,0,0,1.809-.691A2.86,2.86,0,0,1,17.7,8.537a5.682,5.682,0,0,0,1.635-.449A5.717,5.717,0,0,1,17.915,9.565Z"/>
</svg>
