<svg id="blood" xmlns="http://www.w3.org/2000/svg" width="105.329" height="140.303" viewBox="0 0 105.329 140.303">
  <defs>
    <style>
      .cls-1 {
        fill: #ff5e5b;
      }

      .cls-2 {
        fill: #ff423d;
      }
    </style>
  </defs>
  <path id="Path_196" data-name="Path 196" class="cls-1" d="M119.13,140.307c-29.039,0-52.665-23.3-52.665-51.938,0-23.379,34.168-69.033,48.527-86.426a5.385,5.385,0,0,1,8.274,0c14.36,17.393,48.527,63,48.527,86.426C171.794,117.008,148.169,140.307,119.13,140.307Z" transform="translate(-66.465 -0.004)"/>
  <g id="Group_72" data-name="Group 72" transform="translate(16.815)">
    <path id="Path_197" data-name="Path 197" class="cls-2" d="M126.982,277.8c0-1.789.493-5.939,3.792-13.639,2.744-6.4,12.575-2.315,9.829,4.1-2.913,6.8-2.95,9.516-2.95,9.543C137.642,284.851,126.982,284.751,126.982,277.8Z" transform="translate(-126.982 -189.44)"/>
    <path id="Path_198" data-name="Path 198" class="cls-2" d="M260.134,1.939A5.365,5.365,0,0,0,256,0V140.3h0c29.039,0,52.665-23.3,52.665-51.938C308.662,64.986,274.488,19.323,260.134,1.939Z" transform="translate(-220.148 0)"/>
  </g>
</svg>
