<svg xmlns="http://www.w3.org/2000/svg" width="329" height="81" viewBox="0 0 329 81"><g transform="translate(-63 -17)"><g transform="translate(63 25.814)"><g transform="translate(0 0)"><g transform="translate(0 4.173)"><path d="M124.135,176.258l-.47.728a3.269,3.269,0,0,0-.471,1.48,7.7,7.7,0,0,1-.322,1.8,3.144,3.144,0,0,0-.2,1.321c.068.151-.165.272-.524.272-1.158,0-2.132.945-3.222,3.123-1.217,2.433-1.626,2.822-2.159,2.059a1.529,1.529,0,0,0-2.1-.592c-2.21.959-2.609,1.234-3.146,2.173-.619,1.081-1.612,1.933-1.934,1.661a1.5,1.5,0,0,1-.2-.877,1.1,1.1,0,0,0-.318-.874c-.541-.284-2.833,1.053-3.081,1.8-.191.573-.328.643-.985.5-.829-.181-1.412.38-1.2,1.151a2.717,2.717,0,0,1-.35,1.361c-.411.833-.609.967-1.648,1.121a7.708,7.708,0,0,0-3.736,2.144,1.068,1.068,0,0,1-.557.4,8.995,8.995,0,0,0-1.7,1.143,3.789,3.789,0,0,1-3.314,1.143,6,6,0,0,0-4.557,1.7,6.054,6.054,0,0,1-1.056.955c-.5.346-.7.757-.934,1.925-.382,1.917-.9,2.411-2.305,2.184-.878-.142-1.121-.071-1.565.461-.468.56-.542.925-.662,3.314l-.135,2.683,10.129-.162,10.128-.163,2.282-.867a8.52,8.52,0,0,1,2.469-.709c.1.087.677-.173,1.275-.579a11.4,11.4,0,0,1,3.914-1.6.856.856,0,0,0,.584-.344c.167-.228.9-.32,2.187-.276,3.643.124,17,.908,18.324,1.076,1.255.158,1.319.2,1.205.823-.2,1.089.332,1.427,1.242.788l.77-.539,1,1.451a4.7,4.7,0,0,1,1.106,2.843,3.868,3.868,0,0,0,.358,1.6c.137.115,4.071.3,8.742.42s8.708.321,8.971.458,4.179,4.473,8.7,9.638,8.481,9.621,8.8,9.9c.544.487.642.489,1.88.039,2.278-.828,6.56-.562,7.3.455.52.709.82.574,1.243-.563a10.982,10.982,0,0,1,.551-1.269,5.241,5.241,0,0,0,.367-1.36,11.076,11.076,0,0,1,.652-2.169,6.586,6.586,0,0,0,.5-1.539c0-.647,2.308-4.007,2.752-4.007a3.079,3.079,0,0,0,1.29-.807,12.532,12.532,0,0,1,2.082-1.463c1.226-.667,1.682-1.176,1.236-1.379a.467.467,0,0,1-.246-.393c0-.155.165-.21.368-.122.416.18,1.263-.4,2.57-1.764.989-1.031,1.246-1.134,1.246-.5,0,.534-.115.541,2.511-.143,2.2-.573,4.6-.759,4.6-.358,0,.118.424.453.941.743s.941.708.941.928c0,.86.56.307,1.36-1.341a18.148,18.148,0,0,1,3.426-4.774c1.371-1.5,1.01-2.112-.448-.759-.565.524-.781.612-.781.319a.647.647,0,0,1,.417-.554c.655-.234.739-.988.181-1.623-.655-.745-1.3-.77-1.129-.044.085.364.006.582-.248.682-.2.08-.56.238-.79.349-.3.147-.34.125-.13-.079s.243-.541.1-1.362c-.24-1.389-.654-1.576-.968-.44-.207.75-.353.886-.954.886s-.684.085-.569.5.087.429-.124.143c-.408-.553-1.055-.427-1.922.378-.535.5-.874.647-1.042.463a5.845,5.845,0,0,0-1.439-.739,2.7,2.7,0,0,1-1.67-1.391l-.479-.926.519.507c2.457,2.4,3.321,2.277,6.249-.887a1.369,1.369,0,0,0,.4-1.3c-.072-.516-.016-.754.179-.754a.277.277,0,0,0,.286-.266c0-.147.179-.344.4-.44,1.043-.452.62-2-.664-2.428-2.359-.789-5.486-2.25-5.315-2.483.053-.072.459.077.9.331a3.185,3.185,0,0,0,1.59.385,1.306,1.306,0,0,1,1.035.27c.479.654,1.638.333,1.236-.342a6.56,6.56,0,0,1-.4-1.384c-.169-.846-.156-1.071.063-1.071.161,0,.238.21.183.5-.115.6,1.092,2.929,1.521,2.929a1.492,1.492,0,0,0,.763-.584c.294-.374.488-.465.54-.253a.675.675,0,0,1-.206.59c-.233.21-.211.337.119.681.521.543.934.538,1.089-.013.1-.342.186-.363.42-.1.678.769,4.256.089,4.256-.809a.343.343,0,0,1,.3-.372c.165,0,.355-.239.423-.531a9.373,9.373,0,0,1,1.154-1.977c.856-1.2,1.071-1.375,1.276-1.039.385.633.9.48,1.562-.462.512-.73.569-.952.362-1.4-.192-.42-.185-.568.029-.68.182-.1.276-.707.28-1.811a5.885,5.885,0,0,0-1.412-4.239c-.647-.843-.663-.847-.968-.285-.17.314-.446.533-.612.487a.221.221,0,0,0-.3.215.356.356,0,0,1-.392.3c-.595,0-.793.537-.94,2.559-.137,1.883-.55,3.114-.55,1.641,0-.424-.117-.773-.261-.776-.188,0-.18-.074.028-.255.192-.166.244-.5.153-1a2.362,2.362,0,0,1,.177-1.4,2.283,2.283,0,0,0-.145-2.247c-.671-.582-4.346-.049-4.346.631,0,.441-.667.313-1.09-.21-.347-.429-.513-.442-1.481-.116a13.754,13.754,0,0,1-2.44.51c-1.213.127-1.322.1-1.075-.31a1.3,1.3,0,0,0,.153-.883c-.091-.325.03-.433.487-.433a.886.886,0,0,1,.753.319c.252.557,2.328.149,2.886-.567a2.561,2.561,0,0,1,1.253-.8c.419-.093.762-.264.762-.381s.438-.146.973-.064c.7.108.931.058.824-.178-.1-.212.03-.327.356-.327.718,0,1.822-.571,1.822-.942a3.592,3.592,0,0,0-.576-1.175c-.567-.849-.208-.612.692.458a2.923,2.923,0,0,0,1.454.7l1.024.192-.461-.8c-.634-1.1-.582-1.642.056-.579a3.748,3.748,0,0,1,.522,1.5c.01.8.706,1.786,1.263,1.786.619,0,.528-.56-.628-3.857a21.347,21.347,0,0,1-1.046-3.707c0-.734-.284-.964-.527-.427-.13.288-1.356-1.557-1.356-2.04,0-.369.581.025.709.481.172.613,1.378.533,1.4-.093.027-.652,1,3.307,1.015,4.126a5.314,5.314,0,0,0,.415,1.572,13.305,13.305,0,0,1,.658,2.374,8.571,8.571,0,0,0,.484,1.83,1.748,1.748,0,0,1,.166.929.746.746,0,0,0,.446.793,3.206,3.206,0,0,1,.984,1.214l.472.949-.561-.786c-.586-.82-1.59-1.074-1.59-.4a1.836,1.836,0,0,0,.413.9,3.147,3.147,0,0,1,.537,1.044c.133.571,1.142.771,1.142.226,0-.719,1.093,1.548,1.482,3.074.448,1.759.434,3.679-.054,7.278l-.219,1.616-1.147.6a7.324,7.324,0,0,1-1.345.6c-.306,0-1.111,1.113-.957,1.323.075.1.68-.013,1.345-.256s1.465-.519,1.778-.615c.781-.238.915-.691,1.418-4.813.416-3.406.421-3.688.1-5.4a7.719,7.719,0,0,0-.6-2.094,6.122,6.122,0,0,1-.633-1.571,38.121,38.121,0,0,0-1.377-3.572,37.594,37.594,0,0,1-2.941-8.943c-.319-1.625-.627-3.018-.683-3.1s-19.107-.328-42.333-.556-44.207-.517-46.623-.639Zm.418.813c.23-.012,17.036.159,37.345.379s40.386.4,44.614.4c7,0,7.689.045,7.689.473a11.054,11.054,0,0,0,1.655,3.53,13.094,13.094,0,0,1,1.428,3.6c-.053.072-.358-.355-.679-.948a4.684,4.684,0,0,0-1.324-1.778.289.289,0,0,1,.07-.01c.307.02.993,1.273,1.116.624-.82-1.6-1.705-3.154-2.39-4.867-1.345-.935-3.015-.187-4.468-.479-27.916-.373-55.834-.426-83.75-.85-.717.1-1.9-.37-1.993,1.1a16.57,16.57,0,0,0-.509,3.5.666.666,0,0,0-.165-.311c-.131-.111-.092-.481.105-1a5.662,5.662,0,0,0,.32-1.627c.009-1,.388-1.7.935-1.729Zm91.425,1.071a.287.287,0,1,1-.313.286A.3.3,0,0,1,215.979,178.143Zm-93.263,4.273a3.126,3.126,0,0,0-2.324,1.445c-.891.986-1.4,2.648-2.313,3.576a15.835,15.835,0,0,0,1.159-1.96c1.273-2.475,1.864-3.043,3.17-3.046.121,0,.211-.008.308-.015Zm80.814.295c.323-.057.765.36.656.968-.03.172-.072.349-.11.524.141-.7.062-1.231-.244-1.391a.442.442,0,0,0-.569.16.358.358,0,0,1,.268-.26Zm11.548.22a1.852,1.852,0,0,0,.054.427c.468,2.1.49,2.459.142,2.292a3.1,3.1,0,0,1-.758-.645,10.362,10.362,0,0,0-2.584-2.066c.853.136,1.662,1.184,2.39,1.713.257.18,1.225,1.353,1.023.262.04-.437-.4-1.525-.266-1.983Zm-3.72.069a.228.228,0,0,0-.025.036c0-.009,0-.017,0-.026l.029-.01Zm-8.139.3a.338.338,0,0,0,.089.112c.156.132.085.476-.218,1.057a3.5,3.5,0,0,0-.256.608,12.918,12.918,0,0,1,.388-1.695c0-.03,0-.055,0-.083Zm8.2.119a8.512,8.512,0,0,0,1.053,1.267,5.756,5.756,0,0,1,1.1,1.438c0,.141-.284.341-.631.445-.5.149-.835.005-1.6-.685a3.477,3.477,0,0,0-.9-.648c.952.168,1.888,1.962,2.792.89-.266-1.134-1.454-1.628-1.815-2.707Zm-7.367.874a4.918,4.918,0,0,0-.034,3.234,1.716,1.716,0,0,0,.765,1.092.438.438,0,0,0-.206.009c-.3.106-.449-.17-.724-1.3-.318-1.308-.32-1.513-.023-2.3a5.47,5.47,0,0,0,.222-.736Zm3.538.886c1.134.523,2.325,1.653,3.417,1.9-.087-.592-.842-1.144-.817-1.677a3.409,3.409,0,0,0,.588,1.071l.8,1.122-.851-.409a17.78,17.78,0,0,1-1.927-1.155c-.925-.64-1.191-.812-1.268-.636a1.183,1.183,0,0,1,.055-.213Zm0,.776a3.817,3.817,0,0,0,.794.966c.82.739.844.8.366.884a1.432,1.432,0,0,0-.824.618,2.386,2.386,0,0,1-1.076.8,1.047,1.047,0,0,1-1.327-.228,1.758,1.758,0,0,0-.2-.152,7.277,7.277,0,0,0,1.492.2,5.935,5.935,0,0,0,1.927-1.614,4.066,4.066,0,0,1-1.146-1.475Zm9.876.138c.072.029.183.264.342.719.411,1.179.383,1.278-.139.49a1.793,1.793,0,0,1-.294-1.04c.019-.129.048-.187.092-.17Zm-14.736.085c.007.167.013.331.031.541a10.614,10.614,0,0,0,.471,2.315c.284.751.3,1.032.1,1.483a2.354,2.354,0,0,0-.108.271,7.577,7.577,0,0,0-.265-2.531,6.857,6.857,0,0,1-.226-2.079Zm-87.1.744a.791.791,0,0,1,.718.552.477.477,0,0,0,.089.132c-.447-.33-.872-.753-1.434-.486-1.988.239-3.213,2.577-4.854,3.759-.63.4-1.37-.2-1.2-1.185-.171-1.156-1.239.026-1.651.271-.767.493-1.181,2.149-2.211,1.529-.988-.123-.68,1.882-1.314,2.535a2.435,2.435,0,0,1-.5.557,1.764,1.764,0,0,0,.192-.233,4.767,4.767,0,0,0,.9-2.507c0-.559.076-.6.834-.422s.857.122,1.073-.527a2.81,2.81,0,0,1,1.245-1.31c1.28-.752,1.451-.742,1.451.089,0,1.818,1.286,1.637,2.71-.38a4.517,4.517,0,0,1,2.4-1.965,3.95,3.95,0,0,1,1.561-.408Zm103.886.554c.067,0,.176.179.278.487.279.837.224.952-.155.327a1.19,1.19,0,0,1-.175-.746C219.48,187.5,219.5,187.483,219.52,187.481Zm-16.1.185c.055.018.125.141.176.323.141.5.02.592-.186.136a.543.543,0,0,1-.038-.442.04.04,0,0,1,.048-.017Zm-85.664.05a2.165,2.165,0,0,1-.259.169.9.9,0,0,1-.827-.12,1.433,1.433,0,0,0,1.087-.049Zm102.593,1.716a1.151,1.151,0,0,1,.29.439c.14.307.218.559.174.559-.154,0-.609-.872-.52-.995.012-.017.032-.017.055,0Zm-7.594,1c.109,0,.164,0,.253,0a.8.8,0,0,0-.18.05c-.675,0-1.828-.1-2.063.893l-.008-.037c-.159-.686.321-.9,2-.91Zm.493.009c.619.023.66.138.58.7,0,.021,0,.035,0,.055a.917.917,0,0,0-.576-.757Zm-5.035.3c.174.008.267.112.384.315a1.134,1.134,0,0,0,.425.344,1.994,1.994,0,0,0-1.364-.411,7.855,7.855,0,0,1-4,.462,8.534,8.534,0,0,0,3.687-.451,2.536,2.536,0,0,1,.871-.258Zm-4.969.468a.64.64,0,0,0,.106.125.338.338,0,0,0,.055.035c-.05-.019-.1-.028-.152-.05,0-.036-.006-.074-.01-.11Zm16.567.221.565.755a2,2,0,0,1,.487,1.033c-.043.153-.3-.187-.564-.755Zm-10.715.012a3.08,3.08,0,0,0,.777.266,1.845,1.845,0,0,0,.848.072c0,.014,0,.025,0,.039a1.821,1.821,0,0,1-1.624-.377Zm8.7.3a.672.672,0,0,1,.53.181,4.448,4.448,0,0,1,.765,2.954c.037,1.261-.021,1.542-.338,1.656a.431.431,0,0,0-.239.153.8.8,0,0,1,.341-.508c.32-1.344.188-3.374-.733-4.212-.445-.256-.95.1-.69.761a.475.475,0,0,1-.246.042c.145-.077.193-.288.057-.589C217.139,191.93,217.466,191.75,217.8,191.737Zm-3.923.05a.144.144,0,0,0,.119.071c.182,0,.151.174-.1.548a1.157,1.157,0,0,0-.245.661,1.258,1.258,0,0,1,.172-.854,2.4,2.4,0,0,0,.051-.426Zm2.076.433a1.046,1.046,0,0,1,.614.347c.013.012.026.017.039.028-.438-.17-.856-.3-.976.473-.406,1.349-.162,3.322-.925,4.4a8.531,8.531,0,0,0,.634-3.124c.113-1.479.265-2.109.614-2.12Zm-2.3.909a1.35,1.35,0,0,0,.1.382c.25.639.12.918-.429.918a.508.508,0,0,0-.282.066c.063-.189.232-.309.544-.249a2.128,2.128,0,0,0,.07-1.117Zm-.618,1.728a1.413,1.413,0,0,0,.425.378c.745.464.681,1.194-.1,1.194a.923.923,0,0,0-.293.045c.381-.242.972-.275.539-.9a.969.969,0,0,1-.566-.719Zm-110.292.059c-.969.46-2.134.376-3,1.242-1.656,1.059-3.265,2.615-5.02,3.378l-.08.033c.027-.012.053-.02.08-.033a9.57,9.57,0,0,0,1.268-.83,12.081,12.081,0,0,1,1.74-1.135,2.971,2.971,0,0,0,.84-.695A6.018,6.018,0,0,1,102.153,195a2,2,0,0,0,.6-.084Zm115.738,1.915a2.137,2.137,0,0,0,.142.584,1.147,1.147,0,0,1-.206,1.375c-.251.343-.456.465-.456.273s-.11-.349-.245-.349a1.2,1.2,0,0,1-.616-.458c-.047-.058-.077-.083-.114-.122.575.256,1.259,1.142,1.549.176.016-.478-.111-1.031-.055-1.48Zm-5.581.387a.967.967,0,0,0,.407.232c.316.1.735.234.93.306a.269.269,0,0,0,.225-.018c-.029.027-.055.057-.087.082-.4-.1-1.2-.1-1.474-.6Zm3.806.847a3.039,3.039,0,0,0-.291.764c-.173.566-.408,1.029-.521,1.029a3.093,3.093,0,0,0-.8,1.137c-.324.625-.753,1.139-.955,1.143a.413.413,0,0,0-.366.439c0,.935-2.064,2.023-2.41,1.272a2.04,2.04,0,0,0,2.421-1.586,12.048,12.048,0,0,0,2.824-4.184.363.363,0,0,1,.093-.014ZM94.326,199.7a4.574,4.574,0,0,1-2.135.268,6.7,6.7,0,0,0-5.931,4.7c.037-.155.074-.309.11-.489.2-1.014.433-1.511.823-1.777a5.785,5.785,0,0,0,.96-.86,5.9,5.9,0,0,1,4.454-1.685,5.981,5.981,0,0,0,1.719-.156Zm112.143.03a1.154,1.154,0,0,1,1.163.591c-.019.848-.863.706-1.323.778l.512-.093c.518-.093.792-.291.792-.571,0-.392-.845-.67-1.622-.66a4.455,4.455,0,0,1,.478-.044Zm-1.053.117a1.526,1.526,0,0,0-.261.085,1.111,1.111,0,0,0-.515.378.516.516,0,0,1,.494-.45,2.352,2.352,0,0,0,.281-.013Zm-7.191.267c.064-.018.158.015.289.122a22.349,22.349,0,0,0,5.639,2.082,7.07,7.07,0,0,0,.824.069,12.119,12.119,0,0,0-.335-1.731,1.239,1.239,0,0,0,.124.221,4.5,4.5,0,0,1,.335,1.272c.138.937.126.97-.209.53a.881.881,0,0,0-.739-.362,1.894,1.894,0,0,0-.382.033c-.668.122-3.552-.987-5.312-2.044-.175-.1-.283-.107-.335-.041.014-.08.045-.137.1-.153Zm-.07.572a3.361,3.361,0,0,0,.588.971c.018.022.038.039.057.06-.1-.083-.21-.157-.312-.246a1.8,1.8,0,0,1-.333-.785Zm8.121.418a.553.553,0,0,0-.154.049c.384.6,1.238,2.16,1.79.924.393-1.495,1.078.385,1.7.73a3.135,3.135,0,0,0,1.271.91.639.639,0,0,0-.067.018c-.281.122-.554-.016-.827-.417-.225-.329-.543-.6-.707-.6s-.4-.257-.522-.571c-.284-.726-.636-.734-.773-.016-.167.872-.742.822-1.378-.121l-.583-.863Zm-6.412,1.365a13.233,13.233,0,0,1,2,.913,26.73,26.73,0,0,0,2.823,1.316c2.167.762,2.407.909,2.407,1.474,0,.42-.148.549-.628.549a1.381,1.381,0,0,0-.236.021,2.028,2.028,0,0,0,.73-.552c-.413-1.086-1.7-.917-2.426-1.483-1.525-.794-3.167-1.329-4.665-2.237ZM86.009,205.483a2.159,2.159,0,0,1-.118.252A2.654,2.654,0,0,0,86.009,205.483Zm-.168.348-.016.023Zm-.164.221-.02.023Zm-.153.149c-.806.7-2.106.378-2.978.907-.7.616-.406,2.225-.63,3.2-.049.157-.087.3-.115.43l.062-1.02a8.847,8.847,0,0,1,.425-2.679,2.428,2.428,0,0,1,1.643-.429,2.513,2.513,0,0,0,1.593-.408Zm120.352.693a.149.149,0,0,0-.042.1c0,.15-.33.357-.734.46a1.67,1.67,0,0,0-.65.3,3.324,3.324,0,0,1,1.426-.86Zm-90.747.311c2.807.047,5.625.445,8.431.508,3.46.307,6.971.279,10.4.853l.01.008c-.393-.1-3.537-.349-7.353-.58-4.011-.242-8.893-.545-10.849-.673-.94-.061-1.6-.088-2.162-.1.507-.019,1.015-.026,1.523-.017Zm-3.285.269a7.079,7.079,0,0,1-1.829.809,14.605,14.605,0,0,0-2.406,1,31.929,31.929,0,0,1-3.975,1.531l-3.138,1.035-9.388.078-7.9.065a4.841,4.841,0,0,1,1.131-.044c5.516-.136,11.048-.093,16.554-.339,3.722-1.028,7.293-2.831,10.955-4.132Zm92.442.882a1.207,1.207,0,0,0,1.006.355c.606,0,.606.007.209.618-.749,1.152-2.542,2.53-3.294,2.53-.719,0-2.318-1.259-3.5-2.752-.568-.72-1.006-.865-1.03-.359-.008-.023-.017-.045-.024-.068.087-.82.956.228,1.208.439,1.223,1.185,2.737,3.415,4.358,2.16a10.027,10.027,0,0,0,2.484-2.359c-.265-.059-1.243-.107-1.421-.564Zm-70.043.637c.171.5.214,1.17.713.7.283-.376.534-.472.767-.405l-.565.4c-.837.591-.874.582-.874-.242A2.623,2.623,0,0,0,134.241,208.994Zm1.663.38c.492.326.907,1.316,1.375,1.817a3.482,3.482,0,0,1,.671,1.077,11.522,11.522,0,0,0-.921-1.373Zm62,.028a16.7,16.7,0,0,0,1.984,3.145,3.344,3.344,0,0,0,1.133.6,6.382,6.382,0,0,1,1.381.64,1.41,1.41,0,0,0,.515.251,4.485,4.485,0,0,1-1.695-.662c-1.5-.489-2.628-2.148-3.318-3.974Zm9.731,1.95c.039-.025.08.09.147.329a.849.849,0,0,1-.2.886c-.5.5-.152,1.1.524.913a5.579,5.579,0,0,0,.917-.346c.276-.146.366-.048.366.392,0,.577-.318,1.025-.737,1.04a4.607,4.607,0,0,0-1.046,1.293c-1.3,2.014-1.414,2.072-1.814.951a3.45,3.45,0,0,0-.242-.548,2.108,2.108,0,0,1,.546.954c.629.4,1.362-1.608,2.057-2.134.228-.594,1.38-.8,1.06-1.64-.687-.164-1.783.74-1.957-.646a.6.6,0,0,0-.3-.3c.325.013.458-.139.548-.638a1.37,1.37,0,0,1,.132-.508Zm-125.876.064a.651.651,0,0,0,.593.581l-.629.005Zm124.809,1.062a1.257,1.257,0,0,1,.27.018c-.175.025-.33.211-.436.459-.058-.325-.032-.46.165-.477Zm3.475.094a.15.15,0,0,1,.192.154.3.3,0,0,1-.314.276c-.173,0-.314-.051-.314-.112s.141-.186.314-.276A.392.392,0,0,1,210.043,212.571Zm-5.121.216a1.3,1.3,0,0,1,.494.307q.6.486.849.458s0,.008,0,.012c-.693.063-1.343-1.113-2.018-.238a1.463,1.463,0,0,1-1.25.714c.229,0,.459-.188.945-.627.535-.483.753-.668.981-.625Zm-66.689.306a14.363,14.363,0,0,1,.319,2.216c5.968.309,11.94.477,17.91.716,5.746,6.435,11.336,13.148,17.232,19.321.861,1.072,1.853.091,2.737-.259.039,0,.078,0,.116-.005a3.407,3.407,0,0,0-.31.177c-1.088.7-1.783.889-2.3.61-.231-.124-4.259-4.6-8.952-9.951l-8.532-9.724-1.719-.161c-.945-.089-4.872-.24-8.726-.337s-7.1-.2-7.218-.221c-.367-.079-.516-.586-.52-1.768a4.635,4.635,0,0,0-.036-.615Zm70.8,1.91c.134,0-.09.482-.5,1.071s-1,1.554-1.322,2.143a3.226,3.226,0,0,1-.712,1.037,7.657,7.657,0,0,1-.76-.356c-.575-.3-.617-.407-.5-1.323.071-.55.141-.78.157-.511.049.871,1.694,1.569,1.707.725A7.438,7.438,0,0,1,209.03,215Zm-5.166.981c.107-.023.239.169.372.388a.55.55,0,0,0-.395-.226,3.1,3.1,0,0,0-1.013.714,2.53,2.53,0,0,1-1.5.715,8.281,8.281,0,0,0-2.15.539l-.94.355a.945.945,0,0,0,.226-.191c1.794-.742,3.738-.741,5.335-2.254A.112.112,0,0,1,203.864,215.983Zm1.246.117a2.3,2.3,0,0,0-.27.818c-.118.605-.22.826-.232.5a1.92,1.92,0,0,0-.18-.736c.19.293.36.452.438-.132.051-.263.138-.4.243-.449Zm-1.4.657a.2.2,0,0,1,.062.018,1.5,1.5,0,0,1,.418.889c.2,1.017.065.97-.349-.122-.213-.562-.254-.795-.131-.785Zm-6.693.32c.564-.018.586,1.507,1.089,1.443l-.35.133-.236-.853c-.274-.992-.778-.937-.784.085,0,.379-.1.689-.217.689a3.229,3.229,0,0,0-.938.945c-.927,1.208-1.758,1.813-2.184,1.59-.3-.159-.3-.229.028-.727a2.446,2.446,0,0,0,.183-.311,4.222,4.222,0,0,1-.079.78c.561.492,1.235-.75,1.706-1.11a7.666,7.666,0,0,0,1.635-2.628.4.4,0,0,1,.146-.036Zm-5.023.09a1.271,1.271,0,0,1,.883.447,4.36,4.36,0,0,0-.479-.19c-.322-.111-.467-.119-.53.03a.848.848,0,0,1,.126-.287Zm-.157.458c0,.027,0,.056-.007.087C191.832,217.681,191.835,217.652,191.838,217.623Zm1.195.181a3.423,3.423,0,0,1,.52,1.421c-.045-.133-.091-.263-.162-.453-.193-.509-.317-.849-.358-.969Zm-1.2.118c0,.032.007.064.013.1C191.845,217.988,191.84,217.955,191.837,217.923Zm.029.193a2.385,2.385,0,0,0,.4.853c.491.624.376,1.175-.244,1.175-.581,0-.5.811.117,1.2.288.179.524.415.524.526s-.432.426-.961.7a17.109,17.109,0,0,0-5.125,5.052,10.469,10.469,0,0,0-1.985,4.523l-.261,1.287-.018-1.028c-.022-1.222-.4-2.829-.667-2.829-.023,0-.046.058-.066.152.01-.076.014-.157.025-.231.666.174.466,1.621.782,2.211.6-.221.434-1.593.917-2.093a21.64,21.64,0,0,1,6.975-7.689c.067-.6-.928-.891-.6-1.687.232-.348,1.067-.118.648-.911a4.147,4.147,0,0,1-.459-1.21Zm8.727.064a.22.22,0,0,1,.17.078c.07.095-.054.163-.274.15-.244-.014-.293-.082-.127-.173a.439.439,0,0,1,.231-.055Zm-17.13,13.183c0,.163-.009.317-.009.491,0,2.09-.049,2.353-.576,3.139s-.63.84-1.412.583a10.818,10.818,0,0,0-2.546-.282,4.281,4.281,0,0,1-1.738-.243c1.688-.016,3.395.392,5.039.528,1.113-.953,1.178-2.6,1.24-4.217Zm.108,3.639c.051,0,.092.129.092.286a.26.26,0,0,1-.221.285c-.122,0-.163-.128-.092-.285s.171-.286.221-.286Zm-.338,1.143a.261.261,0,0,1,.221.286c0,.157-.042.285-.093.285s-.15-.128-.221-.285S183.112,236.144,183.234,236.144Z" transform="translate(-81.284 -176.258)" fill="#97b78d" opacity="0.92"/><g transform="translate(80.455 9.655)"><path d="M50.673,9.17c-.026,2.972.054,5.951-.046,8.919-.046.347-.425-.032-.569-.092-2.067-1.338-4.144-2.691-6.205-4.017-1.36,2.55-2.764,5.081-4.059,7.67,2.116,1.669,4.4,3.049,6.5,4.737.258.207-.2.387-.3.5C43.96,28.3,41.862,29.6,39.831,31.015c-.121.221.184.478.218.7,1.117,2.388,2.225,4.794,3.394,7.142.524-.072.967-.548,1.451-.78,1.857-1.118,3.673-2.341,5.57-3.361.145,3.186-.01,6.391.125,9.574,1.239.083,2.492-.062,3.736-.028,1.587-.022,3.189.016,4.766-.023.022-3.167-.052-6.363.061-9.513,2.292,1.245,4.464,2.786,6.749,4.05.253.223.377-.134.47-.352,1.128-2.383,2.271-4.76,3.36-7.167.146-.386-.4-.43-.56-.637-1.98-1.362-4.034-2.585-5.97-4.029-.164-.173.234-.274.3-.393,2.068-1.571,4.251-2.982,6.32-4.513-1.315-2.59-2.716-5.13-4.085-7.677-2.25,1.354-4.409,2.931-6.684,4.225a7.894,7.894,0,0,1-.095-1.683c-.018-2.463.015-4.944-.019-7.4-2.753.011-5.521-.021-8.264.016Zm4.565,3.442a.864.864,0,0,1,.911,1.014c.011,1.063-.012,2.141-.075,3.193a5.026,5.026,0,0,1,.064,1.272c.023,1.149-.121,2.317-.006,3.457a2.834,2.834,0,0,1,1.161,1.217,2.935,2.935,0,0,1-.737,2.846c-.249.423-.817.693-.7,1.289,0,1.245-.04,2.512-.012,3.742.541-.2.773.615.847,1.085.186,1-.615,1.679-.967,2.47.112,1.493-.01,3.023-.048,4.527-.008.372-.084,1.036-.488,1.062-.18-.584-.038-1.279-.192-1.875-.125-.022-.279.266-.354.016a7.862,7.862,0,0,1-.364-3.082,6.814,6.814,0,0,1,.628-1.486c-.08-.778-.058-1.575-.11-2.357-.067-.182-.325-.09-.387-.323a3.851,3.851,0,0,1-.685-2.433c-.084-1.073.675-1.832,1.1-2.675a1.439,1.439,0,0,1-.159-.632,15.276,15.276,0,0,0-.147-2.229,5.854,5.854,0,0,1-1.8-2.747,3.5,3.5,0,0,1,.532-3.636,3.149,3.149,0,0,1,1.113-.852,12.431,12.431,0,0,1,.11-2.442.779.779,0,0,1,.764-.42Z" transform="translate(-39.793 -9.143)" fill="rgba(151,183,141,0.92)" opacity="0.92"/><path d="M53.45,13.8a2.983,2.983,0,0,0-1.957,1.749c-.573,1.28.037,2.73.642,3.825a4.089,4.089,0,0,0,.991,1.266,4,4,0,0,0-.344-2.171,4.619,4.619,0,0,1-.046-3.246c.314-.344.8.02,1.17-.022.2-.021.576.1.658-.178-.043-.13.157-.221,0-.334-.37-.264-.655-.855-1.113-.888Zm.061.268c.111-.057.371.074.158.154-.106.053-.516.143-.406-.111A.473.473,0,0,1,53.511,14.069Z" transform="translate(-38.487 -7.363)" fill="#3f553e" opacity="0.92"/><path d="M54.478,21.336c-.162.016-.271.391-.056.214C54.455,21.514,54.548,21.362,54.478,21.336Z" transform="translate(-38.141 -4.478)" fill="#3f553e" opacity="0.92"/><g transform="translate(14.019 3.602)"><path d="M53.786,14.994a2.706,2.706,0,0,0-.774.087c.062,2.59.14,5.184.316,7.767.137.276.352-.172.445-.287a2.925,2.925,0,0,0,.648-1.962c.051-1.875.122-3.769.093-5.634l-.729.029Z" transform="translate(-52.307 -10.52)" fill="#3a513a" opacity="0.92"/><path d="M54.856,18.31c-.176.868.1,1.912-.427,2.677-.691,1.126-1.7,2.071-2.03,3.45a3.7,3.7,0,0,0,.77,2.647c.156-.141.033-.535.068-.752,0-.8-.207-1.711.292-2.375.729-1.245,1.965-2.122,2.318-3.637a2.168,2.168,0,0,0-.991-2.01Z" transform="translate(-52.379 -9.239)" fill="#3a513a" opacity="0.92"/><path d="M53.586,11.751c-.394.049-.613.533-.552.966-.006.512-.041,1.038-.024,1.541a1.807,1.807,0,0,1,1.27.7c.217.205.13-.326.164-.435a13.05,13.05,0,0,0-.061-2.392.853.853,0,0,0-.8-.385Z" transform="translate(-52.308 -11.75)" fill="#3a513a" opacity="0.92"/><path d="M52.868,14.81a2.171,2.171,0,0,0-.376,1.814,3.164,3.164,0,0,0,.424,1.545c.181-.335.035-.842.076-1.229-.042-.7.006-1.45-.1-2.126a.042.042,0,0,0-.022,0Z" transform="translate(-52.371 -10.579)" fill="#3a513a" opacity="0.92"/><path d="M54.119,22.105a2.258,2.258,0,0,0-.721,1.921,35.521,35.521,0,0,0,.08,3.682c.037.3.253.046.289-.113.606-1.258.374-2.752.432-4.129a7.552,7.552,0,0,0-.069-1.361Z" transform="translate(-52.264 -7.787)" fill="#3a513a" opacity="0.92"/><path d="M54.595,24.77c-.169.163-.035.527-.133.75a4.334,4.334,0,0,1-.994,2.2,3.09,3.09,0,0,0-.532,2.538c.088.259.013.69.214.864a16.462,16.462,0,0,0,.231-1.726c.265-1.2,1.33-1.861,1.661-3.015.035-.539-.01-1.3-.447-1.609Z" transform="translate(-52.325 -6.766)" fill="#3a513a" opacity="0.92"/><path d="M53.994,27.608a2.116,2.116,0,0,0-.488.9c.089,1.257.112,2.526.192,3.78.171.164.251-.294.263-.432a32.356,32.356,0,0,0,.108-4.145c-.009-.042-.027-.109-.075-.1Z" transform="translate(-52.251 -5.68)" fill="#3a513a" opacity="0.92"/></g><g transform="translate(0.138 0)"><path d="M50.659,9.17q0,4.485-.014,8.97c-.5.194-.924-.409-1.359-.6-1.7-1.1-3.417-2.186-5.114-3.3-.141-.152-.34-.263-.418.03-.757,1.253-1.4,2.6-2.117,3.879-.1.4-.412.683-.545,1.075A22.976,22.976,0,0,0,39.925,21.5c.054.363.482.466.681.711.734.625,1.558,1.061,2.3,1.671,1.085.78,2.191,1.514,3.242,2.356.167.042.34.241.171.417-.452.456-1.027.7-1.512,1.1-.323.254-.717.378-1.03.613-.576.5-1.253.824-1.851,1.289a14.951,14.951,0,0,0-1.992,1.38c-.092.285.184.608.246.886.232.558.547,1.032.753,1.607.723,1.577,1.464,3.144,2.236,4.687.153.2.32.729.614.451a18.293,18.293,0,0,1,1.773-.991c.222-.323.654-.4.937-.647,1.289-.8,2.6-1.594,3.9-2.352.176.352.045.852.1,1.25.061,2.731-.025,5.48.138,8.2,2.052.173,4.115.076,6.172.117.755-.008,1.526.027,2.272-.008.028-3.156-.033-6.321.054-9.472.112-.135.359.19.5.2,2.128,1.178,4.151,2.605,6.29,3.752.316.112.389-.468.564-.656.7-1.42,1.337-2.879,2.025-4.308.445-.753.69-1.647,1.135-2.4.092-.511-.462-.606-.717-.835-.695-.427-1.359-.92-2.04-1.371-.491-.253-.942-.629-1.426-.911-.72-.509-1.443-1.025-2.17-1.509-.2-.053-.212-.512.038-.486,1.1-.765,2.163-1.594,3.271-2.341.47-.412,1.025-.684,1.507-1.058a9.06,9.06,0,0,1,1.04-.669c.2-.189.4-.387.6-.565-.427-.633-.7-1.382-1.09-2.044-.15-.42-.477-.724-.616-1.164-.086-.2-.094-.4-.258-.531a10.037,10.037,0,0,1-.778-1.448c-.483-.713-.793-1.578-1.288-2.272-.351-.067-.592.39-.918.481-.454.227-.855.56-1.3.793-.9.693-1.9,1.207-2.812,1.87a10.1,10.1,0,0,0-.957.6c-.293.03-.475.431-.8.335-.021-3,.038-6.013-.054-9.006-2.734-.134-5.477-.049-8.215-.074ZM55.3,12.6c.463-.09.925.468.835,1,.021,2.553-.087,5.114.043,7.662.331.67,1.05,1.077,1.22,1.849A4.3,4.3,0,0,1,56.056,26.3c-.447.238-.15.879-.22,1.32.034.981.009,1.989.086,2.956.552,0,.767.819.767,1.355.1.983-.711,1.577-.907,2.446-.023,1.617-.005,3.25-.167,4.855-.04.235-.206.6-.437.549-.221-.548-.019-1.231-.245-1.766-.131-.023-.311.072-.348-.163a7.3,7.3,0,0,1-.319-2.992c.17-.827.724-1.553.562-2.452A4.712,4.712,0,0,0,54.64,30.9a1.844,1.844,0,0,1-.725-1.134c.015-.122.03-.208-.09-.244a4.389,4.389,0,0,1,.011-2.24,8.543,8.543,0,0,1,.831-1.558c.006-.134.168-.175.05-.335-.32-.886.189-2.063-.478-2.8a5.208,5.208,0,0,1-1.178-1.83,4.336,4.336,0,0,1-.646-2.2,3.7,3.7,0,0,1,.363-1.705c.046-.2.276-.175.3-.4.321-.48.871-.682,1.188-1.148.161-.775-.119-1.678.252-2.384A.9.9,0,0,1,55.3,12.6Z" transform="translate(-39.917 -9.144)" fill="#99b690" opacity="0.92"/><path d="M50.658,9.148c-.027,2.961.057,5.93-.052,8.886-.039.346-.447.165-.566-.028a.815.815,0,0,1-.391-.332c-.241-.058-.327-.409-.589-.472-.223-.08-.326-.55-.6-.409,0,.175.252.273.282.372-1.656-.9-3.216-2.086-4.853-3-1.267,2.071-2.344,4.3-3.5,6.453-.107.316-.4.613-.385.96A13.821,13.821,0,0,0,42.161,23.3c1.366,1.026,2.817,1.908,4.114,3.052.225.159.048.421-.129.5-1.1.843-2.3,1.472-3.411,2.283a26.093,26.093,0,0,0-2.813,2c.7,1.8,1.584,3.509,2.392,5.248a11.943,11.943,0,0,0,1.233,2.254c.307.056.594-.292.884-.393,2.007-1.145,3.938-2.5,5.968-3.57.059.07-.028.218.064.276.114,2.488.033,4.99.139,7.482a10.579,10.579,0,0,0,.112,1.641c2.523.211,5.058.124,7.586.175.441.027.982.144.779-.594.026-2.98-.059-5.966.066-8.942,2.307,1.163,4.459,2.72,6.758,3.907.264.134.368-.377.518-.531a3.43,3.43,0,0,1,.528-.825,9.213,9.213,0,0,1,.637-1.585c.672-1.5,1.443-2.948,2.018-4.495-.211-.467-.743-.581-1.082-.9-1.746-1.207-3.575-2.263-5.251-3.6-.191-.139-.172-.509.085-.531,1.979-1.325,3.857-2.87,5.9-4.059.173.02.1-.244.26-.308.376-.32-.3-.845-.381-1.25-.472-.943-1.01-1.836-1.451-2.8a2.4,2.4,0,0,1-.411-.9c-.311-.236-.454-.743-.686-1.082-.332-.492-.5-1.183-.942-1.556-.368.04-.659.432-1.008.571-1.831,1.125-3.6,2.407-5.453,3.469-.264-.054-.163-.546-.216-.768-.081-2.732,0-5.483-.133-8.206-2.719-.12-5.463-.112-8.175-.12ZM55.3,12.6a.754.754,0,0,1,.839.894c.024,2.511-.053,5.029.071,7.536.13.711.763,1.092,1.063,1.7a2.448,2.448,0,0,1-.047,1.788,5.269,5.269,0,0,1-1.372,1.99c-.005,1.356.012,2.724.1,4.07.639.023.739.931.738,1.507.01.871-.624,1.518-.879,2.268-.077,1.656.018,3.34-.214,4.976-.036.223-.3.646-.478.379-.132-.525.005-1.151-.241-1.625-.416-.017-.409-.623-.507-.975-.081-.181.006-.439-.064-.592-.136-.08-.029-.446-.082-.612,0-.132-.135-.407.065-.234,0-.113-.126-.3-.068-.466.077-1.011.71-1.88.575-2.931-.029-.554,0-1.211-.436-1.569a3.4,3.4,0,0,1-.651-2.308,3.3,3.3,0,0,1,.524-2.016c.211-.39.591-.794.416-1.3-.111-.906.086-2.031-.6-2.689a1.175,1.175,0,0,1-.346-.564c-.2.027-.3-.357-.44-.493a6.429,6.429,0,0,1-.848-2.61,2.72,2.72,0,0,1,.728-2.311c.129.024.042-.212.189-.256.276-.326.66-.54.916-.871a10.26,10.26,0,0,1,.223-2.3c.081-.214.3-.232.439-.317.038-.115.281-.047.382-.073Z" transform="translate(-39.916 -9.144)" fill="#99b690" opacity="0.92"/><path d="M50.65,9.145c-.024,2.9.05,5.8-.042,8.7.035.249-.128.505-.345.36a3.415,3.415,0,0,1-.952-.737c-.047-.2-.41-.017-.514-.235-.42-.339-.946-.5-1.385-.818-1.158-.736-2.294-1.558-3.5-2.175A23.205,23.205,0,0,0,42.457,16.7c-.769,1.567-1.688,3.042-2.388,4.656-.131.393.356.57.537.8.138.152.353.152.42.353,1.329.853,2.587,1.87,3.908,2.747.466.423,1.09.683,1.438,1.257-.039.409-.53.5-.758.738-1.783,1.176-3.581,2.322-5.317,3.592a.478.478,0,0,0-.205.723c.986,2.189,1.979,4.378,3.07,6.5.164.3.459.727.782.413,2.174-1.151,4.208-2.654,6.393-3.765.227.031.1.49.15.666.1,2.841.013,5.693.208,8.527.209.321.664.151.963.226,2.428.014,4.858.183,7.284.075.208-.36.064-.892.122-1.308.034-2.681-.04-5.369.064-8.047.143-.275.647.27.938.348,1.96,1.072,3.83,2.366,5.812,3.378.271.037.447-.372.584-.594.9-1.7,1.644-3.527,2.485-5.275a6.8,6.8,0,0,0,.575-1.631,20.926,20.926,0,0,0-2.049-1.448,48.292,48.292,0,0,1-4.3-3c-.184-.309.141-.5.342-.595,1.79-1.214,3.5-2.6,5.34-3.709.164-.181.54-.113.542-.437a.348.348,0,0,0,.132-.5c-.388-.673-.68-1.412-1.09-2.069-.817-1.627-1.688-3.222-2.568-4.8-.2-.474-.53-.17-.817.017-1.928,1.157-3.751,2.548-5.724,3.6-.126.083-.4.206-.379-.082-.072-2.858,0-5.725-.151-8.581-.057-.335-.5-.129-.693-.21-2.485-.048-4.985-.105-7.461-.112Zm4.6,3.458c.366-.038.9.163.825.708.121,2.53-.01,5.071.152,7.6.051,1.045,1.265,1.42,1.174,2.52a5.1,5.1,0,0,1-1.582,3.19c.057,1.3.023,2.633.151,3.923a.607.607,0,0,1,.5.417,2.819,2.819,0,0,1-.319,2.674c-.557.874-.327,2.043-.418,3.053a11.86,11.86,0,0,1-.25,2.9c-.083.242-.39.3-.416-.018-.146-.475.076-1.154-.3-1.5-.355-.107-.357-.7-.418-1.041a1.449,1.449,0,0,0-.109-.678,3.331,3.331,0,0,1,.012-1.025c-.156-.193.042-.55.161-.733-.2-.189.116-.519.131-.759a3.8,3.8,0,0,0-.185-3.115,3.912,3.912,0,0,1-.582-3.245c.135-.008-.03-.307.085-.4.206-.544.61-1,.779-1.537-.129-1.043.1-2.313-.606-3.136a6.752,6.752,0,0,1-1.452-2.627,4.405,4.405,0,0,1,.029-2.672,7.045,7.045,0,0,1,1.589-1.779,10.582,10.582,0,0,1,.283-2.355.851.851,0,0,1,.764-.358Z" transform="translate(-39.908 -9.145)" fill="#99b690" opacity="0.92"/></g><g transform="translate(12.809 6.432)"><path d="M53.324,13.8a3.538,3.538,0,0,0-1.776,1.628,3.874,3.874,0,0,0,.092,2.957c.158.349.347.71.5,1.046.2.124.222.455.419.614.163.141.317.518.527.5a4.9,4.9,0,0,0-.427-2.442,5.389,5.389,0,0,1-.063-2.527c.059-.567.438-.535.832-.461.347-.052.922.195,1.132-.038.018-.246-.007-.519-.232-.6-.3-.282-.588-.688-1-.679Zm.143.274c.145-.091.349.168.132.207-.1.051-.488.014-.315-.178a.461.461,0,0,1,.184-.028Z" transform="translate(-51.293 -13.797)" fill="#98b690" opacity="0.92"/><path d="M54.851,18.31a10.8,10.8,0,0,1-.3,2.574c-.322.337-.537.825-.863,1.175a7.925,7.925,0,0,0-1.133,1.935,1.564,1.564,0,0,0-.171.739,3.023,3.023,0,0,0,.794,2.184c.138-.824-.031-1.722.08-2.535.607-1.177,1.583-2.029,2.247-3.14a2.986,2.986,0,0,0,.355-1.3,2.383,2.383,0,0,0-1.005-1.637Z" transform="translate(-51.17 -12.069)" fill="#98b690" opacity="0.92"/><path d="M54.637,24.873c-.254.564-.229,1.289-.541,1.846-.172.359-.436.631-.6.973a3.013,3.013,0,0,0-.378,3.039c.193.008.108-.412.159-.548a4.036,4.036,0,0,1,1.032-2.521c.3-.525.855-1.012.715-1.728,0-.375-.033-.905-.384-1.06Z" transform="translate(-51.113 -9.556)" fill="#98b690" opacity="0.92"/></g><path d="M50.65,9.149c-.027,2.973.062,5.952-.069,8.921-.041.177-.368.242-.283.013-.334.063-.65-.292-.907-.512-.129-.339-.5-.086-.673-.372-.094-.049.11-.019-.007-.133a14.706,14.706,0,0,1-2.637-1.518,15.873,15.873,0,0,0-2-1.189c-.372,0-.57.5-.738.794-.123.071-.072.3-.219.374-.456.744-.825,1.583-1.285,2.309-.174.441-.449.846-.64,1.286-.365.721-.753,1.428-1.095,2.163.051.121-.2.2-.031.339.262.382.684.525.964.862.962.663,1.908,1.359,2.865,2.03.649.458,1.3.9,1.924,1.4.169.212.52.374.552.677-.19.433-.644.481-.934.791-1.664,1.093-3.354,2.144-4.959,3.355-.173.2-.668.373-.425.744.049.252.279.462.317.679-.033.137.149.062.093.219a9.1,9.1,0,0,0,.531,1.128c.049.039-.026.2.113.182-.08.256.231.47.275.717.6,1.227,1.149,2.494,1.807,3.677.174.254.429.632.736.385a2.163,2.163,0,0,0,.643-.38c1.008-.461,1.906-1.182,2.887-1.716.246-.1.479-.414.723-.4.03-.218.311-.089.4-.277a9.476,9.476,0,0,1,1.811-.975c.186.229.065.673.118.976.046,2.7-.006,5.413.208,8.105.013.415.5.214.722.288,2.511.094,5.034.171,7.54.082.143-1.716.055-3.458.089-5.184.026-1.385-.029-2.791.068-4.165.3-.14.617.281.908.353,1.864.965,3.58,2.3,5.48,3.165a.432.432,0,0,0,.772-.11c.186-.282.319-.586.487-.877-.033-.146.186-.192.185-.379.432-.96.891-1.909,1.315-2.873.088-.333.325-.515.392-.846a1.8,1.8,0,0,0,.243-.581c.15,0,.02-.254.182-.306.128-.392.319-.776.411-1.191-.028-.338-.419-.374-.592-.593-.249-.2-.58-.349-.818-.5-.182-.225-.48-.3-.686-.5-.286-.079-.488-.4-.779-.513a32.068,32.068,0,0,1-3.293-2.3.373.373,0,0,1,.009-.645c.452-.3.9-.618,1.333-.947,1.442-.959,2.83-2.037,4.3-2.95.2-.191.558-.333.609-.662-.484-.922-.891-1.9-1.436-2.775-.607-1.277-1.344-2.477-1.966-3.744-.262-.174-.263-.746-.6-.75a21.6,21.6,0,0,0-2.555,1.5c-.244.294-.694.377-.9.655-.312.089-.562.409-.878.491-.211.267-.615.356-.826.591-.215-.035-.366.288-.583.329-.268.1-.563.375-.845.315a27.444,27.444,0,0,1-.089-3.037c-.041-1.851.007-3.713-.118-5.558-.07-.474-.617-.245-.891-.325-2.416-.048-4.848-.108-7.255-.114ZM55.272,12.6a.69.69,0,0,1,.809.763c.119,2.538.027,5.088.182,7.621.095.983,1.225,1.354,1.134,2.4a5.034,5.034,0,0,1-1.565,3.235c.055,1.254.042,2.52.124,3.767.174.247.483.357.58.7a3.448,3.448,0,0,1-.529,2.9,9.251,9.251,0,0,0-.263,2.747,11.886,11.886,0,0,1-.255,2.892c-.093.253-.4.237-.412-.065-.137-.526.07-1.226-.422-1.561-.388-.442-.264-1.154-.414-1.714a2.429,2.429,0,0,1,.02-.918.976.976,0,0,1,.128-.754c0-.146-.1-.289.031-.4a5.633,5.633,0,0,0,.273-2.859c-.189-.623-.71-1.008-.853-1.665a5.44,5.44,0,0,1-.071-2.144c.138-.112.01-.38.144-.527.144-.671.8-1.1.7-1.848a5.492,5.492,0,0,0-.443-2.581,6.36,6.36,0,0,1-1.74-4.766,4.368,4.368,0,0,1,1.73-2.475c.235-.792-.033-1.771.42-2.473a.982.982,0,0,1,.694-.27Z" transform="translate(-39.771 -9.144)" fill="#3c543a" opacity="0.92"/><g transform="translate(14.716 3.596)"><path d="M53.849,15c-.245.066-.6-.082-.791.139-.083,1.255.067,2.526.072,3.786.08,1.336.085,2.694.237,4.017a2.133,2.133,0,0,0,.776-1.035,6.185,6.185,0,0,0,.3-2.423c.016-1.5.054-3.013.038-4.5L53.849,15Z" transform="translate(-53.001 -10.508)" fill="#d5e4d2" opacity="0.92"/><path d="M53.722,11.749a.742.742,0,0,0-.672.859,4.662,4.662,0,0,0,.049,1.57,2.629,2.629,0,0,1,.934.525c.1.04.3.427.4.266a15.054,15.054,0,0,0-.065-2.783.61.61,0,0,0-.641-.437Z" transform="translate(-53.005 -11.746)" fill="#d5e4d2" opacity="0.92"/><path d="M54.057,22.212c-.632.392-.676,1.36-.651,2.1a34.2,34.2,0,0,0,.113,3.459c.211.022.294-.386.391-.561a16.192,16.192,0,0,0,.265-4.1c-.048-.275.062-.678-.087-.9a.094.094,0,0,0-.031,0Z" transform="translate(-52.959 -7.739)" fill="#d5e4d2" opacity="0.92"/><path d="M53.926,27.741a1.273,1.273,0,0,0-.377,1.251c.091,1.023.02,2.084.181,3.089.3-.018.215-.564.265-.8a23.269,23.269,0,0,0,0-3.466c-.012-.035-.037-.076-.074-.071Z" transform="translate(-52.946 -5.622)" fill="#d5e4d2" opacity="0.92"/></g></g></g><text transform="translate(152 30.186)" fill="#435b40" font-size="37" font-family="Roboto-Regular, Roboto"><tspan x="0" y="0">CAROLINA</tspan><tspan x="0" y="32">SERVICES</tspan></text></g></g></g></svg>