<svg id="team" xmlns="http://www.w3.org/2000/svg" width="623.72" height="614.164" viewBox="0 0 623.72 614.164">
  <defs>
    <style>
      .cls-1 {
        fill: #f2f2f2;
      }

      .cls-2 {
        fill: #fff;
      }

      .cls-3 {
        fill: #3f3d56;
      }

      .cls-4 {
        fill: #2f2e41;
      }

      .cls-5 {
        fill: #ffb8b8;
      }

      .cls-6 {
        fill: #506150;
      }

      .cls-7 {
        fill: #a0616a;
      }

      .cls-8 {
        fill: #ccc;
      }
    </style>
  </defs>
  <path id="Path_768" data-name="Path 768" class="cls-1" d="M742.3,257.032a555.227,555.227,0,0,1-4.824,71.29c-.11.83-.23,1.66-.34,2.49H514.114c-.659-.82-1.309-1.65-1.938-2.49-2.1-2.78-4.065-5.64-5.873-8.6-8.69-14.26-12.725-30.99-8.84-42.57l.07-.18a20.286,20.286,0,0,1,3.915-6.9c8.95-10.2,27.168-8.61,43.739-.51-14.912-16.16-26.828-36.59-27.827-54.88-.979-17.84,8.27-30.64,18.318-41.53.33-.36.659-.71.989-1.06.16-.18.33-.35.489-.53,7.841-8.3,16.99-16.49,30.3-15.58,14.6,1,30.854,13.15,42.281,27.35s19.057,30.34,26.789,46.1,16.111,31.9,28.467,45.33c-16.75-20.97-30.295-44.86-35.378-68.14s-.849-45.69,13.913-56.75a34.649,34.649,0,0,1,15.153-6.22c.639-.11,1.288-.2,1.947-.28,13.714-1.64,30.125,3.02,44.128,14.3,15.422,12.42,26.169,30.9,31.563,48.47S742.377,240.652,742.3,257.032Z" transform="translate(-288.019 -142.918)"/>
  <path id="Path_769" data-name="Path 769" class="cls-2" d="M596.8,330.812h-4.265q-2.038-1.26-4.1-2.49c-.849-.53-1.708-1.04-2.567-1.56q-21.29-12.855-42.839-24.65-21.53-11.8-43.27-22.51a1.79,1.79,0,0,1-1.039-2.04.516.516,0,0,1,.07-.15c.2-.38.649-.54,1.308-.22,1.778.88,3.566,1.76,5.343,2.66q21.8,10.89,43.419,22.88t42.97,25.04c.3.18.6.37.9.55C594.093,329.152,595.442,329.982,596.8,330.812Z" transform="translate(-288.022 -142.918)"/>
  <path id="Path_770" data-name="Path 770" class="cls-2" d="M651.829,330.812h-2.637c-.6-.83-1.189-1.66-1.788-2.49q-21.125-29.31-42.24-58.62-34.58-47.985-69.139-95.97a1.7,1.7,0,0,1-.3-.58c-.2-.71.32-1.13.989-1.06a2,2,0,0,1,1.4.88q19.387,26.91,38.765,53.8,34.4,47.745,68.79,95.48c1.458,2.02,2.917,4.05,4.375,6.07C650.64,329.152,651.24,329.982,651.829,330.812Z" transform="translate(-288.065 -142.918)"/>
  <path id="Path_771" data-name="Path 771" class="cls-2" d="M710.634,315.152c-.11,4.45-.379,8.83-.739,13.17q-.1,1.245-.21,2.49h-2.767c.08-.83.16-1.66.23-2.49.55-6.27.929-12.61.949-19.12a266.958,266.958,0,0,0-5.543-53.72A334.972,334.972,0,0,0,686,199.732a383.673,383.673,0,0,0-26.878-55.1,1.477,1.477,0,0,1-.25-.98c.11-.79,1.158-1.03,1.947-.28a2.288,2.288,0,0,1,.4.5q1.933,3.285,3.8,6.59a383.431,383.431,0,0,1,25.74,55.3,333.391,333.391,0,0,1,15.452,55.84,263.381,263.381,0,0,1,4.425,53.55Z" transform="translate(-288.209 -142.918)"/>
  <path id="Path_772" data-name="Path 772" class="cls-3" d="M902.775,328.322H296.485a8.723,8.723,0,0,0-8.71,8.72v411.32a8.723,8.723,0,0,0,8.71,8.72h606.29a8.7,8.7,0,0,0,6.623-3.06,2.033,2.033,0,0,0,.19-.24,8.167,8.167,0,0,0,1.248-2.11,8.516,8.516,0,0,0,.659-3.31V337.042A8.724,8.724,0,0,0,902.775,328.322Zm6.233,420.04a6.179,6.179,0,0,1-1.029,3.42,6.442,6.442,0,0,1-2.357,2.12,6.171,6.171,0,0,1-2.847.69H296.485a6.234,6.234,0,0,1-6.223-6.23V337.042a6.234,6.234,0,0,1,6.223-6.23h606.29a6.236,6.236,0,0,1,6.233,6.231Z" transform="translate(-287.775 -142.918)"/>
  <rect id="Rectangle_143" data-name="Rectangle 143" class="cls-3" width="621.23" height="2.493" transform="translate(1.241 220.353)"/>
  <ellipse id="Ellipse_120" data-name="Ellipse 120" class="cls-3" cx="7.47" cy="7.478" rx="7.47" ry="7.478" transform="translate(14.935 196.621)"/>
  <ellipse id="Ellipse_121" data-name="Ellipse 121" class="cls-3" cx="7.47" cy="7.478" rx="7.47" ry="7.478" transform="translate(36.411 196.621)"/>
  <ellipse id="Ellipse_122" data-name="Ellipse 122" class="cls-3" cx="7.47" cy="7.478" rx="7.47" ry="7.478" transform="translate(57.886 196.621)"/>
  <path id="Path_773" data-name="Path 773" class="cls-4" d="M564.741,575.192c-7.471-4.869-11.186-16.183-9.356-26.531s8.724-19.261,16.988-23.1a26.591,26.591,0,0,1,25.2,1.793c7.578,4.639,18.3,7.18,21.895,16.462,2.766,7.133-.742,21.617-4.464,28.546-3.217,5.988-9.33,8.727-15.074,9.917a45.247,45.247,0,0,1-36.626-8.461Z" transform="translate(-288.088 -142.918)"/>
  <path id="Path_774" data-name="Path 774" class="cls-5" d="M273.046,487.234l-5.973,10.31-.789,1.36-1.149,2H247.526l1.189-2,3.076-5.19,7.172-12.12,8.12,3.25Z" transform="translate(-0.29 0)"/>
  <path id="Path_775" data-name="Path 775" class="cls-4" d="M533.977,643.822l-3.216-2-.4-.25,20.186-36.83a13.719,13.719,0,0,1,8.24-6.62,13.543,13.543,0,0,1,6.772-.25,13.324,13.324,0,0,1,3.736,1.4,13.057,13.057,0,0,1,1.388.88,13.343,13.343,0,0,1,4.1,4.62,13.831,13.831,0,0,1-.42,13.95l-7.781,12.45-6.652,10.65-1.249,2h-24.7Z" transform="translate(-288.059 -142.918)"/>
  <ellipse id="Ellipse_123" data-name="Ellipse 123" class="cls-5" cx="24.532" cy="24.561" rx="24.532" ry="24.561" transform="translate(273.249 396.223)"/>
  <path id="Path_776" data-name="Path 776" class="cls-6" d="M610.5,643.822H555.35l.25-.71q-.21-.645-.39-1.29c-.13-.45-.24-.91-.339-1.36a30.229,30.229,0,0,1,.01-12.7c3.047-14.98,15.2-27.15,15.2-27.15.21-.16.419-.31.629-.46a27.744,27.744,0,0,1,5.843-3.28c9.029-3.75,18.5-2.24,24.861-.3a49.579,49.579,0,0,1,6.483,2.47c.739.35,1.139.57,1.139.57l.629,19.21.759,23Z" transform="translate(-288.087 -142.918)"/>
  <path id="Path_777" data-name="Path 777" class="cls-4" d="M636.061,641.822l-4.215-21.46-4.255-21.64a4.516,4.516,0,0,0-3.646-3.57l-8.909-1.54-8.29-1.43a4.509,4.509,0,0,0-5.274,4.39,4.525,4.525,0,0,0,.37,1.79c4.325,10.1,4.4,26.09,3.306,43.46-.05.66-.09,1.33-.14,2H636.46Z" transform="translate(-288.142 -142.918)"/>
  <path id="Path_778" data-name="Path 778" class="cls-4" d="M576.534,596.872a4.52,4.52,0,0,0-7.142-2.48l-3.826,3.48-15.662,14.28a4.344,4.344,0,0,0-1.119,1.59c-1.768,4.23-5.214,12.58-9.219,22.89q-.974,2.52-2.007,5.19c-.24.66-.5,1.33-.759,2h25.81c.21-.67.419-1.34.629-2,1.149-3.63,2.267-7.19,3.346-10.65,3.156-10.05,6-19.18,8.2-26.4q.914-3,1.668-5.54a4.533,4.533,0,0,0,.08-2.36Z" transform="translate(-288.066 -142.918)"/>
  <path id="Path_779" data-name="Path 779" class="cls-5" d="M354.1,500.9h1.668l-.23-.56-.609-1.44-9.4-22.33-1.438.87-11.546,6.99,5.923,14.47.819,2H354.1Z" transform="translate(-0.389 0)"/>
  <path id="Path_780" data-name="Path 780" class="cls-4" d="M632.33,601.782a13.8,13.8,0,0,0-17.29-8.17,12.364,12.364,0,0,0-1.269.5,13.634,13.634,0,0,0-5.813,4.93,13.208,13.208,0,0,0-1.428,2.77,13.757,13.757,0,0,0,.31,10.57l2.887,6.44,10.328,23,.9,2h20.906l1.438-.56,3.736-1.44.519-.2Z" transform="translate(-288.147 -142.918)"/>
  <path id="Path_781" data-name="Path 781" class="cls-4" d="M605.181,535.494a4.056,4.056,0,0,0,4.617-1.754,5.857,5.857,0,0,0,.338-5.143,10.734,10.734,0,0,0-3.191-4.215,12.387,12.387,0,0,0-5.611-2.908,7.445,7.445,0,0,0-6.046,1.331,5.38,5.38,0,0,0-1.824,5.722c.635,1.844,2.356,3.08,4.074,4a27.04,27.04,0,0,0,11.025,3.138Z" transform="translate(-288.132 -142.918)"/>
  <path id="Path_782" data-name="Path 782" class="cls-4" d="M609.92,562.969c-3.944.544-3.438-1.465-5.017-5.124s-3.694-8-7.658-8.373c-3.249-.3-5.925,2.3-8.557,4.227-4.691,3.441-11.013,5.126-16.45,3.061s-9.216-8.553-7.153-14a11.934,11.934,0,0,1,6.9-6.529,23.974,23.974,0,0,1,9.611-1.337,49.542,49.542,0,0,1,20.839,5.341c4.467,2.272,8.816,5.523,10.51,10.244s2.81,11.355-2.036,12.632Z" transform="translate(-288.099 -142.918)"/>
  <path id="Path_783" data-name="Path 783" class="cls-4" d="M603.175,522.509c-1.95-3.4-.34-8.059,2.849-10.329s7.469-2.493,11.275-1.582a22.152,22.152,0,0,1,15.882,15.411c1.615,5.941.655,12.322,2.023,18.326a24.019,24.019,0,0,0,30.187,17.725c4.1-1.2,8.261-4.133,8.664-8.389a23.522,23.522,0,0,1-13.912,23.549c-5.279,2.2-11.167,2.348-16.885,2.2-3.726-.1-7.538-.32-10.975-1.764a19.658,19.658,0,0,1-10.321-11.2,31.163,31.163,0,0,1-1.374-15.435c.562-4.028,1.682-7.977,1.995-12.032s-.281-8.385-2.778-11.594-7.267-4.847-10.818-2.87c-1.427.795-2.578,2.093-4.128,2.605s-3.748-.388-3.607-2.017Z" transform="translate(-288.142 -142.918)"/>
  <path id="Path_784" data-name="Path 784" class="cls-6" d="M770.781,643.822l.19-2,5.634-58.68a35.87,35.87,0,0,1,5.923-3.77c11.6-5.85,22.783-3.05,28.836-.63a31.53,31.53,0,0,1,4.635,2.27l3.3,60.81.11,2Z" transform="translate(-288.34 -142.918)"/>
  <ellipse id="Ellipse_124" data-name="Ellipse 124" class="cls-5" cx="24.532" cy="24.561" rx="24.532" ry="24.561" transform="translate(484.291 375.484)"/>
  <path id="Path_785" data-name="Path 785" class="cls-4" d="M817.062,557.94a13.371,13.371,0,0,0-10.133-22.564c-3.392.114-6.589,1.5-9.826,2.523a32.46,32.46,0,0,1-15.267,1.376,20.381,20.381,0,0,1-13-7.686c-3.035-4.177-3.982-9.969-1.837-14.667,2.475-5.423,8.258-8.412,13.7-10.84a25.014,25.014,0,0,1,6.954-2.288,8.911,8.911,0,0,1,6.918,1.746c1.529,1.316,2.425,3.295,4.088,4.436,1.873,1.284,4.3,1.25,6.563,1.477a25.212,25.212,0,0,1,12.193,45.54Z" transform="translate(-288.334 -142.918)"/>
  <path id="Path_786" data-name="Path 786" class="cls-4" d="M786.142,589.532l-3.655-10.16-.228-.633a2.1,2.1,0,0,0-3.143-1.037l-4.15,2.77s-26.619,0-28.756,15.99c-.03.25-.07.53-.1.83a.156.156,0,0,1-.01.04c-.27,1.05-5.294,20.49-9.609,44.49-.12.66-.24,1.33-.359,2h57.843C795.856,619.713,794.8,597.3,786.142,589.532Z" transform="translate(-288.299 -142.918)"/>
  <path id="Path_787" data-name="Path 787" class="cls-4" d="M855.215,641.822c-3.156-24.62-7.671-44.53-7.671-44.53-.04-.3-.08-.58-.11-.83-2.127-15.99-28.746-15.99-28.746-15.99L814.54,577.7a2.1,2.1,0,0,0-3.144,1.039l-3.885,10.79c-8.66,7.765-9.713,30.181-7.831,54.289h55.785C855.385,643.152,855.295,642.482,855.215,641.822Z" transform="translate(-288.373 -142.918)"/>
  <path id="Path_788" data-name="Path 788" class="cls-6" d="M386.175,585.762l-5.933,56.06-.21,2H363.981c.19-.65.379-1.32.579-2,4.555-15.64,10.757-38.47,10.088-44.52-1.049-9.44,6.293-12.59,6.293-12.59l.459.09Z" transform="translate(-287.864 -142.918)"/>
  <ellipse id="Ellipse_125" data-name="Ellipse 125" class="cls-7" cx="24.532" cy="24.561" rx="24.532" ry="24.561" transform="translate(99.665 376.418)"/>
  <path id="Path_789" data-name="Path 789" class="cls-6" d="M443.83,631.922a40.3,40.3,0,0,0-3.026,7.16c-.29.88-.569,1.8-.829,2.74-.19.65-.359,1.32-.529,2h-64.7c.09-.66.17-1.33.26-2,3.306-26.15,5.983-52.69,6.412-57.02.04-.41.06-.62.06-.62,38.774-20.46,67.071,6.3,67.071,6.3s.04.19.1.56C449.264,594.782,452.42,616.622,443.83,631.922Z" transform="translate(-287.877 -142.918)"/>
  <path id="Path_790" data-name="Path 790" class="cls-6" d="M440.876,639.082l-4.315-9.26,1.049-36.72,11.107-2.06.39-.07a29.435,29.435,0,0,1,12.6,14.72c2.158,5.4,6.263,21.64,9.729,36.13.16.67.319,1.34.479,2H443.083l-.929-2Z" transform="translate(-287.949 -142.918)"/>
  <path id="Path_791" data-name="Path 791" class="cls-3" d="M480.211,478.822H338.358a11.5,11.5,0,0,0-11.477,11.49v142.02a11.5,11.5,0,0,0,11.477,11.49H480.211a11.491,11.491,0,0,0,11.476-11.49V490.312a11.491,11.491,0,0,0-11.476-11.49Zm9.479,153.51a9.492,9.492,0,0,1-9.479,9.49H338.358a9.5,9.5,0,0,1-9.479-9.49V490.312a9.5,9.5,0,0,1,9.479-9.49H480.211a9.492,9.492,0,0,1,9.479,9.49ZM380.2,641.822l-.21,2h59.4c.17-.68.339-1.35.529-2Z" transform="translate(-287.821 -142.918)"/>
  <path id="Path_792" data-name="Path 792" class="cls-3" d="M670.821,478.822H528.967a11.5,11.5,0,0,0-11.477,11.49v142.02a11.5,11.5,0,0,0,11.477,11.49H670.821a11.491,11.491,0,0,0,11.476-11.49V490.312a11.491,11.491,0,0,0-11.476-11.49Zm9.479,153.51a9.492,9.492,0,0,1-9.479,9.49H528.967a9.5,9.5,0,0,1-9.479-9.49V490.312a9.5,9.5,0,0,1,9.479-9.49H670.821a9.492,9.492,0,0,1,9.479,9.49Zm-125.133,9.49q.18.645.39,1.29l-.25.71h49.6c.05-.67.09-1.34.14-2Z" transform="translate(-288.044 -142.918)"/>
  <path id="Path_793" data-name="Path 793" class="cls-3" d="M861.441,478.822H719.588a11.491,11.491,0,0,0-11.477,11.49v142.02a11.491,11.491,0,0,0,11.477,11.49H861.441a11.5,11.5,0,0,0,11.476-11.49V490.312a11.5,11.5,0,0,0-11.476-11.49Zm9.479,153.51a9.5,9.5,0,0,1-9.479,9.49H719.588a9.492,9.492,0,0,1-9.479-9.49V490.312a9.492,9.492,0,0,1,9.479-9.49H861.441a9.5,9.5,0,0,1,9.479,9.49Zm-76.83,9.49c-.05.66-.1,1.33-.15,2H836.98c.08-.66.17-1.33.25-2Z" transform="translate(-288.267 -142.918)"/>
  <path id="Path_794" data-name="Path 794" class="cls-8" d="M764.6,701.822H434.987a8,8,0,0,1,0-16H764.6a8,8,0,0,1,0,16Z" transform="translate(-287.938 -142.918)"/>
  <path id="Path_795" data-name="Path 795" class="cls-6" d="M672.317,436.822H527.487a8,8,0,0,1,0-16h144.83a8,8,0,0,1,0,16Z" transform="translate(-288.046 -142.918)"/>
  <path id="Path_796" data-name="Path 796" class="cls-4" d="M423.815,565.3a4.843,4.843,0,0,0,6.338.407c5.782-4.291,10.858-9.632,13.862-16.147,3.442-7.465,3.826-16.625-.324-23.72-3.508-6-9.7-9.868-15.877-13.046a28.221,28.221,0,0,0-7.665-2.958,10.913,10.913,0,0,0-7.942,1.283,6.871,6.871,0,0,0-3.1,7.091,25.814,25.814,0,0,0-11.02-7.406,14.235,14.235,0,0,0-8.415-.611c-3.918,1.113-6.778,4.6-8.343,8.362a16.742,16.742,0,0,0-1.261,9.125,11.148,11.148,0,0,0,4.865,7.635c3.239,2.006,7.372,1.862,11.092,1.042s7.321-2.246,11.113-2.606,8.015.586,10.323,3.62c1.625,2.137,2.043,4.928,2.407,7.589l1.9,13.839a16.9,16.9,0,0,0,1.508,5.783,3.332,3.332,0,0,0,.538.718Z" transform="translate(-287.883 -142.918)"/>
</svg>
