<svg id="virus" xmlns="http://www.w3.org/2000/svg" width="164.35" height="164.346" viewBox="0 0 164.35 164.346">
  <defs>
    <style>
      .cls-1 {
        fill: #41a814;
      }

      .cls-2 {
        fill: #76cc51;
      }
    </style>
  </defs>
  <g id="Group_66" data-name="Group 66" transform="translate(102.019 35.092)">
    <path id="Path_172" data-name="Path 172" class="cls-1" d="M334.983,343.262,319.622,327.9c-5.472-5.472,2.8-13.765,8.284-8.284l15.361,15.361C348.74,340.45,340.463,348.742,334.983,343.262Z" transform="translate(-317.825 -250.895)"/>
    <path id="Path_173" data-name="Path 173" class="cls-1" d="M379.031,249.467H357.307c-7.741,0-7.749-11.715,0-11.715h21.724C386.772,237.752,386.78,249.467,379.031,249.467Z" transform="translate(-340.689 -196.528)"/>
    <path id="Path_174" data-name="Path 174" class="cls-1" d="M319.618,126.481l15.361-15.36c5.473-5.473,13.763,2.805,8.284,8.284L327.9,134.765C322.429,140.238,314.139,131.96,319.618,126.481Z" transform="translate(-317.821 -109.325)"/>
  </g>
  <g id="Group_67" data-name="Group 67" transform="translate(76.317 18.179)">
    <path id="Path_175" data-name="Path 175" class="cls-1" d="M362.418,383.416h0a14.848,14.848,0,1,1,21,0A14.865,14.865,0,0,1,362.418,383.416Z" transform="translate(-319.452 -261.317)"/>
    <path id="Path_176" data-name="Path 176" class="cls-1" d="M434.335,239.438a14.848,14.848,0,1,1,14.848-14.848A14.865,14.865,0,0,1,434.335,239.438Z" transform="translate(-361.15 -160.597)"/>
    <path id="Path_177" data-name="Path 177" class="cls-1" d="M362.418,86.793a14.848,14.848,0,1,1,21,0h0A14.865,14.865,0,0,1,362.418,86.793Z" transform="translate(-319.452 -59.907)"/>
    <path id="Path_178" data-name="Path 178" class="cls-1" d="M243.609,90.024a5.858,5.858,0,0,1-5.858-5.858V62.443c0-7.74,11.715-7.748,11.715,0V84.167A5.857,5.857,0,0,1,243.609,90.024Z" transform="translate(-237.751 -56.635)"/>
  </g>
  <path id="Path_179" data-name="Path 179" class="cls-2" d="M256,56.481V89.919a5.858,5.858,0,0,0,5.858-5.858V62.339A5.858,5.858,0,0,0,256,56.481Z" transform="translate(-173.825 -38.351)"/>
  <path id="Path_180" data-name="Path 180" class="cls-2" d="M237.751,379.03V357.307c0-7.74,11.715-7.748,11.715,0V379.03C249.467,386.771,237.751,386.779,237.751,379.03Z" transform="translate(-161.434 -238.672)"/>
  <path id="Path_181" data-name="Path 181" class="cls-1" d="M256,351.346v33.438a5.858,5.858,0,0,0,5.858-5.858V357.2A5.858,5.858,0,0,0,256,351.346Z" transform="translate(-173.825 -238.568)"/>
  <g id="Group_68" data-name="Group 68" transform="translate(18.18 35.09)">
    <path id="Path_182" data-name="Path 182" class="cls-2" d="M126.482,134.76,111.121,119.4c-5.472-5.472,2.8-13.764,8.284-8.284l15.361,15.36C140.239,131.949,131.962,140.24,126.482,134.76Z" transform="translate(-92.412 -109.318)"/>
    <path id="Path_183" data-name="Path 183" class="cls-2" d="M84.167,249.467H62.444c-7.741,0-7.749-11.715,0-11.715H84.167C91.907,237.752,91.915,249.467,84.167,249.467Z" transform="translate(-56.635 -196.526)"/>
    <path id="Path_184" data-name="Path 184" class="cls-2" d="M111.069,334.981l15.361-15.361c5.473-5.474,13.763,2.805,8.284,8.284l-15.361,15.36C113.924,348.693,105.52,340.53,111.069,334.981Z" transform="translate(-92.36 -250.896)"/>
  </g>
  <g id="Group_69" data-name="Group 69" transform="translate(67.327)">
    <path id="Path_185" data-name="Path 185" class="cls-2" d="M224.591,29.7A14.848,14.848,0,1,1,239.44,14.848,14.865,14.865,0,0,1,224.591,29.7Z" transform="translate(-209.743)"/>
    <path id="Path_186" data-name="Path 186" class="cls-2" d="M224.591,449.182a14.848,14.848,0,1,1,14.848-14.848A14.865,14.865,0,0,1,224.591,449.182Z" transform="translate(-209.743 -284.836)"/>
  </g>
  <path id="Path_187" data-name="Path 187" class="cls-1" d="M256,419.486v29.7a14.848,14.848,0,1,0,0-29.7Z" transform="translate(-173.825 -284.836)"/>
  <g id="Group_70" data-name="Group 70" transform="translate(0 19.726)">
    <path id="Path_188" data-name="Path 188" class="cls-2" d="M65.773,86.794a14.848,14.848,0,0,1,21-21h0a14.848,14.848,0,0,1-21,21Z" transform="translate(-41.705 -61.454)"/>
    <path id="Path_189" data-name="Path 189" class="cls-2" d="M14.848,239.439A14.848,14.848,0,1,1,29.7,224.591,14.865,14.865,0,0,1,14.848,239.439Z" transform="translate(0 -162.144)"/>
    <path id="Path_190" data-name="Path 190" class="cls-2" d="M65.773,383.416a14.839,14.839,0,0,1,0-21h0a14.848,14.848,0,1,1,0,21Z" transform="translate(-41.705 -262.864)"/>
    <path id="Path_191" data-name="Path 191" class="cls-2" d="M166.478,208.8a42.32,42.32,0,1,1,42.321-42.32A42.369,42.369,0,0,1,166.478,208.8Z" transform="translate(-84.303 -104.03)"/>
  </g>
  <g id="Group_71" data-name="Group 71" transform="translate(63.253)">
    <path id="Path_192" data-name="Path 192" class="cls-1" d="M256,0V29.7A14.848,14.848,0,1,0,256,0Z" transform="translate(-237.078)"/>
    <path id="Path_193" data-name="Path 193" class="cls-1" d="M256,124.156V208.8a42.32,42.32,0,1,0,0-84.641Z" transform="translate(-237.078 -84.303)"/>
    <path id="Path_194" data-name="Path 194" class="cls-1" d="M215.975,234.9A18.921,18.921,0,1,1,234.9,215.974,18.943,18.943,0,0,1,215.975,234.9Z" transform="translate(-197.053 -133.801)"/>
  </g>
  <path id="Path_195" data-name="Path 195" class="cls-2" d="M256,197.053V234.9a18.921,18.921,0,1,0,0-37.842Z" transform="translate(-173.825 -133.801)"/>
</svg>
