<svg id="virus" xmlns="http://www.w3.org/2000/svg" width="207.868" height="164.346" viewBox="0 0 207.868 164.346">
  <defs>
    <style>
      .cls-1 {
        fill: #41a814;
      }

      .cls-2 {
        fill: #76cc51;
      }
    </style>
  </defs>
  <g id="Group_66" data-name="Group 66" transform="translate(129.033 35.092)">
    <path id="Path_172" data-name="Path 172" class="cls-1" d="M339.526,343.262,320.1,327.9c-6.921-5.472,3.546-13.765,10.477-8.284L350,334.978C356.925,340.45,346.456,348.742,339.526,343.262Z" transform="translate(-317.824 -250.895)"/>
    <path id="Path_173" data-name="Path 173" class="cls-1" d="M386.321,249.467H358.845c-9.79,0-9.8-11.715,0-11.715h27.476C396.112,237.752,396.122,249.467,386.321,249.467Z" transform="translate(-337.826 -196.528)"/>
    <path id="Path_174" data-name="Path 174" class="cls-1" d="M320.094,126.481l19.428-15.36c6.922-5.473,17.407,2.805,10.477,8.284l-19.428,15.361C323.649,140.238,313.164,131.96,320.094,126.481Z" transform="translate(-317.821 -109.325)"/>
  </g>
  <g id="Group_67" data-name="Group 67" transform="translate(96.525 18.179)">
    <path id="Path_175" data-name="Path 175" class="cls-1" d="M363.567,383.416h0c-7.322-5.789-7.322-15.209,0-21s19.237-5.789,26.559,0,7.322,15.209,0,21S370.89,389.206,363.567,383.416Z" transform="translate(-309.225 -261.317)"/>
    <path id="Path_176" data-name="Path 176" class="cls-1" d="M438.267,239.438c-10.355,0-18.78-6.66-18.78-14.848s8.424-14.848,18.78-14.848,18.78,6.66,18.78,14.848S448.622,239.438,438.267,239.438Z" transform="translate(-345.704 -160.597)"/>
    <path id="Path_177" data-name="Path 177" class="cls-1" d="M363.567,86.793c-7.322-5.789-7.322-15.209,0-21s19.237-5.79,26.559,0,7.322,15.209,0,21h0C382.8,92.582,370.89,92.583,363.567,86.793Z" transform="translate(-309.225 -59.907)"/>
    <path id="Path_178" data-name="Path 178" class="cls-1" d="M245.16,90.024c-4.092,0-7.409-2.623-7.409-5.858V62.443c0-7.74,14.818-7.748,14.818,0V84.167C252.569,87.4,249.252,90.024,245.16,90.024Z" transform="translate(-237.751 -56.635)"/>
  </g>
  <path id="Path_179" data-name="Path 179" class="cls-2" d="M256,56.481V89.919c4.092,0,7.409-2.623,7.409-5.858V62.339C263.409,59.1,260.092,56.481,256,56.481Z" transform="translate(-152.066 -38.351)"/>
  <path id="Path_180" data-name="Path 180" class="cls-2" d="M237.751,379.03V357.307c0-7.74,14.818-7.748,14.818,0V379.03C252.569,386.771,237.751,386.779,237.751,379.03Z" transform="translate(-141.226 -238.672)"/>
  <path id="Path_181" data-name="Path 181" class="cls-1" d="M256,351.346v33.438c4.092,0,7.409-2.623,7.409-5.858V357.2C263.409,353.968,260.092,351.346,256,351.346Z" transform="translate(-152.066 -238.568)"/>
  <g id="Group_68" data-name="Group 68" transform="translate(22.993 35.09)">
    <path id="Path_182" data-name="Path 182" class="cls-2" d="M131.025,134.76,111.6,119.4c-6.921-5.472,3.546-13.764,10.477-8.284l19.428,15.36C148.424,131.949,137.955,140.24,131.025,134.76Z" transform="translate(-87.934 -109.318)"/>
    <path id="Path_183" data-name="Path 183" class="cls-2" d="M91.457,249.467H63.982c-9.79,0-9.8-11.715,0-11.715H91.457C101.247,237.752,101.257,249.467,91.457,249.467Z" transform="translate(-56.635 -196.526)"/>
    <path id="Path_184" data-name="Path 184" class="cls-2" d="M111.551,334.981l19.428-15.361c6.922-5.474,17.407,2.805,10.477,8.284l-19.428,15.36C115.163,348.693,104.533,340.53,111.551,334.981Z" transform="translate(-87.888 -250.896)"/>
  </g>
  <g id="Group_69" data-name="Group 69" transform="translate(85.154)">
    <path id="Path_185" data-name="Path 185" class="cls-2" d="M228.523,29.7c-10.355,0-18.78-6.661-18.78-14.848S218.167,0,228.523,0,247.3,6.66,247.3,14.848,238.878,29.7,228.523,29.7Z" transform="translate(-209.743)"/>
    <path id="Path_186" data-name="Path 186" class="cls-2" d="M228.523,449.182c-10.355,0-18.78-6.66-18.78-14.848s8.425-14.848,18.78-14.848,18.78,6.661,18.78,14.848S238.878,449.182,228.523,449.182Z" transform="translate(-209.743 -284.836)"/>
  </g>
  <path id="Path_187" data-name="Path 187" class="cls-1" d="M256,419.486v29.7c10.355,0,18.78-6.66,18.78-14.848S266.355,419.486,256,419.486Z" transform="translate(-152.066 -284.836)"/>
  <g id="Group_70" data-name="Group 70" transform="translate(0 19.726)">
    <path id="Path_188" data-name="Path 188" class="cls-2" d="M66.926,86.794c-7.34-5.8-7.34-15.195,0-21,7.322-5.788,19.237-5.789,26.559,0h0c7.322,5.789,7.322,15.209,0,21S74.249,92.583,66.926,86.794Z" transform="translate(-36.484 -61.454)"/>
    <path id="Path_189" data-name="Path 189" class="cls-2" d="M18.78,239.439C8.425,239.439,0,232.778,0,224.591s8.425-14.848,18.78-14.848,18.779,6.66,18.779,14.848S29.135,239.439,18.78,239.439Z" transform="translate(0 -162.144)"/>
    <path id="Path_190" data-name="Path 190" class="cls-2" d="M66.925,383.416c-7.34-5.8-7.341-15.2,0-21h0c7.322-5.789,19.237-5.789,26.559,0s7.322,15.209,0,21S74.248,389.206,66.925,383.416Z" transform="translate(-36.484 -262.864)"/>
    <path id="Path_191" data-name="Path 191" class="cls-2" d="M177.684,208.8c-29.515,0-53.527-18.985-53.527-42.32s24.012-42.32,53.527-42.32,53.527,18.985,53.527,42.32S207.2,208.8,177.684,208.8Z" transform="translate(-73.75 -104.03)"/>
  </g>
  <g id="Group_71" data-name="Group 71" transform="translate(80.002)">
    <path id="Path_192" data-name="Path 192" class="cls-1" d="M256,0V29.7c10.355,0,18.78-6.661,18.78-14.848S266.355,0,256,0Z" transform="translate(-232.068)"/>
    <path id="Path_193" data-name="Path 193" class="cls-1" d="M256,124.156V208.8c29.515,0,53.527-18.985,53.527-42.32S285.515,124.156,256,124.156Z" transform="translate(-232.068 -84.303)"/>
    <path id="Path_194" data-name="Path 194" class="cls-1" d="M220.985,234.9c-13.2,0-23.932-8.488-23.932-18.921s10.736-18.921,23.932-18.921,23.932,8.488,23.932,18.921S234.181,234.9,220.985,234.9Z" transform="translate(-197.053 -133.801)"/>
  </g>
  <path id="Path_195" data-name="Path 195" class="cls-2" d="M256,197.053V234.9c13.2,0,23.932-8.488,23.932-18.921S269.2,197.053,256,197.053Z" transform="translate(-152.066 -133.801)"/>
</svg>
